G04 #@! TF.GenerationSoftware,KiCad,Pcbnew,(5.1.4-6-g300381ba4)-1*
G04 #@! TF.CreationDate,2019-11-22T10:46:46+00:00*
G04 #@! TF.ProjectId,qfn-24-breakout,71666e2d-3234-42d6-9272-65616b6f7574,rev?*
G04 #@! TF.SameCoordinates,Original*
G04 #@! TF.FileFunction,Legend,Top*
G04 #@! TF.FilePolarity,Positive*
%FSLAX46Y46*%
G04 Gerber Fmt 4.6, Leading zero omitted, Abs format (unit mm)*
G04 Created by KiCad (PCBNEW (5.1.4-6-g300381ba4)-1) date 2019-11-22 10:46:46*
%MOMM*%
%LPD*%
G04 APERTURE LIST*
%ADD10C,0.100000*%
%ADD11C,0.150000*%
%ADD12C,0.120000*%
G04 APERTURE END LIST*
D10*
X202158666Y-73343333D02*
X202192000Y-73310000D01*
X202258666Y-73276666D01*
X202425333Y-73276666D01*
X202492000Y-73310000D01*
X202525333Y-73343333D01*
X202558666Y-73410000D01*
X202558666Y-73476666D01*
X202525333Y-73576666D01*
X202125333Y-73976666D01*
X202558666Y-73976666D01*
X203192000Y-73276666D02*
X202858666Y-73276666D01*
X202825333Y-73610000D01*
X202858666Y-73576666D01*
X202925333Y-73543333D01*
X203092000Y-73543333D01*
X203158666Y-73576666D01*
X203192000Y-73610000D01*
X203225333Y-73676666D01*
X203225333Y-73843333D01*
X203192000Y-73910000D01*
X203158666Y-73943333D01*
X203092000Y-73976666D01*
X202925333Y-73976666D01*
X202858666Y-73943333D01*
X202825333Y-73910000D01*
X177266666Y-70295333D02*
X177300000Y-70262000D01*
X177366666Y-70228666D01*
X177533333Y-70228666D01*
X177600000Y-70262000D01*
X177633333Y-70295333D01*
X177666666Y-70362000D01*
X177666666Y-70428666D01*
X177633333Y-70528666D01*
X177233333Y-70928666D01*
X177666666Y-70928666D01*
X178266666Y-70462000D02*
X178266666Y-70928666D01*
X178100000Y-70195333D02*
X177933333Y-70695333D01*
X178366666Y-70695333D01*
X179806666Y-70295333D02*
X179840000Y-70262000D01*
X179906666Y-70228666D01*
X180073333Y-70228666D01*
X180140000Y-70262000D01*
X180173333Y-70295333D01*
X180206666Y-70362000D01*
X180206666Y-70428666D01*
X180173333Y-70528666D01*
X179773333Y-70928666D01*
X180206666Y-70928666D01*
X180440000Y-70228666D02*
X180873333Y-70228666D01*
X180640000Y-70495333D01*
X180740000Y-70495333D01*
X180806666Y-70528666D01*
X180840000Y-70562000D01*
X180873333Y-70628666D01*
X180873333Y-70795333D01*
X180840000Y-70862000D01*
X180806666Y-70895333D01*
X180740000Y-70928666D01*
X180540000Y-70928666D01*
X180473333Y-70895333D01*
X180440000Y-70862000D01*
X182346666Y-70295333D02*
X182380000Y-70262000D01*
X182446666Y-70228666D01*
X182613333Y-70228666D01*
X182680000Y-70262000D01*
X182713333Y-70295333D01*
X182746666Y-70362000D01*
X182746666Y-70428666D01*
X182713333Y-70528666D01*
X182313333Y-70928666D01*
X182746666Y-70928666D01*
X183013333Y-70295333D02*
X183046666Y-70262000D01*
X183113333Y-70228666D01*
X183280000Y-70228666D01*
X183346666Y-70262000D01*
X183380000Y-70295333D01*
X183413333Y-70362000D01*
X183413333Y-70428666D01*
X183380000Y-70528666D01*
X182980000Y-70928666D01*
X183413333Y-70928666D01*
X184886666Y-70295333D02*
X184920000Y-70262000D01*
X184986666Y-70228666D01*
X185153333Y-70228666D01*
X185220000Y-70262000D01*
X185253333Y-70295333D01*
X185286666Y-70362000D01*
X185286666Y-70428666D01*
X185253333Y-70528666D01*
X184853333Y-70928666D01*
X185286666Y-70928666D01*
X185953333Y-70928666D02*
X185553333Y-70928666D01*
X185753333Y-70928666D02*
X185753333Y-70228666D01*
X185686666Y-70328666D01*
X185620000Y-70395333D01*
X185553333Y-70428666D01*
X187426666Y-70295333D02*
X187460000Y-70262000D01*
X187526666Y-70228666D01*
X187693333Y-70228666D01*
X187760000Y-70262000D01*
X187793333Y-70295333D01*
X187826666Y-70362000D01*
X187826666Y-70428666D01*
X187793333Y-70528666D01*
X187393333Y-70928666D01*
X187826666Y-70928666D01*
X188260000Y-70228666D02*
X188326666Y-70228666D01*
X188393333Y-70262000D01*
X188426666Y-70295333D01*
X188460000Y-70362000D01*
X188493333Y-70495333D01*
X188493333Y-70662000D01*
X188460000Y-70795333D01*
X188426666Y-70862000D01*
X188393333Y-70895333D01*
X188326666Y-70928666D01*
X188260000Y-70928666D01*
X188193333Y-70895333D01*
X188160000Y-70862000D01*
X188126666Y-70795333D01*
X188093333Y-70662000D01*
X188093333Y-70495333D01*
X188126666Y-70362000D01*
X188160000Y-70295333D01*
X188193333Y-70262000D01*
X188260000Y-70228666D01*
X190366666Y-70928666D02*
X189966666Y-70928666D01*
X190166666Y-70928666D02*
X190166666Y-70228666D01*
X190100000Y-70328666D01*
X190033333Y-70395333D01*
X189966666Y-70428666D01*
X190700000Y-70928666D02*
X190833333Y-70928666D01*
X190900000Y-70895333D01*
X190933333Y-70862000D01*
X191000000Y-70762000D01*
X191033333Y-70628666D01*
X191033333Y-70362000D01*
X191000000Y-70295333D01*
X190966666Y-70262000D01*
X190900000Y-70228666D01*
X190766666Y-70228666D01*
X190700000Y-70262000D01*
X190666666Y-70295333D01*
X190633333Y-70362000D01*
X190633333Y-70528666D01*
X190666666Y-70595333D01*
X190700000Y-70628666D01*
X190766666Y-70662000D01*
X190900000Y-70662000D01*
X190966666Y-70628666D01*
X191000000Y-70595333D01*
X191033333Y-70528666D01*
X192906666Y-70928666D02*
X192506666Y-70928666D01*
X192706666Y-70928666D02*
X192706666Y-70228666D01*
X192640000Y-70328666D01*
X192573333Y-70395333D01*
X192506666Y-70428666D01*
X193306666Y-70528666D02*
X193240000Y-70495333D01*
X193206666Y-70462000D01*
X193173333Y-70395333D01*
X193173333Y-70362000D01*
X193206666Y-70295333D01*
X193240000Y-70262000D01*
X193306666Y-70228666D01*
X193440000Y-70228666D01*
X193506666Y-70262000D01*
X193540000Y-70295333D01*
X193573333Y-70362000D01*
X193573333Y-70395333D01*
X193540000Y-70462000D01*
X193506666Y-70495333D01*
X193440000Y-70528666D01*
X193306666Y-70528666D01*
X193240000Y-70562000D01*
X193206666Y-70595333D01*
X193173333Y-70662000D01*
X193173333Y-70795333D01*
X193206666Y-70862000D01*
X193240000Y-70895333D01*
X193306666Y-70928666D01*
X193440000Y-70928666D01*
X193506666Y-70895333D01*
X193540000Y-70862000D01*
X193573333Y-70795333D01*
X193573333Y-70662000D01*
X193540000Y-70595333D01*
X193506666Y-70562000D01*
X193440000Y-70528666D01*
X195446666Y-70928666D02*
X195046666Y-70928666D01*
X195246666Y-70928666D02*
X195246666Y-70228666D01*
X195180000Y-70328666D01*
X195113333Y-70395333D01*
X195046666Y-70428666D01*
X195680000Y-70228666D02*
X196146666Y-70228666D01*
X195846666Y-70928666D01*
X197986666Y-70928666D02*
X197586666Y-70928666D01*
X197786666Y-70928666D02*
X197786666Y-70228666D01*
X197720000Y-70328666D01*
X197653333Y-70395333D01*
X197586666Y-70428666D01*
X198586666Y-70228666D02*
X198453333Y-70228666D01*
X198386666Y-70262000D01*
X198353333Y-70295333D01*
X198286666Y-70395333D01*
X198253333Y-70528666D01*
X198253333Y-70795333D01*
X198286666Y-70862000D01*
X198320000Y-70895333D01*
X198386666Y-70928666D01*
X198520000Y-70928666D01*
X198586666Y-70895333D01*
X198620000Y-70862000D01*
X198653333Y-70795333D01*
X198653333Y-70628666D01*
X198620000Y-70562000D01*
X198586666Y-70528666D01*
X198520000Y-70495333D01*
X198386666Y-70495333D01*
X198320000Y-70528666D01*
X198286666Y-70562000D01*
X198253333Y-70628666D01*
X200526666Y-70928666D02*
X200126666Y-70928666D01*
X200326666Y-70928666D02*
X200326666Y-70228666D01*
X200260000Y-70328666D01*
X200193333Y-70395333D01*
X200126666Y-70428666D01*
X201160000Y-70228666D02*
X200826666Y-70228666D01*
X200793333Y-70562000D01*
X200826666Y-70528666D01*
X200893333Y-70495333D01*
X201060000Y-70495333D01*
X201126666Y-70528666D01*
X201160000Y-70562000D01*
X201193333Y-70628666D01*
X201193333Y-70795333D01*
X201160000Y-70862000D01*
X201126666Y-70895333D01*
X201060000Y-70928666D01*
X200893333Y-70928666D01*
X200826666Y-70895333D01*
X200793333Y-70862000D01*
X203066666Y-70928666D02*
X202666666Y-70928666D01*
X202866666Y-70928666D02*
X202866666Y-70228666D01*
X202800000Y-70328666D01*
X202733333Y-70395333D01*
X202666666Y-70428666D01*
X203666666Y-70462000D02*
X203666666Y-70928666D01*
X203500000Y-70195333D02*
X203333333Y-70695333D01*
X203766666Y-70695333D01*
X205606666Y-70928666D02*
X205206666Y-70928666D01*
X205406666Y-70928666D02*
X205406666Y-70228666D01*
X205340000Y-70328666D01*
X205273333Y-70395333D01*
X205206666Y-70428666D01*
X205840000Y-70228666D02*
X206273333Y-70228666D01*
X206040000Y-70495333D01*
X206140000Y-70495333D01*
X206206666Y-70528666D01*
X206240000Y-70562000D01*
X206273333Y-70628666D01*
X206273333Y-70795333D01*
X206240000Y-70862000D01*
X206206666Y-70895333D01*
X206140000Y-70928666D01*
X205940000Y-70928666D01*
X205873333Y-70895333D01*
X205840000Y-70862000D01*
X205606666Y-77024666D02*
X205206666Y-77024666D01*
X205406666Y-77024666D02*
X205406666Y-76324666D01*
X205340000Y-76424666D01*
X205273333Y-76491333D01*
X205206666Y-76524666D01*
X205873333Y-76391333D02*
X205906666Y-76358000D01*
X205973333Y-76324666D01*
X206140000Y-76324666D01*
X206206666Y-76358000D01*
X206240000Y-76391333D01*
X206273333Y-76458000D01*
X206273333Y-76524666D01*
X206240000Y-76624666D01*
X205840000Y-77024666D01*
X206273333Y-77024666D01*
X203066666Y-77024666D02*
X202666666Y-77024666D01*
X202866666Y-77024666D02*
X202866666Y-76324666D01*
X202800000Y-76424666D01*
X202733333Y-76491333D01*
X202666666Y-76524666D01*
X203733333Y-77024666D02*
X203333333Y-77024666D01*
X203533333Y-77024666D02*
X203533333Y-76324666D01*
X203466666Y-76424666D01*
X203400000Y-76491333D01*
X203333333Y-76524666D01*
X200526666Y-77024666D02*
X200126666Y-77024666D01*
X200326666Y-77024666D02*
X200326666Y-76324666D01*
X200260000Y-76424666D01*
X200193333Y-76491333D01*
X200126666Y-76524666D01*
X200960000Y-76324666D02*
X201026666Y-76324666D01*
X201093333Y-76358000D01*
X201126666Y-76391333D01*
X201160000Y-76458000D01*
X201193333Y-76591333D01*
X201193333Y-76758000D01*
X201160000Y-76891333D01*
X201126666Y-76958000D01*
X201093333Y-76991333D01*
X201026666Y-77024666D01*
X200960000Y-77024666D01*
X200893333Y-76991333D01*
X200860000Y-76958000D01*
X200826666Y-76891333D01*
X200793333Y-76758000D01*
X200793333Y-76591333D01*
X200826666Y-76458000D01*
X200860000Y-76391333D01*
X200893333Y-76358000D01*
X200960000Y-76324666D01*
X197986666Y-77024666D02*
X198120000Y-77024666D01*
X198186666Y-76991333D01*
X198220000Y-76958000D01*
X198286666Y-76858000D01*
X198320000Y-76724666D01*
X198320000Y-76458000D01*
X198286666Y-76391333D01*
X198253333Y-76358000D01*
X198186666Y-76324666D01*
X198053333Y-76324666D01*
X197986666Y-76358000D01*
X197953333Y-76391333D01*
X197920000Y-76458000D01*
X197920000Y-76624666D01*
X197953333Y-76691333D01*
X197986666Y-76724666D01*
X198053333Y-76758000D01*
X198186666Y-76758000D01*
X198253333Y-76724666D01*
X198286666Y-76691333D01*
X198320000Y-76624666D01*
X195513333Y-76624666D02*
X195446666Y-76591333D01*
X195413333Y-76558000D01*
X195380000Y-76491333D01*
X195380000Y-76458000D01*
X195413333Y-76391333D01*
X195446666Y-76358000D01*
X195513333Y-76324666D01*
X195646666Y-76324666D01*
X195713333Y-76358000D01*
X195746666Y-76391333D01*
X195780000Y-76458000D01*
X195780000Y-76491333D01*
X195746666Y-76558000D01*
X195713333Y-76591333D01*
X195646666Y-76624666D01*
X195513333Y-76624666D01*
X195446666Y-76658000D01*
X195413333Y-76691333D01*
X195380000Y-76758000D01*
X195380000Y-76891333D01*
X195413333Y-76958000D01*
X195446666Y-76991333D01*
X195513333Y-77024666D01*
X195646666Y-77024666D01*
X195713333Y-76991333D01*
X195746666Y-76958000D01*
X195780000Y-76891333D01*
X195780000Y-76758000D01*
X195746666Y-76691333D01*
X195713333Y-76658000D01*
X195646666Y-76624666D01*
X192806666Y-76324666D02*
X193273333Y-76324666D01*
X192973333Y-77024666D01*
X190633333Y-76070666D02*
X190500000Y-76070666D01*
X190433333Y-76104000D01*
X190400000Y-76137333D01*
X190333333Y-76237333D01*
X190300000Y-76370666D01*
X190300000Y-76637333D01*
X190333333Y-76704000D01*
X190366666Y-76737333D01*
X190433333Y-76770666D01*
X190566666Y-76770666D01*
X190633333Y-76737333D01*
X190666666Y-76704000D01*
X190700000Y-76637333D01*
X190700000Y-76470666D01*
X190666666Y-76404000D01*
X190633333Y-76370666D01*
X190566666Y-76337333D01*
X190433333Y-76337333D01*
X190366666Y-76370666D01*
X190333333Y-76404000D01*
X190300000Y-76470666D01*
X188126666Y-76070666D02*
X187793333Y-76070666D01*
X187760000Y-76404000D01*
X187793333Y-76370666D01*
X187860000Y-76337333D01*
X188026666Y-76337333D01*
X188093333Y-76370666D01*
X188126666Y-76404000D01*
X188160000Y-76470666D01*
X188160000Y-76637333D01*
X188126666Y-76704000D01*
X188093333Y-76737333D01*
X188026666Y-76770666D01*
X187860000Y-76770666D01*
X187793333Y-76737333D01*
X187760000Y-76704000D01*
X185553333Y-76304000D02*
X185553333Y-76770666D01*
X185386666Y-76037333D02*
X185220000Y-76537333D01*
X185653333Y-76537333D01*
X182646666Y-76070666D02*
X183080000Y-76070666D01*
X182846666Y-76337333D01*
X182946666Y-76337333D01*
X183013333Y-76370666D01*
X183046666Y-76404000D01*
X183080000Y-76470666D01*
X183080000Y-76637333D01*
X183046666Y-76704000D01*
X183013333Y-76737333D01*
X182946666Y-76770666D01*
X182746666Y-76770666D01*
X182680000Y-76737333D01*
X182646666Y-76704000D01*
X180140000Y-76137333D02*
X180173333Y-76104000D01*
X180240000Y-76070666D01*
X180406666Y-76070666D01*
X180473333Y-76104000D01*
X180506666Y-76137333D01*
X180540000Y-76204000D01*
X180540000Y-76270666D01*
X180506666Y-76370666D01*
X180106666Y-76770666D01*
X180540000Y-76770666D01*
X178000000Y-76770666D02*
X177600000Y-76770666D01*
X177800000Y-76770666D02*
X177800000Y-76070666D01*
X177733333Y-76170666D01*
X177666666Y-76237333D01*
X177600000Y-76270666D01*
D11*
X180737142Y-73382619D02*
X180641904Y-73335000D01*
X180546666Y-73239761D01*
X180403809Y-73096904D01*
X180308571Y-73049285D01*
X180213333Y-73049285D01*
X180260952Y-73287380D02*
X180165714Y-73239761D01*
X180070476Y-73144523D01*
X180022857Y-72954047D01*
X180022857Y-72620714D01*
X180070476Y-72430238D01*
X180165714Y-72335000D01*
X180260952Y-72287380D01*
X180451428Y-72287380D01*
X180546666Y-72335000D01*
X180641904Y-72430238D01*
X180689523Y-72620714D01*
X180689523Y-72954047D01*
X180641904Y-73144523D01*
X180546666Y-73239761D01*
X180451428Y-73287380D01*
X180260952Y-73287380D01*
X181451428Y-72763571D02*
X181118095Y-72763571D01*
X181118095Y-73287380D02*
X181118095Y-72287380D01*
X181594285Y-72287380D01*
X181975238Y-73287380D02*
X181975238Y-72287380D01*
X182546666Y-73287380D01*
X182546666Y-72287380D01*
X183022857Y-72906428D02*
X183784761Y-72906428D01*
X184213333Y-72382619D02*
X184260952Y-72335000D01*
X184356190Y-72287380D01*
X184594285Y-72287380D01*
X184689523Y-72335000D01*
X184737142Y-72382619D01*
X184784761Y-72477857D01*
X184784761Y-72573095D01*
X184737142Y-72715952D01*
X184165714Y-73287380D01*
X184784761Y-73287380D01*
X185641904Y-72620714D02*
X185641904Y-73287380D01*
X185403809Y-72239761D02*
X185165714Y-72954047D01*
X185784761Y-72954047D01*
X177380000Y-74937380D02*
X177380000Y-73937380D01*
X177380000Y-74318333D02*
X177475238Y-74270714D01*
X177665714Y-74270714D01*
X177760952Y-74318333D01*
X177808571Y-74365952D01*
X177856190Y-74461190D01*
X177856190Y-74746904D01*
X177808571Y-74842142D01*
X177760952Y-74889761D01*
X177665714Y-74937380D01*
X177475238Y-74937380D01*
X177380000Y-74889761D01*
X178284761Y-74937380D02*
X178284761Y-74270714D01*
X178284761Y-74461190D02*
X178332380Y-74365952D01*
X178380000Y-74318333D01*
X178475238Y-74270714D01*
X178570476Y-74270714D01*
X179284761Y-74889761D02*
X179189523Y-74937380D01*
X178999047Y-74937380D01*
X178903809Y-74889761D01*
X178856190Y-74794523D01*
X178856190Y-74413571D01*
X178903809Y-74318333D01*
X178999047Y-74270714D01*
X179189523Y-74270714D01*
X179284761Y-74318333D01*
X179332380Y-74413571D01*
X179332380Y-74508809D01*
X178856190Y-74604047D01*
X180189523Y-74937380D02*
X180189523Y-74413571D01*
X180141904Y-74318333D01*
X180046666Y-74270714D01*
X179856190Y-74270714D01*
X179760952Y-74318333D01*
X180189523Y-74889761D02*
X180094285Y-74937380D01*
X179856190Y-74937380D01*
X179760952Y-74889761D01*
X179713333Y-74794523D01*
X179713333Y-74699285D01*
X179760952Y-74604047D01*
X179856190Y-74556428D01*
X180094285Y-74556428D01*
X180189523Y-74508809D01*
X180665714Y-74937380D02*
X180665714Y-73937380D01*
X180760952Y-74556428D02*
X181046666Y-74937380D01*
X181046666Y-74270714D02*
X180665714Y-74651666D01*
X181618095Y-74937380D02*
X181522857Y-74889761D01*
X181475238Y-74842142D01*
X181427619Y-74746904D01*
X181427619Y-74461190D01*
X181475238Y-74365952D01*
X181522857Y-74318333D01*
X181618095Y-74270714D01*
X181760952Y-74270714D01*
X181856190Y-74318333D01*
X181903809Y-74365952D01*
X181951428Y-74461190D01*
X181951428Y-74746904D01*
X181903809Y-74842142D01*
X181856190Y-74889761D01*
X181760952Y-74937380D01*
X181618095Y-74937380D01*
X182808571Y-74270714D02*
X182808571Y-74937380D01*
X182380000Y-74270714D02*
X182380000Y-74794523D01*
X182427619Y-74889761D01*
X182522857Y-74937380D01*
X182665714Y-74937380D01*
X182760952Y-74889761D01*
X182808571Y-74842142D01*
X183141904Y-74270714D02*
X183522857Y-74270714D01*
X183284761Y-73937380D02*
X183284761Y-74794523D01*
X183332380Y-74889761D01*
X183427619Y-74937380D01*
X183522857Y-74937380D01*
X184618095Y-74937380D02*
X184618095Y-73937380D01*
X184618095Y-74318333D02*
X184713333Y-74270714D01*
X184903809Y-74270714D01*
X184999047Y-74318333D01*
X185046666Y-74365952D01*
X185094285Y-74461190D01*
X185094285Y-74746904D01*
X185046666Y-74842142D01*
X184999047Y-74889761D01*
X184903809Y-74937380D01*
X184713333Y-74937380D01*
X184618095Y-74889761D01*
X185665714Y-74937380D02*
X185570476Y-74889761D01*
X185522857Y-74842142D01*
X185475238Y-74746904D01*
X185475238Y-74461190D01*
X185522857Y-74365952D01*
X185570476Y-74318333D01*
X185665714Y-74270714D01*
X185808571Y-74270714D01*
X185903809Y-74318333D01*
X185951428Y-74365952D01*
X185999047Y-74461190D01*
X185999047Y-74746904D01*
X185951428Y-74842142D01*
X185903809Y-74889761D01*
X185808571Y-74937380D01*
X185665714Y-74937380D01*
X186856190Y-74937380D02*
X186856190Y-74413571D01*
X186808571Y-74318333D01*
X186713333Y-74270714D01*
X186522857Y-74270714D01*
X186427619Y-74318333D01*
X186856190Y-74889761D02*
X186760952Y-74937380D01*
X186522857Y-74937380D01*
X186427619Y-74889761D01*
X186380000Y-74794523D01*
X186380000Y-74699285D01*
X186427619Y-74604047D01*
X186522857Y-74556428D01*
X186760952Y-74556428D01*
X186856190Y-74508809D01*
X187332380Y-74937380D02*
X187332380Y-74270714D01*
X187332380Y-74461190D02*
X187380000Y-74365952D01*
X187427619Y-74318333D01*
X187522857Y-74270714D01*
X187618095Y-74270714D01*
X188380000Y-74937380D02*
X188380000Y-73937380D01*
X188380000Y-74889761D02*
X188284761Y-74937380D01*
X188094285Y-74937380D01*
X187999047Y-74889761D01*
X187951428Y-74842142D01*
X187903809Y-74746904D01*
X187903809Y-74461190D01*
X187951428Y-74365952D01*
X187999047Y-74318333D01*
X188094285Y-74270714D01*
X188284761Y-74270714D01*
X188380000Y-74318333D01*
D12*
X204470000Y-74990000D02*
X207130000Y-74990000D01*
X204470000Y-74930000D02*
X204470000Y-74990000D01*
X207130000Y-74930000D02*
X207130000Y-74990000D01*
X204470000Y-74930000D02*
X207130000Y-74930000D01*
X204470000Y-73660000D02*
X204470000Y-72330000D01*
X204470000Y-72330000D02*
X205800000Y-72330000D01*
X176470000Y-80070000D02*
X176470000Y-78740000D01*
X177800000Y-80070000D02*
X176470000Y-80070000D01*
X179070000Y-80070000D02*
X179070000Y-77410000D01*
X179070000Y-77410000D02*
X207070000Y-77410000D01*
X179070000Y-80070000D02*
X207070000Y-80070000D01*
X207070000Y-80070000D02*
X207070000Y-77410000D01*
X207070000Y-69910000D02*
X207070000Y-67250000D01*
X179070000Y-69910000D02*
X207070000Y-69910000D01*
X179070000Y-67250000D02*
X207070000Y-67250000D01*
X179070000Y-69910000D02*
X179070000Y-67250000D01*
X177800000Y-69910000D02*
X176470000Y-69910000D01*
X176470000Y-69910000D02*
X176470000Y-68580000D01*
D11*
X190170000Y-75260000D02*
X190170000Y-74860000D01*
X190170000Y-75260000D02*
X190570000Y-75260000D01*
X193370000Y-75260000D02*
X193370000Y-74860000D01*
X193370000Y-75260000D02*
X192970000Y-75260000D01*
X193370000Y-72060000D02*
X193370000Y-72460000D01*
X193370000Y-72060000D02*
X192970000Y-72060000D01*
X190170000Y-72060000D02*
X190570000Y-72060000D01*
M02*
