G04 #@! TF.GenerationSoftware,KiCad,Pcbnew,(5.1.4-6-g300381ba4)-1*
G04 #@! TF.CreationDate,2019-11-22T10:46:46+00:00*
G04 #@! TF.ProjectId,qfn-24-breakout,71666e2d-3234-42d6-9272-65616b6f7574,rev?*
G04 #@! TF.SameCoordinates,Original*
G04 #@! TF.FileFunction,Soldermask,Top*
G04 #@! TF.FilePolarity,Negative*
%FSLAX46Y46*%
G04 Gerber Fmt 4.6, Leading zero omitted, Abs format (unit mm)*
G04 Created by KiCad (PCBNEW (5.1.4-6-g300381ba4)-1) date 2019-11-22 10:46:46*
%MOMM*%
%LPD*%
G04 APERTURE LIST*
%ADD10C,0.100000*%
G04 APERTURE END LIST*
D10*
G36*
X178701000Y-79641000D02*
G01*
X176899000Y-79641000D01*
X176899000Y-77839000D01*
X178701000Y-77839000D01*
X178701000Y-79641000D01*
X178701000Y-79641000D01*
G37*
G36*
X180450443Y-77845519D02*
G01*
X180516627Y-77852037D01*
X180686466Y-77903557D01*
X180842991Y-77987222D01*
X180878729Y-78016552D01*
X180980186Y-78099814D01*
X181063448Y-78201271D01*
X181092778Y-78237009D01*
X181176443Y-78393534D01*
X181227963Y-78563373D01*
X181245359Y-78740000D01*
X181227963Y-78916627D01*
X181176443Y-79086466D01*
X181092778Y-79242991D01*
X181063448Y-79278729D01*
X180980186Y-79380186D01*
X180878729Y-79463448D01*
X180842991Y-79492778D01*
X180686466Y-79576443D01*
X180516627Y-79627963D01*
X180450442Y-79634482D01*
X180384260Y-79641000D01*
X180295740Y-79641000D01*
X180229558Y-79634482D01*
X180163373Y-79627963D01*
X179993534Y-79576443D01*
X179837009Y-79492778D01*
X179801271Y-79463448D01*
X179699814Y-79380186D01*
X179616552Y-79278729D01*
X179587222Y-79242991D01*
X179503557Y-79086466D01*
X179452037Y-78916627D01*
X179434641Y-78740000D01*
X179452037Y-78563373D01*
X179503557Y-78393534D01*
X179587222Y-78237009D01*
X179616552Y-78201271D01*
X179699814Y-78099814D01*
X179801271Y-78016552D01*
X179837009Y-77987222D01*
X179993534Y-77903557D01*
X180163373Y-77852037D01*
X180229557Y-77845519D01*
X180295740Y-77839000D01*
X180384260Y-77839000D01*
X180450443Y-77845519D01*
X180450443Y-77845519D01*
G37*
G36*
X182990443Y-77845519D02*
G01*
X183056627Y-77852037D01*
X183226466Y-77903557D01*
X183382991Y-77987222D01*
X183418729Y-78016552D01*
X183520186Y-78099814D01*
X183603448Y-78201271D01*
X183632778Y-78237009D01*
X183716443Y-78393534D01*
X183767963Y-78563373D01*
X183785359Y-78740000D01*
X183767963Y-78916627D01*
X183716443Y-79086466D01*
X183632778Y-79242991D01*
X183603448Y-79278729D01*
X183520186Y-79380186D01*
X183418729Y-79463448D01*
X183382991Y-79492778D01*
X183226466Y-79576443D01*
X183056627Y-79627963D01*
X182990442Y-79634482D01*
X182924260Y-79641000D01*
X182835740Y-79641000D01*
X182769558Y-79634482D01*
X182703373Y-79627963D01*
X182533534Y-79576443D01*
X182377009Y-79492778D01*
X182341271Y-79463448D01*
X182239814Y-79380186D01*
X182156552Y-79278729D01*
X182127222Y-79242991D01*
X182043557Y-79086466D01*
X181992037Y-78916627D01*
X181974641Y-78740000D01*
X181992037Y-78563373D01*
X182043557Y-78393534D01*
X182127222Y-78237009D01*
X182156552Y-78201271D01*
X182239814Y-78099814D01*
X182341271Y-78016552D01*
X182377009Y-77987222D01*
X182533534Y-77903557D01*
X182703373Y-77852037D01*
X182769557Y-77845519D01*
X182835740Y-77839000D01*
X182924260Y-77839000D01*
X182990443Y-77845519D01*
X182990443Y-77845519D01*
G37*
G36*
X185530443Y-77845519D02*
G01*
X185596627Y-77852037D01*
X185766466Y-77903557D01*
X185922991Y-77987222D01*
X185958729Y-78016552D01*
X186060186Y-78099814D01*
X186143448Y-78201271D01*
X186172778Y-78237009D01*
X186256443Y-78393534D01*
X186307963Y-78563373D01*
X186325359Y-78740000D01*
X186307963Y-78916627D01*
X186256443Y-79086466D01*
X186172778Y-79242991D01*
X186143448Y-79278729D01*
X186060186Y-79380186D01*
X185958729Y-79463448D01*
X185922991Y-79492778D01*
X185766466Y-79576443D01*
X185596627Y-79627963D01*
X185530442Y-79634482D01*
X185464260Y-79641000D01*
X185375740Y-79641000D01*
X185309558Y-79634482D01*
X185243373Y-79627963D01*
X185073534Y-79576443D01*
X184917009Y-79492778D01*
X184881271Y-79463448D01*
X184779814Y-79380186D01*
X184696552Y-79278729D01*
X184667222Y-79242991D01*
X184583557Y-79086466D01*
X184532037Y-78916627D01*
X184514641Y-78740000D01*
X184532037Y-78563373D01*
X184583557Y-78393534D01*
X184667222Y-78237009D01*
X184696552Y-78201271D01*
X184779814Y-78099814D01*
X184881271Y-78016552D01*
X184917009Y-77987222D01*
X185073534Y-77903557D01*
X185243373Y-77852037D01*
X185309557Y-77845519D01*
X185375740Y-77839000D01*
X185464260Y-77839000D01*
X185530443Y-77845519D01*
X185530443Y-77845519D01*
G37*
G36*
X188070443Y-77845519D02*
G01*
X188136627Y-77852037D01*
X188306466Y-77903557D01*
X188462991Y-77987222D01*
X188498729Y-78016552D01*
X188600186Y-78099814D01*
X188683448Y-78201271D01*
X188712778Y-78237009D01*
X188796443Y-78393534D01*
X188847963Y-78563373D01*
X188865359Y-78740000D01*
X188847963Y-78916627D01*
X188796443Y-79086466D01*
X188712778Y-79242991D01*
X188683448Y-79278729D01*
X188600186Y-79380186D01*
X188498729Y-79463448D01*
X188462991Y-79492778D01*
X188306466Y-79576443D01*
X188136627Y-79627963D01*
X188070442Y-79634482D01*
X188004260Y-79641000D01*
X187915740Y-79641000D01*
X187849558Y-79634482D01*
X187783373Y-79627963D01*
X187613534Y-79576443D01*
X187457009Y-79492778D01*
X187421271Y-79463448D01*
X187319814Y-79380186D01*
X187236552Y-79278729D01*
X187207222Y-79242991D01*
X187123557Y-79086466D01*
X187072037Y-78916627D01*
X187054641Y-78740000D01*
X187072037Y-78563373D01*
X187123557Y-78393534D01*
X187207222Y-78237009D01*
X187236552Y-78201271D01*
X187319814Y-78099814D01*
X187421271Y-78016552D01*
X187457009Y-77987222D01*
X187613534Y-77903557D01*
X187783373Y-77852037D01*
X187849557Y-77845519D01*
X187915740Y-77839000D01*
X188004260Y-77839000D01*
X188070443Y-77845519D01*
X188070443Y-77845519D01*
G37*
G36*
X190610443Y-77845519D02*
G01*
X190676627Y-77852037D01*
X190846466Y-77903557D01*
X191002991Y-77987222D01*
X191038729Y-78016552D01*
X191140186Y-78099814D01*
X191223448Y-78201271D01*
X191252778Y-78237009D01*
X191336443Y-78393534D01*
X191387963Y-78563373D01*
X191405359Y-78740000D01*
X191387963Y-78916627D01*
X191336443Y-79086466D01*
X191252778Y-79242991D01*
X191223448Y-79278729D01*
X191140186Y-79380186D01*
X191038729Y-79463448D01*
X191002991Y-79492778D01*
X190846466Y-79576443D01*
X190676627Y-79627963D01*
X190610442Y-79634482D01*
X190544260Y-79641000D01*
X190455740Y-79641000D01*
X190389558Y-79634482D01*
X190323373Y-79627963D01*
X190153534Y-79576443D01*
X189997009Y-79492778D01*
X189961271Y-79463448D01*
X189859814Y-79380186D01*
X189776552Y-79278729D01*
X189747222Y-79242991D01*
X189663557Y-79086466D01*
X189612037Y-78916627D01*
X189594641Y-78740000D01*
X189612037Y-78563373D01*
X189663557Y-78393534D01*
X189747222Y-78237009D01*
X189776552Y-78201271D01*
X189859814Y-78099814D01*
X189961271Y-78016552D01*
X189997009Y-77987222D01*
X190153534Y-77903557D01*
X190323373Y-77852037D01*
X190389557Y-77845519D01*
X190455740Y-77839000D01*
X190544260Y-77839000D01*
X190610443Y-77845519D01*
X190610443Y-77845519D01*
G37*
G36*
X193150443Y-77845519D02*
G01*
X193216627Y-77852037D01*
X193386466Y-77903557D01*
X193542991Y-77987222D01*
X193578729Y-78016552D01*
X193680186Y-78099814D01*
X193763448Y-78201271D01*
X193792778Y-78237009D01*
X193876443Y-78393534D01*
X193927963Y-78563373D01*
X193945359Y-78740000D01*
X193927963Y-78916627D01*
X193876443Y-79086466D01*
X193792778Y-79242991D01*
X193763448Y-79278729D01*
X193680186Y-79380186D01*
X193578729Y-79463448D01*
X193542991Y-79492778D01*
X193386466Y-79576443D01*
X193216627Y-79627963D01*
X193150442Y-79634482D01*
X193084260Y-79641000D01*
X192995740Y-79641000D01*
X192929558Y-79634482D01*
X192863373Y-79627963D01*
X192693534Y-79576443D01*
X192537009Y-79492778D01*
X192501271Y-79463448D01*
X192399814Y-79380186D01*
X192316552Y-79278729D01*
X192287222Y-79242991D01*
X192203557Y-79086466D01*
X192152037Y-78916627D01*
X192134641Y-78740000D01*
X192152037Y-78563373D01*
X192203557Y-78393534D01*
X192287222Y-78237009D01*
X192316552Y-78201271D01*
X192399814Y-78099814D01*
X192501271Y-78016552D01*
X192537009Y-77987222D01*
X192693534Y-77903557D01*
X192863373Y-77852037D01*
X192929557Y-77845519D01*
X192995740Y-77839000D01*
X193084260Y-77839000D01*
X193150443Y-77845519D01*
X193150443Y-77845519D01*
G37*
G36*
X195690443Y-77845519D02*
G01*
X195756627Y-77852037D01*
X195926466Y-77903557D01*
X196082991Y-77987222D01*
X196118729Y-78016552D01*
X196220186Y-78099814D01*
X196303448Y-78201271D01*
X196332778Y-78237009D01*
X196416443Y-78393534D01*
X196467963Y-78563373D01*
X196485359Y-78740000D01*
X196467963Y-78916627D01*
X196416443Y-79086466D01*
X196332778Y-79242991D01*
X196303448Y-79278729D01*
X196220186Y-79380186D01*
X196118729Y-79463448D01*
X196082991Y-79492778D01*
X195926466Y-79576443D01*
X195756627Y-79627963D01*
X195690442Y-79634482D01*
X195624260Y-79641000D01*
X195535740Y-79641000D01*
X195469558Y-79634482D01*
X195403373Y-79627963D01*
X195233534Y-79576443D01*
X195077009Y-79492778D01*
X195041271Y-79463448D01*
X194939814Y-79380186D01*
X194856552Y-79278729D01*
X194827222Y-79242991D01*
X194743557Y-79086466D01*
X194692037Y-78916627D01*
X194674641Y-78740000D01*
X194692037Y-78563373D01*
X194743557Y-78393534D01*
X194827222Y-78237009D01*
X194856552Y-78201271D01*
X194939814Y-78099814D01*
X195041271Y-78016552D01*
X195077009Y-77987222D01*
X195233534Y-77903557D01*
X195403373Y-77852037D01*
X195469557Y-77845519D01*
X195535740Y-77839000D01*
X195624260Y-77839000D01*
X195690443Y-77845519D01*
X195690443Y-77845519D01*
G37*
G36*
X198230443Y-77845519D02*
G01*
X198296627Y-77852037D01*
X198466466Y-77903557D01*
X198622991Y-77987222D01*
X198658729Y-78016552D01*
X198760186Y-78099814D01*
X198843448Y-78201271D01*
X198872778Y-78237009D01*
X198956443Y-78393534D01*
X199007963Y-78563373D01*
X199025359Y-78740000D01*
X199007963Y-78916627D01*
X198956443Y-79086466D01*
X198872778Y-79242991D01*
X198843448Y-79278729D01*
X198760186Y-79380186D01*
X198658729Y-79463448D01*
X198622991Y-79492778D01*
X198466466Y-79576443D01*
X198296627Y-79627963D01*
X198230442Y-79634482D01*
X198164260Y-79641000D01*
X198075740Y-79641000D01*
X198009558Y-79634482D01*
X197943373Y-79627963D01*
X197773534Y-79576443D01*
X197617009Y-79492778D01*
X197581271Y-79463448D01*
X197479814Y-79380186D01*
X197396552Y-79278729D01*
X197367222Y-79242991D01*
X197283557Y-79086466D01*
X197232037Y-78916627D01*
X197214641Y-78740000D01*
X197232037Y-78563373D01*
X197283557Y-78393534D01*
X197367222Y-78237009D01*
X197396552Y-78201271D01*
X197479814Y-78099814D01*
X197581271Y-78016552D01*
X197617009Y-77987222D01*
X197773534Y-77903557D01*
X197943373Y-77852037D01*
X198009557Y-77845519D01*
X198075740Y-77839000D01*
X198164260Y-77839000D01*
X198230443Y-77845519D01*
X198230443Y-77845519D01*
G37*
G36*
X200770443Y-77845519D02*
G01*
X200836627Y-77852037D01*
X201006466Y-77903557D01*
X201162991Y-77987222D01*
X201198729Y-78016552D01*
X201300186Y-78099814D01*
X201383448Y-78201271D01*
X201412778Y-78237009D01*
X201496443Y-78393534D01*
X201547963Y-78563373D01*
X201565359Y-78740000D01*
X201547963Y-78916627D01*
X201496443Y-79086466D01*
X201412778Y-79242991D01*
X201383448Y-79278729D01*
X201300186Y-79380186D01*
X201198729Y-79463448D01*
X201162991Y-79492778D01*
X201006466Y-79576443D01*
X200836627Y-79627963D01*
X200770442Y-79634482D01*
X200704260Y-79641000D01*
X200615740Y-79641000D01*
X200549558Y-79634482D01*
X200483373Y-79627963D01*
X200313534Y-79576443D01*
X200157009Y-79492778D01*
X200121271Y-79463448D01*
X200019814Y-79380186D01*
X199936552Y-79278729D01*
X199907222Y-79242991D01*
X199823557Y-79086466D01*
X199772037Y-78916627D01*
X199754641Y-78740000D01*
X199772037Y-78563373D01*
X199823557Y-78393534D01*
X199907222Y-78237009D01*
X199936552Y-78201271D01*
X200019814Y-78099814D01*
X200121271Y-78016552D01*
X200157009Y-77987222D01*
X200313534Y-77903557D01*
X200483373Y-77852037D01*
X200549557Y-77845519D01*
X200615740Y-77839000D01*
X200704260Y-77839000D01*
X200770443Y-77845519D01*
X200770443Y-77845519D01*
G37*
G36*
X205850443Y-77845519D02*
G01*
X205916627Y-77852037D01*
X206086466Y-77903557D01*
X206242991Y-77987222D01*
X206278729Y-78016552D01*
X206380186Y-78099814D01*
X206463448Y-78201271D01*
X206492778Y-78237009D01*
X206576443Y-78393534D01*
X206627963Y-78563373D01*
X206645359Y-78740000D01*
X206627963Y-78916627D01*
X206576443Y-79086466D01*
X206492778Y-79242991D01*
X206463448Y-79278729D01*
X206380186Y-79380186D01*
X206278729Y-79463448D01*
X206242991Y-79492778D01*
X206086466Y-79576443D01*
X205916627Y-79627963D01*
X205850442Y-79634482D01*
X205784260Y-79641000D01*
X205695740Y-79641000D01*
X205629558Y-79634482D01*
X205563373Y-79627963D01*
X205393534Y-79576443D01*
X205237009Y-79492778D01*
X205201271Y-79463448D01*
X205099814Y-79380186D01*
X205016552Y-79278729D01*
X204987222Y-79242991D01*
X204903557Y-79086466D01*
X204852037Y-78916627D01*
X204834641Y-78740000D01*
X204852037Y-78563373D01*
X204903557Y-78393534D01*
X204987222Y-78237009D01*
X205016552Y-78201271D01*
X205099814Y-78099814D01*
X205201271Y-78016552D01*
X205237009Y-77987222D01*
X205393534Y-77903557D01*
X205563373Y-77852037D01*
X205629557Y-77845519D01*
X205695740Y-77839000D01*
X205784260Y-77839000D01*
X205850443Y-77845519D01*
X205850443Y-77845519D01*
G37*
G36*
X203310443Y-77845519D02*
G01*
X203376627Y-77852037D01*
X203546466Y-77903557D01*
X203702991Y-77987222D01*
X203738729Y-78016552D01*
X203840186Y-78099814D01*
X203923448Y-78201271D01*
X203952778Y-78237009D01*
X204036443Y-78393534D01*
X204087963Y-78563373D01*
X204105359Y-78740000D01*
X204087963Y-78916627D01*
X204036443Y-79086466D01*
X203952778Y-79242991D01*
X203923448Y-79278729D01*
X203840186Y-79380186D01*
X203738729Y-79463448D01*
X203702991Y-79492778D01*
X203546466Y-79576443D01*
X203376627Y-79627963D01*
X203310442Y-79634482D01*
X203244260Y-79641000D01*
X203155740Y-79641000D01*
X203089558Y-79634482D01*
X203023373Y-79627963D01*
X202853534Y-79576443D01*
X202697009Y-79492778D01*
X202661271Y-79463448D01*
X202559814Y-79380186D01*
X202476552Y-79278729D01*
X202447222Y-79242991D01*
X202363557Y-79086466D01*
X202312037Y-78916627D01*
X202294641Y-78740000D01*
X202312037Y-78563373D01*
X202363557Y-78393534D01*
X202447222Y-78237009D01*
X202476552Y-78201271D01*
X202559814Y-78099814D01*
X202661271Y-78016552D01*
X202697009Y-77987222D01*
X202853534Y-77903557D01*
X203023373Y-77852037D01*
X203089557Y-77845519D01*
X203155740Y-77839000D01*
X203244260Y-77839000D01*
X203310443Y-77845519D01*
X203310443Y-77845519D01*
G37*
G36*
X192921000Y-72384001D02*
G01*
X192923402Y-72408387D01*
X192930515Y-72431836D01*
X192942066Y-72453447D01*
X192957611Y-72472389D01*
X192976553Y-72487934D01*
X192998164Y-72499485D01*
X193021613Y-72506598D01*
X193045999Y-72509000D01*
X193596000Y-72509000D01*
X193596000Y-74811000D01*
X193045999Y-74811000D01*
X193021613Y-74813402D01*
X192998164Y-74820515D01*
X192976553Y-74832066D01*
X192957611Y-74847611D01*
X192942066Y-74866553D01*
X192930515Y-74888164D01*
X192923402Y-74911613D01*
X192921000Y-74935999D01*
X192921000Y-75486000D01*
X190619000Y-75486000D01*
X190619000Y-74935999D01*
X190616598Y-74911613D01*
X190609485Y-74888164D01*
X190597934Y-74866553D01*
X190582389Y-74847611D01*
X190563447Y-74832066D01*
X190541836Y-74820515D01*
X190518387Y-74813402D01*
X190494001Y-74811000D01*
X189944000Y-74811000D01*
X189944000Y-72610999D01*
X190596000Y-72610999D01*
X190596000Y-74709001D01*
X190598402Y-74733387D01*
X190605515Y-74756836D01*
X190617066Y-74778447D01*
X190632611Y-74797389D01*
X190651553Y-74812934D01*
X190673164Y-74824485D01*
X190696613Y-74831598D01*
X190720999Y-74834000D01*
X192819001Y-74834000D01*
X192843387Y-74831598D01*
X192866836Y-74824485D01*
X192888447Y-74812934D01*
X192907389Y-74797389D01*
X192922934Y-74778447D01*
X192934485Y-74756836D01*
X192941598Y-74733387D01*
X192944000Y-74709001D01*
X192944000Y-72610999D01*
X192941598Y-72586613D01*
X192934485Y-72563164D01*
X192922934Y-72541553D01*
X192907389Y-72522611D01*
X192888447Y-72507066D01*
X192866836Y-72495515D01*
X192843387Y-72488402D01*
X192819001Y-72486000D01*
X190720999Y-72486000D01*
X190696613Y-72488402D01*
X190673164Y-72495515D01*
X190651553Y-72507066D01*
X190632611Y-72522611D01*
X190617066Y-72541553D01*
X190605515Y-72563164D01*
X190598402Y-72586613D01*
X190596000Y-72610999D01*
X189944000Y-72610999D01*
X189944000Y-72509000D01*
X190494001Y-72509000D01*
X190518387Y-72506598D01*
X190541836Y-72499485D01*
X190563447Y-72487934D01*
X190582389Y-72472389D01*
X190597934Y-72453447D01*
X190609485Y-72431836D01*
X190616598Y-72408387D01*
X190619000Y-72384001D01*
X190619000Y-71834000D01*
X192921000Y-71834000D01*
X192921000Y-72384001D01*
X192921000Y-72384001D01*
G37*
G36*
X192693500Y-74511000D02*
G01*
X190846500Y-74511000D01*
X190846500Y-72809000D01*
X192693500Y-72809000D01*
X192693500Y-74511000D01*
X192693500Y-74511000D01*
G37*
G36*
X206701000Y-74561000D02*
G01*
X204899000Y-74561000D01*
X204899000Y-72759000D01*
X206701000Y-72759000D01*
X206701000Y-74561000D01*
X206701000Y-74561000D01*
G37*
G36*
X190610443Y-67685519D02*
G01*
X190676627Y-67692037D01*
X190846466Y-67743557D01*
X191002991Y-67827222D01*
X191038729Y-67856552D01*
X191140186Y-67939814D01*
X191223448Y-68041271D01*
X191252778Y-68077009D01*
X191336443Y-68233534D01*
X191387963Y-68403373D01*
X191405359Y-68580000D01*
X191387963Y-68756627D01*
X191336443Y-68926466D01*
X191252778Y-69082991D01*
X191223448Y-69118729D01*
X191140186Y-69220186D01*
X191038729Y-69303448D01*
X191002991Y-69332778D01*
X190846466Y-69416443D01*
X190676627Y-69467963D01*
X190610442Y-69474482D01*
X190544260Y-69481000D01*
X190455740Y-69481000D01*
X190389558Y-69474482D01*
X190323373Y-69467963D01*
X190153534Y-69416443D01*
X189997009Y-69332778D01*
X189961271Y-69303448D01*
X189859814Y-69220186D01*
X189776552Y-69118729D01*
X189747222Y-69082991D01*
X189663557Y-68926466D01*
X189612037Y-68756627D01*
X189594641Y-68580000D01*
X189612037Y-68403373D01*
X189663557Y-68233534D01*
X189747222Y-68077009D01*
X189776552Y-68041271D01*
X189859814Y-67939814D01*
X189961271Y-67856552D01*
X189997009Y-67827222D01*
X190153534Y-67743557D01*
X190323373Y-67692037D01*
X190389557Y-67685519D01*
X190455740Y-67679000D01*
X190544260Y-67679000D01*
X190610443Y-67685519D01*
X190610443Y-67685519D01*
G37*
G36*
X185530443Y-67685519D02*
G01*
X185596627Y-67692037D01*
X185766466Y-67743557D01*
X185922991Y-67827222D01*
X185958729Y-67856552D01*
X186060186Y-67939814D01*
X186143448Y-68041271D01*
X186172778Y-68077009D01*
X186256443Y-68233534D01*
X186307963Y-68403373D01*
X186325359Y-68580000D01*
X186307963Y-68756627D01*
X186256443Y-68926466D01*
X186172778Y-69082991D01*
X186143448Y-69118729D01*
X186060186Y-69220186D01*
X185958729Y-69303448D01*
X185922991Y-69332778D01*
X185766466Y-69416443D01*
X185596627Y-69467963D01*
X185530442Y-69474482D01*
X185464260Y-69481000D01*
X185375740Y-69481000D01*
X185309558Y-69474482D01*
X185243373Y-69467963D01*
X185073534Y-69416443D01*
X184917009Y-69332778D01*
X184881271Y-69303448D01*
X184779814Y-69220186D01*
X184696552Y-69118729D01*
X184667222Y-69082991D01*
X184583557Y-68926466D01*
X184532037Y-68756627D01*
X184514641Y-68580000D01*
X184532037Y-68403373D01*
X184583557Y-68233534D01*
X184667222Y-68077009D01*
X184696552Y-68041271D01*
X184779814Y-67939814D01*
X184881271Y-67856552D01*
X184917009Y-67827222D01*
X185073534Y-67743557D01*
X185243373Y-67692037D01*
X185309557Y-67685519D01*
X185375740Y-67679000D01*
X185464260Y-67679000D01*
X185530443Y-67685519D01*
X185530443Y-67685519D01*
G37*
G36*
X193150443Y-67685519D02*
G01*
X193216627Y-67692037D01*
X193386466Y-67743557D01*
X193542991Y-67827222D01*
X193578729Y-67856552D01*
X193680186Y-67939814D01*
X193763448Y-68041271D01*
X193792778Y-68077009D01*
X193876443Y-68233534D01*
X193927963Y-68403373D01*
X193945359Y-68580000D01*
X193927963Y-68756627D01*
X193876443Y-68926466D01*
X193792778Y-69082991D01*
X193763448Y-69118729D01*
X193680186Y-69220186D01*
X193578729Y-69303448D01*
X193542991Y-69332778D01*
X193386466Y-69416443D01*
X193216627Y-69467963D01*
X193150442Y-69474482D01*
X193084260Y-69481000D01*
X192995740Y-69481000D01*
X192929558Y-69474482D01*
X192863373Y-69467963D01*
X192693534Y-69416443D01*
X192537009Y-69332778D01*
X192501271Y-69303448D01*
X192399814Y-69220186D01*
X192316552Y-69118729D01*
X192287222Y-69082991D01*
X192203557Y-68926466D01*
X192152037Y-68756627D01*
X192134641Y-68580000D01*
X192152037Y-68403373D01*
X192203557Y-68233534D01*
X192287222Y-68077009D01*
X192316552Y-68041271D01*
X192399814Y-67939814D01*
X192501271Y-67856552D01*
X192537009Y-67827222D01*
X192693534Y-67743557D01*
X192863373Y-67692037D01*
X192929557Y-67685519D01*
X192995740Y-67679000D01*
X193084260Y-67679000D01*
X193150443Y-67685519D01*
X193150443Y-67685519D01*
G37*
G36*
X195690443Y-67685519D02*
G01*
X195756627Y-67692037D01*
X195926466Y-67743557D01*
X196082991Y-67827222D01*
X196118729Y-67856552D01*
X196220186Y-67939814D01*
X196303448Y-68041271D01*
X196332778Y-68077009D01*
X196416443Y-68233534D01*
X196467963Y-68403373D01*
X196485359Y-68580000D01*
X196467963Y-68756627D01*
X196416443Y-68926466D01*
X196332778Y-69082991D01*
X196303448Y-69118729D01*
X196220186Y-69220186D01*
X196118729Y-69303448D01*
X196082991Y-69332778D01*
X195926466Y-69416443D01*
X195756627Y-69467963D01*
X195690442Y-69474482D01*
X195624260Y-69481000D01*
X195535740Y-69481000D01*
X195469558Y-69474482D01*
X195403373Y-69467963D01*
X195233534Y-69416443D01*
X195077009Y-69332778D01*
X195041271Y-69303448D01*
X194939814Y-69220186D01*
X194856552Y-69118729D01*
X194827222Y-69082991D01*
X194743557Y-68926466D01*
X194692037Y-68756627D01*
X194674641Y-68580000D01*
X194692037Y-68403373D01*
X194743557Y-68233534D01*
X194827222Y-68077009D01*
X194856552Y-68041271D01*
X194939814Y-67939814D01*
X195041271Y-67856552D01*
X195077009Y-67827222D01*
X195233534Y-67743557D01*
X195403373Y-67692037D01*
X195469557Y-67685519D01*
X195535740Y-67679000D01*
X195624260Y-67679000D01*
X195690443Y-67685519D01*
X195690443Y-67685519D01*
G37*
G36*
X198230443Y-67685519D02*
G01*
X198296627Y-67692037D01*
X198466466Y-67743557D01*
X198622991Y-67827222D01*
X198658729Y-67856552D01*
X198760186Y-67939814D01*
X198843448Y-68041271D01*
X198872778Y-68077009D01*
X198956443Y-68233534D01*
X199007963Y-68403373D01*
X199025359Y-68580000D01*
X199007963Y-68756627D01*
X198956443Y-68926466D01*
X198872778Y-69082991D01*
X198843448Y-69118729D01*
X198760186Y-69220186D01*
X198658729Y-69303448D01*
X198622991Y-69332778D01*
X198466466Y-69416443D01*
X198296627Y-69467963D01*
X198230442Y-69474482D01*
X198164260Y-69481000D01*
X198075740Y-69481000D01*
X198009558Y-69474482D01*
X197943373Y-69467963D01*
X197773534Y-69416443D01*
X197617009Y-69332778D01*
X197581271Y-69303448D01*
X197479814Y-69220186D01*
X197396552Y-69118729D01*
X197367222Y-69082991D01*
X197283557Y-68926466D01*
X197232037Y-68756627D01*
X197214641Y-68580000D01*
X197232037Y-68403373D01*
X197283557Y-68233534D01*
X197367222Y-68077009D01*
X197396552Y-68041271D01*
X197479814Y-67939814D01*
X197581271Y-67856552D01*
X197617009Y-67827222D01*
X197773534Y-67743557D01*
X197943373Y-67692037D01*
X198009557Y-67685519D01*
X198075740Y-67679000D01*
X198164260Y-67679000D01*
X198230443Y-67685519D01*
X198230443Y-67685519D01*
G37*
G36*
X200770443Y-67685519D02*
G01*
X200836627Y-67692037D01*
X201006466Y-67743557D01*
X201162991Y-67827222D01*
X201198729Y-67856552D01*
X201300186Y-67939814D01*
X201383448Y-68041271D01*
X201412778Y-68077009D01*
X201496443Y-68233534D01*
X201547963Y-68403373D01*
X201565359Y-68580000D01*
X201547963Y-68756627D01*
X201496443Y-68926466D01*
X201412778Y-69082991D01*
X201383448Y-69118729D01*
X201300186Y-69220186D01*
X201198729Y-69303448D01*
X201162991Y-69332778D01*
X201006466Y-69416443D01*
X200836627Y-69467963D01*
X200770442Y-69474482D01*
X200704260Y-69481000D01*
X200615740Y-69481000D01*
X200549558Y-69474482D01*
X200483373Y-69467963D01*
X200313534Y-69416443D01*
X200157009Y-69332778D01*
X200121271Y-69303448D01*
X200019814Y-69220186D01*
X199936552Y-69118729D01*
X199907222Y-69082991D01*
X199823557Y-68926466D01*
X199772037Y-68756627D01*
X199754641Y-68580000D01*
X199772037Y-68403373D01*
X199823557Y-68233534D01*
X199907222Y-68077009D01*
X199936552Y-68041271D01*
X200019814Y-67939814D01*
X200121271Y-67856552D01*
X200157009Y-67827222D01*
X200313534Y-67743557D01*
X200483373Y-67692037D01*
X200549557Y-67685519D01*
X200615740Y-67679000D01*
X200704260Y-67679000D01*
X200770443Y-67685519D01*
X200770443Y-67685519D01*
G37*
G36*
X203310443Y-67685519D02*
G01*
X203376627Y-67692037D01*
X203546466Y-67743557D01*
X203702991Y-67827222D01*
X203738729Y-67856552D01*
X203840186Y-67939814D01*
X203923448Y-68041271D01*
X203952778Y-68077009D01*
X204036443Y-68233534D01*
X204087963Y-68403373D01*
X204105359Y-68580000D01*
X204087963Y-68756627D01*
X204036443Y-68926466D01*
X203952778Y-69082991D01*
X203923448Y-69118729D01*
X203840186Y-69220186D01*
X203738729Y-69303448D01*
X203702991Y-69332778D01*
X203546466Y-69416443D01*
X203376627Y-69467963D01*
X203310442Y-69474482D01*
X203244260Y-69481000D01*
X203155740Y-69481000D01*
X203089558Y-69474482D01*
X203023373Y-69467963D01*
X202853534Y-69416443D01*
X202697009Y-69332778D01*
X202661271Y-69303448D01*
X202559814Y-69220186D01*
X202476552Y-69118729D01*
X202447222Y-69082991D01*
X202363557Y-68926466D01*
X202312037Y-68756627D01*
X202294641Y-68580000D01*
X202312037Y-68403373D01*
X202363557Y-68233534D01*
X202447222Y-68077009D01*
X202476552Y-68041271D01*
X202559814Y-67939814D01*
X202661271Y-67856552D01*
X202697009Y-67827222D01*
X202853534Y-67743557D01*
X203023373Y-67692037D01*
X203089557Y-67685519D01*
X203155740Y-67679000D01*
X203244260Y-67679000D01*
X203310443Y-67685519D01*
X203310443Y-67685519D01*
G37*
G36*
X205850443Y-67685519D02*
G01*
X205916627Y-67692037D01*
X206086466Y-67743557D01*
X206242991Y-67827222D01*
X206278729Y-67856552D01*
X206380186Y-67939814D01*
X206463448Y-68041271D01*
X206492778Y-68077009D01*
X206576443Y-68233534D01*
X206627963Y-68403373D01*
X206645359Y-68580000D01*
X206627963Y-68756627D01*
X206576443Y-68926466D01*
X206492778Y-69082991D01*
X206463448Y-69118729D01*
X206380186Y-69220186D01*
X206278729Y-69303448D01*
X206242991Y-69332778D01*
X206086466Y-69416443D01*
X205916627Y-69467963D01*
X205850442Y-69474482D01*
X205784260Y-69481000D01*
X205695740Y-69481000D01*
X205629558Y-69474482D01*
X205563373Y-69467963D01*
X205393534Y-69416443D01*
X205237009Y-69332778D01*
X205201271Y-69303448D01*
X205099814Y-69220186D01*
X205016552Y-69118729D01*
X204987222Y-69082991D01*
X204903557Y-68926466D01*
X204852037Y-68756627D01*
X204834641Y-68580000D01*
X204852037Y-68403373D01*
X204903557Y-68233534D01*
X204987222Y-68077009D01*
X205016552Y-68041271D01*
X205099814Y-67939814D01*
X205201271Y-67856552D01*
X205237009Y-67827222D01*
X205393534Y-67743557D01*
X205563373Y-67692037D01*
X205629557Y-67685519D01*
X205695740Y-67679000D01*
X205784260Y-67679000D01*
X205850443Y-67685519D01*
X205850443Y-67685519D01*
G37*
G36*
X188070443Y-67685519D02*
G01*
X188136627Y-67692037D01*
X188306466Y-67743557D01*
X188462991Y-67827222D01*
X188498729Y-67856552D01*
X188600186Y-67939814D01*
X188683448Y-68041271D01*
X188712778Y-68077009D01*
X188796443Y-68233534D01*
X188847963Y-68403373D01*
X188865359Y-68580000D01*
X188847963Y-68756627D01*
X188796443Y-68926466D01*
X188712778Y-69082991D01*
X188683448Y-69118729D01*
X188600186Y-69220186D01*
X188498729Y-69303448D01*
X188462991Y-69332778D01*
X188306466Y-69416443D01*
X188136627Y-69467963D01*
X188070442Y-69474482D01*
X188004260Y-69481000D01*
X187915740Y-69481000D01*
X187849558Y-69474482D01*
X187783373Y-69467963D01*
X187613534Y-69416443D01*
X187457009Y-69332778D01*
X187421271Y-69303448D01*
X187319814Y-69220186D01*
X187236552Y-69118729D01*
X187207222Y-69082991D01*
X187123557Y-68926466D01*
X187072037Y-68756627D01*
X187054641Y-68580000D01*
X187072037Y-68403373D01*
X187123557Y-68233534D01*
X187207222Y-68077009D01*
X187236552Y-68041271D01*
X187319814Y-67939814D01*
X187421271Y-67856552D01*
X187457009Y-67827222D01*
X187613534Y-67743557D01*
X187783373Y-67692037D01*
X187849557Y-67685519D01*
X187915740Y-67679000D01*
X188004260Y-67679000D01*
X188070443Y-67685519D01*
X188070443Y-67685519D01*
G37*
G36*
X182990443Y-67685519D02*
G01*
X183056627Y-67692037D01*
X183226466Y-67743557D01*
X183382991Y-67827222D01*
X183418729Y-67856552D01*
X183520186Y-67939814D01*
X183603448Y-68041271D01*
X183632778Y-68077009D01*
X183716443Y-68233534D01*
X183767963Y-68403373D01*
X183785359Y-68580000D01*
X183767963Y-68756627D01*
X183716443Y-68926466D01*
X183632778Y-69082991D01*
X183603448Y-69118729D01*
X183520186Y-69220186D01*
X183418729Y-69303448D01*
X183382991Y-69332778D01*
X183226466Y-69416443D01*
X183056627Y-69467963D01*
X182990442Y-69474482D01*
X182924260Y-69481000D01*
X182835740Y-69481000D01*
X182769558Y-69474482D01*
X182703373Y-69467963D01*
X182533534Y-69416443D01*
X182377009Y-69332778D01*
X182341271Y-69303448D01*
X182239814Y-69220186D01*
X182156552Y-69118729D01*
X182127222Y-69082991D01*
X182043557Y-68926466D01*
X181992037Y-68756627D01*
X181974641Y-68580000D01*
X181992037Y-68403373D01*
X182043557Y-68233534D01*
X182127222Y-68077009D01*
X182156552Y-68041271D01*
X182239814Y-67939814D01*
X182341271Y-67856552D01*
X182377009Y-67827222D01*
X182533534Y-67743557D01*
X182703373Y-67692037D01*
X182769557Y-67685519D01*
X182835740Y-67679000D01*
X182924260Y-67679000D01*
X182990443Y-67685519D01*
X182990443Y-67685519D01*
G37*
G36*
X180450443Y-67685519D02*
G01*
X180516627Y-67692037D01*
X180686466Y-67743557D01*
X180842991Y-67827222D01*
X180878729Y-67856552D01*
X180980186Y-67939814D01*
X181063448Y-68041271D01*
X181092778Y-68077009D01*
X181176443Y-68233534D01*
X181227963Y-68403373D01*
X181245359Y-68580000D01*
X181227963Y-68756627D01*
X181176443Y-68926466D01*
X181092778Y-69082991D01*
X181063448Y-69118729D01*
X180980186Y-69220186D01*
X180878729Y-69303448D01*
X180842991Y-69332778D01*
X180686466Y-69416443D01*
X180516627Y-69467963D01*
X180450442Y-69474482D01*
X180384260Y-69481000D01*
X180295740Y-69481000D01*
X180229558Y-69474482D01*
X180163373Y-69467963D01*
X179993534Y-69416443D01*
X179837009Y-69332778D01*
X179801271Y-69303448D01*
X179699814Y-69220186D01*
X179616552Y-69118729D01*
X179587222Y-69082991D01*
X179503557Y-68926466D01*
X179452037Y-68756627D01*
X179434641Y-68580000D01*
X179452037Y-68403373D01*
X179503557Y-68233534D01*
X179587222Y-68077009D01*
X179616552Y-68041271D01*
X179699814Y-67939814D01*
X179801271Y-67856552D01*
X179837009Y-67827222D01*
X179993534Y-67743557D01*
X180163373Y-67692037D01*
X180229557Y-67685519D01*
X180295740Y-67679000D01*
X180384260Y-67679000D01*
X180450443Y-67685519D01*
X180450443Y-67685519D01*
G37*
G36*
X178701000Y-69481000D02*
G01*
X176899000Y-69481000D01*
X176899000Y-67679000D01*
X178701000Y-67679000D01*
X178701000Y-69481000D01*
X178701000Y-69481000D01*
G37*
M02*
