G04 #@! TF.GenerationSoftware,KiCad,Pcbnew,(5.1.4-6-g300381ba4)-1*
G04 #@! TF.CreationDate,2019-11-22T10:46:45+00:00*
G04 #@! TF.ProjectId,qfn-24-breakout,71666e2d-3234-42d6-9272-65616b6f7574,rev?*
G04 #@! TF.SameCoordinates,Original*
G04 #@! TF.FileFunction,Copper,L1,Top*
G04 #@! TF.FilePolarity,Positive*
%FSLAX46Y46*%
G04 Gerber Fmt 4.6, Leading zero omitted, Abs format (unit mm)*
G04 Created by KiCad (PCBNEW (5.1.4-6-g300381ba4)-1) date 2019-11-22 10:46:45*
%MOMM*%
%LPD*%
G04 APERTURE LIST*
%ADD10R,1.700000X1.700000*%
%ADD11O,1.700000X1.700000*%
%ADD12R,0.550000X0.200000*%
%ADD13R,0.200000X0.550000*%
%ADD14R,0.875000X0.800000*%
%ADD15C,0.800000*%
%ADD16C,0.250000*%
%ADD17C,0.254000*%
G04 APERTURE END LIST*
D10*
X205800000Y-73660000D03*
D11*
X205740000Y-78740000D03*
X203200000Y-78740000D03*
X200660000Y-78740000D03*
X198120000Y-78740000D03*
X195580000Y-78740000D03*
X193040000Y-78740000D03*
X190500000Y-78740000D03*
X187960000Y-78740000D03*
X185420000Y-78740000D03*
X182880000Y-78740000D03*
X180340000Y-78740000D03*
D10*
X177800000Y-78740000D03*
X177800000Y-68580000D03*
D11*
X180340000Y-68580000D03*
X182880000Y-68580000D03*
X185420000Y-68580000D03*
X187960000Y-68580000D03*
X190500000Y-68580000D03*
X193040000Y-68580000D03*
X195580000Y-68580000D03*
X198120000Y-68580000D03*
X200660000Y-68580000D03*
X203200000Y-68580000D03*
X205740000Y-68580000D03*
D12*
X190270000Y-72660000D03*
X190270000Y-73060000D03*
X190270000Y-73460000D03*
X190270000Y-73860000D03*
X190270000Y-74260000D03*
X190270000Y-74660000D03*
D13*
X190770000Y-75160000D03*
X191170000Y-75160000D03*
X191570000Y-75160000D03*
X191970000Y-75160000D03*
X192370000Y-75160000D03*
X192770000Y-75160000D03*
D12*
X193270000Y-74660000D03*
X193270000Y-74260000D03*
X193270000Y-73860000D03*
X193270000Y-73460000D03*
X193270000Y-73060000D03*
X193270000Y-72660000D03*
D13*
X192770000Y-72160000D03*
X192370000Y-72160000D03*
X191970000Y-72160000D03*
X191570000Y-72160000D03*
X191170000Y-72160000D03*
X190770000Y-72160000D03*
D14*
X192205000Y-74060000D03*
X192205000Y-73260000D03*
X191335000Y-74060000D03*
X191335000Y-73260000D03*
D15*
X191770000Y-73660000D03*
D16*
X190270000Y-72660000D02*
X178800000Y-72660000D01*
X178800000Y-72660000D02*
X177800000Y-73660000D01*
X177800000Y-73660000D02*
X177800000Y-78740000D01*
X180340000Y-73730000D02*
X180340000Y-78740000D01*
X190270000Y-73060000D02*
X181010000Y-73060000D01*
X181010000Y-73060000D02*
X180340000Y-73730000D01*
X190270000Y-73460000D02*
X184350000Y-73460000D01*
X182880000Y-74930000D02*
X182880000Y-78740000D01*
X184350000Y-73460000D02*
X182880000Y-74930000D01*
X190270000Y-73860000D02*
X186490000Y-73860000D01*
X185420000Y-74930000D02*
X185420000Y-78740000D01*
X186490000Y-73860000D02*
X185420000Y-74930000D01*
X190270000Y-74260000D02*
X188630000Y-74260000D01*
X187960000Y-74930000D02*
X187960000Y-78740000D01*
X188630000Y-74260000D02*
X187960000Y-74930000D01*
X190270000Y-74660000D02*
X189500000Y-74660000D01*
X189500000Y-74660000D02*
X189230000Y-74930000D01*
X189230000Y-77470000D02*
X190500000Y-78740000D01*
X189230000Y-74930000D02*
X189230000Y-77470000D01*
X193040000Y-77978000D02*
X193040000Y-78740000D01*
X190770000Y-75685000D02*
X190754000Y-75701000D01*
X190770000Y-75160000D02*
X190770000Y-75685000D01*
X190754000Y-75701000D02*
X190754000Y-76962000D01*
X190754000Y-76962000D02*
X191262000Y-77470000D01*
X191262000Y-77470000D02*
X192532000Y-77470000D01*
X192532000Y-77470000D02*
X193040000Y-77978000D01*
X191170000Y-75685000D02*
X191135000Y-75720000D01*
X191170000Y-75160000D02*
X191170000Y-75685000D01*
X191135000Y-75720000D02*
X191135000Y-76771500D01*
X191135000Y-76771500D02*
X191516000Y-77152500D01*
X193992500Y-77152500D02*
X195580000Y-78740000D01*
X191516000Y-77152500D02*
X193992500Y-77152500D01*
X191570000Y-75685000D02*
X191579500Y-75694500D01*
X191570000Y-75160000D02*
X191570000Y-75685000D01*
X198120000Y-77537919D02*
X198120000Y-78740000D01*
X197417081Y-76835000D02*
X198120000Y-77537919D01*
X191960500Y-76835000D02*
X197417081Y-76835000D01*
X191570000Y-75685000D02*
X191570000Y-76444500D01*
X191570000Y-76444500D02*
X191960500Y-76835000D01*
X191970000Y-75685000D02*
X191960500Y-75694500D01*
X191970000Y-75160000D02*
X191970000Y-75685000D01*
X191960500Y-75694500D02*
X191960500Y-76200000D01*
X191960500Y-76200000D02*
X192151000Y-76390500D01*
X198310500Y-76390500D02*
X200660000Y-78740000D01*
X192151000Y-76390500D02*
X198310500Y-76390500D01*
X200406000Y-75946000D02*
X203200000Y-78740000D01*
X192631000Y-75946000D02*
X200406000Y-75946000D01*
X192370000Y-75160000D02*
X192370000Y-75685000D01*
X192370000Y-75685000D02*
X192631000Y-75946000D01*
X202160000Y-75160000D02*
X205740000Y-78740000D01*
X192770000Y-75160000D02*
X202160000Y-75160000D01*
X193270000Y-74660000D02*
X193795000Y-74660000D01*
X193795000Y-74660000D02*
X193811000Y-74676000D01*
X203200000Y-73800000D02*
X203200000Y-68580000D01*
X193270000Y-74260000D02*
X202740000Y-74260000D01*
X202740000Y-74260000D02*
X203200000Y-73800000D01*
X193270000Y-73860000D02*
X199390000Y-73860000D01*
X200660000Y-72590000D02*
X200660000Y-68580000D01*
X199390000Y-73860000D02*
X200660000Y-72590000D01*
X193270000Y-73460000D02*
X197460000Y-73460000D01*
X198120000Y-72800000D02*
X198120000Y-68580000D01*
X197460000Y-73460000D02*
X198120000Y-72800000D01*
X193270000Y-73060000D02*
X194940000Y-73060000D01*
X195580000Y-72420000D02*
X195580000Y-68580000D01*
X194940000Y-73060000D02*
X195580000Y-72420000D01*
X193270000Y-68810000D02*
X193040000Y-68580000D01*
X193270000Y-72660000D02*
X193270000Y-68810000D01*
X190770000Y-72160000D02*
X178910000Y-72160000D01*
X177800000Y-71050000D02*
X177800000Y-68580000D01*
X178910000Y-72160000D02*
X177800000Y-71050000D01*
X191170000Y-71635000D02*
X191035000Y-71500000D01*
X191170000Y-72160000D02*
X191170000Y-71635000D01*
X191035000Y-71500000D02*
X181000000Y-71500000D01*
X180340000Y-70840000D02*
X180340000Y-68580000D01*
X181000000Y-71500000D02*
X180340000Y-70840000D01*
X182880000Y-70380000D02*
X182880000Y-68580000D01*
X183500000Y-71000000D02*
X182880000Y-70380000D01*
X191000000Y-71000000D02*
X183500000Y-71000000D01*
X191570000Y-72160000D02*
X191570000Y-71570000D01*
X191570000Y-71570000D02*
X191000000Y-71000000D01*
X191970000Y-72160000D02*
X191970000Y-71470000D01*
X191970000Y-71470000D02*
X191000000Y-70500000D01*
X187340000Y-70500000D02*
X185420000Y-68580000D01*
X191000000Y-70500000D02*
X187340000Y-70500000D01*
X192370000Y-72160000D02*
X192370000Y-71370000D01*
X192370000Y-71370000D02*
X191000000Y-70000000D01*
X189380000Y-70000000D02*
X187960000Y-68580000D01*
X191000000Y-70000000D02*
X189380000Y-70000000D01*
X192770000Y-72160000D02*
X192770000Y-70770000D01*
X191349999Y-69429999D02*
X191679999Y-69429999D01*
X190500000Y-68580000D02*
X191349999Y-69429999D01*
X192770000Y-70520000D02*
X192770000Y-70770000D01*
X191679999Y-69429999D02*
X192770000Y-70520000D01*
X193811000Y-74676000D02*
X202924000Y-74676000D01*
X205600000Y-68720000D02*
X205740000Y-68580000D01*
X203600000Y-74000000D02*
X203600000Y-70200000D01*
X202924000Y-74676000D02*
X203600000Y-74000000D01*
X203600000Y-70200000D02*
X203800000Y-70000000D01*
X203800000Y-70000000D02*
X205200000Y-70000000D01*
X205200000Y-70000000D02*
X205600000Y-69600000D01*
X205600000Y-69600000D02*
X205600000Y-68720000D01*
D17*
G36*
X206104545Y-66738909D02*
G01*
X206455208Y-66844780D01*
X206778625Y-67016744D01*
X207062484Y-67248254D01*
X207295965Y-67530486D01*
X207470183Y-67852695D01*
X207578502Y-68202614D01*
X207620001Y-68597452D01*
X207620000Y-78707721D01*
X207581091Y-79104545D01*
X207475220Y-79455206D01*
X207303257Y-79778623D01*
X207071748Y-80062482D01*
X206789514Y-80295965D01*
X206467304Y-80470184D01*
X206117385Y-80578502D01*
X205722557Y-80620000D01*
X177832279Y-80620000D01*
X177435455Y-80581091D01*
X177084794Y-80475220D01*
X176761377Y-80303257D01*
X176477518Y-80071748D01*
X176244035Y-79789514D01*
X176069816Y-79467304D01*
X175961498Y-79117385D01*
X175920000Y-78722557D01*
X175920000Y-68612279D01*
X175958909Y-68215455D01*
X176064780Y-67864792D01*
X176136450Y-67730000D01*
X176311928Y-67730000D01*
X176311928Y-69430000D01*
X176324188Y-69554482D01*
X176360498Y-69674180D01*
X176419463Y-69784494D01*
X176498815Y-69881185D01*
X176595506Y-69960537D01*
X176705820Y-70019502D01*
X176825518Y-70055812D01*
X176950000Y-70068072D01*
X177040000Y-70068072D01*
X177040000Y-71012677D01*
X177036324Y-71050000D01*
X177040000Y-71087322D01*
X177040000Y-71087332D01*
X177050997Y-71198985D01*
X177091548Y-71332667D01*
X177094454Y-71342246D01*
X177165026Y-71474276D01*
X177195167Y-71511002D01*
X177259999Y-71590001D01*
X177289002Y-71613804D01*
X178030198Y-72355000D01*
X177289002Y-73096196D01*
X177259999Y-73119999D01*
X177207740Y-73183677D01*
X177165026Y-73235724D01*
X177104479Y-73348998D01*
X177094454Y-73367754D01*
X177050997Y-73511015D01*
X177040000Y-73622668D01*
X177040000Y-73622678D01*
X177036324Y-73660000D01*
X177040000Y-73697323D01*
X177040001Y-77251928D01*
X176950000Y-77251928D01*
X176825518Y-77264188D01*
X176705820Y-77300498D01*
X176595506Y-77359463D01*
X176498815Y-77438815D01*
X176419463Y-77535506D01*
X176360498Y-77645820D01*
X176324188Y-77765518D01*
X176311928Y-77890000D01*
X176311928Y-79590000D01*
X176324188Y-79714482D01*
X176360498Y-79834180D01*
X176419463Y-79944494D01*
X176498815Y-80041185D01*
X176595506Y-80120537D01*
X176705820Y-80179502D01*
X176825518Y-80215812D01*
X176950000Y-80228072D01*
X178650000Y-80228072D01*
X178774482Y-80215812D01*
X178894180Y-80179502D01*
X179004494Y-80120537D01*
X179101185Y-80041185D01*
X179180537Y-79944494D01*
X179239502Y-79834180D01*
X179260393Y-79765313D01*
X179284866Y-79795134D01*
X179510986Y-79980706D01*
X179768966Y-80118599D01*
X180048889Y-80203513D01*
X180267050Y-80225000D01*
X180412950Y-80225000D01*
X180631111Y-80203513D01*
X180911034Y-80118599D01*
X181169014Y-79980706D01*
X181395134Y-79795134D01*
X181580706Y-79569014D01*
X181610000Y-79514209D01*
X181639294Y-79569014D01*
X181824866Y-79795134D01*
X182050986Y-79980706D01*
X182308966Y-80118599D01*
X182588889Y-80203513D01*
X182807050Y-80225000D01*
X182952950Y-80225000D01*
X183171111Y-80203513D01*
X183451034Y-80118599D01*
X183709014Y-79980706D01*
X183935134Y-79795134D01*
X184120706Y-79569014D01*
X184150000Y-79514209D01*
X184179294Y-79569014D01*
X184364866Y-79795134D01*
X184590986Y-79980706D01*
X184848966Y-80118599D01*
X185128889Y-80203513D01*
X185347050Y-80225000D01*
X185492950Y-80225000D01*
X185711111Y-80203513D01*
X185991034Y-80118599D01*
X186249014Y-79980706D01*
X186475134Y-79795134D01*
X186660706Y-79569014D01*
X186690000Y-79514209D01*
X186719294Y-79569014D01*
X186904866Y-79795134D01*
X187130986Y-79980706D01*
X187388966Y-80118599D01*
X187668889Y-80203513D01*
X187887050Y-80225000D01*
X188032950Y-80225000D01*
X188251111Y-80203513D01*
X188531034Y-80118599D01*
X188789014Y-79980706D01*
X189015134Y-79795134D01*
X189200706Y-79569014D01*
X189230000Y-79514209D01*
X189259294Y-79569014D01*
X189444866Y-79795134D01*
X189670986Y-79980706D01*
X189928966Y-80118599D01*
X190208889Y-80203513D01*
X190427050Y-80225000D01*
X190572950Y-80225000D01*
X190791111Y-80203513D01*
X191071034Y-80118599D01*
X191329014Y-79980706D01*
X191555134Y-79795134D01*
X191740706Y-79569014D01*
X191770000Y-79514209D01*
X191799294Y-79569014D01*
X191984866Y-79795134D01*
X192210986Y-79980706D01*
X192468966Y-80118599D01*
X192748889Y-80203513D01*
X192967050Y-80225000D01*
X193112950Y-80225000D01*
X193331111Y-80203513D01*
X193611034Y-80118599D01*
X193869014Y-79980706D01*
X194095134Y-79795134D01*
X194280706Y-79569014D01*
X194310000Y-79514209D01*
X194339294Y-79569014D01*
X194524866Y-79795134D01*
X194750986Y-79980706D01*
X195008966Y-80118599D01*
X195288889Y-80203513D01*
X195507050Y-80225000D01*
X195652950Y-80225000D01*
X195871111Y-80203513D01*
X196151034Y-80118599D01*
X196409014Y-79980706D01*
X196635134Y-79795134D01*
X196820706Y-79569014D01*
X196850000Y-79514209D01*
X196879294Y-79569014D01*
X197064866Y-79795134D01*
X197290986Y-79980706D01*
X197548966Y-80118599D01*
X197828889Y-80203513D01*
X198047050Y-80225000D01*
X198192950Y-80225000D01*
X198411111Y-80203513D01*
X198691034Y-80118599D01*
X198949014Y-79980706D01*
X199175134Y-79795134D01*
X199360706Y-79569014D01*
X199390000Y-79514209D01*
X199419294Y-79569014D01*
X199604866Y-79795134D01*
X199830986Y-79980706D01*
X200088966Y-80118599D01*
X200368889Y-80203513D01*
X200587050Y-80225000D01*
X200732950Y-80225000D01*
X200951111Y-80203513D01*
X201231034Y-80118599D01*
X201489014Y-79980706D01*
X201715134Y-79795134D01*
X201900706Y-79569014D01*
X201930000Y-79514209D01*
X201959294Y-79569014D01*
X202144866Y-79795134D01*
X202370986Y-79980706D01*
X202628966Y-80118599D01*
X202908889Y-80203513D01*
X203127050Y-80225000D01*
X203272950Y-80225000D01*
X203491111Y-80203513D01*
X203771034Y-80118599D01*
X204029014Y-79980706D01*
X204255134Y-79795134D01*
X204440706Y-79569014D01*
X204470000Y-79514209D01*
X204499294Y-79569014D01*
X204684866Y-79795134D01*
X204910986Y-79980706D01*
X205168966Y-80118599D01*
X205448889Y-80203513D01*
X205667050Y-80225000D01*
X205812950Y-80225000D01*
X206031111Y-80203513D01*
X206311034Y-80118599D01*
X206569014Y-79980706D01*
X206795134Y-79795134D01*
X206980706Y-79569014D01*
X207118599Y-79311034D01*
X207203513Y-79031111D01*
X207232185Y-78740000D01*
X207203513Y-78448889D01*
X207118599Y-78168966D01*
X206980706Y-77910986D01*
X206795134Y-77684866D01*
X206569014Y-77499294D01*
X206311034Y-77361401D01*
X206031111Y-77276487D01*
X205812950Y-77255000D01*
X205667050Y-77255000D01*
X205448889Y-77276487D01*
X205374005Y-77299203D01*
X203368872Y-75294071D01*
X203464001Y-75216001D01*
X203487803Y-75186998D01*
X204111004Y-74563798D01*
X204140001Y-74540001D01*
X204234974Y-74424276D01*
X204305546Y-74292247D01*
X204311928Y-74271208D01*
X204311928Y-74510000D01*
X204324188Y-74634482D01*
X204360498Y-74754180D01*
X204419463Y-74864494D01*
X204498815Y-74961185D01*
X204595506Y-75040537D01*
X204705820Y-75099502D01*
X204825518Y-75135812D01*
X204950000Y-75148072D01*
X206650000Y-75148072D01*
X206774482Y-75135812D01*
X206894180Y-75099502D01*
X207004494Y-75040537D01*
X207101185Y-74961185D01*
X207180537Y-74864494D01*
X207239502Y-74754180D01*
X207275812Y-74634482D01*
X207288072Y-74510000D01*
X207288072Y-72810000D01*
X207275812Y-72685518D01*
X207239502Y-72565820D01*
X207180537Y-72455506D01*
X207101185Y-72358815D01*
X207004494Y-72279463D01*
X206894180Y-72220498D01*
X206774482Y-72184188D01*
X206650000Y-72171928D01*
X204950000Y-72171928D01*
X204825518Y-72184188D01*
X204705820Y-72220498D01*
X204595506Y-72279463D01*
X204498815Y-72358815D01*
X204419463Y-72455506D01*
X204360498Y-72565820D01*
X204360000Y-72567462D01*
X204360000Y-70760000D01*
X205162678Y-70760000D01*
X205200000Y-70763676D01*
X205237322Y-70760000D01*
X205237333Y-70760000D01*
X205348986Y-70749003D01*
X205492247Y-70705546D01*
X205624276Y-70634974D01*
X205740001Y-70540001D01*
X205763803Y-70510998D01*
X206111003Y-70163799D01*
X206140001Y-70140001D01*
X206234974Y-70024276D01*
X206262154Y-69973427D01*
X206311034Y-69958599D01*
X206569014Y-69820706D01*
X206795134Y-69635134D01*
X206980706Y-69409014D01*
X207118599Y-69151034D01*
X207203513Y-68871111D01*
X207232185Y-68580000D01*
X207203513Y-68288889D01*
X207118599Y-68008966D01*
X206980706Y-67750986D01*
X206795134Y-67524866D01*
X206569014Y-67339294D01*
X206311034Y-67201401D01*
X206031111Y-67116487D01*
X205812950Y-67095000D01*
X205667050Y-67095000D01*
X205448889Y-67116487D01*
X205168966Y-67201401D01*
X204910986Y-67339294D01*
X204684866Y-67524866D01*
X204499294Y-67750986D01*
X204470000Y-67805791D01*
X204440706Y-67750986D01*
X204255134Y-67524866D01*
X204029014Y-67339294D01*
X203771034Y-67201401D01*
X203491111Y-67116487D01*
X203272950Y-67095000D01*
X203127050Y-67095000D01*
X202908889Y-67116487D01*
X202628966Y-67201401D01*
X202370986Y-67339294D01*
X202144866Y-67524866D01*
X201959294Y-67750986D01*
X201930000Y-67805791D01*
X201900706Y-67750986D01*
X201715134Y-67524866D01*
X201489014Y-67339294D01*
X201231034Y-67201401D01*
X200951111Y-67116487D01*
X200732950Y-67095000D01*
X200587050Y-67095000D01*
X200368889Y-67116487D01*
X200088966Y-67201401D01*
X199830986Y-67339294D01*
X199604866Y-67524866D01*
X199419294Y-67750986D01*
X199390000Y-67805791D01*
X199360706Y-67750986D01*
X199175134Y-67524866D01*
X198949014Y-67339294D01*
X198691034Y-67201401D01*
X198411111Y-67116487D01*
X198192950Y-67095000D01*
X198047050Y-67095000D01*
X197828889Y-67116487D01*
X197548966Y-67201401D01*
X197290986Y-67339294D01*
X197064866Y-67524866D01*
X196879294Y-67750986D01*
X196850000Y-67805791D01*
X196820706Y-67750986D01*
X196635134Y-67524866D01*
X196409014Y-67339294D01*
X196151034Y-67201401D01*
X195871111Y-67116487D01*
X195652950Y-67095000D01*
X195507050Y-67095000D01*
X195288889Y-67116487D01*
X195008966Y-67201401D01*
X194750986Y-67339294D01*
X194524866Y-67524866D01*
X194339294Y-67750986D01*
X194310000Y-67805791D01*
X194280706Y-67750986D01*
X194095134Y-67524866D01*
X193869014Y-67339294D01*
X193611034Y-67201401D01*
X193331111Y-67116487D01*
X193112950Y-67095000D01*
X192967050Y-67095000D01*
X192748889Y-67116487D01*
X192468966Y-67201401D01*
X192210986Y-67339294D01*
X191984866Y-67524866D01*
X191799294Y-67750986D01*
X191770000Y-67805791D01*
X191740706Y-67750986D01*
X191555134Y-67524866D01*
X191329014Y-67339294D01*
X191071034Y-67201401D01*
X190791111Y-67116487D01*
X190572950Y-67095000D01*
X190427050Y-67095000D01*
X190208889Y-67116487D01*
X189928966Y-67201401D01*
X189670986Y-67339294D01*
X189444866Y-67524866D01*
X189259294Y-67750986D01*
X189230000Y-67805791D01*
X189200706Y-67750986D01*
X189015134Y-67524866D01*
X188789014Y-67339294D01*
X188531034Y-67201401D01*
X188251111Y-67116487D01*
X188032950Y-67095000D01*
X187887050Y-67095000D01*
X187668889Y-67116487D01*
X187388966Y-67201401D01*
X187130986Y-67339294D01*
X186904866Y-67524866D01*
X186719294Y-67750986D01*
X186690000Y-67805791D01*
X186660706Y-67750986D01*
X186475134Y-67524866D01*
X186249014Y-67339294D01*
X185991034Y-67201401D01*
X185711111Y-67116487D01*
X185492950Y-67095000D01*
X185347050Y-67095000D01*
X185128889Y-67116487D01*
X184848966Y-67201401D01*
X184590986Y-67339294D01*
X184364866Y-67524866D01*
X184179294Y-67750986D01*
X184150000Y-67805791D01*
X184120706Y-67750986D01*
X183935134Y-67524866D01*
X183709014Y-67339294D01*
X183451034Y-67201401D01*
X183171111Y-67116487D01*
X182952950Y-67095000D01*
X182807050Y-67095000D01*
X182588889Y-67116487D01*
X182308966Y-67201401D01*
X182050986Y-67339294D01*
X181824866Y-67524866D01*
X181639294Y-67750986D01*
X181610000Y-67805791D01*
X181580706Y-67750986D01*
X181395134Y-67524866D01*
X181169014Y-67339294D01*
X180911034Y-67201401D01*
X180631111Y-67116487D01*
X180412950Y-67095000D01*
X180267050Y-67095000D01*
X180048889Y-67116487D01*
X179768966Y-67201401D01*
X179510986Y-67339294D01*
X179284866Y-67524866D01*
X179260393Y-67554687D01*
X179239502Y-67485820D01*
X179180537Y-67375506D01*
X179101185Y-67278815D01*
X179004494Y-67199463D01*
X178894180Y-67140498D01*
X178774482Y-67104188D01*
X178650000Y-67091928D01*
X176950000Y-67091928D01*
X176825518Y-67104188D01*
X176705820Y-67140498D01*
X176595506Y-67199463D01*
X176498815Y-67278815D01*
X176419463Y-67375506D01*
X176360498Y-67485820D01*
X176324188Y-67605518D01*
X176311928Y-67730000D01*
X176136450Y-67730000D01*
X176236744Y-67541375D01*
X176468254Y-67257516D01*
X176750486Y-67024035D01*
X177072695Y-66849817D01*
X177422614Y-66741498D01*
X177817443Y-66700000D01*
X205707721Y-66700000D01*
X206104545Y-66738909D01*
X206104545Y-66738909D01*
G37*
X206104545Y-66738909D02*
X206455208Y-66844780D01*
X206778625Y-67016744D01*
X207062484Y-67248254D01*
X207295965Y-67530486D01*
X207470183Y-67852695D01*
X207578502Y-68202614D01*
X207620001Y-68597452D01*
X207620000Y-78707721D01*
X207581091Y-79104545D01*
X207475220Y-79455206D01*
X207303257Y-79778623D01*
X207071748Y-80062482D01*
X206789514Y-80295965D01*
X206467304Y-80470184D01*
X206117385Y-80578502D01*
X205722557Y-80620000D01*
X177832279Y-80620000D01*
X177435455Y-80581091D01*
X177084794Y-80475220D01*
X176761377Y-80303257D01*
X176477518Y-80071748D01*
X176244035Y-79789514D01*
X176069816Y-79467304D01*
X175961498Y-79117385D01*
X175920000Y-78722557D01*
X175920000Y-68612279D01*
X175958909Y-68215455D01*
X176064780Y-67864792D01*
X176136450Y-67730000D01*
X176311928Y-67730000D01*
X176311928Y-69430000D01*
X176324188Y-69554482D01*
X176360498Y-69674180D01*
X176419463Y-69784494D01*
X176498815Y-69881185D01*
X176595506Y-69960537D01*
X176705820Y-70019502D01*
X176825518Y-70055812D01*
X176950000Y-70068072D01*
X177040000Y-70068072D01*
X177040000Y-71012677D01*
X177036324Y-71050000D01*
X177040000Y-71087322D01*
X177040000Y-71087332D01*
X177050997Y-71198985D01*
X177091548Y-71332667D01*
X177094454Y-71342246D01*
X177165026Y-71474276D01*
X177195167Y-71511002D01*
X177259999Y-71590001D01*
X177289002Y-71613804D01*
X178030198Y-72355000D01*
X177289002Y-73096196D01*
X177259999Y-73119999D01*
X177207740Y-73183677D01*
X177165026Y-73235724D01*
X177104479Y-73348998D01*
X177094454Y-73367754D01*
X177050997Y-73511015D01*
X177040000Y-73622668D01*
X177040000Y-73622678D01*
X177036324Y-73660000D01*
X177040000Y-73697323D01*
X177040001Y-77251928D01*
X176950000Y-77251928D01*
X176825518Y-77264188D01*
X176705820Y-77300498D01*
X176595506Y-77359463D01*
X176498815Y-77438815D01*
X176419463Y-77535506D01*
X176360498Y-77645820D01*
X176324188Y-77765518D01*
X176311928Y-77890000D01*
X176311928Y-79590000D01*
X176324188Y-79714482D01*
X176360498Y-79834180D01*
X176419463Y-79944494D01*
X176498815Y-80041185D01*
X176595506Y-80120537D01*
X176705820Y-80179502D01*
X176825518Y-80215812D01*
X176950000Y-80228072D01*
X178650000Y-80228072D01*
X178774482Y-80215812D01*
X178894180Y-80179502D01*
X179004494Y-80120537D01*
X179101185Y-80041185D01*
X179180537Y-79944494D01*
X179239502Y-79834180D01*
X179260393Y-79765313D01*
X179284866Y-79795134D01*
X179510986Y-79980706D01*
X179768966Y-80118599D01*
X180048889Y-80203513D01*
X180267050Y-80225000D01*
X180412950Y-80225000D01*
X180631111Y-80203513D01*
X180911034Y-80118599D01*
X181169014Y-79980706D01*
X181395134Y-79795134D01*
X181580706Y-79569014D01*
X181610000Y-79514209D01*
X181639294Y-79569014D01*
X181824866Y-79795134D01*
X182050986Y-79980706D01*
X182308966Y-80118599D01*
X182588889Y-80203513D01*
X182807050Y-80225000D01*
X182952950Y-80225000D01*
X183171111Y-80203513D01*
X183451034Y-80118599D01*
X183709014Y-79980706D01*
X183935134Y-79795134D01*
X184120706Y-79569014D01*
X184150000Y-79514209D01*
X184179294Y-79569014D01*
X184364866Y-79795134D01*
X184590986Y-79980706D01*
X184848966Y-80118599D01*
X185128889Y-80203513D01*
X185347050Y-80225000D01*
X185492950Y-80225000D01*
X185711111Y-80203513D01*
X185991034Y-80118599D01*
X186249014Y-79980706D01*
X186475134Y-79795134D01*
X186660706Y-79569014D01*
X186690000Y-79514209D01*
X186719294Y-79569014D01*
X186904866Y-79795134D01*
X187130986Y-79980706D01*
X187388966Y-80118599D01*
X187668889Y-80203513D01*
X187887050Y-80225000D01*
X188032950Y-80225000D01*
X188251111Y-80203513D01*
X188531034Y-80118599D01*
X188789014Y-79980706D01*
X189015134Y-79795134D01*
X189200706Y-79569014D01*
X189230000Y-79514209D01*
X189259294Y-79569014D01*
X189444866Y-79795134D01*
X189670986Y-79980706D01*
X189928966Y-80118599D01*
X190208889Y-80203513D01*
X190427050Y-80225000D01*
X190572950Y-80225000D01*
X190791111Y-80203513D01*
X191071034Y-80118599D01*
X191329014Y-79980706D01*
X191555134Y-79795134D01*
X191740706Y-79569014D01*
X191770000Y-79514209D01*
X191799294Y-79569014D01*
X191984866Y-79795134D01*
X192210986Y-79980706D01*
X192468966Y-80118599D01*
X192748889Y-80203513D01*
X192967050Y-80225000D01*
X193112950Y-80225000D01*
X193331111Y-80203513D01*
X193611034Y-80118599D01*
X193869014Y-79980706D01*
X194095134Y-79795134D01*
X194280706Y-79569014D01*
X194310000Y-79514209D01*
X194339294Y-79569014D01*
X194524866Y-79795134D01*
X194750986Y-79980706D01*
X195008966Y-80118599D01*
X195288889Y-80203513D01*
X195507050Y-80225000D01*
X195652950Y-80225000D01*
X195871111Y-80203513D01*
X196151034Y-80118599D01*
X196409014Y-79980706D01*
X196635134Y-79795134D01*
X196820706Y-79569014D01*
X196850000Y-79514209D01*
X196879294Y-79569014D01*
X197064866Y-79795134D01*
X197290986Y-79980706D01*
X197548966Y-80118599D01*
X197828889Y-80203513D01*
X198047050Y-80225000D01*
X198192950Y-80225000D01*
X198411111Y-80203513D01*
X198691034Y-80118599D01*
X198949014Y-79980706D01*
X199175134Y-79795134D01*
X199360706Y-79569014D01*
X199390000Y-79514209D01*
X199419294Y-79569014D01*
X199604866Y-79795134D01*
X199830986Y-79980706D01*
X200088966Y-80118599D01*
X200368889Y-80203513D01*
X200587050Y-80225000D01*
X200732950Y-80225000D01*
X200951111Y-80203513D01*
X201231034Y-80118599D01*
X201489014Y-79980706D01*
X201715134Y-79795134D01*
X201900706Y-79569014D01*
X201930000Y-79514209D01*
X201959294Y-79569014D01*
X202144866Y-79795134D01*
X202370986Y-79980706D01*
X202628966Y-80118599D01*
X202908889Y-80203513D01*
X203127050Y-80225000D01*
X203272950Y-80225000D01*
X203491111Y-80203513D01*
X203771034Y-80118599D01*
X204029014Y-79980706D01*
X204255134Y-79795134D01*
X204440706Y-79569014D01*
X204470000Y-79514209D01*
X204499294Y-79569014D01*
X204684866Y-79795134D01*
X204910986Y-79980706D01*
X205168966Y-80118599D01*
X205448889Y-80203513D01*
X205667050Y-80225000D01*
X205812950Y-80225000D01*
X206031111Y-80203513D01*
X206311034Y-80118599D01*
X206569014Y-79980706D01*
X206795134Y-79795134D01*
X206980706Y-79569014D01*
X207118599Y-79311034D01*
X207203513Y-79031111D01*
X207232185Y-78740000D01*
X207203513Y-78448889D01*
X207118599Y-78168966D01*
X206980706Y-77910986D01*
X206795134Y-77684866D01*
X206569014Y-77499294D01*
X206311034Y-77361401D01*
X206031111Y-77276487D01*
X205812950Y-77255000D01*
X205667050Y-77255000D01*
X205448889Y-77276487D01*
X205374005Y-77299203D01*
X203368872Y-75294071D01*
X203464001Y-75216001D01*
X203487803Y-75186998D01*
X204111004Y-74563798D01*
X204140001Y-74540001D01*
X204234974Y-74424276D01*
X204305546Y-74292247D01*
X204311928Y-74271208D01*
X204311928Y-74510000D01*
X204324188Y-74634482D01*
X204360498Y-74754180D01*
X204419463Y-74864494D01*
X204498815Y-74961185D01*
X204595506Y-75040537D01*
X204705820Y-75099502D01*
X204825518Y-75135812D01*
X204950000Y-75148072D01*
X206650000Y-75148072D01*
X206774482Y-75135812D01*
X206894180Y-75099502D01*
X207004494Y-75040537D01*
X207101185Y-74961185D01*
X207180537Y-74864494D01*
X207239502Y-74754180D01*
X207275812Y-74634482D01*
X207288072Y-74510000D01*
X207288072Y-72810000D01*
X207275812Y-72685518D01*
X207239502Y-72565820D01*
X207180537Y-72455506D01*
X207101185Y-72358815D01*
X207004494Y-72279463D01*
X206894180Y-72220498D01*
X206774482Y-72184188D01*
X206650000Y-72171928D01*
X204950000Y-72171928D01*
X204825518Y-72184188D01*
X204705820Y-72220498D01*
X204595506Y-72279463D01*
X204498815Y-72358815D01*
X204419463Y-72455506D01*
X204360498Y-72565820D01*
X204360000Y-72567462D01*
X204360000Y-70760000D01*
X205162678Y-70760000D01*
X205200000Y-70763676D01*
X205237322Y-70760000D01*
X205237333Y-70760000D01*
X205348986Y-70749003D01*
X205492247Y-70705546D01*
X205624276Y-70634974D01*
X205740001Y-70540001D01*
X205763803Y-70510998D01*
X206111003Y-70163799D01*
X206140001Y-70140001D01*
X206234974Y-70024276D01*
X206262154Y-69973427D01*
X206311034Y-69958599D01*
X206569014Y-69820706D01*
X206795134Y-69635134D01*
X206980706Y-69409014D01*
X207118599Y-69151034D01*
X207203513Y-68871111D01*
X207232185Y-68580000D01*
X207203513Y-68288889D01*
X207118599Y-68008966D01*
X206980706Y-67750986D01*
X206795134Y-67524866D01*
X206569014Y-67339294D01*
X206311034Y-67201401D01*
X206031111Y-67116487D01*
X205812950Y-67095000D01*
X205667050Y-67095000D01*
X205448889Y-67116487D01*
X205168966Y-67201401D01*
X204910986Y-67339294D01*
X204684866Y-67524866D01*
X204499294Y-67750986D01*
X204470000Y-67805791D01*
X204440706Y-67750986D01*
X204255134Y-67524866D01*
X204029014Y-67339294D01*
X203771034Y-67201401D01*
X203491111Y-67116487D01*
X203272950Y-67095000D01*
X203127050Y-67095000D01*
X202908889Y-67116487D01*
X202628966Y-67201401D01*
X202370986Y-67339294D01*
X202144866Y-67524866D01*
X201959294Y-67750986D01*
X201930000Y-67805791D01*
X201900706Y-67750986D01*
X201715134Y-67524866D01*
X201489014Y-67339294D01*
X201231034Y-67201401D01*
X200951111Y-67116487D01*
X200732950Y-67095000D01*
X200587050Y-67095000D01*
X200368889Y-67116487D01*
X200088966Y-67201401D01*
X199830986Y-67339294D01*
X199604866Y-67524866D01*
X199419294Y-67750986D01*
X199390000Y-67805791D01*
X199360706Y-67750986D01*
X199175134Y-67524866D01*
X198949014Y-67339294D01*
X198691034Y-67201401D01*
X198411111Y-67116487D01*
X198192950Y-67095000D01*
X198047050Y-67095000D01*
X197828889Y-67116487D01*
X197548966Y-67201401D01*
X197290986Y-67339294D01*
X197064866Y-67524866D01*
X196879294Y-67750986D01*
X196850000Y-67805791D01*
X196820706Y-67750986D01*
X196635134Y-67524866D01*
X196409014Y-67339294D01*
X196151034Y-67201401D01*
X195871111Y-67116487D01*
X195652950Y-67095000D01*
X195507050Y-67095000D01*
X195288889Y-67116487D01*
X195008966Y-67201401D01*
X194750986Y-67339294D01*
X194524866Y-67524866D01*
X194339294Y-67750986D01*
X194310000Y-67805791D01*
X194280706Y-67750986D01*
X194095134Y-67524866D01*
X193869014Y-67339294D01*
X193611034Y-67201401D01*
X193331111Y-67116487D01*
X193112950Y-67095000D01*
X192967050Y-67095000D01*
X192748889Y-67116487D01*
X192468966Y-67201401D01*
X192210986Y-67339294D01*
X191984866Y-67524866D01*
X191799294Y-67750986D01*
X191770000Y-67805791D01*
X191740706Y-67750986D01*
X191555134Y-67524866D01*
X191329014Y-67339294D01*
X191071034Y-67201401D01*
X190791111Y-67116487D01*
X190572950Y-67095000D01*
X190427050Y-67095000D01*
X190208889Y-67116487D01*
X189928966Y-67201401D01*
X189670986Y-67339294D01*
X189444866Y-67524866D01*
X189259294Y-67750986D01*
X189230000Y-67805791D01*
X189200706Y-67750986D01*
X189015134Y-67524866D01*
X188789014Y-67339294D01*
X188531034Y-67201401D01*
X188251111Y-67116487D01*
X188032950Y-67095000D01*
X187887050Y-67095000D01*
X187668889Y-67116487D01*
X187388966Y-67201401D01*
X187130986Y-67339294D01*
X186904866Y-67524866D01*
X186719294Y-67750986D01*
X186690000Y-67805791D01*
X186660706Y-67750986D01*
X186475134Y-67524866D01*
X186249014Y-67339294D01*
X185991034Y-67201401D01*
X185711111Y-67116487D01*
X185492950Y-67095000D01*
X185347050Y-67095000D01*
X185128889Y-67116487D01*
X184848966Y-67201401D01*
X184590986Y-67339294D01*
X184364866Y-67524866D01*
X184179294Y-67750986D01*
X184150000Y-67805791D01*
X184120706Y-67750986D01*
X183935134Y-67524866D01*
X183709014Y-67339294D01*
X183451034Y-67201401D01*
X183171111Y-67116487D01*
X182952950Y-67095000D01*
X182807050Y-67095000D01*
X182588889Y-67116487D01*
X182308966Y-67201401D01*
X182050986Y-67339294D01*
X181824866Y-67524866D01*
X181639294Y-67750986D01*
X181610000Y-67805791D01*
X181580706Y-67750986D01*
X181395134Y-67524866D01*
X181169014Y-67339294D01*
X180911034Y-67201401D01*
X180631111Y-67116487D01*
X180412950Y-67095000D01*
X180267050Y-67095000D01*
X180048889Y-67116487D01*
X179768966Y-67201401D01*
X179510986Y-67339294D01*
X179284866Y-67524866D01*
X179260393Y-67554687D01*
X179239502Y-67485820D01*
X179180537Y-67375506D01*
X179101185Y-67278815D01*
X179004494Y-67199463D01*
X178894180Y-67140498D01*
X178774482Y-67104188D01*
X178650000Y-67091928D01*
X176950000Y-67091928D01*
X176825518Y-67104188D01*
X176705820Y-67140498D01*
X176595506Y-67199463D01*
X176498815Y-67278815D01*
X176419463Y-67375506D01*
X176360498Y-67485820D01*
X176324188Y-67605518D01*
X176311928Y-67730000D01*
X176136450Y-67730000D01*
X176236744Y-67541375D01*
X176468254Y-67257516D01*
X176750486Y-67024035D01*
X177072695Y-66849817D01*
X177422614Y-66741498D01*
X177817443Y-66700000D01*
X205707721Y-66700000D01*
X206104545Y-66738909D01*
G36*
X187254454Y-74637754D02*
G01*
X187210997Y-74781015D01*
X187200000Y-74892668D01*
X187200000Y-74892678D01*
X187196324Y-74930000D01*
X187200000Y-74967323D01*
X187200001Y-77462405D01*
X187130986Y-77499294D01*
X186904866Y-77684866D01*
X186719294Y-77910986D01*
X186690000Y-77965791D01*
X186660706Y-77910986D01*
X186475134Y-77684866D01*
X186249014Y-77499294D01*
X186180000Y-77462405D01*
X186180000Y-75244801D01*
X186804802Y-74620000D01*
X187263944Y-74620000D01*
X187254454Y-74637754D01*
X187254454Y-74637754D01*
G37*
X187254454Y-74637754D02*
X187210997Y-74781015D01*
X187200000Y-74892668D01*
X187200000Y-74892678D01*
X187196324Y-74930000D01*
X187200000Y-74967323D01*
X187200001Y-77462405D01*
X187130986Y-77499294D01*
X186904866Y-77684866D01*
X186719294Y-77910986D01*
X186690000Y-77965791D01*
X186660706Y-77910986D01*
X186475134Y-77684866D01*
X186249014Y-77499294D01*
X186180000Y-77462405D01*
X186180000Y-75244801D01*
X186804802Y-74620000D01*
X187263944Y-74620000D01*
X187254454Y-74637754D01*
G36*
X197134774Y-77627494D02*
G01*
X197064866Y-77684866D01*
X196879294Y-77910986D01*
X196850000Y-77965791D01*
X196820706Y-77910986D01*
X196635134Y-77684866D01*
X196525632Y-77595000D01*
X197102280Y-77595000D01*
X197134774Y-77627494D01*
X197134774Y-77627494D01*
G37*
X197134774Y-77627494D02*
X197064866Y-77684866D01*
X196879294Y-77910986D01*
X196850000Y-77965791D01*
X196820706Y-77910986D01*
X196635134Y-77684866D01*
X196525632Y-77595000D01*
X197102280Y-77595000D01*
X197134774Y-77627494D01*
G36*
X184909002Y-74366196D02*
G01*
X184879999Y-74389999D01*
X184842643Y-74435518D01*
X184785026Y-74505724D01*
X184742929Y-74584482D01*
X184714454Y-74637754D01*
X184670997Y-74781015D01*
X184660000Y-74892668D01*
X184660000Y-74892678D01*
X184656324Y-74930000D01*
X184660000Y-74967323D01*
X184660001Y-77462405D01*
X184590986Y-77499294D01*
X184364866Y-77684866D01*
X184179294Y-77910986D01*
X184150000Y-77965791D01*
X184120706Y-77910986D01*
X183935134Y-77684866D01*
X183709014Y-77499294D01*
X183640000Y-77462405D01*
X183640000Y-75244801D01*
X184664802Y-74220000D01*
X185055199Y-74220000D01*
X184909002Y-74366196D01*
X184909002Y-74366196D01*
G37*
X184909002Y-74366196D02*
X184879999Y-74389999D01*
X184842643Y-74435518D01*
X184785026Y-74505724D01*
X184742929Y-74584482D01*
X184714454Y-74637754D01*
X184670997Y-74781015D01*
X184660000Y-74892668D01*
X184660000Y-74892678D01*
X184656324Y-74930000D01*
X184660000Y-74967323D01*
X184660001Y-77462405D01*
X184590986Y-77499294D01*
X184364866Y-77684866D01*
X184179294Y-77910986D01*
X184150000Y-77965791D01*
X184120706Y-77910986D01*
X183935134Y-77684866D01*
X183709014Y-77499294D01*
X183640000Y-77462405D01*
X183640000Y-75244801D01*
X184664802Y-74220000D01*
X185055199Y-74220000D01*
X184909002Y-74366196D01*
G36*
X182369003Y-74366196D02*
G01*
X182339999Y-74389999D01*
X182302643Y-74435518D01*
X182245026Y-74505724D01*
X182202929Y-74584482D01*
X182174454Y-74637754D01*
X182130997Y-74781015D01*
X182120000Y-74892668D01*
X182120000Y-74892678D01*
X182116324Y-74930000D01*
X182120000Y-74967323D01*
X182120001Y-77462405D01*
X182050986Y-77499294D01*
X181824866Y-77684866D01*
X181639294Y-77910986D01*
X181610000Y-77965791D01*
X181580706Y-77910986D01*
X181395134Y-77684866D01*
X181169014Y-77499294D01*
X181100000Y-77462405D01*
X181100000Y-74044801D01*
X181324802Y-73820000D01*
X182915199Y-73820000D01*
X182369003Y-74366196D01*
X182369003Y-74366196D01*
G37*
X182369003Y-74366196D02*
X182339999Y-74389999D01*
X182302643Y-74435518D01*
X182245026Y-74505724D01*
X182202929Y-74584482D01*
X182174454Y-74637754D01*
X182130997Y-74781015D01*
X182120000Y-74892668D01*
X182120000Y-74892678D01*
X182116324Y-74930000D01*
X182120000Y-74967323D01*
X182120001Y-77462405D01*
X182050986Y-77499294D01*
X181824866Y-77684866D01*
X181639294Y-77910986D01*
X181610000Y-77965791D01*
X181580706Y-77910986D01*
X181395134Y-77684866D01*
X181169014Y-77499294D01*
X181100000Y-77462405D01*
X181100000Y-74044801D01*
X181324802Y-73820000D01*
X182915199Y-73820000D01*
X182369003Y-74366196D01*
G36*
X179634454Y-73437754D02*
G01*
X179590997Y-73581015D01*
X179580000Y-73692668D01*
X179580000Y-73692678D01*
X179576324Y-73730000D01*
X179580000Y-73767323D01*
X179580001Y-77462405D01*
X179510986Y-77499294D01*
X179284866Y-77684866D01*
X179260393Y-77714687D01*
X179239502Y-77645820D01*
X179180537Y-77535506D01*
X179101185Y-77438815D01*
X179004494Y-77359463D01*
X178894180Y-77300498D01*
X178774482Y-77264188D01*
X178650000Y-77251928D01*
X178560000Y-77251928D01*
X178560000Y-73974801D01*
X179114802Y-73420000D01*
X179643944Y-73420000D01*
X179634454Y-73437754D01*
X179634454Y-73437754D01*
G37*
X179634454Y-73437754D02*
X179590997Y-73581015D01*
X179580000Y-73692668D01*
X179580000Y-73692678D01*
X179576324Y-73730000D01*
X179580000Y-73767323D01*
X179580001Y-77462405D01*
X179510986Y-77499294D01*
X179284866Y-77684866D01*
X179260393Y-77714687D01*
X179239502Y-77645820D01*
X179180537Y-77535506D01*
X179101185Y-77438815D01*
X179004494Y-77359463D01*
X178894180Y-77300498D01*
X178774482Y-77264188D01*
X178650000Y-77251928D01*
X178560000Y-77251928D01*
X178560000Y-73974801D01*
X179114802Y-73420000D01*
X179643944Y-73420000D01*
X179634454Y-73437754D01*
G36*
X200640199Y-77255000D02*
G01*
X200587050Y-77255000D01*
X200368889Y-77276487D01*
X200294005Y-77299203D01*
X199700801Y-76706000D01*
X200091199Y-76706000D01*
X200640199Y-77255000D01*
X200640199Y-77255000D01*
G37*
X200640199Y-77255000D02*
X200587050Y-77255000D01*
X200368889Y-77276487D01*
X200294005Y-77299203D01*
X199700801Y-76706000D01*
X200091199Y-76706000D01*
X200640199Y-77255000D01*
G36*
X203180199Y-77255000D02*
G01*
X203127050Y-77255000D01*
X202908889Y-77276487D01*
X202834005Y-77299203D01*
X201454801Y-75920000D01*
X201845199Y-75920000D01*
X203180199Y-77255000D01*
X203180199Y-77255000D01*
G37*
X203180199Y-77255000D02*
X203127050Y-77255000D01*
X202908889Y-77276487D01*
X202834005Y-77299203D01*
X201454801Y-75920000D01*
X201845199Y-75920000D01*
X203180199Y-77255000D01*
G36*
X190010000Y-75535522D02*
G01*
X190004997Y-75552015D01*
X189994000Y-75663668D01*
X189994000Y-75663678D01*
X189990324Y-75701000D01*
X189994000Y-75738323D01*
X189994001Y-76924668D01*
X189990324Y-76962000D01*
X189994001Y-76999333D01*
X190004998Y-77110986D01*
X190009931Y-77127247D01*
X190030779Y-77195978D01*
X189990000Y-77155199D01*
X189990000Y-75420000D01*
X190010000Y-75420000D01*
X190010000Y-75535522D01*
X190010000Y-75535522D01*
G37*
X190010000Y-75535522D02*
X190004997Y-75552015D01*
X189994000Y-75663668D01*
X189994000Y-75663678D01*
X189990324Y-75701000D01*
X189994000Y-75738323D01*
X189994001Y-76924668D01*
X189990324Y-76962000D01*
X189994001Y-76999333D01*
X190004998Y-77110986D01*
X190009931Y-77127247D01*
X190030779Y-77195978D01*
X189990000Y-77155199D01*
X189990000Y-75420000D01*
X190010000Y-75420000D01*
X190010000Y-75535522D01*
G36*
X201959294Y-69409014D02*
G01*
X202144866Y-69635134D01*
X202370986Y-69820706D01*
X202440001Y-69857595D01*
X202440000Y-73485199D01*
X202425199Y-73500000D01*
X200824802Y-73500000D01*
X201171004Y-73153798D01*
X201200001Y-73130001D01*
X201294974Y-73014276D01*
X201365546Y-72882247D01*
X201409003Y-72738986D01*
X201420000Y-72627333D01*
X201420000Y-72627324D01*
X201423676Y-72590001D01*
X201420000Y-72552678D01*
X201420000Y-69857595D01*
X201489014Y-69820706D01*
X201715134Y-69635134D01*
X201900706Y-69409014D01*
X201930000Y-69354209D01*
X201959294Y-69409014D01*
X201959294Y-69409014D01*
G37*
X201959294Y-69409014D02*
X202144866Y-69635134D01*
X202370986Y-69820706D01*
X202440001Y-69857595D01*
X202440000Y-73485199D01*
X202425199Y-73500000D01*
X200824802Y-73500000D01*
X201171004Y-73153798D01*
X201200001Y-73130001D01*
X201294974Y-73014276D01*
X201365546Y-72882247D01*
X201409003Y-72738986D01*
X201420000Y-72627333D01*
X201420000Y-72627324D01*
X201423676Y-72590001D01*
X201420000Y-72552678D01*
X201420000Y-69857595D01*
X201489014Y-69820706D01*
X201715134Y-69635134D01*
X201900706Y-69409014D01*
X201930000Y-69354209D01*
X201959294Y-69409014D01*
G36*
X199419294Y-69409014D02*
G01*
X199604866Y-69635134D01*
X199830986Y-69820706D01*
X199900001Y-69857595D01*
X199900000Y-72275198D01*
X199075199Y-73100000D01*
X198821402Y-73100000D01*
X198825546Y-73092247D01*
X198827964Y-73084275D01*
X198869003Y-72948986D01*
X198880000Y-72837333D01*
X198880000Y-72837323D01*
X198883676Y-72800000D01*
X198880000Y-72762677D01*
X198880000Y-69857595D01*
X198949014Y-69820706D01*
X199175134Y-69635134D01*
X199360706Y-69409014D01*
X199390000Y-69354209D01*
X199419294Y-69409014D01*
X199419294Y-69409014D01*
G37*
X199419294Y-69409014D02*
X199604866Y-69635134D01*
X199830986Y-69820706D01*
X199900001Y-69857595D01*
X199900000Y-72275198D01*
X199075199Y-73100000D01*
X198821402Y-73100000D01*
X198825546Y-73092247D01*
X198827964Y-73084275D01*
X198869003Y-72948986D01*
X198880000Y-72837333D01*
X198880000Y-72837323D01*
X198883676Y-72800000D01*
X198880000Y-72762677D01*
X198880000Y-69857595D01*
X198949014Y-69820706D01*
X199175134Y-69635134D01*
X199360706Y-69409014D01*
X199390000Y-69354209D01*
X199419294Y-69409014D01*
G36*
X196879294Y-69409014D02*
G01*
X197064866Y-69635134D01*
X197290986Y-69820706D01*
X197360001Y-69857595D01*
X197360000Y-72485198D01*
X197145199Y-72700000D01*
X196289261Y-72700000D01*
X196329003Y-72568986D01*
X196340000Y-72457333D01*
X196340000Y-72457325D01*
X196343676Y-72420000D01*
X196340000Y-72382675D01*
X196340000Y-69857595D01*
X196409014Y-69820706D01*
X196635134Y-69635134D01*
X196820706Y-69409014D01*
X196850000Y-69354209D01*
X196879294Y-69409014D01*
X196879294Y-69409014D01*
G37*
X196879294Y-69409014D02*
X197064866Y-69635134D01*
X197290986Y-69820706D01*
X197360001Y-69857595D01*
X197360000Y-72485198D01*
X197145199Y-72700000D01*
X196289261Y-72700000D01*
X196329003Y-72568986D01*
X196340000Y-72457333D01*
X196340000Y-72457325D01*
X196343676Y-72420000D01*
X196340000Y-72382675D01*
X196340000Y-69857595D01*
X196409014Y-69820706D01*
X196635134Y-69635134D01*
X196820706Y-69409014D01*
X196850000Y-69354209D01*
X196879294Y-69409014D01*
G36*
X194339294Y-69409014D02*
G01*
X194524866Y-69635134D01*
X194750986Y-69820706D01*
X194820001Y-69857595D01*
X194820000Y-72105198D01*
X194625199Y-72300000D01*
X194126046Y-72300000D01*
X194075537Y-72205506D01*
X194030000Y-72150019D01*
X194030000Y-69688588D01*
X194095134Y-69635134D01*
X194280706Y-69409014D01*
X194310000Y-69354209D01*
X194339294Y-69409014D01*
X194339294Y-69409014D01*
G37*
X194339294Y-69409014D02*
X194524866Y-69635134D01*
X194750986Y-69820706D01*
X194820001Y-69857595D01*
X194820000Y-72105198D01*
X194625199Y-72300000D01*
X194126046Y-72300000D01*
X194075537Y-72205506D01*
X194030000Y-72150019D01*
X194030000Y-69688588D01*
X194095134Y-69635134D01*
X194280706Y-69409014D01*
X194310000Y-69354209D01*
X194339294Y-69409014D01*
G36*
X179284866Y-69635134D02*
G01*
X179510986Y-69820706D01*
X179580000Y-69857595D01*
X179580000Y-70802677D01*
X179576324Y-70840000D01*
X179580000Y-70877322D01*
X179580000Y-70877332D01*
X179590997Y-70988985D01*
X179631952Y-71123998D01*
X179634454Y-71132246D01*
X179705026Y-71264276D01*
X179730650Y-71295498D01*
X179799999Y-71380001D01*
X179824368Y-71400000D01*
X179224802Y-71400000D01*
X178560000Y-70735199D01*
X178560000Y-70068072D01*
X178650000Y-70068072D01*
X178774482Y-70055812D01*
X178894180Y-70019502D01*
X179004494Y-69960537D01*
X179101185Y-69881185D01*
X179180537Y-69784494D01*
X179239502Y-69674180D01*
X179260393Y-69605313D01*
X179284866Y-69635134D01*
X179284866Y-69635134D01*
G37*
X179284866Y-69635134D02*
X179510986Y-69820706D01*
X179580000Y-69857595D01*
X179580000Y-70802677D01*
X179576324Y-70840000D01*
X179580000Y-70877322D01*
X179580000Y-70877332D01*
X179590997Y-70988985D01*
X179631952Y-71123998D01*
X179634454Y-71132246D01*
X179705026Y-71264276D01*
X179730650Y-71295498D01*
X179799999Y-71380001D01*
X179824368Y-71400000D01*
X179224802Y-71400000D01*
X178560000Y-70735199D01*
X178560000Y-70068072D01*
X178650000Y-70068072D01*
X178774482Y-70055812D01*
X178894180Y-70019502D01*
X179004494Y-69960537D01*
X179101185Y-69881185D01*
X179180537Y-69784494D01*
X179239502Y-69674180D01*
X179260393Y-69605313D01*
X179284866Y-69635134D01*
G36*
X181639294Y-69409014D02*
G01*
X181824866Y-69635134D01*
X182050986Y-69820706D01*
X182120000Y-69857595D01*
X182120000Y-70342677D01*
X182116324Y-70380000D01*
X182120000Y-70417322D01*
X182120000Y-70417332D01*
X182130997Y-70528985D01*
X182159903Y-70624276D01*
X182174454Y-70672246D01*
X182210670Y-70740000D01*
X181314802Y-70740000D01*
X181100000Y-70525199D01*
X181100000Y-69857595D01*
X181169014Y-69820706D01*
X181395134Y-69635134D01*
X181580706Y-69409014D01*
X181610000Y-69354209D01*
X181639294Y-69409014D01*
X181639294Y-69409014D01*
G37*
X181639294Y-69409014D02*
X181824866Y-69635134D01*
X182050986Y-69820706D01*
X182120000Y-69857595D01*
X182120000Y-70342677D01*
X182116324Y-70380000D01*
X182120000Y-70417322D01*
X182120000Y-70417332D01*
X182130997Y-70528985D01*
X182159903Y-70624276D01*
X182174454Y-70672246D01*
X182210670Y-70740000D01*
X181314802Y-70740000D01*
X181100000Y-70525199D01*
X181100000Y-69857595D01*
X181169014Y-69820706D01*
X181395134Y-69635134D01*
X181580706Y-69409014D01*
X181610000Y-69354209D01*
X181639294Y-69409014D01*
G36*
X184179294Y-69409014D02*
G01*
X184364866Y-69635134D01*
X184590986Y-69820706D01*
X184848966Y-69958599D01*
X185128889Y-70043513D01*
X185347050Y-70065000D01*
X185492950Y-70065000D01*
X185711111Y-70043513D01*
X185785995Y-70020797D01*
X186005198Y-70240000D01*
X183814802Y-70240000D01*
X183640000Y-70065198D01*
X183640000Y-69857595D01*
X183709014Y-69820706D01*
X183935134Y-69635134D01*
X184120706Y-69409014D01*
X184150000Y-69354209D01*
X184179294Y-69409014D01*
X184179294Y-69409014D01*
G37*
X184179294Y-69409014D02*
X184364866Y-69635134D01*
X184590986Y-69820706D01*
X184848966Y-69958599D01*
X185128889Y-70043513D01*
X185347050Y-70065000D01*
X185492950Y-70065000D01*
X185711111Y-70043513D01*
X185785995Y-70020797D01*
X186005198Y-70240000D01*
X183814802Y-70240000D01*
X183640000Y-70065198D01*
X183640000Y-69857595D01*
X183709014Y-69820706D01*
X183935134Y-69635134D01*
X184120706Y-69409014D01*
X184150000Y-69354209D01*
X184179294Y-69409014D01*
M02*
