M48
; DRILL file {KiCad 6.0.0} date Tue 11 Jan 2022 23:33:41 GMT
; FORMAT={-:-/ absolute / inch / decimal}
; #@! TF.CreationDate,2022-01-11T23:33:41+00:00
; #@! TF.GenerationSoftware,Kicad,Pcbnew,6.0.0
; #@! TF.FileFunction,MixedPlating,1,2
FMAT,2
INCH
; #@! TA.AperFunction,Plated,PTH,ComponentDrill
T1C0.0394
; #@! TA.AperFunction,Plated,PTH,ComponentDrill
T2C0.1063
%
G90
G05
T1
X6.64Y-3.9
X6.64Y-4.0
X6.64Y-4.1
X6.64Y-4.2
X6.64Y-4.3
X6.64Y-4.4
X6.64Y-4.5
X6.64Y-4.6
X6.64Y-4.7
X6.64Y-4.8
X6.74Y-3.9
X6.74Y-4.0
X6.74Y-4.1
X6.74Y-4.2
X6.74Y-4.3
X6.74Y-4.4
X6.74Y-4.5
X6.74Y-4.6
X6.74Y-4.7
X6.74Y-4.8
X6.88Y-3.66
X6.88Y-3.76
X6.88Y-4.94
X6.88Y-5.04
X6.98Y-3.66
X6.98Y-3.76
X6.98Y-4.94
X6.98Y-5.04
X7.08Y-3.66
X7.08Y-3.76
X7.08Y-4.94
X7.08Y-5.04
X7.18Y-3.66
X7.18Y-3.76
X7.18Y-4.94
X7.18Y-5.04
X7.28Y-3.66
X7.28Y-3.76
X7.28Y-4.94
X7.28Y-5.04
X7.38Y-3.66
X7.38Y-3.76
X7.38Y-4.94
X7.38Y-5.04
X7.48Y-3.66
X7.48Y-3.76
X7.48Y-4.94
X7.48Y-5.04
X7.58Y-3.66
X7.58Y-3.76
X7.58Y-4.94
X7.58Y-5.04
X7.68Y-3.66
X7.68Y-3.76
X7.68Y-4.94
X7.68Y-5.04
X7.78Y-3.66
X7.78Y-3.76
X7.78Y-4.94
X7.78Y-5.04
X7.92Y-3.9
X7.92Y-4.0
X7.92Y-4.1
X7.92Y-4.2
X7.92Y-4.3
X7.92Y-4.4
X7.92Y-4.5
X7.92Y-4.6
X7.92Y-4.7
X7.92Y-4.8
X8.02Y-3.9
X8.02Y-4.0
X8.02Y-4.1
X8.02Y-4.2
X8.02Y-4.3
X8.02Y-4.4
X8.02Y-4.5
X8.02Y-4.6
X8.02Y-4.7
X8.02Y-4.8
T2
X6.69Y-3.71
X6.69Y-4.99
X7.97Y-3.71
X7.97Y-4.99
T0
M30
