%TF.GenerationSoftware,KiCad,Pcbnew,6.0.0*%
%TF.CreationDate,2022-01-11T23:33:24+00:00*%
%TF.ProjectId,qfp-80-breakout,7166702d-3830-42d6-9272-65616b6f7574,rev?*%
%TF.SameCoordinates,Original*%
%TF.FileFunction,Copper,L2,Bot*%
%TF.FilePolarity,Positive*%
%FSLAX46Y46*%
G04 Gerber Fmt 4.6, Leading zero omitted, Abs format (unit mm)*
G04 Created by KiCad (PCBNEW 6.0.0) date 2022-01-11 23:33:24*
%MOMM*%
%LPD*%
G01*
G04 APERTURE LIST*
%TA.AperFunction,ComponentPad*%
%ADD10O,1.700000X1.700000*%
%TD*%
%TA.AperFunction,ComponentPad*%
%ADD11R,1.700000X1.700000*%
%TD*%
%TA.AperFunction,ComponentPad*%
%ADD12C,4.700000*%
%TD*%
G04 APERTURE END LIST*
D10*
%TO.P,REF\u002A\u002A,20*%
%TO.N,N/C*%
X171196000Y-121920000D03*
%TO.P,REF\u002A\u002A,19*%
X168656000Y-121920000D03*
%TO.P,REF\u002A\u002A,18*%
X171196000Y-119380000D03*
%TO.P,REF\u002A\u002A,17*%
X168656000Y-119380000D03*
%TO.P,REF\u002A\u002A,16*%
X171196000Y-116840000D03*
%TO.P,REF\u002A\u002A,15*%
X168656000Y-116840000D03*
%TO.P,REF\u002A\u002A,14*%
X171196000Y-114300000D03*
%TO.P,REF\u002A\u002A,13*%
X168656000Y-114300000D03*
%TO.P,REF\u002A\u002A,12*%
X171196000Y-111760000D03*
%TO.P,REF\u002A\u002A,11*%
X168656000Y-111760000D03*
%TO.P,REF\u002A\u002A,10*%
X171196000Y-109220000D03*
%TO.P,REF\u002A\u002A,9*%
X168656000Y-109220000D03*
%TO.P,REF\u002A\u002A,8*%
X171196000Y-106680000D03*
%TO.P,REF\u002A\u002A,7*%
X168656000Y-106680000D03*
%TO.P,REF\u002A\u002A,6*%
X171196000Y-104140000D03*
%TO.P,REF\u002A\u002A,5*%
X168656000Y-104140000D03*
%TO.P,REF\u002A\u002A,4*%
X171196000Y-101600000D03*
%TO.P,REF\u002A\u002A,3*%
X168656000Y-101600000D03*
%TO.P,REF\u002A\u002A,2*%
X171196000Y-99060000D03*
D11*
%TO.P,REF\u002A\u002A,1*%
X168656000Y-99060000D03*
%TD*%
D10*
%TO.P,REF\u002A\u002A,20*%
%TO.N,N/C*%
X197612000Y-125476000D03*
%TO.P,REF\u002A\u002A,19*%
X197612000Y-128016000D03*
%TO.P,REF\u002A\u002A,18*%
X195072000Y-125476000D03*
%TO.P,REF\u002A\u002A,17*%
X195072000Y-128016000D03*
%TO.P,REF\u002A\u002A,16*%
X192532000Y-125476000D03*
%TO.P,REF\u002A\u002A,15*%
X192532000Y-128016000D03*
%TO.P,REF\u002A\u002A,14*%
X189992000Y-125476000D03*
%TO.P,REF\u002A\u002A,13*%
X189992000Y-128016000D03*
%TO.P,REF\u002A\u002A,12*%
X187452000Y-125476000D03*
%TO.P,REF\u002A\u002A,11*%
X187452000Y-128016000D03*
%TO.P,REF\u002A\u002A,10*%
X184912000Y-125476000D03*
%TO.P,REF\u002A\u002A,9*%
X184912000Y-128016000D03*
%TO.P,REF\u002A\u002A,8*%
X182372000Y-125476000D03*
%TO.P,REF\u002A\u002A,7*%
X182372000Y-128016000D03*
%TO.P,REF\u002A\u002A,6*%
X179832000Y-125476000D03*
%TO.P,REF\u002A\u002A,5*%
X179832000Y-128016000D03*
%TO.P,REF\u002A\u002A,4*%
X177292000Y-125476000D03*
%TO.P,REF\u002A\u002A,3*%
X177292000Y-128016000D03*
%TO.P,REF\u002A\u002A,2*%
X174752000Y-125476000D03*
D11*
%TO.P,REF\u002A\u002A,1*%
X174752000Y-128016000D03*
%TD*%
D10*
%TO.P,REF\u002A\u002A,20*%
%TO.N,N/C*%
X174752000Y-95504000D03*
%TO.P,REF\u002A\u002A,19*%
X174752000Y-92964000D03*
%TO.P,REF\u002A\u002A,18*%
X177292000Y-95504000D03*
%TO.P,REF\u002A\u002A,17*%
X177292000Y-92964000D03*
%TO.P,REF\u002A\u002A,16*%
X179832000Y-95504000D03*
%TO.P,REF\u002A\u002A,15*%
X179832000Y-92964000D03*
%TO.P,REF\u002A\u002A,14*%
X182372000Y-95504000D03*
%TO.P,REF\u002A\u002A,13*%
X182372000Y-92964000D03*
%TO.P,REF\u002A\u002A,12*%
X184912000Y-95504000D03*
%TO.P,REF\u002A\u002A,11*%
X184912000Y-92964000D03*
%TO.P,REF\u002A\u002A,10*%
X187452000Y-95504000D03*
%TO.P,REF\u002A\u002A,9*%
X187452000Y-92964000D03*
%TO.P,REF\u002A\u002A,8*%
X189992000Y-95504000D03*
%TO.P,REF\u002A\u002A,7*%
X189992000Y-92964000D03*
%TO.P,REF\u002A\u002A,6*%
X192532000Y-95504000D03*
%TO.P,REF\u002A\u002A,5*%
X192532000Y-92964000D03*
%TO.P,REF\u002A\u002A,4*%
X195072000Y-95504000D03*
%TO.P,REF\u002A\u002A,3*%
X195072000Y-92964000D03*
%TO.P,REF\u002A\u002A,2*%
X197612000Y-95504000D03*
D11*
%TO.P,REF\u002A\u002A,1*%
X197612000Y-92964000D03*
%TD*%
D10*
%TO.P,REF\u002A\u002A,20*%
%TO.N,N/C*%
X203708000Y-121920000D03*
%TO.P,REF\u002A\u002A,19*%
X201168000Y-121920000D03*
%TO.P,REF\u002A\u002A,18*%
X203708000Y-119380000D03*
%TO.P,REF\u002A\u002A,17*%
X201168000Y-119380000D03*
%TO.P,REF\u002A\u002A,16*%
X203708000Y-116840000D03*
%TO.P,REF\u002A\u002A,15*%
X201168000Y-116840000D03*
%TO.P,REF\u002A\u002A,14*%
X203708000Y-114300000D03*
%TO.P,REF\u002A\u002A,13*%
X201168000Y-114300000D03*
%TO.P,REF\u002A\u002A,12*%
X203708000Y-111760000D03*
%TO.P,REF\u002A\u002A,11*%
X201168000Y-111760000D03*
%TO.P,REF\u002A\u002A,10*%
X203708000Y-109220000D03*
%TO.P,REF\u002A\u002A,9*%
X201168000Y-109220000D03*
%TO.P,REF\u002A\u002A,8*%
X203708000Y-106680000D03*
%TO.P,REF\u002A\u002A,7*%
X201168000Y-106680000D03*
%TO.P,REF\u002A\u002A,6*%
X203708000Y-104140000D03*
%TO.P,REF\u002A\u002A,5*%
X201168000Y-104140000D03*
%TO.P,REF\u002A\u002A,4*%
X203708000Y-101600000D03*
%TO.P,REF\u002A\u002A,3*%
X201168000Y-101600000D03*
%TO.P,REF\u002A\u002A,2*%
X203708000Y-99060000D03*
D11*
%TO.P,REF\u002A\u002A,1*%
X201168000Y-99060000D03*
%TD*%
D12*
%TO.P,REF\u002A\u002A,1*%
%TO.N,N/C*%
X169926000Y-126746000D03*
%TD*%
%TO.P,REF\u002A\u002A,1*%
%TO.N,N/C*%
X202438000Y-126746000D03*
%TD*%
%TO.P,REF\u002A\u002A,1*%
%TO.N,N/C*%
X202438000Y-94234000D03*
%TD*%
%TO.P,REF\u002A\u002A,1*%
%TO.N,N/C*%
X169926000Y-94234000D03*
%TD*%
M02*
