G04 #@! TF.GenerationSoftware,KiCad,Pcbnew,(5.1.4-6-g300381ba4)-1*
G04 #@! TF.CreationDate,2020-01-10T02:39:23+00:00*
G04 #@! TF.ProjectId,esp32-wrover-breakout,65737033-322d-4777-926f-7665722d6272,rev?*
G04 #@! TF.SameCoordinates,Original*
G04 #@! TF.FileFunction,Soldermask,Bot*
G04 #@! TF.FilePolarity,Negative*
%FSLAX46Y46*%
G04 Gerber Fmt 4.6, Leading zero omitted, Abs format (unit mm)*
G04 Created by KiCad (PCBNEW (5.1.4-6-g300381ba4)-1) date 2020-01-10 02:39:23*
%MOMM*%
%LPD*%
G04 APERTURE LIST*
%ADD10C,0.100000*%
G04 APERTURE END LIST*
D10*
G36*
X154415443Y-93085519D02*
G01*
X154481627Y-93092037D01*
X154651466Y-93143557D01*
X154807991Y-93227222D01*
X154843729Y-93256552D01*
X154945186Y-93339814D01*
X155028448Y-93441271D01*
X155057778Y-93477009D01*
X155141443Y-93633534D01*
X155192963Y-93803373D01*
X155210359Y-93980000D01*
X155192963Y-94156627D01*
X155141443Y-94326466D01*
X155057778Y-94482991D01*
X155028448Y-94518729D01*
X154945186Y-94620186D01*
X154843729Y-94703448D01*
X154807991Y-94732778D01*
X154651466Y-94816443D01*
X154481627Y-94867963D01*
X154415443Y-94874481D01*
X154349260Y-94881000D01*
X154260740Y-94881000D01*
X154194557Y-94874481D01*
X154128373Y-94867963D01*
X153958534Y-94816443D01*
X153802009Y-94732778D01*
X153766271Y-94703448D01*
X153664814Y-94620186D01*
X153581552Y-94518729D01*
X153552222Y-94482991D01*
X153468557Y-94326466D01*
X153417037Y-94156627D01*
X153399641Y-93980000D01*
X153417037Y-93803373D01*
X153468557Y-93633534D01*
X153552222Y-93477009D01*
X153581552Y-93441271D01*
X153664814Y-93339814D01*
X153766271Y-93256552D01*
X153802009Y-93227222D01*
X153958534Y-93143557D01*
X154128373Y-93092037D01*
X154194557Y-93085519D01*
X154260740Y-93079000D01*
X154349260Y-93079000D01*
X154415443Y-93085519D01*
X154415443Y-93085519D01*
G37*
G36*
X122665443Y-93085519D02*
G01*
X122731627Y-93092037D01*
X122901466Y-93143557D01*
X123057991Y-93227222D01*
X123093729Y-93256552D01*
X123195186Y-93339814D01*
X123278448Y-93441271D01*
X123307778Y-93477009D01*
X123391443Y-93633534D01*
X123442963Y-93803373D01*
X123460359Y-93980000D01*
X123442963Y-94156627D01*
X123391443Y-94326466D01*
X123307778Y-94482991D01*
X123278448Y-94518729D01*
X123195186Y-94620186D01*
X123093729Y-94703448D01*
X123057991Y-94732778D01*
X122901466Y-94816443D01*
X122731627Y-94867963D01*
X122665443Y-94874481D01*
X122599260Y-94881000D01*
X122510740Y-94881000D01*
X122444557Y-94874481D01*
X122378373Y-94867963D01*
X122208534Y-94816443D01*
X122052009Y-94732778D01*
X122016271Y-94703448D01*
X121914814Y-94620186D01*
X121831552Y-94518729D01*
X121802222Y-94482991D01*
X121718557Y-94326466D01*
X121667037Y-94156627D01*
X121649641Y-93980000D01*
X121667037Y-93803373D01*
X121718557Y-93633534D01*
X121802222Y-93477009D01*
X121831552Y-93441271D01*
X121914814Y-93339814D01*
X122016271Y-93256552D01*
X122052009Y-93227222D01*
X122208534Y-93143557D01*
X122378373Y-93092037D01*
X122444557Y-93085519D01*
X122510740Y-93079000D01*
X122599260Y-93079000D01*
X122665443Y-93085519D01*
X122665443Y-93085519D01*
G37*
G36*
X125205443Y-93085519D02*
G01*
X125271627Y-93092037D01*
X125441466Y-93143557D01*
X125597991Y-93227222D01*
X125633729Y-93256552D01*
X125735186Y-93339814D01*
X125818448Y-93441271D01*
X125847778Y-93477009D01*
X125931443Y-93633534D01*
X125982963Y-93803373D01*
X126000359Y-93980000D01*
X125982963Y-94156627D01*
X125931443Y-94326466D01*
X125847778Y-94482991D01*
X125818448Y-94518729D01*
X125735186Y-94620186D01*
X125633729Y-94703448D01*
X125597991Y-94732778D01*
X125441466Y-94816443D01*
X125271627Y-94867963D01*
X125205443Y-94874481D01*
X125139260Y-94881000D01*
X125050740Y-94881000D01*
X124984557Y-94874481D01*
X124918373Y-94867963D01*
X124748534Y-94816443D01*
X124592009Y-94732778D01*
X124556271Y-94703448D01*
X124454814Y-94620186D01*
X124371552Y-94518729D01*
X124342222Y-94482991D01*
X124258557Y-94326466D01*
X124207037Y-94156627D01*
X124189641Y-93980000D01*
X124207037Y-93803373D01*
X124258557Y-93633534D01*
X124342222Y-93477009D01*
X124371552Y-93441271D01*
X124454814Y-93339814D01*
X124556271Y-93256552D01*
X124592009Y-93227222D01*
X124748534Y-93143557D01*
X124918373Y-93092037D01*
X124984557Y-93085519D01*
X125050740Y-93079000D01*
X125139260Y-93079000D01*
X125205443Y-93085519D01*
X125205443Y-93085519D01*
G37*
G36*
X151875443Y-93085519D02*
G01*
X151941627Y-93092037D01*
X152111466Y-93143557D01*
X152267991Y-93227222D01*
X152303729Y-93256552D01*
X152405186Y-93339814D01*
X152488448Y-93441271D01*
X152517778Y-93477009D01*
X152601443Y-93633534D01*
X152652963Y-93803373D01*
X152670359Y-93980000D01*
X152652963Y-94156627D01*
X152601443Y-94326466D01*
X152517778Y-94482991D01*
X152488448Y-94518729D01*
X152405186Y-94620186D01*
X152303729Y-94703448D01*
X152267991Y-94732778D01*
X152111466Y-94816443D01*
X151941627Y-94867963D01*
X151875443Y-94874481D01*
X151809260Y-94881000D01*
X151720740Y-94881000D01*
X151654557Y-94874481D01*
X151588373Y-94867963D01*
X151418534Y-94816443D01*
X151262009Y-94732778D01*
X151226271Y-94703448D01*
X151124814Y-94620186D01*
X151041552Y-94518729D01*
X151012222Y-94482991D01*
X150928557Y-94326466D01*
X150877037Y-94156627D01*
X150859641Y-93980000D01*
X150877037Y-93803373D01*
X150928557Y-93633534D01*
X151012222Y-93477009D01*
X151041552Y-93441271D01*
X151124814Y-93339814D01*
X151226271Y-93256552D01*
X151262009Y-93227222D01*
X151418534Y-93143557D01*
X151588373Y-93092037D01*
X151654557Y-93085519D01*
X151720740Y-93079000D01*
X151809260Y-93079000D01*
X151875443Y-93085519D01*
X151875443Y-93085519D01*
G37*
G36*
X122665443Y-90545519D02*
G01*
X122731627Y-90552037D01*
X122901466Y-90603557D01*
X123057991Y-90687222D01*
X123093729Y-90716552D01*
X123195186Y-90799814D01*
X123278448Y-90901271D01*
X123307778Y-90937009D01*
X123391443Y-91093534D01*
X123442963Y-91263373D01*
X123460359Y-91440000D01*
X123442963Y-91616627D01*
X123391443Y-91786466D01*
X123307778Y-91942991D01*
X123278448Y-91978729D01*
X123195186Y-92080186D01*
X123093729Y-92163448D01*
X123057991Y-92192778D01*
X122901466Y-92276443D01*
X122731627Y-92327963D01*
X122665443Y-92334481D01*
X122599260Y-92341000D01*
X122510740Y-92341000D01*
X122444557Y-92334481D01*
X122378373Y-92327963D01*
X122208534Y-92276443D01*
X122052009Y-92192778D01*
X122016271Y-92163448D01*
X121914814Y-92080186D01*
X121831552Y-91978729D01*
X121802222Y-91942991D01*
X121718557Y-91786466D01*
X121667037Y-91616627D01*
X121649641Y-91440000D01*
X121667037Y-91263373D01*
X121718557Y-91093534D01*
X121802222Y-90937009D01*
X121831552Y-90901271D01*
X121914814Y-90799814D01*
X122016271Y-90716552D01*
X122052009Y-90687222D01*
X122208534Y-90603557D01*
X122378373Y-90552037D01*
X122444557Y-90545519D01*
X122510740Y-90539000D01*
X122599260Y-90539000D01*
X122665443Y-90545519D01*
X122665443Y-90545519D01*
G37*
G36*
X154415443Y-90545519D02*
G01*
X154481627Y-90552037D01*
X154651466Y-90603557D01*
X154807991Y-90687222D01*
X154843729Y-90716552D01*
X154945186Y-90799814D01*
X155028448Y-90901271D01*
X155057778Y-90937009D01*
X155141443Y-91093534D01*
X155192963Y-91263373D01*
X155210359Y-91440000D01*
X155192963Y-91616627D01*
X155141443Y-91786466D01*
X155057778Y-91942991D01*
X155028448Y-91978729D01*
X154945186Y-92080186D01*
X154843729Y-92163448D01*
X154807991Y-92192778D01*
X154651466Y-92276443D01*
X154481627Y-92327963D01*
X154415443Y-92334481D01*
X154349260Y-92341000D01*
X154260740Y-92341000D01*
X154194557Y-92334481D01*
X154128373Y-92327963D01*
X153958534Y-92276443D01*
X153802009Y-92192778D01*
X153766271Y-92163448D01*
X153664814Y-92080186D01*
X153581552Y-91978729D01*
X153552222Y-91942991D01*
X153468557Y-91786466D01*
X153417037Y-91616627D01*
X153399641Y-91440000D01*
X153417037Y-91263373D01*
X153468557Y-91093534D01*
X153552222Y-90937009D01*
X153581552Y-90901271D01*
X153664814Y-90799814D01*
X153766271Y-90716552D01*
X153802009Y-90687222D01*
X153958534Y-90603557D01*
X154128373Y-90552037D01*
X154194557Y-90545519D01*
X154260740Y-90539000D01*
X154349260Y-90539000D01*
X154415443Y-90545519D01*
X154415443Y-90545519D01*
G37*
G36*
X125205443Y-90545519D02*
G01*
X125271627Y-90552037D01*
X125441466Y-90603557D01*
X125597991Y-90687222D01*
X125633729Y-90716552D01*
X125735186Y-90799814D01*
X125818448Y-90901271D01*
X125847778Y-90937009D01*
X125931443Y-91093534D01*
X125982963Y-91263373D01*
X126000359Y-91440000D01*
X125982963Y-91616627D01*
X125931443Y-91786466D01*
X125847778Y-91942991D01*
X125818448Y-91978729D01*
X125735186Y-92080186D01*
X125633729Y-92163448D01*
X125597991Y-92192778D01*
X125441466Y-92276443D01*
X125271627Y-92327963D01*
X125205443Y-92334481D01*
X125139260Y-92341000D01*
X125050740Y-92341000D01*
X124984557Y-92334481D01*
X124918373Y-92327963D01*
X124748534Y-92276443D01*
X124592009Y-92192778D01*
X124556271Y-92163448D01*
X124454814Y-92080186D01*
X124371552Y-91978729D01*
X124342222Y-91942991D01*
X124258557Y-91786466D01*
X124207037Y-91616627D01*
X124189641Y-91440000D01*
X124207037Y-91263373D01*
X124258557Y-91093534D01*
X124342222Y-90937009D01*
X124371552Y-90901271D01*
X124454814Y-90799814D01*
X124556271Y-90716552D01*
X124592009Y-90687222D01*
X124748534Y-90603557D01*
X124918373Y-90552037D01*
X124984557Y-90545519D01*
X125050740Y-90539000D01*
X125139260Y-90539000D01*
X125205443Y-90545519D01*
X125205443Y-90545519D01*
G37*
G36*
X151875443Y-90545519D02*
G01*
X151941627Y-90552037D01*
X152111466Y-90603557D01*
X152267991Y-90687222D01*
X152303729Y-90716552D01*
X152405186Y-90799814D01*
X152488448Y-90901271D01*
X152517778Y-90937009D01*
X152601443Y-91093534D01*
X152652963Y-91263373D01*
X152670359Y-91440000D01*
X152652963Y-91616627D01*
X152601443Y-91786466D01*
X152517778Y-91942991D01*
X152488448Y-91978729D01*
X152405186Y-92080186D01*
X152303729Y-92163448D01*
X152267991Y-92192778D01*
X152111466Y-92276443D01*
X151941627Y-92327963D01*
X151875443Y-92334481D01*
X151809260Y-92341000D01*
X151720740Y-92341000D01*
X151654557Y-92334481D01*
X151588373Y-92327963D01*
X151418534Y-92276443D01*
X151262009Y-92192778D01*
X151226271Y-92163448D01*
X151124814Y-92080186D01*
X151041552Y-91978729D01*
X151012222Y-91942991D01*
X150928557Y-91786466D01*
X150877037Y-91616627D01*
X150859641Y-91440000D01*
X150877037Y-91263373D01*
X150928557Y-91093534D01*
X151012222Y-90937009D01*
X151041552Y-90901271D01*
X151124814Y-90799814D01*
X151226271Y-90716552D01*
X151262009Y-90687222D01*
X151418534Y-90603557D01*
X151588373Y-90552037D01*
X151654557Y-90545519D01*
X151720740Y-90539000D01*
X151809260Y-90539000D01*
X151875443Y-90545519D01*
X151875443Y-90545519D01*
G37*
G36*
X151875443Y-88005519D02*
G01*
X151941627Y-88012037D01*
X152111466Y-88063557D01*
X152267991Y-88147222D01*
X152303729Y-88176552D01*
X152405186Y-88259814D01*
X152488448Y-88361271D01*
X152517778Y-88397009D01*
X152601443Y-88553534D01*
X152652963Y-88723373D01*
X152670359Y-88900000D01*
X152652963Y-89076627D01*
X152601443Y-89246466D01*
X152517778Y-89402991D01*
X152488448Y-89438729D01*
X152405186Y-89540186D01*
X152303729Y-89623448D01*
X152267991Y-89652778D01*
X152111466Y-89736443D01*
X151941627Y-89787963D01*
X151875443Y-89794481D01*
X151809260Y-89801000D01*
X151720740Y-89801000D01*
X151654557Y-89794481D01*
X151588373Y-89787963D01*
X151418534Y-89736443D01*
X151262009Y-89652778D01*
X151226271Y-89623448D01*
X151124814Y-89540186D01*
X151041552Y-89438729D01*
X151012222Y-89402991D01*
X150928557Y-89246466D01*
X150877037Y-89076627D01*
X150859641Y-88900000D01*
X150877037Y-88723373D01*
X150928557Y-88553534D01*
X151012222Y-88397009D01*
X151041552Y-88361271D01*
X151124814Y-88259814D01*
X151226271Y-88176552D01*
X151262009Y-88147222D01*
X151418534Y-88063557D01*
X151588373Y-88012037D01*
X151654557Y-88005519D01*
X151720740Y-87999000D01*
X151809260Y-87999000D01*
X151875443Y-88005519D01*
X151875443Y-88005519D01*
G37*
G36*
X154415443Y-88005519D02*
G01*
X154481627Y-88012037D01*
X154651466Y-88063557D01*
X154807991Y-88147222D01*
X154843729Y-88176552D01*
X154945186Y-88259814D01*
X155028448Y-88361271D01*
X155057778Y-88397009D01*
X155141443Y-88553534D01*
X155192963Y-88723373D01*
X155210359Y-88900000D01*
X155192963Y-89076627D01*
X155141443Y-89246466D01*
X155057778Y-89402991D01*
X155028448Y-89438729D01*
X154945186Y-89540186D01*
X154843729Y-89623448D01*
X154807991Y-89652778D01*
X154651466Y-89736443D01*
X154481627Y-89787963D01*
X154415443Y-89794481D01*
X154349260Y-89801000D01*
X154260740Y-89801000D01*
X154194557Y-89794481D01*
X154128373Y-89787963D01*
X153958534Y-89736443D01*
X153802009Y-89652778D01*
X153766271Y-89623448D01*
X153664814Y-89540186D01*
X153581552Y-89438729D01*
X153552222Y-89402991D01*
X153468557Y-89246466D01*
X153417037Y-89076627D01*
X153399641Y-88900000D01*
X153417037Y-88723373D01*
X153468557Y-88553534D01*
X153552222Y-88397009D01*
X153581552Y-88361271D01*
X153664814Y-88259814D01*
X153766271Y-88176552D01*
X153802009Y-88147222D01*
X153958534Y-88063557D01*
X154128373Y-88012037D01*
X154194557Y-88005519D01*
X154260740Y-87999000D01*
X154349260Y-87999000D01*
X154415443Y-88005519D01*
X154415443Y-88005519D01*
G37*
G36*
X122665443Y-88005519D02*
G01*
X122731627Y-88012037D01*
X122901466Y-88063557D01*
X123057991Y-88147222D01*
X123093729Y-88176552D01*
X123195186Y-88259814D01*
X123278448Y-88361271D01*
X123307778Y-88397009D01*
X123391443Y-88553534D01*
X123442963Y-88723373D01*
X123460359Y-88900000D01*
X123442963Y-89076627D01*
X123391443Y-89246466D01*
X123307778Y-89402991D01*
X123278448Y-89438729D01*
X123195186Y-89540186D01*
X123093729Y-89623448D01*
X123057991Y-89652778D01*
X122901466Y-89736443D01*
X122731627Y-89787963D01*
X122665443Y-89794481D01*
X122599260Y-89801000D01*
X122510740Y-89801000D01*
X122444557Y-89794481D01*
X122378373Y-89787963D01*
X122208534Y-89736443D01*
X122052009Y-89652778D01*
X122016271Y-89623448D01*
X121914814Y-89540186D01*
X121831552Y-89438729D01*
X121802222Y-89402991D01*
X121718557Y-89246466D01*
X121667037Y-89076627D01*
X121649641Y-88900000D01*
X121667037Y-88723373D01*
X121718557Y-88553534D01*
X121802222Y-88397009D01*
X121831552Y-88361271D01*
X121914814Y-88259814D01*
X122016271Y-88176552D01*
X122052009Y-88147222D01*
X122208534Y-88063557D01*
X122378373Y-88012037D01*
X122444557Y-88005519D01*
X122510740Y-87999000D01*
X122599260Y-87999000D01*
X122665443Y-88005519D01*
X122665443Y-88005519D01*
G37*
G36*
X125205443Y-88005519D02*
G01*
X125271627Y-88012037D01*
X125441466Y-88063557D01*
X125597991Y-88147222D01*
X125633729Y-88176552D01*
X125735186Y-88259814D01*
X125818448Y-88361271D01*
X125847778Y-88397009D01*
X125931443Y-88553534D01*
X125982963Y-88723373D01*
X126000359Y-88900000D01*
X125982963Y-89076627D01*
X125931443Y-89246466D01*
X125847778Y-89402991D01*
X125818448Y-89438729D01*
X125735186Y-89540186D01*
X125633729Y-89623448D01*
X125597991Y-89652778D01*
X125441466Y-89736443D01*
X125271627Y-89787963D01*
X125205443Y-89794481D01*
X125139260Y-89801000D01*
X125050740Y-89801000D01*
X124984557Y-89794481D01*
X124918373Y-89787963D01*
X124748534Y-89736443D01*
X124592009Y-89652778D01*
X124556271Y-89623448D01*
X124454814Y-89540186D01*
X124371552Y-89438729D01*
X124342222Y-89402991D01*
X124258557Y-89246466D01*
X124207037Y-89076627D01*
X124189641Y-88900000D01*
X124207037Y-88723373D01*
X124258557Y-88553534D01*
X124342222Y-88397009D01*
X124371552Y-88361271D01*
X124454814Y-88259814D01*
X124556271Y-88176552D01*
X124592009Y-88147222D01*
X124748534Y-88063557D01*
X124918373Y-88012037D01*
X124984557Y-88005519D01*
X125050740Y-87999000D01*
X125139260Y-87999000D01*
X125205443Y-88005519D01*
X125205443Y-88005519D01*
G37*
G36*
X122665442Y-85465518D02*
G01*
X122731627Y-85472037D01*
X122901466Y-85523557D01*
X123057991Y-85607222D01*
X123093729Y-85636552D01*
X123195186Y-85719814D01*
X123278448Y-85821271D01*
X123307778Y-85857009D01*
X123391443Y-86013534D01*
X123442963Y-86183373D01*
X123460359Y-86360000D01*
X123442963Y-86536627D01*
X123391443Y-86706466D01*
X123307778Y-86862991D01*
X123278448Y-86898729D01*
X123195186Y-87000186D01*
X123093729Y-87083448D01*
X123057991Y-87112778D01*
X122901466Y-87196443D01*
X122731627Y-87247963D01*
X122665442Y-87254482D01*
X122599260Y-87261000D01*
X122510740Y-87261000D01*
X122444558Y-87254482D01*
X122378373Y-87247963D01*
X122208534Y-87196443D01*
X122052009Y-87112778D01*
X122016271Y-87083448D01*
X121914814Y-87000186D01*
X121831552Y-86898729D01*
X121802222Y-86862991D01*
X121718557Y-86706466D01*
X121667037Y-86536627D01*
X121649641Y-86360000D01*
X121667037Y-86183373D01*
X121718557Y-86013534D01*
X121802222Y-85857009D01*
X121831552Y-85821271D01*
X121914814Y-85719814D01*
X122016271Y-85636552D01*
X122052009Y-85607222D01*
X122208534Y-85523557D01*
X122378373Y-85472037D01*
X122444558Y-85465518D01*
X122510740Y-85459000D01*
X122599260Y-85459000D01*
X122665442Y-85465518D01*
X122665442Y-85465518D01*
G37*
G36*
X154415442Y-85465518D02*
G01*
X154481627Y-85472037D01*
X154651466Y-85523557D01*
X154807991Y-85607222D01*
X154843729Y-85636552D01*
X154945186Y-85719814D01*
X155028448Y-85821271D01*
X155057778Y-85857009D01*
X155141443Y-86013534D01*
X155192963Y-86183373D01*
X155210359Y-86360000D01*
X155192963Y-86536627D01*
X155141443Y-86706466D01*
X155057778Y-86862991D01*
X155028448Y-86898729D01*
X154945186Y-87000186D01*
X154843729Y-87083448D01*
X154807991Y-87112778D01*
X154651466Y-87196443D01*
X154481627Y-87247963D01*
X154415442Y-87254482D01*
X154349260Y-87261000D01*
X154260740Y-87261000D01*
X154194558Y-87254482D01*
X154128373Y-87247963D01*
X153958534Y-87196443D01*
X153802009Y-87112778D01*
X153766271Y-87083448D01*
X153664814Y-87000186D01*
X153581552Y-86898729D01*
X153552222Y-86862991D01*
X153468557Y-86706466D01*
X153417037Y-86536627D01*
X153399641Y-86360000D01*
X153417037Y-86183373D01*
X153468557Y-86013534D01*
X153552222Y-85857009D01*
X153581552Y-85821271D01*
X153664814Y-85719814D01*
X153766271Y-85636552D01*
X153802009Y-85607222D01*
X153958534Y-85523557D01*
X154128373Y-85472037D01*
X154194558Y-85465518D01*
X154260740Y-85459000D01*
X154349260Y-85459000D01*
X154415442Y-85465518D01*
X154415442Y-85465518D01*
G37*
G36*
X125205442Y-85465518D02*
G01*
X125271627Y-85472037D01*
X125441466Y-85523557D01*
X125597991Y-85607222D01*
X125633729Y-85636552D01*
X125735186Y-85719814D01*
X125818448Y-85821271D01*
X125847778Y-85857009D01*
X125931443Y-86013534D01*
X125982963Y-86183373D01*
X126000359Y-86360000D01*
X125982963Y-86536627D01*
X125931443Y-86706466D01*
X125847778Y-86862991D01*
X125818448Y-86898729D01*
X125735186Y-87000186D01*
X125633729Y-87083448D01*
X125597991Y-87112778D01*
X125441466Y-87196443D01*
X125271627Y-87247963D01*
X125205442Y-87254482D01*
X125139260Y-87261000D01*
X125050740Y-87261000D01*
X124984558Y-87254482D01*
X124918373Y-87247963D01*
X124748534Y-87196443D01*
X124592009Y-87112778D01*
X124556271Y-87083448D01*
X124454814Y-87000186D01*
X124371552Y-86898729D01*
X124342222Y-86862991D01*
X124258557Y-86706466D01*
X124207037Y-86536627D01*
X124189641Y-86360000D01*
X124207037Y-86183373D01*
X124258557Y-86013534D01*
X124342222Y-85857009D01*
X124371552Y-85821271D01*
X124454814Y-85719814D01*
X124556271Y-85636552D01*
X124592009Y-85607222D01*
X124748534Y-85523557D01*
X124918373Y-85472037D01*
X124984558Y-85465518D01*
X125050740Y-85459000D01*
X125139260Y-85459000D01*
X125205442Y-85465518D01*
X125205442Y-85465518D01*
G37*
G36*
X151875442Y-85465518D02*
G01*
X151941627Y-85472037D01*
X152111466Y-85523557D01*
X152267991Y-85607222D01*
X152303729Y-85636552D01*
X152405186Y-85719814D01*
X152488448Y-85821271D01*
X152517778Y-85857009D01*
X152601443Y-86013534D01*
X152652963Y-86183373D01*
X152670359Y-86360000D01*
X152652963Y-86536627D01*
X152601443Y-86706466D01*
X152517778Y-86862991D01*
X152488448Y-86898729D01*
X152405186Y-87000186D01*
X152303729Y-87083448D01*
X152267991Y-87112778D01*
X152111466Y-87196443D01*
X151941627Y-87247963D01*
X151875442Y-87254482D01*
X151809260Y-87261000D01*
X151720740Y-87261000D01*
X151654558Y-87254482D01*
X151588373Y-87247963D01*
X151418534Y-87196443D01*
X151262009Y-87112778D01*
X151226271Y-87083448D01*
X151124814Y-87000186D01*
X151041552Y-86898729D01*
X151012222Y-86862991D01*
X150928557Y-86706466D01*
X150877037Y-86536627D01*
X150859641Y-86360000D01*
X150877037Y-86183373D01*
X150928557Y-86013534D01*
X151012222Y-85857009D01*
X151041552Y-85821271D01*
X151124814Y-85719814D01*
X151226271Y-85636552D01*
X151262009Y-85607222D01*
X151418534Y-85523557D01*
X151588373Y-85472037D01*
X151654558Y-85465518D01*
X151720740Y-85459000D01*
X151809260Y-85459000D01*
X151875442Y-85465518D01*
X151875442Y-85465518D01*
G37*
G36*
X125205443Y-82925519D02*
G01*
X125271627Y-82932037D01*
X125441466Y-82983557D01*
X125597991Y-83067222D01*
X125633729Y-83096552D01*
X125735186Y-83179814D01*
X125818448Y-83281271D01*
X125847778Y-83317009D01*
X125931443Y-83473534D01*
X125982963Y-83643373D01*
X126000359Y-83820000D01*
X125982963Y-83996627D01*
X125931443Y-84166466D01*
X125847778Y-84322991D01*
X125818448Y-84358729D01*
X125735186Y-84460186D01*
X125633729Y-84543448D01*
X125597991Y-84572778D01*
X125441466Y-84656443D01*
X125271627Y-84707963D01*
X125205443Y-84714481D01*
X125139260Y-84721000D01*
X125050740Y-84721000D01*
X124984557Y-84714481D01*
X124918373Y-84707963D01*
X124748534Y-84656443D01*
X124592009Y-84572778D01*
X124556271Y-84543448D01*
X124454814Y-84460186D01*
X124371552Y-84358729D01*
X124342222Y-84322991D01*
X124258557Y-84166466D01*
X124207037Y-83996627D01*
X124189641Y-83820000D01*
X124207037Y-83643373D01*
X124258557Y-83473534D01*
X124342222Y-83317009D01*
X124371552Y-83281271D01*
X124454814Y-83179814D01*
X124556271Y-83096552D01*
X124592009Y-83067222D01*
X124748534Y-82983557D01*
X124918373Y-82932037D01*
X124984557Y-82925519D01*
X125050740Y-82919000D01*
X125139260Y-82919000D01*
X125205443Y-82925519D01*
X125205443Y-82925519D01*
G37*
G36*
X151875443Y-82925519D02*
G01*
X151941627Y-82932037D01*
X152111466Y-82983557D01*
X152267991Y-83067222D01*
X152303729Y-83096552D01*
X152405186Y-83179814D01*
X152488448Y-83281271D01*
X152517778Y-83317009D01*
X152601443Y-83473534D01*
X152652963Y-83643373D01*
X152670359Y-83820000D01*
X152652963Y-83996627D01*
X152601443Y-84166466D01*
X152517778Y-84322991D01*
X152488448Y-84358729D01*
X152405186Y-84460186D01*
X152303729Y-84543448D01*
X152267991Y-84572778D01*
X152111466Y-84656443D01*
X151941627Y-84707963D01*
X151875443Y-84714481D01*
X151809260Y-84721000D01*
X151720740Y-84721000D01*
X151654557Y-84714481D01*
X151588373Y-84707963D01*
X151418534Y-84656443D01*
X151262009Y-84572778D01*
X151226271Y-84543448D01*
X151124814Y-84460186D01*
X151041552Y-84358729D01*
X151012222Y-84322991D01*
X150928557Y-84166466D01*
X150877037Y-83996627D01*
X150859641Y-83820000D01*
X150877037Y-83643373D01*
X150928557Y-83473534D01*
X151012222Y-83317009D01*
X151041552Y-83281271D01*
X151124814Y-83179814D01*
X151226271Y-83096552D01*
X151262009Y-83067222D01*
X151418534Y-82983557D01*
X151588373Y-82932037D01*
X151654557Y-82925519D01*
X151720740Y-82919000D01*
X151809260Y-82919000D01*
X151875443Y-82925519D01*
X151875443Y-82925519D01*
G37*
G36*
X154415443Y-82925519D02*
G01*
X154481627Y-82932037D01*
X154651466Y-82983557D01*
X154807991Y-83067222D01*
X154843729Y-83096552D01*
X154945186Y-83179814D01*
X155028448Y-83281271D01*
X155057778Y-83317009D01*
X155141443Y-83473534D01*
X155192963Y-83643373D01*
X155210359Y-83820000D01*
X155192963Y-83996627D01*
X155141443Y-84166466D01*
X155057778Y-84322991D01*
X155028448Y-84358729D01*
X154945186Y-84460186D01*
X154843729Y-84543448D01*
X154807991Y-84572778D01*
X154651466Y-84656443D01*
X154481627Y-84707963D01*
X154415443Y-84714481D01*
X154349260Y-84721000D01*
X154260740Y-84721000D01*
X154194557Y-84714481D01*
X154128373Y-84707963D01*
X153958534Y-84656443D01*
X153802009Y-84572778D01*
X153766271Y-84543448D01*
X153664814Y-84460186D01*
X153581552Y-84358729D01*
X153552222Y-84322991D01*
X153468557Y-84166466D01*
X153417037Y-83996627D01*
X153399641Y-83820000D01*
X153417037Y-83643373D01*
X153468557Y-83473534D01*
X153552222Y-83317009D01*
X153581552Y-83281271D01*
X153664814Y-83179814D01*
X153766271Y-83096552D01*
X153802009Y-83067222D01*
X153958534Y-82983557D01*
X154128373Y-82932037D01*
X154194557Y-82925519D01*
X154260740Y-82919000D01*
X154349260Y-82919000D01*
X154415443Y-82925519D01*
X154415443Y-82925519D01*
G37*
G36*
X122665443Y-82925519D02*
G01*
X122731627Y-82932037D01*
X122901466Y-82983557D01*
X123057991Y-83067222D01*
X123093729Y-83096552D01*
X123195186Y-83179814D01*
X123278448Y-83281271D01*
X123307778Y-83317009D01*
X123391443Y-83473534D01*
X123442963Y-83643373D01*
X123460359Y-83820000D01*
X123442963Y-83996627D01*
X123391443Y-84166466D01*
X123307778Y-84322991D01*
X123278448Y-84358729D01*
X123195186Y-84460186D01*
X123093729Y-84543448D01*
X123057991Y-84572778D01*
X122901466Y-84656443D01*
X122731627Y-84707963D01*
X122665443Y-84714481D01*
X122599260Y-84721000D01*
X122510740Y-84721000D01*
X122444557Y-84714481D01*
X122378373Y-84707963D01*
X122208534Y-84656443D01*
X122052009Y-84572778D01*
X122016271Y-84543448D01*
X121914814Y-84460186D01*
X121831552Y-84358729D01*
X121802222Y-84322991D01*
X121718557Y-84166466D01*
X121667037Y-83996627D01*
X121649641Y-83820000D01*
X121667037Y-83643373D01*
X121718557Y-83473534D01*
X121802222Y-83317009D01*
X121831552Y-83281271D01*
X121914814Y-83179814D01*
X122016271Y-83096552D01*
X122052009Y-83067222D01*
X122208534Y-82983557D01*
X122378373Y-82932037D01*
X122444557Y-82925519D01*
X122510740Y-82919000D01*
X122599260Y-82919000D01*
X122665443Y-82925519D01*
X122665443Y-82925519D01*
G37*
G36*
X122665442Y-80385518D02*
G01*
X122731627Y-80392037D01*
X122901466Y-80443557D01*
X123057991Y-80527222D01*
X123078353Y-80543933D01*
X123195186Y-80639814D01*
X123266220Y-80726371D01*
X123307778Y-80777009D01*
X123307779Y-80777011D01*
X123371156Y-80895579D01*
X123391443Y-80933534D01*
X123442963Y-81103373D01*
X123460359Y-81280000D01*
X123442963Y-81456627D01*
X123391443Y-81626466D01*
X123307778Y-81782991D01*
X123278448Y-81818729D01*
X123195186Y-81920186D01*
X123093729Y-82003448D01*
X123057991Y-82032778D01*
X122901466Y-82116443D01*
X122731627Y-82167963D01*
X122665443Y-82174481D01*
X122599260Y-82181000D01*
X122510740Y-82181000D01*
X122444557Y-82174481D01*
X122378373Y-82167963D01*
X122208534Y-82116443D01*
X122052009Y-82032778D01*
X122016271Y-82003448D01*
X121914814Y-81920186D01*
X121831552Y-81818729D01*
X121802222Y-81782991D01*
X121718557Y-81626466D01*
X121667037Y-81456627D01*
X121649641Y-81280000D01*
X121667037Y-81103373D01*
X121718557Y-80933534D01*
X121738845Y-80895579D01*
X121802221Y-80777011D01*
X121802222Y-80777009D01*
X121843780Y-80726371D01*
X121914814Y-80639814D01*
X122031647Y-80543933D01*
X122052009Y-80527222D01*
X122208534Y-80443557D01*
X122378373Y-80392037D01*
X122444558Y-80385518D01*
X122510740Y-80379000D01*
X122599260Y-80379000D01*
X122665442Y-80385518D01*
X122665442Y-80385518D01*
G37*
G36*
X125205442Y-80385518D02*
G01*
X125271627Y-80392037D01*
X125441466Y-80443557D01*
X125597991Y-80527222D01*
X125618353Y-80543933D01*
X125735186Y-80639814D01*
X125806220Y-80726371D01*
X125847778Y-80777009D01*
X125847779Y-80777011D01*
X125911156Y-80895579D01*
X125931443Y-80933534D01*
X125982963Y-81103373D01*
X126000359Y-81280000D01*
X125982963Y-81456627D01*
X125931443Y-81626466D01*
X125847778Y-81782991D01*
X125818448Y-81818729D01*
X125735186Y-81920186D01*
X125633729Y-82003448D01*
X125597991Y-82032778D01*
X125441466Y-82116443D01*
X125271627Y-82167963D01*
X125205443Y-82174481D01*
X125139260Y-82181000D01*
X125050740Y-82181000D01*
X124984557Y-82174481D01*
X124918373Y-82167963D01*
X124748534Y-82116443D01*
X124592009Y-82032778D01*
X124556271Y-82003448D01*
X124454814Y-81920186D01*
X124371552Y-81818729D01*
X124342222Y-81782991D01*
X124258557Y-81626466D01*
X124207037Y-81456627D01*
X124189641Y-81280000D01*
X124207037Y-81103373D01*
X124258557Y-80933534D01*
X124278845Y-80895579D01*
X124342221Y-80777011D01*
X124342222Y-80777009D01*
X124383780Y-80726371D01*
X124454814Y-80639814D01*
X124571647Y-80543933D01*
X124592009Y-80527222D01*
X124748534Y-80443557D01*
X124918373Y-80392037D01*
X124984558Y-80385518D01*
X125050740Y-80379000D01*
X125139260Y-80379000D01*
X125205442Y-80385518D01*
X125205442Y-80385518D01*
G37*
G36*
X151875442Y-80385518D02*
G01*
X151941627Y-80392037D01*
X152111466Y-80443557D01*
X152267991Y-80527222D01*
X152288353Y-80543933D01*
X152405186Y-80639814D01*
X152476220Y-80726371D01*
X152517778Y-80777009D01*
X152517779Y-80777011D01*
X152581156Y-80895579D01*
X152601443Y-80933534D01*
X152652963Y-81103373D01*
X152670359Y-81280000D01*
X152652963Y-81456627D01*
X152601443Y-81626466D01*
X152517778Y-81782991D01*
X152488448Y-81818729D01*
X152405186Y-81920186D01*
X152303729Y-82003448D01*
X152267991Y-82032778D01*
X152111466Y-82116443D01*
X151941627Y-82167963D01*
X151875443Y-82174481D01*
X151809260Y-82181000D01*
X151720740Y-82181000D01*
X151654557Y-82174481D01*
X151588373Y-82167963D01*
X151418534Y-82116443D01*
X151262009Y-82032778D01*
X151226271Y-82003448D01*
X151124814Y-81920186D01*
X151041552Y-81818729D01*
X151012222Y-81782991D01*
X150928557Y-81626466D01*
X150877037Y-81456627D01*
X150859641Y-81280000D01*
X150877037Y-81103373D01*
X150928557Y-80933534D01*
X150948845Y-80895579D01*
X151012221Y-80777011D01*
X151012222Y-80777009D01*
X151053780Y-80726371D01*
X151124814Y-80639814D01*
X151241647Y-80543933D01*
X151262009Y-80527222D01*
X151418534Y-80443557D01*
X151588373Y-80392037D01*
X151654558Y-80385518D01*
X151720740Y-80379000D01*
X151809260Y-80379000D01*
X151875442Y-80385518D01*
X151875442Y-80385518D01*
G37*
G36*
X154415442Y-80385518D02*
G01*
X154481627Y-80392037D01*
X154651466Y-80443557D01*
X154807991Y-80527222D01*
X154828353Y-80543933D01*
X154945186Y-80639814D01*
X155016220Y-80726371D01*
X155057778Y-80777009D01*
X155057779Y-80777011D01*
X155121156Y-80895579D01*
X155141443Y-80933534D01*
X155192963Y-81103373D01*
X155210359Y-81280000D01*
X155192963Y-81456627D01*
X155141443Y-81626466D01*
X155057778Y-81782991D01*
X155028448Y-81818729D01*
X154945186Y-81920186D01*
X154843729Y-82003448D01*
X154807991Y-82032778D01*
X154651466Y-82116443D01*
X154481627Y-82167963D01*
X154415443Y-82174481D01*
X154349260Y-82181000D01*
X154260740Y-82181000D01*
X154194557Y-82174481D01*
X154128373Y-82167963D01*
X153958534Y-82116443D01*
X153802009Y-82032778D01*
X153766271Y-82003448D01*
X153664814Y-81920186D01*
X153581552Y-81818729D01*
X153552222Y-81782991D01*
X153468557Y-81626466D01*
X153417037Y-81456627D01*
X153399641Y-81280000D01*
X153417037Y-81103373D01*
X153468557Y-80933534D01*
X153488845Y-80895579D01*
X153552221Y-80777011D01*
X153552222Y-80777009D01*
X153593780Y-80726371D01*
X153664814Y-80639814D01*
X153781647Y-80543933D01*
X153802009Y-80527222D01*
X153958534Y-80443557D01*
X154128373Y-80392037D01*
X154194558Y-80385518D01*
X154260740Y-80379000D01*
X154349260Y-80379000D01*
X154415442Y-80385518D01*
X154415442Y-80385518D01*
G37*
G36*
X136161552Y-76506331D02*
G01*
X136243627Y-76540328D01*
X136243629Y-76540329D01*
X136280813Y-76565175D01*
X136317495Y-76589685D01*
X136380316Y-76652506D01*
X136426067Y-76720977D01*
X136441613Y-76739919D01*
X136460555Y-76755464D01*
X136482165Y-76767015D01*
X136505614Y-76774128D01*
X136530000Y-76776530D01*
X136554386Y-76774128D01*
X136577835Y-76767015D01*
X136599446Y-76755464D01*
X136618388Y-76739918D01*
X136633933Y-76720977D01*
X136679684Y-76652506D01*
X136742505Y-76589685D01*
X136779187Y-76565175D01*
X136816371Y-76540329D01*
X136816373Y-76540328D01*
X136898448Y-76506331D01*
X136985579Y-76489000D01*
X137074421Y-76489000D01*
X137161552Y-76506331D01*
X137243627Y-76540328D01*
X137243629Y-76540329D01*
X137280813Y-76565175D01*
X137317495Y-76589685D01*
X137380316Y-76652506D01*
X137426067Y-76720977D01*
X137441613Y-76739919D01*
X137460555Y-76755464D01*
X137482165Y-76767015D01*
X137505614Y-76774128D01*
X137530000Y-76776530D01*
X137554386Y-76774128D01*
X137577835Y-76767015D01*
X137599446Y-76755464D01*
X137618388Y-76739918D01*
X137633933Y-76720977D01*
X137679684Y-76652506D01*
X137742505Y-76589685D01*
X137779187Y-76565175D01*
X137816371Y-76540329D01*
X137816373Y-76540328D01*
X137898448Y-76506331D01*
X137985579Y-76489000D01*
X138074421Y-76489000D01*
X138161552Y-76506331D01*
X138243627Y-76540328D01*
X138243629Y-76540329D01*
X138280813Y-76565175D01*
X138317495Y-76589685D01*
X138380316Y-76652506D01*
X138426067Y-76720977D01*
X138441613Y-76739919D01*
X138460555Y-76755464D01*
X138482165Y-76767015D01*
X138505614Y-76774128D01*
X138530000Y-76776530D01*
X138554386Y-76774128D01*
X138577835Y-76767015D01*
X138599446Y-76755464D01*
X138618388Y-76739918D01*
X138633933Y-76720977D01*
X138679684Y-76652506D01*
X138742505Y-76589685D01*
X138779187Y-76565175D01*
X138816371Y-76540329D01*
X138816373Y-76540328D01*
X138898448Y-76506331D01*
X138985579Y-76489000D01*
X139074421Y-76489000D01*
X139161552Y-76506331D01*
X139243627Y-76540328D01*
X139243629Y-76540329D01*
X139280813Y-76565175D01*
X139317495Y-76589685D01*
X139380316Y-76652506D01*
X139426067Y-76720977D01*
X139441613Y-76739919D01*
X139460555Y-76755464D01*
X139482165Y-76767015D01*
X139505614Y-76774128D01*
X139530000Y-76776530D01*
X139554386Y-76774128D01*
X139577835Y-76767015D01*
X139599446Y-76755464D01*
X139618388Y-76739918D01*
X139633933Y-76720977D01*
X139679684Y-76652506D01*
X139742505Y-76589685D01*
X139779187Y-76565175D01*
X139816371Y-76540329D01*
X139816373Y-76540328D01*
X139898448Y-76506331D01*
X139985579Y-76489000D01*
X140074421Y-76489000D01*
X140161552Y-76506331D01*
X140243627Y-76540328D01*
X140243629Y-76540329D01*
X140280813Y-76565175D01*
X140317495Y-76589685D01*
X140380315Y-76652505D01*
X140429672Y-76726373D01*
X140463669Y-76808448D01*
X140481000Y-76895579D01*
X140481000Y-76984421D01*
X140463669Y-77071552D01*
X140429672Y-77153627D01*
X140380315Y-77227495D01*
X140317494Y-77290316D01*
X140249023Y-77336067D01*
X140230081Y-77351613D01*
X140214536Y-77370555D01*
X140202985Y-77392165D01*
X140195872Y-77415614D01*
X140193470Y-77440000D01*
X140195872Y-77464386D01*
X140202985Y-77487835D01*
X140214536Y-77509446D01*
X140230082Y-77528388D01*
X140249023Y-77543933D01*
X140317494Y-77589684D01*
X140380315Y-77652505D01*
X140429672Y-77726373D01*
X140463669Y-77808448D01*
X140481000Y-77895579D01*
X140481000Y-77984421D01*
X140463669Y-78071552D01*
X140429672Y-78153627D01*
X140380315Y-78227495D01*
X140317494Y-78290316D01*
X140249023Y-78336067D01*
X140230081Y-78351613D01*
X140214536Y-78370555D01*
X140202985Y-78392165D01*
X140195872Y-78415614D01*
X140193470Y-78440000D01*
X140195872Y-78464386D01*
X140202985Y-78487835D01*
X140214536Y-78509446D01*
X140230082Y-78528388D01*
X140249023Y-78543933D01*
X140317494Y-78589684D01*
X140380315Y-78652505D01*
X140429672Y-78726373D01*
X140463669Y-78808448D01*
X140481000Y-78895579D01*
X140481000Y-78984421D01*
X140463669Y-79071552D01*
X140429672Y-79153627D01*
X140380315Y-79227495D01*
X140317494Y-79290316D01*
X140249023Y-79336067D01*
X140230081Y-79351613D01*
X140214536Y-79370555D01*
X140202985Y-79392165D01*
X140195872Y-79415614D01*
X140193470Y-79440000D01*
X140195872Y-79464386D01*
X140202985Y-79487835D01*
X140214536Y-79509446D01*
X140230082Y-79528388D01*
X140249023Y-79543933D01*
X140317494Y-79589684D01*
X140380315Y-79652505D01*
X140429672Y-79726373D01*
X140463669Y-79808448D01*
X140481000Y-79895579D01*
X140481000Y-79984421D01*
X140463669Y-80071552D01*
X140429672Y-80153627D01*
X140380315Y-80227495D01*
X140317494Y-80290316D01*
X140249023Y-80336067D01*
X140230081Y-80351613D01*
X140214536Y-80370555D01*
X140202985Y-80392165D01*
X140195872Y-80415614D01*
X140193470Y-80440000D01*
X140195872Y-80464386D01*
X140202985Y-80487835D01*
X140214536Y-80509446D01*
X140230082Y-80528388D01*
X140249023Y-80543933D01*
X140317494Y-80589684D01*
X140380315Y-80652505D01*
X140429672Y-80726373D01*
X140463669Y-80808448D01*
X140481000Y-80895579D01*
X140481000Y-80984421D01*
X140463669Y-81071552D01*
X140429672Y-81153627D01*
X140380316Y-81227494D01*
X140317496Y-81290314D01*
X140243629Y-81339671D01*
X140243628Y-81339672D01*
X140243627Y-81339672D01*
X140161552Y-81373669D01*
X140074421Y-81391000D01*
X139985579Y-81391000D01*
X139898448Y-81373669D01*
X139816373Y-81339672D01*
X139816372Y-81339672D01*
X139816371Y-81339671D01*
X139742504Y-81290314D01*
X139679684Y-81227494D01*
X139633933Y-81159023D01*
X139618387Y-81140081D01*
X139599445Y-81124536D01*
X139577835Y-81112985D01*
X139554386Y-81105872D01*
X139530000Y-81103470D01*
X139505614Y-81105872D01*
X139482165Y-81112985D01*
X139460554Y-81124536D01*
X139441612Y-81140082D01*
X139426067Y-81159023D01*
X139380316Y-81227494D01*
X139317496Y-81290314D01*
X139243629Y-81339671D01*
X139243628Y-81339672D01*
X139243627Y-81339672D01*
X139161552Y-81373669D01*
X139074421Y-81391000D01*
X138985579Y-81391000D01*
X138898448Y-81373669D01*
X138816373Y-81339672D01*
X138816372Y-81339672D01*
X138816371Y-81339671D01*
X138742504Y-81290314D01*
X138679684Y-81227494D01*
X138633933Y-81159023D01*
X138618387Y-81140081D01*
X138599445Y-81124536D01*
X138577835Y-81112985D01*
X138554386Y-81105872D01*
X138530000Y-81103470D01*
X138505614Y-81105872D01*
X138482165Y-81112985D01*
X138460554Y-81124536D01*
X138441612Y-81140082D01*
X138426067Y-81159023D01*
X138380316Y-81227494D01*
X138317496Y-81290314D01*
X138243629Y-81339671D01*
X138243628Y-81339672D01*
X138243627Y-81339672D01*
X138161552Y-81373669D01*
X138074421Y-81391000D01*
X137985579Y-81391000D01*
X137898448Y-81373669D01*
X137816373Y-81339672D01*
X137816372Y-81339672D01*
X137816371Y-81339671D01*
X137742504Y-81290314D01*
X137679684Y-81227494D01*
X137633933Y-81159023D01*
X137618387Y-81140081D01*
X137599445Y-81124536D01*
X137577835Y-81112985D01*
X137554386Y-81105872D01*
X137530000Y-81103470D01*
X137505614Y-81105872D01*
X137482165Y-81112985D01*
X137460554Y-81124536D01*
X137441612Y-81140082D01*
X137426067Y-81159023D01*
X137380316Y-81227494D01*
X137317496Y-81290314D01*
X137243629Y-81339671D01*
X137243628Y-81339672D01*
X137243627Y-81339672D01*
X137161552Y-81373669D01*
X137074421Y-81391000D01*
X136985579Y-81391000D01*
X136898448Y-81373669D01*
X136816373Y-81339672D01*
X136816372Y-81339672D01*
X136816371Y-81339671D01*
X136742504Y-81290314D01*
X136679684Y-81227494D01*
X136633933Y-81159023D01*
X136618387Y-81140081D01*
X136599445Y-81124536D01*
X136577835Y-81112985D01*
X136554386Y-81105872D01*
X136530000Y-81103470D01*
X136505614Y-81105872D01*
X136482165Y-81112985D01*
X136460554Y-81124536D01*
X136441612Y-81140082D01*
X136426067Y-81159023D01*
X136380316Y-81227494D01*
X136317496Y-81290314D01*
X136243629Y-81339671D01*
X136243628Y-81339672D01*
X136243627Y-81339672D01*
X136161552Y-81373669D01*
X136074421Y-81391000D01*
X135985579Y-81391000D01*
X135898448Y-81373669D01*
X135816373Y-81339672D01*
X135816372Y-81339672D01*
X135816371Y-81339671D01*
X135742504Y-81290314D01*
X135679686Y-81227496D01*
X135679685Y-81227494D01*
X135630328Y-81153627D01*
X135596331Y-81071552D01*
X135579000Y-80984421D01*
X135579000Y-80895579D01*
X135596331Y-80808448D01*
X135630328Y-80726373D01*
X135679685Y-80652505D01*
X135742506Y-80589684D01*
X135810977Y-80543933D01*
X135829919Y-80528387D01*
X135845464Y-80509445D01*
X135857015Y-80487835D01*
X135864128Y-80464386D01*
X135866530Y-80440000D01*
X136193470Y-80440000D01*
X136195872Y-80464386D01*
X136202985Y-80487835D01*
X136214536Y-80509446D01*
X136230082Y-80528388D01*
X136249023Y-80543933D01*
X136317494Y-80589684D01*
X136380316Y-80652506D01*
X136426067Y-80720977D01*
X136441613Y-80739919D01*
X136460555Y-80755464D01*
X136482165Y-80767015D01*
X136505614Y-80774128D01*
X136530000Y-80776530D01*
X136554386Y-80774128D01*
X136577835Y-80767015D01*
X136599446Y-80755464D01*
X136618388Y-80739918D01*
X136633933Y-80720977D01*
X136679684Y-80652506D01*
X136742506Y-80589684D01*
X136810977Y-80543933D01*
X136829919Y-80528387D01*
X136845464Y-80509445D01*
X136857015Y-80487835D01*
X136864128Y-80464386D01*
X136866530Y-80440000D01*
X137193470Y-80440000D01*
X137195872Y-80464386D01*
X137202985Y-80487835D01*
X137214536Y-80509446D01*
X137230082Y-80528388D01*
X137249023Y-80543933D01*
X137317494Y-80589684D01*
X137380316Y-80652506D01*
X137426067Y-80720977D01*
X137441613Y-80739919D01*
X137460555Y-80755464D01*
X137482165Y-80767015D01*
X137505614Y-80774128D01*
X137530000Y-80776530D01*
X137554386Y-80774128D01*
X137577835Y-80767015D01*
X137599446Y-80755464D01*
X137618388Y-80739918D01*
X137633933Y-80720977D01*
X137679684Y-80652506D01*
X137742506Y-80589684D01*
X137810977Y-80543933D01*
X137829919Y-80528387D01*
X137845464Y-80509445D01*
X137857015Y-80487835D01*
X137864128Y-80464386D01*
X137866530Y-80440000D01*
X138193470Y-80440000D01*
X138195872Y-80464386D01*
X138202985Y-80487835D01*
X138214536Y-80509446D01*
X138230082Y-80528388D01*
X138249023Y-80543933D01*
X138317494Y-80589684D01*
X138380316Y-80652506D01*
X138426067Y-80720977D01*
X138441613Y-80739919D01*
X138460555Y-80755464D01*
X138482165Y-80767015D01*
X138505614Y-80774128D01*
X138530000Y-80776530D01*
X138554386Y-80774128D01*
X138577835Y-80767015D01*
X138599446Y-80755464D01*
X138618388Y-80739918D01*
X138633933Y-80720977D01*
X138679684Y-80652506D01*
X138742506Y-80589684D01*
X138810977Y-80543933D01*
X138829919Y-80528387D01*
X138845464Y-80509445D01*
X138857015Y-80487835D01*
X138864128Y-80464386D01*
X138866530Y-80440000D01*
X139193470Y-80440000D01*
X139195872Y-80464386D01*
X139202985Y-80487835D01*
X139214536Y-80509446D01*
X139230082Y-80528388D01*
X139249023Y-80543933D01*
X139317494Y-80589684D01*
X139380316Y-80652506D01*
X139426067Y-80720977D01*
X139441613Y-80739919D01*
X139460555Y-80755464D01*
X139482165Y-80767015D01*
X139505614Y-80774128D01*
X139530000Y-80776530D01*
X139554386Y-80774128D01*
X139577835Y-80767015D01*
X139599446Y-80755464D01*
X139618388Y-80739918D01*
X139633933Y-80720977D01*
X139679684Y-80652506D01*
X139742506Y-80589684D01*
X139810977Y-80543933D01*
X139829919Y-80528387D01*
X139845464Y-80509445D01*
X139857015Y-80487835D01*
X139864128Y-80464386D01*
X139866530Y-80440000D01*
X139864128Y-80415614D01*
X139857015Y-80392165D01*
X139845464Y-80370554D01*
X139829918Y-80351612D01*
X139810977Y-80336067D01*
X139742506Y-80290316D01*
X139679684Y-80227494D01*
X139633933Y-80159023D01*
X139618387Y-80140081D01*
X139599445Y-80124536D01*
X139577835Y-80112985D01*
X139554386Y-80105872D01*
X139530000Y-80103470D01*
X139505614Y-80105872D01*
X139482165Y-80112985D01*
X139460554Y-80124536D01*
X139441612Y-80140082D01*
X139426067Y-80159023D01*
X139380316Y-80227494D01*
X139317494Y-80290316D01*
X139249023Y-80336067D01*
X139230081Y-80351613D01*
X139214536Y-80370555D01*
X139202985Y-80392165D01*
X139195872Y-80415614D01*
X139193470Y-80440000D01*
X138866530Y-80440000D01*
X138864128Y-80415614D01*
X138857015Y-80392165D01*
X138845464Y-80370554D01*
X138829918Y-80351612D01*
X138810977Y-80336067D01*
X138742506Y-80290316D01*
X138679684Y-80227494D01*
X138633933Y-80159023D01*
X138618387Y-80140081D01*
X138599445Y-80124536D01*
X138577835Y-80112985D01*
X138554386Y-80105872D01*
X138530000Y-80103470D01*
X138505614Y-80105872D01*
X138482165Y-80112985D01*
X138460554Y-80124536D01*
X138441612Y-80140082D01*
X138426067Y-80159023D01*
X138380316Y-80227494D01*
X138317494Y-80290316D01*
X138249023Y-80336067D01*
X138230081Y-80351613D01*
X138214536Y-80370555D01*
X138202985Y-80392165D01*
X138195872Y-80415614D01*
X138193470Y-80440000D01*
X137866530Y-80440000D01*
X137864128Y-80415614D01*
X137857015Y-80392165D01*
X137845464Y-80370554D01*
X137829918Y-80351612D01*
X137810977Y-80336067D01*
X137742506Y-80290316D01*
X137679684Y-80227494D01*
X137633933Y-80159023D01*
X137618387Y-80140081D01*
X137599445Y-80124536D01*
X137577835Y-80112985D01*
X137554386Y-80105872D01*
X137530000Y-80103470D01*
X137505614Y-80105872D01*
X137482165Y-80112985D01*
X137460554Y-80124536D01*
X137441612Y-80140082D01*
X137426067Y-80159023D01*
X137380316Y-80227494D01*
X137317494Y-80290316D01*
X137249023Y-80336067D01*
X137230081Y-80351613D01*
X137214536Y-80370555D01*
X137202985Y-80392165D01*
X137195872Y-80415614D01*
X137193470Y-80440000D01*
X136866530Y-80440000D01*
X136864128Y-80415614D01*
X136857015Y-80392165D01*
X136845464Y-80370554D01*
X136829918Y-80351612D01*
X136810977Y-80336067D01*
X136742506Y-80290316D01*
X136679684Y-80227494D01*
X136633933Y-80159023D01*
X136618387Y-80140081D01*
X136599445Y-80124536D01*
X136577835Y-80112985D01*
X136554386Y-80105872D01*
X136530000Y-80103470D01*
X136505614Y-80105872D01*
X136482165Y-80112985D01*
X136460554Y-80124536D01*
X136441612Y-80140082D01*
X136426067Y-80159023D01*
X136380316Y-80227494D01*
X136317494Y-80290316D01*
X136249023Y-80336067D01*
X136230081Y-80351613D01*
X136214536Y-80370555D01*
X136202985Y-80392165D01*
X136195872Y-80415614D01*
X136193470Y-80440000D01*
X135866530Y-80440000D01*
X135864128Y-80415614D01*
X135857015Y-80392165D01*
X135845464Y-80370554D01*
X135829918Y-80351612D01*
X135810977Y-80336067D01*
X135742506Y-80290316D01*
X135679685Y-80227495D01*
X135630328Y-80153627D01*
X135596331Y-80071552D01*
X135579000Y-79984421D01*
X135579000Y-79895579D01*
X135596331Y-79808448D01*
X135630328Y-79726373D01*
X135679685Y-79652505D01*
X135742506Y-79589684D01*
X135810977Y-79543933D01*
X135829919Y-79528387D01*
X135845464Y-79509445D01*
X135857015Y-79487835D01*
X135864128Y-79464386D01*
X135866530Y-79440000D01*
X136193470Y-79440000D01*
X136195872Y-79464386D01*
X136202985Y-79487835D01*
X136214536Y-79509446D01*
X136230082Y-79528388D01*
X136249023Y-79543933D01*
X136317494Y-79589684D01*
X136380316Y-79652506D01*
X136426067Y-79720977D01*
X136441613Y-79739919D01*
X136460555Y-79755464D01*
X136482165Y-79767015D01*
X136505614Y-79774128D01*
X136530000Y-79776530D01*
X136554386Y-79774128D01*
X136577835Y-79767015D01*
X136599446Y-79755464D01*
X136618388Y-79739918D01*
X136633933Y-79720977D01*
X136679684Y-79652506D01*
X136742506Y-79589684D01*
X136810977Y-79543933D01*
X136829919Y-79528387D01*
X136845464Y-79509445D01*
X136857015Y-79487835D01*
X136864128Y-79464386D01*
X136866530Y-79440000D01*
X137193470Y-79440000D01*
X137195872Y-79464386D01*
X137202985Y-79487835D01*
X137214536Y-79509446D01*
X137230082Y-79528388D01*
X137249023Y-79543933D01*
X137317494Y-79589684D01*
X137380316Y-79652506D01*
X137426067Y-79720977D01*
X137441613Y-79739919D01*
X137460555Y-79755464D01*
X137482165Y-79767015D01*
X137505614Y-79774128D01*
X137530000Y-79776530D01*
X137554386Y-79774128D01*
X137577835Y-79767015D01*
X137599446Y-79755464D01*
X137618388Y-79739918D01*
X137633933Y-79720977D01*
X137679684Y-79652506D01*
X137742506Y-79589684D01*
X137810977Y-79543933D01*
X137829919Y-79528387D01*
X137845464Y-79509445D01*
X137857015Y-79487835D01*
X137864128Y-79464386D01*
X137866530Y-79440000D01*
X138193470Y-79440000D01*
X138195872Y-79464386D01*
X138202985Y-79487835D01*
X138214536Y-79509446D01*
X138230082Y-79528388D01*
X138249023Y-79543933D01*
X138317494Y-79589684D01*
X138380316Y-79652506D01*
X138426067Y-79720977D01*
X138441613Y-79739919D01*
X138460555Y-79755464D01*
X138482165Y-79767015D01*
X138505614Y-79774128D01*
X138530000Y-79776530D01*
X138554386Y-79774128D01*
X138577835Y-79767015D01*
X138599446Y-79755464D01*
X138618388Y-79739918D01*
X138633933Y-79720977D01*
X138679684Y-79652506D01*
X138742506Y-79589684D01*
X138810977Y-79543933D01*
X138829919Y-79528387D01*
X138845464Y-79509445D01*
X138857015Y-79487835D01*
X138864128Y-79464386D01*
X138866530Y-79440000D01*
X139193470Y-79440000D01*
X139195872Y-79464386D01*
X139202985Y-79487835D01*
X139214536Y-79509446D01*
X139230082Y-79528388D01*
X139249023Y-79543933D01*
X139317494Y-79589684D01*
X139380316Y-79652506D01*
X139426067Y-79720977D01*
X139441613Y-79739919D01*
X139460555Y-79755464D01*
X139482165Y-79767015D01*
X139505614Y-79774128D01*
X139530000Y-79776530D01*
X139554386Y-79774128D01*
X139577835Y-79767015D01*
X139599446Y-79755464D01*
X139618388Y-79739918D01*
X139633933Y-79720977D01*
X139679684Y-79652506D01*
X139742506Y-79589684D01*
X139810977Y-79543933D01*
X139829919Y-79528387D01*
X139845464Y-79509445D01*
X139857015Y-79487835D01*
X139864128Y-79464386D01*
X139866530Y-79440000D01*
X139864128Y-79415614D01*
X139857015Y-79392165D01*
X139845464Y-79370554D01*
X139829918Y-79351612D01*
X139810977Y-79336067D01*
X139742506Y-79290316D01*
X139679684Y-79227494D01*
X139633933Y-79159023D01*
X139618387Y-79140081D01*
X139599445Y-79124536D01*
X139577835Y-79112985D01*
X139554386Y-79105872D01*
X139530000Y-79103470D01*
X139505614Y-79105872D01*
X139482165Y-79112985D01*
X139460554Y-79124536D01*
X139441612Y-79140082D01*
X139426067Y-79159023D01*
X139380316Y-79227494D01*
X139317494Y-79290316D01*
X139249023Y-79336067D01*
X139230081Y-79351613D01*
X139214536Y-79370555D01*
X139202985Y-79392165D01*
X139195872Y-79415614D01*
X139193470Y-79440000D01*
X138866530Y-79440000D01*
X138864128Y-79415614D01*
X138857015Y-79392165D01*
X138845464Y-79370554D01*
X138829918Y-79351612D01*
X138810977Y-79336067D01*
X138742506Y-79290316D01*
X138679684Y-79227494D01*
X138633933Y-79159023D01*
X138618387Y-79140081D01*
X138599445Y-79124536D01*
X138577835Y-79112985D01*
X138554386Y-79105872D01*
X138530000Y-79103470D01*
X138505614Y-79105872D01*
X138482165Y-79112985D01*
X138460554Y-79124536D01*
X138441612Y-79140082D01*
X138426067Y-79159023D01*
X138380316Y-79227494D01*
X138317494Y-79290316D01*
X138249023Y-79336067D01*
X138230081Y-79351613D01*
X138214536Y-79370555D01*
X138202985Y-79392165D01*
X138195872Y-79415614D01*
X138193470Y-79440000D01*
X137866530Y-79440000D01*
X137864128Y-79415614D01*
X137857015Y-79392165D01*
X137845464Y-79370554D01*
X137829918Y-79351612D01*
X137810977Y-79336067D01*
X137742506Y-79290316D01*
X137679684Y-79227494D01*
X137633933Y-79159023D01*
X137618387Y-79140081D01*
X137599445Y-79124536D01*
X137577835Y-79112985D01*
X137554386Y-79105872D01*
X137530000Y-79103470D01*
X137505614Y-79105872D01*
X137482165Y-79112985D01*
X137460554Y-79124536D01*
X137441612Y-79140082D01*
X137426067Y-79159023D01*
X137380316Y-79227494D01*
X137317494Y-79290316D01*
X137249023Y-79336067D01*
X137230081Y-79351613D01*
X137214536Y-79370555D01*
X137202985Y-79392165D01*
X137195872Y-79415614D01*
X137193470Y-79440000D01*
X136866530Y-79440000D01*
X136864128Y-79415614D01*
X136857015Y-79392165D01*
X136845464Y-79370554D01*
X136829918Y-79351612D01*
X136810977Y-79336067D01*
X136742506Y-79290316D01*
X136679684Y-79227494D01*
X136633933Y-79159023D01*
X136618387Y-79140081D01*
X136599445Y-79124536D01*
X136577835Y-79112985D01*
X136554386Y-79105872D01*
X136530000Y-79103470D01*
X136505614Y-79105872D01*
X136482165Y-79112985D01*
X136460554Y-79124536D01*
X136441612Y-79140082D01*
X136426067Y-79159023D01*
X136380316Y-79227494D01*
X136317494Y-79290316D01*
X136249023Y-79336067D01*
X136230081Y-79351613D01*
X136214536Y-79370555D01*
X136202985Y-79392165D01*
X136195872Y-79415614D01*
X136193470Y-79440000D01*
X135866530Y-79440000D01*
X135864128Y-79415614D01*
X135857015Y-79392165D01*
X135845464Y-79370554D01*
X135829918Y-79351612D01*
X135810977Y-79336067D01*
X135742506Y-79290316D01*
X135679685Y-79227495D01*
X135630328Y-79153627D01*
X135596331Y-79071552D01*
X135579000Y-78984421D01*
X135579000Y-78895579D01*
X135596331Y-78808448D01*
X135630328Y-78726373D01*
X135679685Y-78652505D01*
X135742506Y-78589684D01*
X135810977Y-78543933D01*
X135829919Y-78528387D01*
X135845464Y-78509445D01*
X135857015Y-78487835D01*
X135864128Y-78464386D01*
X135866530Y-78440000D01*
X136193470Y-78440000D01*
X136195872Y-78464386D01*
X136202985Y-78487835D01*
X136214536Y-78509446D01*
X136230082Y-78528388D01*
X136249023Y-78543933D01*
X136317494Y-78589684D01*
X136380316Y-78652506D01*
X136426067Y-78720977D01*
X136441613Y-78739919D01*
X136460555Y-78755464D01*
X136482165Y-78767015D01*
X136505614Y-78774128D01*
X136530000Y-78776530D01*
X136554386Y-78774128D01*
X136577835Y-78767015D01*
X136599446Y-78755464D01*
X136618388Y-78739918D01*
X136633933Y-78720977D01*
X136679684Y-78652506D01*
X136742506Y-78589684D01*
X136810977Y-78543933D01*
X136829919Y-78528387D01*
X136845464Y-78509445D01*
X136857015Y-78487835D01*
X136864128Y-78464386D01*
X136866530Y-78440000D01*
X137193470Y-78440000D01*
X137195872Y-78464386D01*
X137202985Y-78487835D01*
X137214536Y-78509446D01*
X137230082Y-78528388D01*
X137249023Y-78543933D01*
X137317494Y-78589684D01*
X137380316Y-78652506D01*
X137426067Y-78720977D01*
X137441613Y-78739919D01*
X137460555Y-78755464D01*
X137482165Y-78767015D01*
X137505614Y-78774128D01*
X137530000Y-78776530D01*
X137554386Y-78774128D01*
X137577835Y-78767015D01*
X137599446Y-78755464D01*
X137618388Y-78739918D01*
X137633933Y-78720977D01*
X137679684Y-78652506D01*
X137742506Y-78589684D01*
X137810977Y-78543933D01*
X137829919Y-78528387D01*
X137845464Y-78509445D01*
X137857015Y-78487835D01*
X137864128Y-78464386D01*
X137866530Y-78440000D01*
X138193470Y-78440000D01*
X138195872Y-78464386D01*
X138202985Y-78487835D01*
X138214536Y-78509446D01*
X138230082Y-78528388D01*
X138249023Y-78543933D01*
X138317494Y-78589684D01*
X138380316Y-78652506D01*
X138426067Y-78720977D01*
X138441613Y-78739919D01*
X138460555Y-78755464D01*
X138482165Y-78767015D01*
X138505614Y-78774128D01*
X138530000Y-78776530D01*
X138554386Y-78774128D01*
X138577835Y-78767015D01*
X138599446Y-78755464D01*
X138618388Y-78739918D01*
X138633933Y-78720977D01*
X138679684Y-78652506D01*
X138742506Y-78589684D01*
X138810977Y-78543933D01*
X138829919Y-78528387D01*
X138845464Y-78509445D01*
X138857015Y-78487835D01*
X138864128Y-78464386D01*
X138866530Y-78440000D01*
X139193470Y-78440000D01*
X139195872Y-78464386D01*
X139202985Y-78487835D01*
X139214536Y-78509446D01*
X139230082Y-78528388D01*
X139249023Y-78543933D01*
X139317494Y-78589684D01*
X139380316Y-78652506D01*
X139426067Y-78720977D01*
X139441613Y-78739919D01*
X139460555Y-78755464D01*
X139482165Y-78767015D01*
X139505614Y-78774128D01*
X139530000Y-78776530D01*
X139554386Y-78774128D01*
X139577835Y-78767015D01*
X139599446Y-78755464D01*
X139618388Y-78739918D01*
X139633933Y-78720977D01*
X139679684Y-78652506D01*
X139742506Y-78589684D01*
X139810977Y-78543933D01*
X139829919Y-78528387D01*
X139845464Y-78509445D01*
X139857015Y-78487835D01*
X139864128Y-78464386D01*
X139866530Y-78440000D01*
X139864128Y-78415614D01*
X139857015Y-78392165D01*
X139845464Y-78370554D01*
X139829918Y-78351612D01*
X139810977Y-78336067D01*
X139742506Y-78290316D01*
X139679684Y-78227494D01*
X139633933Y-78159023D01*
X139618387Y-78140081D01*
X139599445Y-78124536D01*
X139577835Y-78112985D01*
X139554386Y-78105872D01*
X139530000Y-78103470D01*
X139505614Y-78105872D01*
X139482165Y-78112985D01*
X139460554Y-78124536D01*
X139441612Y-78140082D01*
X139426067Y-78159023D01*
X139380316Y-78227494D01*
X139317494Y-78290316D01*
X139249023Y-78336067D01*
X139230081Y-78351613D01*
X139214536Y-78370555D01*
X139202985Y-78392165D01*
X139195872Y-78415614D01*
X139193470Y-78440000D01*
X138866530Y-78440000D01*
X138864128Y-78415614D01*
X138857015Y-78392165D01*
X138845464Y-78370554D01*
X138829918Y-78351612D01*
X138810977Y-78336067D01*
X138742506Y-78290316D01*
X138679684Y-78227494D01*
X138633933Y-78159023D01*
X138618387Y-78140081D01*
X138599445Y-78124536D01*
X138577835Y-78112985D01*
X138554386Y-78105872D01*
X138530000Y-78103470D01*
X138505614Y-78105872D01*
X138482165Y-78112985D01*
X138460554Y-78124536D01*
X138441612Y-78140082D01*
X138426067Y-78159023D01*
X138380316Y-78227494D01*
X138317494Y-78290316D01*
X138249023Y-78336067D01*
X138230081Y-78351613D01*
X138214536Y-78370555D01*
X138202985Y-78392165D01*
X138195872Y-78415614D01*
X138193470Y-78440000D01*
X137866530Y-78440000D01*
X137864128Y-78415614D01*
X137857015Y-78392165D01*
X137845464Y-78370554D01*
X137829918Y-78351612D01*
X137810977Y-78336067D01*
X137742506Y-78290316D01*
X137679684Y-78227494D01*
X137633933Y-78159023D01*
X137618387Y-78140081D01*
X137599445Y-78124536D01*
X137577835Y-78112985D01*
X137554386Y-78105872D01*
X137530000Y-78103470D01*
X137505614Y-78105872D01*
X137482165Y-78112985D01*
X137460554Y-78124536D01*
X137441612Y-78140082D01*
X137426067Y-78159023D01*
X137380316Y-78227494D01*
X137317494Y-78290316D01*
X137249023Y-78336067D01*
X137230081Y-78351613D01*
X137214536Y-78370555D01*
X137202985Y-78392165D01*
X137195872Y-78415614D01*
X137193470Y-78440000D01*
X136866530Y-78440000D01*
X136864128Y-78415614D01*
X136857015Y-78392165D01*
X136845464Y-78370554D01*
X136829918Y-78351612D01*
X136810977Y-78336067D01*
X136742506Y-78290316D01*
X136679684Y-78227494D01*
X136633933Y-78159023D01*
X136618387Y-78140081D01*
X136599445Y-78124536D01*
X136577835Y-78112985D01*
X136554386Y-78105872D01*
X136530000Y-78103470D01*
X136505614Y-78105872D01*
X136482165Y-78112985D01*
X136460554Y-78124536D01*
X136441612Y-78140082D01*
X136426067Y-78159023D01*
X136380316Y-78227494D01*
X136317494Y-78290316D01*
X136249023Y-78336067D01*
X136230081Y-78351613D01*
X136214536Y-78370555D01*
X136202985Y-78392165D01*
X136195872Y-78415614D01*
X136193470Y-78440000D01*
X135866530Y-78440000D01*
X135864128Y-78415614D01*
X135857015Y-78392165D01*
X135845464Y-78370554D01*
X135829918Y-78351612D01*
X135810977Y-78336067D01*
X135742506Y-78290316D01*
X135679685Y-78227495D01*
X135630328Y-78153627D01*
X135596331Y-78071552D01*
X135579000Y-77984421D01*
X135579000Y-77895579D01*
X135596331Y-77808448D01*
X135630328Y-77726373D01*
X135679685Y-77652505D01*
X135742506Y-77589684D01*
X135810977Y-77543933D01*
X135829919Y-77528387D01*
X135845464Y-77509445D01*
X135857015Y-77487835D01*
X135864128Y-77464386D01*
X135866530Y-77440000D01*
X136193470Y-77440000D01*
X136195872Y-77464386D01*
X136202985Y-77487835D01*
X136214536Y-77509446D01*
X136230082Y-77528388D01*
X136249023Y-77543933D01*
X136317494Y-77589684D01*
X136380316Y-77652506D01*
X136426067Y-77720977D01*
X136441613Y-77739919D01*
X136460555Y-77755464D01*
X136482165Y-77767015D01*
X136505614Y-77774128D01*
X136530000Y-77776530D01*
X136554386Y-77774128D01*
X136577835Y-77767015D01*
X136599446Y-77755464D01*
X136618388Y-77739918D01*
X136633933Y-77720977D01*
X136679684Y-77652506D01*
X136742506Y-77589684D01*
X136810977Y-77543933D01*
X136829919Y-77528387D01*
X136845464Y-77509445D01*
X136857015Y-77487835D01*
X136864128Y-77464386D01*
X136866530Y-77440000D01*
X137193470Y-77440000D01*
X137195872Y-77464386D01*
X137202985Y-77487835D01*
X137214536Y-77509446D01*
X137230082Y-77528388D01*
X137249023Y-77543933D01*
X137317494Y-77589684D01*
X137380316Y-77652506D01*
X137426067Y-77720977D01*
X137441613Y-77739919D01*
X137460555Y-77755464D01*
X137482165Y-77767015D01*
X137505614Y-77774128D01*
X137530000Y-77776530D01*
X137554386Y-77774128D01*
X137577835Y-77767015D01*
X137599446Y-77755464D01*
X137618388Y-77739918D01*
X137633933Y-77720977D01*
X137679684Y-77652506D01*
X137742506Y-77589684D01*
X137810977Y-77543933D01*
X137829919Y-77528387D01*
X137845464Y-77509445D01*
X137857015Y-77487835D01*
X137864128Y-77464386D01*
X137866530Y-77440000D01*
X138193470Y-77440000D01*
X138195872Y-77464386D01*
X138202985Y-77487835D01*
X138214536Y-77509446D01*
X138230082Y-77528388D01*
X138249023Y-77543933D01*
X138317494Y-77589684D01*
X138380316Y-77652506D01*
X138426067Y-77720977D01*
X138441613Y-77739919D01*
X138460555Y-77755464D01*
X138482165Y-77767015D01*
X138505614Y-77774128D01*
X138530000Y-77776530D01*
X138554386Y-77774128D01*
X138577835Y-77767015D01*
X138599446Y-77755464D01*
X138618388Y-77739918D01*
X138633933Y-77720977D01*
X138679684Y-77652506D01*
X138742506Y-77589684D01*
X138810977Y-77543933D01*
X138829919Y-77528387D01*
X138845464Y-77509445D01*
X138857015Y-77487835D01*
X138864128Y-77464386D01*
X138866530Y-77440000D01*
X139193470Y-77440000D01*
X139195872Y-77464386D01*
X139202985Y-77487835D01*
X139214536Y-77509446D01*
X139230082Y-77528388D01*
X139249023Y-77543933D01*
X139317494Y-77589684D01*
X139380316Y-77652506D01*
X139426067Y-77720977D01*
X139441613Y-77739919D01*
X139460555Y-77755464D01*
X139482165Y-77767015D01*
X139505614Y-77774128D01*
X139530000Y-77776530D01*
X139554386Y-77774128D01*
X139577835Y-77767015D01*
X139599446Y-77755464D01*
X139618388Y-77739918D01*
X139633933Y-77720977D01*
X139679684Y-77652506D01*
X139742506Y-77589684D01*
X139810977Y-77543933D01*
X139829919Y-77528387D01*
X139845464Y-77509445D01*
X139857015Y-77487835D01*
X139864128Y-77464386D01*
X139866530Y-77440000D01*
X139864128Y-77415614D01*
X139857015Y-77392165D01*
X139845464Y-77370554D01*
X139829918Y-77351612D01*
X139810977Y-77336067D01*
X139742506Y-77290316D01*
X139679684Y-77227494D01*
X139633933Y-77159023D01*
X139618387Y-77140081D01*
X139599445Y-77124536D01*
X139577835Y-77112985D01*
X139554386Y-77105872D01*
X139530000Y-77103470D01*
X139505614Y-77105872D01*
X139482165Y-77112985D01*
X139460554Y-77124536D01*
X139441612Y-77140082D01*
X139426067Y-77159023D01*
X139380316Y-77227494D01*
X139317494Y-77290316D01*
X139249023Y-77336067D01*
X139230081Y-77351613D01*
X139214536Y-77370555D01*
X139202985Y-77392165D01*
X139195872Y-77415614D01*
X139193470Y-77440000D01*
X138866530Y-77440000D01*
X138864128Y-77415614D01*
X138857015Y-77392165D01*
X138845464Y-77370554D01*
X138829918Y-77351612D01*
X138810977Y-77336067D01*
X138742506Y-77290316D01*
X138679684Y-77227494D01*
X138633933Y-77159023D01*
X138618387Y-77140081D01*
X138599445Y-77124536D01*
X138577835Y-77112985D01*
X138554386Y-77105872D01*
X138530000Y-77103470D01*
X138505614Y-77105872D01*
X138482165Y-77112985D01*
X138460554Y-77124536D01*
X138441612Y-77140082D01*
X138426067Y-77159023D01*
X138380316Y-77227494D01*
X138317494Y-77290316D01*
X138249023Y-77336067D01*
X138230081Y-77351613D01*
X138214536Y-77370555D01*
X138202985Y-77392165D01*
X138195872Y-77415614D01*
X138193470Y-77440000D01*
X137866530Y-77440000D01*
X137864128Y-77415614D01*
X137857015Y-77392165D01*
X137845464Y-77370554D01*
X137829918Y-77351612D01*
X137810977Y-77336067D01*
X137742506Y-77290316D01*
X137679684Y-77227494D01*
X137633933Y-77159023D01*
X137618387Y-77140081D01*
X137599445Y-77124536D01*
X137577835Y-77112985D01*
X137554386Y-77105872D01*
X137530000Y-77103470D01*
X137505614Y-77105872D01*
X137482165Y-77112985D01*
X137460554Y-77124536D01*
X137441612Y-77140082D01*
X137426067Y-77159023D01*
X137380316Y-77227494D01*
X137317494Y-77290316D01*
X137249023Y-77336067D01*
X137230081Y-77351613D01*
X137214536Y-77370555D01*
X137202985Y-77392165D01*
X137195872Y-77415614D01*
X137193470Y-77440000D01*
X136866530Y-77440000D01*
X136864128Y-77415614D01*
X136857015Y-77392165D01*
X136845464Y-77370554D01*
X136829918Y-77351612D01*
X136810977Y-77336067D01*
X136742506Y-77290316D01*
X136679684Y-77227494D01*
X136633933Y-77159023D01*
X136618387Y-77140081D01*
X136599445Y-77124536D01*
X136577835Y-77112985D01*
X136554386Y-77105872D01*
X136530000Y-77103470D01*
X136505614Y-77105872D01*
X136482165Y-77112985D01*
X136460554Y-77124536D01*
X136441612Y-77140082D01*
X136426067Y-77159023D01*
X136380316Y-77227494D01*
X136317494Y-77290316D01*
X136249023Y-77336067D01*
X136230081Y-77351613D01*
X136214536Y-77370555D01*
X136202985Y-77392165D01*
X136195872Y-77415614D01*
X136193470Y-77440000D01*
X135866530Y-77440000D01*
X135864128Y-77415614D01*
X135857015Y-77392165D01*
X135845464Y-77370554D01*
X135829918Y-77351612D01*
X135810977Y-77336067D01*
X135742506Y-77290316D01*
X135679685Y-77227495D01*
X135630328Y-77153627D01*
X135596331Y-77071552D01*
X135579000Y-76984421D01*
X135579000Y-76895579D01*
X135596331Y-76808448D01*
X135630328Y-76726373D01*
X135679685Y-76652505D01*
X135742505Y-76589685D01*
X135779187Y-76565175D01*
X135816371Y-76540329D01*
X135816373Y-76540328D01*
X135898448Y-76506331D01*
X135985579Y-76489000D01*
X136074421Y-76489000D01*
X136161552Y-76506331D01*
X136161552Y-76506331D01*
G37*
G36*
X125205443Y-77845519D02*
G01*
X125271627Y-77852037D01*
X125441466Y-77903557D01*
X125597991Y-77987222D01*
X125633729Y-78016552D01*
X125735186Y-78099814D01*
X125818448Y-78201271D01*
X125847778Y-78237009D01*
X125931443Y-78393534D01*
X125982963Y-78563373D01*
X126000359Y-78740000D01*
X125982963Y-78916627D01*
X125931443Y-79086466D01*
X125847778Y-79242991D01*
X125818448Y-79278729D01*
X125735186Y-79380186D01*
X125662301Y-79440000D01*
X125597991Y-79492778D01*
X125441466Y-79576443D01*
X125271627Y-79627963D01*
X125205442Y-79634482D01*
X125139260Y-79641000D01*
X125050740Y-79641000D01*
X124984558Y-79634482D01*
X124918373Y-79627963D01*
X124748534Y-79576443D01*
X124592009Y-79492778D01*
X124527699Y-79440000D01*
X124454814Y-79380186D01*
X124371552Y-79278729D01*
X124342222Y-79242991D01*
X124258557Y-79086466D01*
X124207037Y-78916627D01*
X124189641Y-78740000D01*
X124207037Y-78563373D01*
X124258557Y-78393534D01*
X124342222Y-78237009D01*
X124371552Y-78201271D01*
X124454814Y-78099814D01*
X124556271Y-78016552D01*
X124592009Y-77987222D01*
X124748534Y-77903557D01*
X124918373Y-77852037D01*
X124984557Y-77845519D01*
X125050740Y-77839000D01*
X125139260Y-77839000D01*
X125205443Y-77845519D01*
X125205443Y-77845519D01*
G37*
G36*
X151875443Y-77845519D02*
G01*
X151941627Y-77852037D01*
X152111466Y-77903557D01*
X152267991Y-77987222D01*
X152303729Y-78016552D01*
X152405186Y-78099814D01*
X152488448Y-78201271D01*
X152517778Y-78237009D01*
X152601443Y-78393534D01*
X152652963Y-78563373D01*
X152670359Y-78740000D01*
X152652963Y-78916627D01*
X152601443Y-79086466D01*
X152517778Y-79242991D01*
X152488448Y-79278729D01*
X152405186Y-79380186D01*
X152332301Y-79440000D01*
X152267991Y-79492778D01*
X152111466Y-79576443D01*
X151941627Y-79627963D01*
X151875442Y-79634482D01*
X151809260Y-79641000D01*
X151720740Y-79641000D01*
X151654558Y-79634482D01*
X151588373Y-79627963D01*
X151418534Y-79576443D01*
X151262009Y-79492778D01*
X151197699Y-79440000D01*
X151124814Y-79380186D01*
X151041552Y-79278729D01*
X151012222Y-79242991D01*
X150928557Y-79086466D01*
X150877037Y-78916627D01*
X150859641Y-78740000D01*
X150877037Y-78563373D01*
X150928557Y-78393534D01*
X151012222Y-78237009D01*
X151041552Y-78201271D01*
X151124814Y-78099814D01*
X151226271Y-78016552D01*
X151262009Y-77987222D01*
X151418534Y-77903557D01*
X151588373Y-77852037D01*
X151654557Y-77845519D01*
X151720740Y-77839000D01*
X151809260Y-77839000D01*
X151875443Y-77845519D01*
X151875443Y-77845519D01*
G37*
G36*
X122665443Y-77845519D02*
G01*
X122731627Y-77852037D01*
X122901466Y-77903557D01*
X123057991Y-77987222D01*
X123093729Y-78016552D01*
X123195186Y-78099814D01*
X123278448Y-78201271D01*
X123307778Y-78237009D01*
X123391443Y-78393534D01*
X123442963Y-78563373D01*
X123460359Y-78740000D01*
X123442963Y-78916627D01*
X123391443Y-79086466D01*
X123307778Y-79242991D01*
X123278448Y-79278729D01*
X123195186Y-79380186D01*
X123122301Y-79440000D01*
X123057991Y-79492778D01*
X122901466Y-79576443D01*
X122731627Y-79627963D01*
X122665442Y-79634482D01*
X122599260Y-79641000D01*
X122510740Y-79641000D01*
X122444558Y-79634482D01*
X122378373Y-79627963D01*
X122208534Y-79576443D01*
X122052009Y-79492778D01*
X121987699Y-79440000D01*
X121914814Y-79380186D01*
X121831552Y-79278729D01*
X121802222Y-79242991D01*
X121718557Y-79086466D01*
X121667037Y-78916627D01*
X121649641Y-78740000D01*
X121667037Y-78563373D01*
X121718557Y-78393534D01*
X121802222Y-78237009D01*
X121831552Y-78201271D01*
X121914814Y-78099814D01*
X122016271Y-78016552D01*
X122052009Y-77987222D01*
X122208534Y-77903557D01*
X122378373Y-77852037D01*
X122444557Y-77845519D01*
X122510740Y-77839000D01*
X122599260Y-77839000D01*
X122665443Y-77845519D01*
X122665443Y-77845519D01*
G37*
G36*
X154415443Y-77845519D02*
G01*
X154481627Y-77852037D01*
X154651466Y-77903557D01*
X154807991Y-77987222D01*
X154843729Y-78016552D01*
X154945186Y-78099814D01*
X155028448Y-78201271D01*
X155057778Y-78237009D01*
X155141443Y-78393534D01*
X155192963Y-78563373D01*
X155210359Y-78740000D01*
X155192963Y-78916627D01*
X155141443Y-79086466D01*
X155057778Y-79242991D01*
X155028448Y-79278729D01*
X154945186Y-79380186D01*
X154872301Y-79440000D01*
X154807991Y-79492778D01*
X154651466Y-79576443D01*
X154481627Y-79627963D01*
X154415442Y-79634482D01*
X154349260Y-79641000D01*
X154260740Y-79641000D01*
X154194558Y-79634482D01*
X154128373Y-79627963D01*
X153958534Y-79576443D01*
X153802009Y-79492778D01*
X153737699Y-79440000D01*
X153664814Y-79380186D01*
X153581552Y-79278729D01*
X153552222Y-79242991D01*
X153468557Y-79086466D01*
X153417037Y-78916627D01*
X153399641Y-78740000D01*
X153417037Y-78563373D01*
X153468557Y-78393534D01*
X153552222Y-78237009D01*
X153581552Y-78201271D01*
X153664814Y-78099814D01*
X153766271Y-78016552D01*
X153802009Y-77987222D01*
X153958534Y-77903557D01*
X154128373Y-77852037D01*
X154194557Y-77845519D01*
X154260740Y-77839000D01*
X154349260Y-77839000D01*
X154415443Y-77845519D01*
X154415443Y-77845519D01*
G37*
G36*
X125205442Y-75305518D02*
G01*
X125271627Y-75312037D01*
X125441466Y-75363557D01*
X125597991Y-75447222D01*
X125633729Y-75476552D01*
X125735186Y-75559814D01*
X125818448Y-75661271D01*
X125847778Y-75697009D01*
X125931443Y-75853534D01*
X125982963Y-76023373D01*
X126000359Y-76200000D01*
X125982963Y-76376627D01*
X125931443Y-76546466D01*
X125847778Y-76702991D01*
X125833017Y-76720977D01*
X125735186Y-76840186D01*
X125633729Y-76923448D01*
X125597991Y-76952778D01*
X125441466Y-77036443D01*
X125271627Y-77087963D01*
X125205442Y-77094482D01*
X125139260Y-77101000D01*
X125050740Y-77101000D01*
X124984558Y-77094482D01*
X124918373Y-77087963D01*
X124748534Y-77036443D01*
X124592009Y-76952778D01*
X124556271Y-76923448D01*
X124454814Y-76840186D01*
X124356983Y-76720977D01*
X124342222Y-76702991D01*
X124258557Y-76546466D01*
X124207037Y-76376627D01*
X124189641Y-76200000D01*
X124207037Y-76023373D01*
X124258557Y-75853534D01*
X124342222Y-75697009D01*
X124371552Y-75661271D01*
X124454814Y-75559814D01*
X124556271Y-75476552D01*
X124592009Y-75447222D01*
X124748534Y-75363557D01*
X124918373Y-75312037D01*
X124984558Y-75305518D01*
X125050740Y-75299000D01*
X125139260Y-75299000D01*
X125205442Y-75305518D01*
X125205442Y-75305518D01*
G37*
G36*
X151875442Y-75305518D02*
G01*
X151941627Y-75312037D01*
X152111466Y-75363557D01*
X152267991Y-75447222D01*
X152303729Y-75476552D01*
X152405186Y-75559814D01*
X152488448Y-75661271D01*
X152517778Y-75697009D01*
X152601443Y-75853534D01*
X152652963Y-76023373D01*
X152670359Y-76200000D01*
X152652963Y-76376627D01*
X152601443Y-76546466D01*
X152517778Y-76702991D01*
X152503017Y-76720977D01*
X152405186Y-76840186D01*
X152303729Y-76923448D01*
X152267991Y-76952778D01*
X152111466Y-77036443D01*
X151941627Y-77087963D01*
X151875442Y-77094482D01*
X151809260Y-77101000D01*
X151720740Y-77101000D01*
X151654558Y-77094482D01*
X151588373Y-77087963D01*
X151418534Y-77036443D01*
X151262009Y-76952778D01*
X151226271Y-76923448D01*
X151124814Y-76840186D01*
X151026983Y-76720977D01*
X151012222Y-76702991D01*
X150928557Y-76546466D01*
X150877037Y-76376627D01*
X150859641Y-76200000D01*
X150877037Y-76023373D01*
X150928557Y-75853534D01*
X151012222Y-75697009D01*
X151041552Y-75661271D01*
X151124814Y-75559814D01*
X151226271Y-75476552D01*
X151262009Y-75447222D01*
X151418534Y-75363557D01*
X151588373Y-75312037D01*
X151654558Y-75305518D01*
X151720740Y-75299000D01*
X151809260Y-75299000D01*
X151875442Y-75305518D01*
X151875442Y-75305518D01*
G37*
G36*
X122665442Y-75305518D02*
G01*
X122731627Y-75312037D01*
X122901466Y-75363557D01*
X123057991Y-75447222D01*
X123093729Y-75476552D01*
X123195186Y-75559814D01*
X123278448Y-75661271D01*
X123307778Y-75697009D01*
X123391443Y-75853534D01*
X123442963Y-76023373D01*
X123460359Y-76200000D01*
X123442963Y-76376627D01*
X123391443Y-76546466D01*
X123307778Y-76702991D01*
X123293017Y-76720977D01*
X123195186Y-76840186D01*
X123093729Y-76923448D01*
X123057991Y-76952778D01*
X122901466Y-77036443D01*
X122731627Y-77087963D01*
X122665442Y-77094482D01*
X122599260Y-77101000D01*
X122510740Y-77101000D01*
X122444558Y-77094482D01*
X122378373Y-77087963D01*
X122208534Y-77036443D01*
X122052009Y-76952778D01*
X122016271Y-76923448D01*
X121914814Y-76840186D01*
X121816983Y-76720977D01*
X121802222Y-76702991D01*
X121718557Y-76546466D01*
X121667037Y-76376627D01*
X121649641Y-76200000D01*
X121667037Y-76023373D01*
X121718557Y-75853534D01*
X121802222Y-75697009D01*
X121831552Y-75661271D01*
X121914814Y-75559814D01*
X122016271Y-75476552D01*
X122052009Y-75447222D01*
X122208534Y-75363557D01*
X122378373Y-75312037D01*
X122444558Y-75305518D01*
X122510740Y-75299000D01*
X122599260Y-75299000D01*
X122665442Y-75305518D01*
X122665442Y-75305518D01*
G37*
G36*
X154415442Y-75305518D02*
G01*
X154481627Y-75312037D01*
X154651466Y-75363557D01*
X154807991Y-75447222D01*
X154843729Y-75476552D01*
X154945186Y-75559814D01*
X155028448Y-75661271D01*
X155057778Y-75697009D01*
X155141443Y-75853534D01*
X155192963Y-76023373D01*
X155210359Y-76200000D01*
X155192963Y-76376627D01*
X155141443Y-76546466D01*
X155057778Y-76702991D01*
X155043017Y-76720977D01*
X154945186Y-76840186D01*
X154843729Y-76923448D01*
X154807991Y-76952778D01*
X154651466Y-77036443D01*
X154481627Y-77087963D01*
X154415442Y-77094482D01*
X154349260Y-77101000D01*
X154260740Y-77101000D01*
X154194558Y-77094482D01*
X154128373Y-77087963D01*
X153958534Y-77036443D01*
X153802009Y-76952778D01*
X153766271Y-76923448D01*
X153664814Y-76840186D01*
X153566983Y-76720977D01*
X153552222Y-76702991D01*
X153468557Y-76546466D01*
X153417037Y-76376627D01*
X153399641Y-76200000D01*
X153417037Y-76023373D01*
X153468557Y-75853534D01*
X153552222Y-75697009D01*
X153581552Y-75661271D01*
X153664814Y-75559814D01*
X153766271Y-75476552D01*
X153802009Y-75447222D01*
X153958534Y-75363557D01*
X154128373Y-75312037D01*
X154194558Y-75305518D01*
X154260740Y-75299000D01*
X154349260Y-75299000D01*
X154415442Y-75305518D01*
X154415442Y-75305518D01*
G37*
G36*
X125205442Y-72765518D02*
G01*
X125271627Y-72772037D01*
X125441466Y-72823557D01*
X125597991Y-72907222D01*
X125633729Y-72936552D01*
X125735186Y-73019814D01*
X125818448Y-73121271D01*
X125847778Y-73157009D01*
X125931443Y-73313534D01*
X125982963Y-73483373D01*
X126000359Y-73660000D01*
X125982963Y-73836627D01*
X125931443Y-74006466D01*
X125847778Y-74162991D01*
X125818448Y-74198729D01*
X125735186Y-74300186D01*
X125633729Y-74383448D01*
X125597991Y-74412778D01*
X125441466Y-74496443D01*
X125271627Y-74547963D01*
X125205442Y-74554482D01*
X125139260Y-74561000D01*
X125050740Y-74561000D01*
X124984558Y-74554482D01*
X124918373Y-74547963D01*
X124748534Y-74496443D01*
X124592009Y-74412778D01*
X124556271Y-74383448D01*
X124454814Y-74300186D01*
X124371552Y-74198729D01*
X124342222Y-74162991D01*
X124258557Y-74006466D01*
X124207037Y-73836627D01*
X124189641Y-73660000D01*
X124207037Y-73483373D01*
X124258557Y-73313534D01*
X124342222Y-73157009D01*
X124371552Y-73121271D01*
X124454814Y-73019814D01*
X124556271Y-72936552D01*
X124592009Y-72907222D01*
X124748534Y-72823557D01*
X124918373Y-72772037D01*
X124984558Y-72765518D01*
X125050740Y-72759000D01*
X125139260Y-72759000D01*
X125205442Y-72765518D01*
X125205442Y-72765518D01*
G37*
G36*
X154415442Y-72765518D02*
G01*
X154481627Y-72772037D01*
X154651466Y-72823557D01*
X154807991Y-72907222D01*
X154843729Y-72936552D01*
X154945186Y-73019814D01*
X155028448Y-73121271D01*
X155057778Y-73157009D01*
X155141443Y-73313534D01*
X155192963Y-73483373D01*
X155210359Y-73660000D01*
X155192963Y-73836627D01*
X155141443Y-74006466D01*
X155057778Y-74162991D01*
X155028448Y-74198729D01*
X154945186Y-74300186D01*
X154843729Y-74383448D01*
X154807991Y-74412778D01*
X154651466Y-74496443D01*
X154481627Y-74547963D01*
X154415442Y-74554482D01*
X154349260Y-74561000D01*
X154260740Y-74561000D01*
X154194558Y-74554482D01*
X154128373Y-74547963D01*
X153958534Y-74496443D01*
X153802009Y-74412778D01*
X153766271Y-74383448D01*
X153664814Y-74300186D01*
X153581552Y-74198729D01*
X153552222Y-74162991D01*
X153468557Y-74006466D01*
X153417037Y-73836627D01*
X153399641Y-73660000D01*
X153417037Y-73483373D01*
X153468557Y-73313534D01*
X153552222Y-73157009D01*
X153581552Y-73121271D01*
X153664814Y-73019814D01*
X153766271Y-72936552D01*
X153802009Y-72907222D01*
X153958534Y-72823557D01*
X154128373Y-72772037D01*
X154194558Y-72765518D01*
X154260740Y-72759000D01*
X154349260Y-72759000D01*
X154415442Y-72765518D01*
X154415442Y-72765518D01*
G37*
G36*
X151875442Y-72765518D02*
G01*
X151941627Y-72772037D01*
X152111466Y-72823557D01*
X152267991Y-72907222D01*
X152303729Y-72936552D01*
X152405186Y-73019814D01*
X152488448Y-73121271D01*
X152517778Y-73157009D01*
X152601443Y-73313534D01*
X152652963Y-73483373D01*
X152670359Y-73660000D01*
X152652963Y-73836627D01*
X152601443Y-74006466D01*
X152517778Y-74162991D01*
X152488448Y-74198729D01*
X152405186Y-74300186D01*
X152303729Y-74383448D01*
X152267991Y-74412778D01*
X152111466Y-74496443D01*
X151941627Y-74547963D01*
X151875442Y-74554482D01*
X151809260Y-74561000D01*
X151720740Y-74561000D01*
X151654558Y-74554482D01*
X151588373Y-74547963D01*
X151418534Y-74496443D01*
X151262009Y-74412778D01*
X151226271Y-74383448D01*
X151124814Y-74300186D01*
X151041552Y-74198729D01*
X151012222Y-74162991D01*
X150928557Y-74006466D01*
X150877037Y-73836627D01*
X150859641Y-73660000D01*
X150877037Y-73483373D01*
X150928557Y-73313534D01*
X151012222Y-73157009D01*
X151041552Y-73121271D01*
X151124814Y-73019814D01*
X151226271Y-72936552D01*
X151262009Y-72907222D01*
X151418534Y-72823557D01*
X151588373Y-72772037D01*
X151654558Y-72765518D01*
X151720740Y-72759000D01*
X151809260Y-72759000D01*
X151875442Y-72765518D01*
X151875442Y-72765518D01*
G37*
G36*
X122665442Y-72765518D02*
G01*
X122731627Y-72772037D01*
X122901466Y-72823557D01*
X123057991Y-72907222D01*
X123093729Y-72936552D01*
X123195186Y-73019814D01*
X123278448Y-73121271D01*
X123307778Y-73157009D01*
X123391443Y-73313534D01*
X123442963Y-73483373D01*
X123460359Y-73660000D01*
X123442963Y-73836627D01*
X123391443Y-74006466D01*
X123307778Y-74162991D01*
X123278448Y-74198729D01*
X123195186Y-74300186D01*
X123093729Y-74383448D01*
X123057991Y-74412778D01*
X122901466Y-74496443D01*
X122731627Y-74547963D01*
X122665442Y-74554482D01*
X122599260Y-74561000D01*
X122510740Y-74561000D01*
X122444558Y-74554482D01*
X122378373Y-74547963D01*
X122208534Y-74496443D01*
X122052009Y-74412778D01*
X122016271Y-74383448D01*
X121914814Y-74300186D01*
X121831552Y-74198729D01*
X121802222Y-74162991D01*
X121718557Y-74006466D01*
X121667037Y-73836627D01*
X121649641Y-73660000D01*
X121667037Y-73483373D01*
X121718557Y-73313534D01*
X121802222Y-73157009D01*
X121831552Y-73121271D01*
X121914814Y-73019814D01*
X122016271Y-72936552D01*
X122052009Y-72907222D01*
X122208534Y-72823557D01*
X122378373Y-72772037D01*
X122444558Y-72765518D01*
X122510740Y-72759000D01*
X122599260Y-72759000D01*
X122665442Y-72765518D01*
X122665442Y-72765518D01*
G37*
G36*
X155206000Y-72021000D02*
G01*
X153404000Y-72021000D01*
X153404000Y-70219000D01*
X155206000Y-70219000D01*
X155206000Y-72021000D01*
X155206000Y-72021000D01*
G37*
G36*
X152666000Y-72021000D02*
G01*
X150864000Y-72021000D01*
X150864000Y-70219000D01*
X152666000Y-70219000D01*
X152666000Y-72021000D01*
X152666000Y-72021000D01*
G37*
G36*
X125996000Y-72021000D02*
G01*
X124194000Y-72021000D01*
X124194000Y-70219000D01*
X125996000Y-70219000D01*
X125996000Y-72021000D01*
X125996000Y-72021000D01*
G37*
G36*
X123456000Y-72021000D02*
G01*
X121654000Y-72021000D01*
X121654000Y-70219000D01*
X123456000Y-70219000D01*
X123456000Y-72021000D01*
X123456000Y-72021000D01*
G37*
M02*
