G04 #@! TF.GenerationSoftware,KiCad,Pcbnew,(5.1.4-6-g300381ba4)-1*
G04 #@! TF.CreationDate,2020-01-10T02:39:22+00:00*
G04 #@! TF.ProjectId,esp32-wrover-breakout,65737033-322d-4777-926f-7665722d6272,rev?*
G04 #@! TF.SameCoordinates,Original*
G04 #@! TF.FileFunction,Copper,L1,Top*
G04 #@! TF.FilePolarity,Positive*
%FSLAX46Y46*%
G04 Gerber Fmt 4.6, Leading zero omitted, Abs format (unit mm)*
G04 Created by KiCad (PCBNEW (5.1.4-6-g300381ba4)-1) date 2020-01-10 02:39:22*
%MOMM*%
%LPD*%
G04 APERTURE LIST*
%ADD10C,0.050000*%
%ADD11R,2.000000X0.900000*%
%ADD12O,0.900000X3.000000*%
%ADD13R,5.000000X5.000000*%
%ADD14R,1.700000X1.700000*%
%ADD15O,1.700000X1.700000*%
%ADD16C,0.800000*%
%ADD17O,3.000000X0.900000*%
%ADD18C,0.250000*%
%ADD19C,0.254000*%
G04 APERTURE END LIST*
D10*
X137674571Y-96401714D02*
X137674571Y-96101714D01*
X137803142Y-96401714D02*
X137803142Y-96244571D01*
X137788857Y-96216000D01*
X137760285Y-96201714D01*
X137717428Y-96201714D01*
X137688857Y-96216000D01*
X137674571Y-96230285D01*
X138060285Y-96387428D02*
X138031714Y-96401714D01*
X137974571Y-96401714D01*
X137946000Y-96387428D01*
X137931714Y-96358857D01*
X137931714Y-96244571D01*
X137946000Y-96216000D01*
X137974571Y-96201714D01*
X138031714Y-96201714D01*
X138060285Y-96216000D01*
X138074571Y-96244571D01*
X138074571Y-96273142D01*
X137931714Y-96301714D01*
X138246000Y-96401714D02*
X138217428Y-96387428D01*
X138203142Y-96358857D01*
X138203142Y-96101714D01*
X138403142Y-96401714D02*
X138374571Y-96387428D01*
X138360285Y-96358857D01*
X138360285Y-96101714D01*
X138560285Y-96401714D02*
X138531714Y-96387428D01*
X138517428Y-96373142D01*
X138503142Y-96344571D01*
X138503142Y-96258857D01*
X138517428Y-96230285D01*
X138531714Y-96216000D01*
X138560285Y-96201714D01*
X138603142Y-96201714D01*
X138631714Y-96216000D01*
X138646000Y-96230285D01*
X138660285Y-96258857D01*
X138660285Y-96344571D01*
X138646000Y-96373142D01*
X138631714Y-96387428D01*
X138603142Y-96401714D01*
X138560285Y-96401714D01*
X138974571Y-96201714D02*
X139088857Y-96201714D01*
X139017428Y-96401714D02*
X139017428Y-96144571D01*
X139031714Y-96116000D01*
X139060285Y-96101714D01*
X139088857Y-96101714D01*
X139188857Y-96401714D02*
X139188857Y-96201714D01*
X139188857Y-96258857D02*
X139203142Y-96230285D01*
X139217428Y-96216000D01*
X139246000Y-96201714D01*
X139274571Y-96201714D01*
X139417428Y-96401714D02*
X139388857Y-96387428D01*
X139374571Y-96373142D01*
X139360285Y-96344571D01*
X139360285Y-96258857D01*
X139374571Y-96230285D01*
X139388857Y-96216000D01*
X139417428Y-96201714D01*
X139460285Y-96201714D01*
X139488857Y-96216000D01*
X139503142Y-96230285D01*
X139517428Y-96258857D01*
X139517428Y-96344571D01*
X139503142Y-96373142D01*
X139488857Y-96387428D01*
X139460285Y-96401714D01*
X139417428Y-96401714D01*
X139646000Y-96401714D02*
X139646000Y-96201714D01*
X139646000Y-96230285D02*
X139660285Y-96216000D01*
X139688857Y-96201714D01*
X139731714Y-96201714D01*
X139760285Y-96216000D01*
X139774571Y-96244571D01*
X139774571Y-96401714D01*
X139774571Y-96244571D02*
X139788857Y-96216000D01*
X139817428Y-96201714D01*
X139860285Y-96201714D01*
X139888857Y-96216000D01*
X139903142Y-96244571D01*
X139903142Y-96401714D01*
X140403142Y-96401714D02*
X140403142Y-96244571D01*
X140388857Y-96216000D01*
X140360285Y-96201714D01*
X140303142Y-96201714D01*
X140274571Y-96216000D01*
X140403142Y-96387428D02*
X140374571Y-96401714D01*
X140303142Y-96401714D01*
X140274571Y-96387428D01*
X140260285Y-96358857D01*
X140260285Y-96330285D01*
X140274571Y-96301714D01*
X140303142Y-96287428D01*
X140374571Y-96287428D01*
X140403142Y-96273142D01*
X140588857Y-96401714D02*
X140560285Y-96387428D01*
X140546000Y-96358857D01*
X140546000Y-96101714D01*
X140703142Y-96401714D02*
X140703142Y-96201714D01*
X140703142Y-96101714D02*
X140688857Y-96116000D01*
X140703142Y-96130285D01*
X140717428Y-96116000D01*
X140703142Y-96101714D01*
X140703142Y-96130285D01*
X140974571Y-96387428D02*
X140946000Y-96401714D01*
X140888857Y-96401714D01*
X140860285Y-96387428D01*
X140846000Y-96373142D01*
X140831714Y-96344571D01*
X140831714Y-96258857D01*
X140846000Y-96230285D01*
X140860285Y-96216000D01*
X140888857Y-96201714D01*
X140946000Y-96201714D01*
X140974571Y-96216000D01*
X141217428Y-96387428D02*
X141188857Y-96401714D01*
X141131714Y-96401714D01*
X141103142Y-96387428D01*
X141088857Y-96358857D01*
X141088857Y-96244571D01*
X141103142Y-96216000D01*
X141131714Y-96201714D01*
X141188857Y-96201714D01*
X141217428Y-96216000D01*
X141231714Y-96244571D01*
X141231714Y-96273142D01*
X141088857Y-96301714D01*
D11*
X146930000Y-72009000D03*
X146930000Y-73279000D03*
X146930000Y-74549000D03*
X146930000Y-75819000D03*
X146930000Y-77089000D03*
X146930000Y-78359000D03*
X146930000Y-79629000D03*
X146930000Y-80899000D03*
X146930000Y-82169000D03*
X146930000Y-83439000D03*
X146930000Y-84709000D03*
X146930000Y-85979000D03*
X146930000Y-87249000D03*
X146930000Y-88519000D03*
D12*
X144145000Y-89519000D03*
X142875000Y-89519000D03*
X141605000Y-89519000D03*
X140335000Y-89519000D03*
X139065000Y-89519000D03*
X137795000Y-89519000D03*
X136525000Y-89519000D03*
X135255000Y-89519000D03*
X133985000Y-89519000D03*
X132715000Y-89519000D03*
D11*
X129930000Y-88519000D03*
X129930000Y-87249000D03*
X129930000Y-85979000D03*
X129930000Y-84709000D03*
X129930000Y-83439000D03*
X129930000Y-82169000D03*
X129930000Y-80899000D03*
X129930000Y-79629000D03*
X129930000Y-78359000D03*
X129930000Y-77089000D03*
X129930000Y-75819000D03*
X129930000Y-74549000D03*
X129930000Y-73279000D03*
X129930000Y-72009000D03*
D13*
X137430000Y-79509000D03*
D14*
X154305000Y-71120000D03*
D15*
X154305000Y-73660000D03*
X154305000Y-76200000D03*
X154305000Y-78740000D03*
X154305000Y-81280000D03*
X154305000Y-83820000D03*
X154305000Y-86360000D03*
X154305000Y-88900000D03*
X154305000Y-91440000D03*
X154305000Y-93980000D03*
D14*
X122555000Y-71120000D03*
D15*
X122555000Y-73660000D03*
X122555000Y-76200000D03*
X122555000Y-78740000D03*
X122555000Y-81280000D03*
X122555000Y-83820000D03*
X122555000Y-86360000D03*
X122555000Y-88900000D03*
X122555000Y-91440000D03*
X122555000Y-93980000D03*
D14*
X151765000Y-71120000D03*
D15*
X151765000Y-73660000D03*
X151765000Y-76200000D03*
X151765000Y-78740000D03*
X151765000Y-81280000D03*
X151765000Y-83820000D03*
X151765000Y-86360000D03*
X151765000Y-88900000D03*
X151765000Y-91440000D03*
X151765000Y-93980000D03*
D14*
X125095000Y-71120000D03*
D15*
X125095000Y-73660000D03*
X125095000Y-76200000D03*
X125095000Y-78740000D03*
X125095000Y-81280000D03*
X125095000Y-83820000D03*
X125095000Y-86360000D03*
X125095000Y-88900000D03*
X125095000Y-91440000D03*
X125095000Y-93980000D03*
D16*
X136030000Y-76940000D03*
D13*
X138030000Y-78950000D03*
D17*
X129430000Y-72030000D03*
X129430000Y-73300000D03*
X129430000Y-74570000D03*
X129430000Y-75840000D03*
X129430000Y-77110000D03*
X129430000Y-78380000D03*
X129430000Y-79650000D03*
X129430000Y-80920000D03*
X129430000Y-82190000D03*
X129430000Y-83460000D03*
X129430000Y-84730000D03*
X129430000Y-86000000D03*
X129430000Y-87270000D03*
X129430000Y-88540000D03*
X129430000Y-89840000D03*
X129430000Y-91110000D03*
X129430000Y-92380000D03*
X129430000Y-93650000D03*
X129430000Y-94920000D03*
X147430000Y-94920000D03*
X147430000Y-93650000D03*
X147430000Y-92380000D03*
X147430000Y-91110000D03*
X147430000Y-89840000D03*
X147460000Y-88540000D03*
X147460000Y-87270000D03*
X147460000Y-86000000D03*
X147460000Y-84730000D03*
X147460000Y-83460000D03*
X147460000Y-82190000D03*
X147460000Y-80920000D03*
X147460000Y-79650000D03*
X147460000Y-78380000D03*
X147460000Y-77110000D03*
X147460000Y-75840000D03*
X147460000Y-74570000D03*
X147460000Y-73300000D03*
X147460000Y-72030000D03*
D16*
X136030000Y-77940000D03*
X136030000Y-78940000D03*
X136030000Y-79940000D03*
X136030000Y-80940000D03*
X137030000Y-80940000D03*
X137030000Y-79940000D03*
X137030000Y-78940000D03*
X137030000Y-77940000D03*
X137030000Y-76940000D03*
X139030000Y-76940000D03*
X139030000Y-77940000D03*
X139030000Y-78940000D03*
X139030000Y-79940000D03*
X139030000Y-80940000D03*
X138030000Y-80940000D03*
X138030000Y-79940000D03*
X138030000Y-78940000D03*
X138030000Y-77940000D03*
X138030000Y-76940000D03*
X140030000Y-80940000D03*
X140030000Y-79940000D03*
X140030000Y-78940000D03*
X140030000Y-77940000D03*
X140030000Y-76940000D03*
X131572000Y-88646000D03*
X131826000Y-87376000D03*
X131826000Y-86106000D03*
X131826000Y-84836000D03*
X131826000Y-82296000D03*
X131826000Y-83566000D03*
X133350000Y-83312000D03*
X145161000Y-83439000D03*
X145161000Y-82169000D03*
X145161000Y-80899000D03*
X145161000Y-79629000D03*
X145161000Y-78359000D03*
X145161000Y-77089000D03*
X145161000Y-75819000D03*
X145161000Y-74549000D03*
X145161000Y-73279000D03*
X145161000Y-72009000D03*
X131699000Y-79629000D03*
D18*
X129430000Y-95620000D02*
X129430000Y-94920000D01*
X128880010Y-96169990D02*
X129430000Y-95620000D01*
X125887990Y-96169990D02*
X128880010Y-96169990D01*
X125095000Y-95377000D02*
X125887990Y-96169990D01*
X125095000Y-93980000D02*
X125095000Y-95377000D01*
X127305000Y-93650000D02*
X125095000Y-91440000D01*
X129430000Y-93650000D02*
X127305000Y-93650000D01*
X127680000Y-92380000D02*
X126492000Y-91192000D01*
X129430000Y-92380000D02*
X127680000Y-92380000D01*
X126492000Y-90297000D02*
X125095000Y-88900000D01*
X126492000Y-91192000D02*
X126492000Y-90297000D01*
X127680000Y-91110000D02*
X127000000Y-90430000D01*
X129430000Y-91110000D02*
X127680000Y-91110000D01*
X127000000Y-88265000D02*
X127000000Y-88392000D01*
X125095000Y-86360000D02*
X127000000Y-88265000D01*
X127000000Y-90430000D02*
X127000000Y-88392000D01*
X127508000Y-86233000D02*
X125095000Y-83820000D01*
X127508000Y-89668000D02*
X127508000Y-86233000D01*
X129430000Y-89840000D02*
X127680000Y-89840000D01*
X127680000Y-89840000D02*
X127508000Y-89668000D01*
X129430000Y-88540000D02*
X131720000Y-88540000D01*
X131720000Y-87270000D02*
X131826000Y-87376000D01*
X129430000Y-87270000D02*
X131720000Y-87270000D01*
X131720000Y-86000000D02*
X131826000Y-86106000D01*
X129430000Y-86000000D02*
X131720000Y-86000000D01*
X131720000Y-84730000D02*
X131826000Y-84836000D01*
X129430000Y-84730000D02*
X131720000Y-84730000D01*
X127680000Y-83460000D02*
X126770000Y-82550000D01*
X129430000Y-83460000D02*
X127680000Y-83460000D01*
X126770000Y-82550000D02*
X124206000Y-82550000D01*
X124206000Y-82550000D02*
X123952000Y-82804000D01*
X123952000Y-92583000D02*
X122555000Y-93980000D01*
X123952000Y-82804000D02*
X123952000Y-92583000D01*
X131720000Y-82190000D02*
X131826000Y-82296000D01*
X129430000Y-82190000D02*
X131720000Y-82190000D01*
X131720000Y-80920000D02*
X129430000Y-80920000D01*
X133350000Y-83312000D02*
X133350000Y-82550000D01*
X133350000Y-82550000D02*
X131720000Y-80920000D01*
X122555000Y-83820000D02*
X123444000Y-82931000D01*
X123444000Y-82931000D02*
X123444000Y-82296000D01*
X123444000Y-82296000D02*
X123952000Y-81788000D01*
X123952000Y-81788000D02*
X123952000Y-80518000D01*
X123952000Y-80518000D02*
X124460000Y-80010000D01*
X124460000Y-80010000D02*
X125730000Y-80010000D01*
X127360000Y-78380000D02*
X129430000Y-78380000D01*
X125730000Y-80010000D02*
X127360000Y-78380000D01*
X127360000Y-77110000D02*
X129430000Y-77110000D01*
X127000000Y-77470000D02*
X127360000Y-77110000D01*
X124714000Y-77470000D02*
X127000000Y-77470000D01*
X123698000Y-78486000D02*
X124714000Y-77470000D01*
X122555000Y-81280000D02*
X123698000Y-80137000D01*
X123698000Y-80137000D02*
X123698000Y-78486000D01*
X122555000Y-78740000D02*
X123698000Y-77597000D01*
X123698000Y-77597000D02*
X123698000Y-75946000D01*
X123698000Y-75946000D02*
X124460000Y-75184000D01*
X124460000Y-75184000D02*
X126238000Y-75184000D01*
X126894000Y-75840000D02*
X129430000Y-75840000D01*
X126238000Y-75184000D02*
X126894000Y-75840000D01*
X122555000Y-76200000D02*
X123952000Y-74803000D01*
X123952000Y-74803000D02*
X126746000Y-74803000D01*
X126979000Y-74570000D02*
X129430000Y-74570000D01*
X126746000Y-74803000D02*
X126979000Y-74570000D01*
X122555000Y-73660000D02*
X123698000Y-72517000D01*
X123698000Y-72517000D02*
X126492000Y-72517000D01*
X127275000Y-73300000D02*
X129430000Y-73300000D01*
X126492000Y-72517000D02*
X127275000Y-73300000D01*
X129430000Y-71330000D02*
X129430000Y-72030000D01*
X151765000Y-96012000D02*
X151765000Y-93980000D01*
X151607010Y-96169990D02*
X151765000Y-96012000D01*
X147979990Y-96169990D02*
X151607010Y-96169990D01*
X147430000Y-94920000D02*
X147430000Y-95620000D01*
X147430000Y-95620000D02*
X147979990Y-96169990D01*
X151765000Y-92202000D02*
X151765000Y-91440000D01*
X150749000Y-93218000D02*
X151765000Y-92202000D01*
X149612000Y-93218000D02*
X150749000Y-93218000D01*
X147430000Y-93650000D02*
X149180000Y-93650000D01*
X149180000Y-93650000D02*
X149612000Y-93218000D01*
X149180000Y-92380000D02*
X149612000Y-91948000D01*
X147430000Y-92380000D02*
X149180000Y-92380000D01*
X149612000Y-91948000D02*
X150495000Y-91948000D01*
X150495000Y-91948000D02*
X150622000Y-91821000D01*
X150622000Y-91821000D02*
X150622000Y-90805000D01*
X150622000Y-90805000D02*
X151257000Y-90170000D01*
X151257000Y-90170000D02*
X151638000Y-90170000D01*
X151638000Y-90170000D02*
X151765000Y-90043000D01*
X151765000Y-90043000D02*
X151765000Y-88900000D01*
X151765000Y-87376000D02*
X151765000Y-86360000D01*
X151384000Y-87757000D02*
X151765000Y-87376000D01*
X151130000Y-87757000D02*
X151384000Y-87757000D01*
X149180000Y-91110000D02*
X149485000Y-90805000D01*
X149485000Y-90805000D02*
X149987000Y-90805000D01*
X149987000Y-90805000D02*
X150495000Y-90297000D01*
X147430000Y-91110000D02*
X149180000Y-91110000D01*
X150495000Y-90297000D02*
X150495000Y-88392000D01*
X150495000Y-88392000D02*
X151130000Y-87757000D01*
X150622000Y-85852000D02*
X151765000Y-84709000D01*
X150622000Y-87630000D02*
X150622000Y-85852000D01*
X147430000Y-89840000D02*
X149180000Y-89840000D01*
X149358000Y-89662000D02*
X149358000Y-89656000D01*
X151765000Y-84709000D02*
X151765000Y-83820000D01*
X149358000Y-89656000D02*
X150114000Y-88900000D01*
X150114000Y-88900000D02*
X150114000Y-88138000D01*
X149180000Y-89840000D02*
X149358000Y-89662000D01*
X150114000Y-88138000D02*
X150622000Y-87630000D01*
X149210000Y-88540000D02*
X150241000Y-87509000D01*
X147460000Y-88540000D02*
X149210000Y-88540000D01*
X150241000Y-87509000D02*
X150241000Y-85471000D01*
X150241000Y-85471000D02*
X150622000Y-85090000D01*
X150622000Y-85090000D02*
X150622000Y-83312000D01*
X150622000Y-83312000D02*
X151765000Y-82169000D01*
X151765000Y-82169000D02*
X151765000Y-81280000D01*
X151765000Y-79629000D02*
X151765000Y-78740000D01*
X150622000Y-80772000D02*
X151765000Y-79629000D01*
X150622000Y-82677000D02*
X150622000Y-80772000D01*
X149210000Y-87270000D02*
X149860000Y-86620000D01*
X147460000Y-87270000D02*
X149210000Y-87270000D01*
X149860000Y-86620000D02*
X149860000Y-85344000D01*
X149860000Y-85344000D02*
X150241000Y-84963000D01*
X150241000Y-84963000D02*
X150241000Y-83058000D01*
X150241000Y-83058000D02*
X150622000Y-82677000D01*
X151765000Y-77402081D02*
X151765000Y-76200000D01*
X151570081Y-77597000D02*
X151765000Y-77402081D01*
X151130000Y-77597000D02*
X151570081Y-77597000D01*
X150622000Y-78105000D02*
X151130000Y-77597000D01*
X150622000Y-80137000D02*
X150622000Y-78105000D01*
X150241000Y-80518000D02*
X150622000Y-80137000D01*
X150241000Y-82550000D02*
X150241000Y-80518000D01*
X147460000Y-86000000D02*
X149210000Y-86000000D01*
X149210000Y-86000000D02*
X149479000Y-85731000D01*
X149479000Y-85731000D02*
X149479000Y-85217000D01*
X149479000Y-85217000D02*
X149860000Y-84836000D01*
X149860000Y-84836000D02*
X149860000Y-82931000D01*
X149860000Y-82931000D02*
X150241000Y-82550000D01*
X150241000Y-77851000D02*
X150622000Y-77470000D01*
X150622000Y-77470000D02*
X150622000Y-75438000D01*
X149860000Y-82296000D02*
X149860000Y-80391000D01*
X149479000Y-84461000D02*
X149479000Y-82677000D01*
X149479000Y-82677000D02*
X149860000Y-82296000D01*
X150241000Y-80010000D02*
X150241000Y-77851000D01*
X149860000Y-80391000D02*
X150241000Y-80010000D01*
X149210000Y-84730000D02*
X149479000Y-84461000D01*
X147460000Y-84730000D02*
X149210000Y-84730000D01*
X150622000Y-75438000D02*
X151130000Y-74930000D01*
X151130000Y-74930000D02*
X151638000Y-74930000D01*
X151638000Y-74930000D02*
X151765000Y-74803000D01*
X151765000Y-74803000D02*
X151765000Y-73660000D01*
X147439000Y-83439000D02*
X147460000Y-83460000D01*
X145161000Y-83439000D02*
X147439000Y-83439000D01*
X145182000Y-82190000D02*
X145161000Y-82169000D01*
X147460000Y-82190000D02*
X145182000Y-82190000D01*
X145182000Y-80920000D02*
X145161000Y-80899000D01*
X147460000Y-80920000D02*
X145182000Y-80920000D01*
X145182000Y-79650000D02*
X145161000Y-79629000D01*
X147460000Y-79650000D02*
X145182000Y-79650000D01*
X145182000Y-78380000D02*
X145161000Y-78359000D01*
X147460000Y-78380000D02*
X145182000Y-78380000D01*
X145182000Y-77110000D02*
X145161000Y-77089000D01*
X147460000Y-77110000D02*
X145182000Y-77110000D01*
X145182000Y-75840000D02*
X145161000Y-75819000D01*
X147460000Y-75840000D02*
X145182000Y-75840000D01*
X145182000Y-74570000D02*
X145161000Y-74549000D01*
X147460000Y-74570000D02*
X145182000Y-74570000D01*
X145182000Y-73300000D02*
X145161000Y-73279000D01*
X147460000Y-73300000D02*
X145182000Y-73300000D01*
X145182000Y-72030000D02*
X145161000Y-72009000D01*
X147460000Y-72030000D02*
X145182000Y-72030000D01*
X122555000Y-71120000D02*
X125095000Y-71120000D01*
X154305000Y-71120000D02*
X151765000Y-71120000D01*
X131678000Y-79650000D02*
X131699000Y-79629000D01*
X129430000Y-79650000D02*
X131678000Y-79650000D01*
X129220000Y-71120000D02*
X125095000Y-71120000D01*
X129430000Y-71330000D02*
X129220000Y-71120000D01*
X132394000Y-89840000D02*
X132715000Y-89519000D01*
X129430000Y-89840000D02*
X132394000Y-89840000D01*
X144466000Y-89840000D02*
X144145000Y-89519000D01*
X147430000Y-89840000D02*
X144466000Y-89840000D01*
X133985000Y-89519000D02*
X133985000Y-90769000D01*
X131180000Y-92380000D02*
X129430000Y-92380000D01*
X133644000Y-92380000D02*
X131180000Y-92380000D01*
X135255000Y-90769000D02*
X133644000Y-92380000D01*
X135255000Y-89519000D02*
X135255000Y-90769000D01*
X131180000Y-93650000D02*
X129430000Y-93650000D01*
X133644000Y-93650000D02*
X131180000Y-93650000D01*
X136525000Y-90769000D02*
X133644000Y-93650000D01*
X136525000Y-89519000D02*
X136525000Y-90769000D01*
X131180000Y-94920000D02*
X129430000Y-94920000D01*
X133644000Y-94920000D02*
X131180000Y-94920000D01*
X137795000Y-90769000D02*
X133644000Y-94920000D01*
X137795000Y-89519000D02*
X137795000Y-90769000D01*
X142875000Y-89519000D02*
X142875000Y-90769000D01*
X145680000Y-92380000D02*
X147430000Y-92380000D01*
X143216000Y-92380000D02*
X145680000Y-92380000D01*
X141605000Y-90769000D02*
X143216000Y-92380000D01*
X141605000Y-89519000D02*
X141605000Y-90769000D01*
X145680000Y-93650000D02*
X147430000Y-93650000D01*
X143216000Y-93650000D02*
X145680000Y-93650000D01*
X140335000Y-90769000D02*
X143216000Y-93650000D01*
X140335000Y-89519000D02*
X140335000Y-90769000D01*
X145680000Y-94920000D02*
X147430000Y-94920000D01*
X143216000Y-94920000D02*
X145680000Y-94920000D01*
X139065000Y-90769000D02*
X143216000Y-94920000D01*
X139065000Y-89519000D02*
X139065000Y-90769000D01*
X133985000Y-91269000D02*
X133433000Y-91821000D01*
X133985000Y-89519000D02*
X133985000Y-91269000D01*
X133433000Y-91821000D02*
X131953000Y-91821000D01*
X131242000Y-91110000D02*
X129430000Y-91110000D01*
X131953000Y-91821000D02*
X131242000Y-91110000D01*
X142875000Y-91269000D02*
X143427000Y-91821000D01*
X142875000Y-89519000D02*
X142875000Y-91269000D01*
X143427000Y-91821000D02*
X144526000Y-91821000D01*
X145237000Y-91110000D02*
X147430000Y-91110000D01*
X144526000Y-91821000D02*
X145237000Y-91110000D01*
D19*
G36*
X138459291Y-91475509D02*
G01*
X138647781Y-91576259D01*
X138852304Y-91638300D01*
X138860285Y-91639086D01*
X142652205Y-95431008D01*
X142675999Y-95460001D01*
X142704992Y-95483795D01*
X142704996Y-95483799D01*
X142756401Y-95525985D01*
X142791724Y-95554974D01*
X142923753Y-95625546D01*
X143067014Y-95669003D01*
X143178667Y-95680000D01*
X143178676Y-95680000D01*
X143215999Y-95683676D01*
X143253322Y-95680000D01*
X145600114Y-95680000D01*
X145609078Y-95690922D01*
X145774290Y-95826509D01*
X145836947Y-95860000D01*
X141948857Y-95860000D01*
X141948857Y-95402500D01*
X136943143Y-95402500D01*
X136943143Y-95860000D01*
X131023053Y-95860000D01*
X131085710Y-95826509D01*
X131250922Y-95690922D01*
X131259886Y-95680000D01*
X133606678Y-95680000D01*
X133644000Y-95683676D01*
X133681322Y-95680000D01*
X133681333Y-95680000D01*
X133792986Y-95669003D01*
X133936247Y-95625546D01*
X134068276Y-95554974D01*
X134184001Y-95460001D01*
X134207804Y-95430997D01*
X137999717Y-91639086D01*
X138007697Y-91638300D01*
X138212220Y-91576259D01*
X138400710Y-91475509D01*
X138430001Y-91451471D01*
X138459291Y-91475509D01*
X138459291Y-91475509D01*
G37*
X138459291Y-91475509D02*
X138647781Y-91576259D01*
X138852304Y-91638300D01*
X138860285Y-91639086D01*
X142652205Y-95431008D01*
X142675999Y-95460001D01*
X142704992Y-95483795D01*
X142704996Y-95483799D01*
X142756401Y-95525985D01*
X142791724Y-95554974D01*
X142923753Y-95625546D01*
X143067014Y-95669003D01*
X143178667Y-95680000D01*
X143178676Y-95680000D01*
X143215999Y-95683676D01*
X143253322Y-95680000D01*
X145600114Y-95680000D01*
X145609078Y-95690922D01*
X145774290Y-95826509D01*
X145836947Y-95860000D01*
X141948857Y-95860000D01*
X141948857Y-95402500D01*
X136943143Y-95402500D01*
X136943143Y-95860000D01*
X131023053Y-95860000D01*
X131085710Y-95826509D01*
X131250922Y-95690922D01*
X131259886Y-95680000D01*
X133606678Y-95680000D01*
X133644000Y-95683676D01*
X133681322Y-95680000D01*
X133681333Y-95680000D01*
X133792986Y-95669003D01*
X133936247Y-95625546D01*
X134068276Y-95554974D01*
X134184001Y-95460001D01*
X134207804Y-95430997D01*
X137999717Y-91639086D01*
X138007697Y-91638300D01*
X138212220Y-91576259D01*
X138400710Y-91475509D01*
X138430001Y-91451471D01*
X138459291Y-91475509D01*
G36*
X128905000Y-70360000D02*
G01*
X126583072Y-70360000D01*
X126583072Y-70270000D01*
X126570812Y-70145518D01*
X126534502Y-70025820D01*
X126475537Y-69915506D01*
X126396185Y-69818815D01*
X126299494Y-69739463D01*
X126189180Y-69680498D01*
X126069482Y-69644188D01*
X125945000Y-69631928D01*
X124245000Y-69631928D01*
X124120518Y-69644188D01*
X124000820Y-69680498D01*
X123890506Y-69739463D01*
X123825000Y-69793222D01*
X123759494Y-69739463D01*
X123649180Y-69680498D01*
X123529482Y-69644188D01*
X123405000Y-69631928D01*
X121705000Y-69631928D01*
X121580518Y-69644188D01*
X121460820Y-69680498D01*
X121350506Y-69739463D01*
X121253815Y-69818815D01*
X121174463Y-69915506D01*
X121115498Y-70025820D01*
X121079188Y-70145518D01*
X121066928Y-70270000D01*
X121066928Y-71970000D01*
X121079188Y-72094482D01*
X121115498Y-72214180D01*
X121174463Y-72324494D01*
X121253815Y-72421185D01*
X121350506Y-72500537D01*
X121460820Y-72559502D01*
X121529687Y-72580393D01*
X121499866Y-72604866D01*
X121314294Y-72830986D01*
X121176401Y-73088966D01*
X121091487Y-73368889D01*
X121062815Y-73660000D01*
X121091487Y-73951111D01*
X121176401Y-74231034D01*
X121314294Y-74489014D01*
X121499866Y-74715134D01*
X121725986Y-74900706D01*
X121780791Y-74930000D01*
X121725986Y-74959294D01*
X121499866Y-75144866D01*
X121314294Y-75370986D01*
X121176401Y-75628966D01*
X121091487Y-75908889D01*
X121062815Y-76200000D01*
X121091487Y-76491111D01*
X121176401Y-76771034D01*
X121314294Y-77029014D01*
X121499866Y-77255134D01*
X121725986Y-77440706D01*
X121780791Y-77470000D01*
X121725986Y-77499294D01*
X121499866Y-77684866D01*
X121314294Y-77910986D01*
X121176401Y-78168966D01*
X121091487Y-78448889D01*
X121062815Y-78740000D01*
X121091487Y-79031111D01*
X121176401Y-79311034D01*
X121314294Y-79569014D01*
X121499866Y-79795134D01*
X121725986Y-79980706D01*
X121780791Y-80010000D01*
X121725986Y-80039294D01*
X121499866Y-80224866D01*
X121314294Y-80450986D01*
X121176401Y-80708966D01*
X121091487Y-80988889D01*
X121062815Y-81280000D01*
X121091487Y-81571111D01*
X121176401Y-81851034D01*
X121314294Y-82109014D01*
X121499866Y-82335134D01*
X121725986Y-82520706D01*
X121780791Y-82550000D01*
X121725986Y-82579294D01*
X121499866Y-82764866D01*
X121314294Y-82990986D01*
X121176401Y-83248966D01*
X121091487Y-83528889D01*
X121062815Y-83820000D01*
X121091487Y-84111111D01*
X121176401Y-84391034D01*
X121314294Y-84649014D01*
X121499866Y-84875134D01*
X121725986Y-85060706D01*
X121780791Y-85090000D01*
X121725986Y-85119294D01*
X121499866Y-85304866D01*
X121314294Y-85530986D01*
X121176401Y-85788966D01*
X121091487Y-86068889D01*
X121062815Y-86360000D01*
X121091487Y-86651111D01*
X121176401Y-86931034D01*
X121314294Y-87189014D01*
X121499866Y-87415134D01*
X121725986Y-87600706D01*
X121780791Y-87630000D01*
X121725986Y-87659294D01*
X121499866Y-87844866D01*
X121314294Y-88070986D01*
X121176401Y-88328966D01*
X121091487Y-88608889D01*
X121062815Y-88900000D01*
X121091487Y-89191111D01*
X121176401Y-89471034D01*
X121314294Y-89729014D01*
X121499866Y-89955134D01*
X121725986Y-90140706D01*
X121780791Y-90170000D01*
X121725986Y-90199294D01*
X121499866Y-90384866D01*
X121314294Y-90610986D01*
X121176401Y-90868966D01*
X121091487Y-91148889D01*
X121062815Y-91440000D01*
X121091487Y-91731111D01*
X121176401Y-92011034D01*
X121314294Y-92269014D01*
X121499866Y-92495134D01*
X121725986Y-92680706D01*
X121780791Y-92710000D01*
X121725986Y-92739294D01*
X121499866Y-92924866D01*
X121314294Y-93150986D01*
X121176401Y-93408966D01*
X121091487Y-93688889D01*
X121062815Y-93980000D01*
X121091487Y-94271111D01*
X121176401Y-94551034D01*
X121314294Y-94809014D01*
X121499866Y-95035134D01*
X121725986Y-95220706D01*
X121983966Y-95358599D01*
X122263889Y-95443513D01*
X122482050Y-95465000D01*
X122627950Y-95465000D01*
X122846111Y-95443513D01*
X123126034Y-95358599D01*
X123384014Y-95220706D01*
X123610134Y-95035134D01*
X123795706Y-94809014D01*
X123825000Y-94754209D01*
X123854294Y-94809014D01*
X124039866Y-95035134D01*
X124265986Y-95220706D01*
X124335001Y-95257595D01*
X124335001Y-95339668D01*
X124331324Y-95377000D01*
X124335001Y-95414333D01*
X124345998Y-95525986D01*
X124359180Y-95569442D01*
X124389454Y-95669246D01*
X124460026Y-95801276D01*
X124508220Y-95860000D01*
X123405905Y-95860000D01*
X123400147Y-95857532D01*
X123267470Y-95829331D01*
X123257819Y-95828317D01*
X122708946Y-95774500D01*
X122246215Y-95634793D01*
X121819433Y-95407868D01*
X121444854Y-95102369D01*
X121136750Y-94729935D01*
X120906852Y-94304749D01*
X120763919Y-93843004D01*
X120706270Y-93294518D01*
X120703983Y-93283375D01*
X120696291Y-93207640D01*
X120675000Y-93137997D01*
X120675000Y-67525905D01*
X120677468Y-67520147D01*
X120705668Y-67387471D01*
X120706683Y-67377820D01*
X120760500Y-66828946D01*
X120900206Y-66366219D01*
X121127132Y-65939432D01*
X121432631Y-65564854D01*
X121805066Y-65256750D01*
X122230249Y-65026853D01*
X122691996Y-64883919D01*
X123240483Y-64826270D01*
X123251627Y-64823982D01*
X123327360Y-64816291D01*
X123397002Y-64795000D01*
X128905000Y-64795000D01*
X128905000Y-70360000D01*
X128905000Y-70360000D01*
G37*
X128905000Y-70360000D02*
X126583072Y-70360000D01*
X126583072Y-70270000D01*
X126570812Y-70145518D01*
X126534502Y-70025820D01*
X126475537Y-69915506D01*
X126396185Y-69818815D01*
X126299494Y-69739463D01*
X126189180Y-69680498D01*
X126069482Y-69644188D01*
X125945000Y-69631928D01*
X124245000Y-69631928D01*
X124120518Y-69644188D01*
X124000820Y-69680498D01*
X123890506Y-69739463D01*
X123825000Y-69793222D01*
X123759494Y-69739463D01*
X123649180Y-69680498D01*
X123529482Y-69644188D01*
X123405000Y-69631928D01*
X121705000Y-69631928D01*
X121580518Y-69644188D01*
X121460820Y-69680498D01*
X121350506Y-69739463D01*
X121253815Y-69818815D01*
X121174463Y-69915506D01*
X121115498Y-70025820D01*
X121079188Y-70145518D01*
X121066928Y-70270000D01*
X121066928Y-71970000D01*
X121079188Y-72094482D01*
X121115498Y-72214180D01*
X121174463Y-72324494D01*
X121253815Y-72421185D01*
X121350506Y-72500537D01*
X121460820Y-72559502D01*
X121529687Y-72580393D01*
X121499866Y-72604866D01*
X121314294Y-72830986D01*
X121176401Y-73088966D01*
X121091487Y-73368889D01*
X121062815Y-73660000D01*
X121091487Y-73951111D01*
X121176401Y-74231034D01*
X121314294Y-74489014D01*
X121499866Y-74715134D01*
X121725986Y-74900706D01*
X121780791Y-74930000D01*
X121725986Y-74959294D01*
X121499866Y-75144866D01*
X121314294Y-75370986D01*
X121176401Y-75628966D01*
X121091487Y-75908889D01*
X121062815Y-76200000D01*
X121091487Y-76491111D01*
X121176401Y-76771034D01*
X121314294Y-77029014D01*
X121499866Y-77255134D01*
X121725986Y-77440706D01*
X121780791Y-77470000D01*
X121725986Y-77499294D01*
X121499866Y-77684866D01*
X121314294Y-77910986D01*
X121176401Y-78168966D01*
X121091487Y-78448889D01*
X121062815Y-78740000D01*
X121091487Y-79031111D01*
X121176401Y-79311034D01*
X121314294Y-79569014D01*
X121499866Y-79795134D01*
X121725986Y-79980706D01*
X121780791Y-80010000D01*
X121725986Y-80039294D01*
X121499866Y-80224866D01*
X121314294Y-80450986D01*
X121176401Y-80708966D01*
X121091487Y-80988889D01*
X121062815Y-81280000D01*
X121091487Y-81571111D01*
X121176401Y-81851034D01*
X121314294Y-82109014D01*
X121499866Y-82335134D01*
X121725986Y-82520706D01*
X121780791Y-82550000D01*
X121725986Y-82579294D01*
X121499866Y-82764866D01*
X121314294Y-82990986D01*
X121176401Y-83248966D01*
X121091487Y-83528889D01*
X121062815Y-83820000D01*
X121091487Y-84111111D01*
X121176401Y-84391034D01*
X121314294Y-84649014D01*
X121499866Y-84875134D01*
X121725986Y-85060706D01*
X121780791Y-85090000D01*
X121725986Y-85119294D01*
X121499866Y-85304866D01*
X121314294Y-85530986D01*
X121176401Y-85788966D01*
X121091487Y-86068889D01*
X121062815Y-86360000D01*
X121091487Y-86651111D01*
X121176401Y-86931034D01*
X121314294Y-87189014D01*
X121499866Y-87415134D01*
X121725986Y-87600706D01*
X121780791Y-87630000D01*
X121725986Y-87659294D01*
X121499866Y-87844866D01*
X121314294Y-88070986D01*
X121176401Y-88328966D01*
X121091487Y-88608889D01*
X121062815Y-88900000D01*
X121091487Y-89191111D01*
X121176401Y-89471034D01*
X121314294Y-89729014D01*
X121499866Y-89955134D01*
X121725986Y-90140706D01*
X121780791Y-90170000D01*
X121725986Y-90199294D01*
X121499866Y-90384866D01*
X121314294Y-90610986D01*
X121176401Y-90868966D01*
X121091487Y-91148889D01*
X121062815Y-91440000D01*
X121091487Y-91731111D01*
X121176401Y-92011034D01*
X121314294Y-92269014D01*
X121499866Y-92495134D01*
X121725986Y-92680706D01*
X121780791Y-92710000D01*
X121725986Y-92739294D01*
X121499866Y-92924866D01*
X121314294Y-93150986D01*
X121176401Y-93408966D01*
X121091487Y-93688889D01*
X121062815Y-93980000D01*
X121091487Y-94271111D01*
X121176401Y-94551034D01*
X121314294Y-94809014D01*
X121499866Y-95035134D01*
X121725986Y-95220706D01*
X121983966Y-95358599D01*
X122263889Y-95443513D01*
X122482050Y-95465000D01*
X122627950Y-95465000D01*
X122846111Y-95443513D01*
X123126034Y-95358599D01*
X123384014Y-95220706D01*
X123610134Y-95035134D01*
X123795706Y-94809014D01*
X123825000Y-94754209D01*
X123854294Y-94809014D01*
X124039866Y-95035134D01*
X124265986Y-95220706D01*
X124335001Y-95257595D01*
X124335001Y-95339668D01*
X124331324Y-95377000D01*
X124335001Y-95414333D01*
X124345998Y-95525986D01*
X124359180Y-95569442D01*
X124389454Y-95669246D01*
X124460026Y-95801276D01*
X124508220Y-95860000D01*
X123405905Y-95860000D01*
X123400147Y-95857532D01*
X123267470Y-95829331D01*
X123257819Y-95828317D01*
X122708946Y-95774500D01*
X122246215Y-95634793D01*
X121819433Y-95407868D01*
X121444854Y-95102369D01*
X121136750Y-94729935D01*
X120906852Y-94304749D01*
X120763919Y-93843004D01*
X120706270Y-93294518D01*
X120703983Y-93283375D01*
X120696291Y-93207640D01*
X120675000Y-93137997D01*
X120675000Y-67525905D01*
X120677468Y-67520147D01*
X120705668Y-67387471D01*
X120706683Y-67377820D01*
X120760500Y-66828946D01*
X120900206Y-66366219D01*
X121127132Y-65939432D01*
X121432631Y-65564854D01*
X121805066Y-65256750D01*
X122230249Y-65026853D01*
X122691996Y-64883919D01*
X123240483Y-64826270D01*
X123251627Y-64823982D01*
X123327360Y-64816291D01*
X123397002Y-64795000D01*
X128905000Y-64795000D01*
X128905000Y-70360000D01*
G36*
X153459853Y-64797468D02*
G01*
X153592529Y-64825668D01*
X153602180Y-64826683D01*
X154151054Y-64880500D01*
X154613781Y-65020206D01*
X155040568Y-65247132D01*
X155415146Y-65552631D01*
X155723250Y-65925066D01*
X155953147Y-66350249D01*
X156096081Y-66811996D01*
X156153730Y-67360483D01*
X156156018Y-67371627D01*
X156163709Y-67447360D01*
X156185001Y-67517006D01*
X156185000Y-93129095D01*
X156182532Y-93134853D01*
X156154331Y-93267530D01*
X156153317Y-93277181D01*
X156099500Y-93826054D01*
X155959793Y-94288785D01*
X155732868Y-94715567D01*
X155427369Y-95090146D01*
X155054935Y-95398250D01*
X154629749Y-95628148D01*
X154168004Y-95771081D01*
X153619518Y-95828730D01*
X153608375Y-95831017D01*
X153532640Y-95838709D01*
X153462997Y-95860000D01*
X152525000Y-95860000D01*
X152525000Y-95257595D01*
X152594014Y-95220706D01*
X152820134Y-95035134D01*
X153005706Y-94809014D01*
X153035000Y-94754209D01*
X153064294Y-94809014D01*
X153249866Y-95035134D01*
X153475986Y-95220706D01*
X153733966Y-95358599D01*
X154013889Y-95443513D01*
X154232050Y-95465000D01*
X154377950Y-95465000D01*
X154596111Y-95443513D01*
X154876034Y-95358599D01*
X155134014Y-95220706D01*
X155360134Y-95035134D01*
X155545706Y-94809014D01*
X155683599Y-94551034D01*
X155768513Y-94271111D01*
X155797185Y-93980000D01*
X155768513Y-93688889D01*
X155683599Y-93408966D01*
X155545706Y-93150986D01*
X155360134Y-92924866D01*
X155134014Y-92739294D01*
X155079209Y-92710000D01*
X155134014Y-92680706D01*
X155360134Y-92495134D01*
X155545706Y-92269014D01*
X155683599Y-92011034D01*
X155768513Y-91731111D01*
X155797185Y-91440000D01*
X155768513Y-91148889D01*
X155683599Y-90868966D01*
X155545706Y-90610986D01*
X155360134Y-90384866D01*
X155134014Y-90199294D01*
X155079209Y-90170000D01*
X155134014Y-90140706D01*
X155360134Y-89955134D01*
X155545706Y-89729014D01*
X155683599Y-89471034D01*
X155768513Y-89191111D01*
X155797185Y-88900000D01*
X155768513Y-88608889D01*
X155683599Y-88328966D01*
X155545706Y-88070986D01*
X155360134Y-87844866D01*
X155134014Y-87659294D01*
X155079209Y-87630000D01*
X155134014Y-87600706D01*
X155360134Y-87415134D01*
X155545706Y-87189014D01*
X155683599Y-86931034D01*
X155768513Y-86651111D01*
X155797185Y-86360000D01*
X155768513Y-86068889D01*
X155683599Y-85788966D01*
X155545706Y-85530986D01*
X155360134Y-85304866D01*
X155134014Y-85119294D01*
X155079209Y-85090000D01*
X155134014Y-85060706D01*
X155360134Y-84875134D01*
X155545706Y-84649014D01*
X155683599Y-84391034D01*
X155768513Y-84111111D01*
X155797185Y-83820000D01*
X155768513Y-83528889D01*
X155683599Y-83248966D01*
X155545706Y-82990986D01*
X155360134Y-82764866D01*
X155134014Y-82579294D01*
X155079209Y-82550000D01*
X155134014Y-82520706D01*
X155360134Y-82335134D01*
X155545706Y-82109014D01*
X155683599Y-81851034D01*
X155768513Y-81571111D01*
X155797185Y-81280000D01*
X155768513Y-80988889D01*
X155683599Y-80708966D01*
X155545706Y-80450986D01*
X155360134Y-80224866D01*
X155134014Y-80039294D01*
X155079209Y-80010000D01*
X155134014Y-79980706D01*
X155360134Y-79795134D01*
X155545706Y-79569014D01*
X155683599Y-79311034D01*
X155768513Y-79031111D01*
X155797185Y-78740000D01*
X155768513Y-78448889D01*
X155683599Y-78168966D01*
X155545706Y-77910986D01*
X155360134Y-77684866D01*
X155134014Y-77499294D01*
X155079209Y-77470000D01*
X155134014Y-77440706D01*
X155360134Y-77255134D01*
X155545706Y-77029014D01*
X155683599Y-76771034D01*
X155768513Y-76491111D01*
X155797185Y-76200000D01*
X155768513Y-75908889D01*
X155683599Y-75628966D01*
X155545706Y-75370986D01*
X155360134Y-75144866D01*
X155134014Y-74959294D01*
X155079209Y-74930000D01*
X155134014Y-74900706D01*
X155360134Y-74715134D01*
X155545706Y-74489014D01*
X155683599Y-74231034D01*
X155768513Y-73951111D01*
X155797185Y-73660000D01*
X155768513Y-73368889D01*
X155683599Y-73088966D01*
X155545706Y-72830986D01*
X155360134Y-72604866D01*
X155330313Y-72580393D01*
X155399180Y-72559502D01*
X155509494Y-72500537D01*
X155606185Y-72421185D01*
X155685537Y-72324494D01*
X155744502Y-72214180D01*
X155780812Y-72094482D01*
X155793072Y-71970000D01*
X155793072Y-70270000D01*
X155780812Y-70145518D01*
X155744502Y-70025820D01*
X155685537Y-69915506D01*
X155606185Y-69818815D01*
X155509494Y-69739463D01*
X155399180Y-69680498D01*
X155279482Y-69644188D01*
X155155000Y-69631928D01*
X153455000Y-69631928D01*
X153330518Y-69644188D01*
X153210820Y-69680498D01*
X153100506Y-69739463D01*
X153035000Y-69793222D01*
X152969494Y-69739463D01*
X152859180Y-69680498D01*
X152739482Y-69644188D01*
X152615000Y-69631928D01*
X150915000Y-69631928D01*
X150790518Y-69644188D01*
X150670820Y-69680498D01*
X150560506Y-69739463D01*
X150463815Y-69818815D01*
X150384463Y-69915506D01*
X150325498Y-70025820D01*
X150289188Y-70145518D01*
X150276928Y-70270000D01*
X150276928Y-71970000D01*
X150289188Y-72094482D01*
X150325498Y-72214180D01*
X150384463Y-72324494D01*
X150463815Y-72421185D01*
X150560506Y-72500537D01*
X150670820Y-72559502D01*
X150739687Y-72580393D01*
X150709866Y-72604866D01*
X150524294Y-72830986D01*
X150386401Y-73088966D01*
X150301487Y-73368889D01*
X150272815Y-73660000D01*
X150301487Y-73951111D01*
X150386401Y-74231034D01*
X150514503Y-74470696D01*
X150110998Y-74874201D01*
X150082000Y-74897999D01*
X150058202Y-74926997D01*
X150058201Y-74926998D01*
X149987026Y-75013724D01*
X149916454Y-75145754D01*
X149893251Y-75222247D01*
X149872998Y-75289014D01*
X149867681Y-75343001D01*
X149858324Y-75438000D01*
X149862001Y-75475332D01*
X149862000Y-77155199D01*
X149729998Y-77287201D01*
X149701000Y-77310999D01*
X149677202Y-77339997D01*
X149677201Y-77339998D01*
X149606026Y-77426724D01*
X149535454Y-77558754D01*
X149516876Y-77620000D01*
X149491998Y-77702014D01*
X149484879Y-77774290D01*
X149477324Y-77851000D01*
X149481001Y-77888332D01*
X149481001Y-77894946D01*
X149416509Y-77774290D01*
X149392471Y-77745000D01*
X149416509Y-77715710D01*
X149517259Y-77527220D01*
X149579300Y-77322697D01*
X149600249Y-77110000D01*
X149579300Y-76897303D01*
X149517259Y-76692780D01*
X149416509Y-76504290D01*
X149392471Y-76475000D01*
X149416509Y-76445710D01*
X149517259Y-76257220D01*
X149579300Y-76052697D01*
X149600249Y-75840000D01*
X149579300Y-75627303D01*
X149517259Y-75422780D01*
X149416509Y-75234290D01*
X149392471Y-75205000D01*
X149416509Y-75175710D01*
X149517259Y-74987220D01*
X149579300Y-74782697D01*
X149600249Y-74570000D01*
X149579300Y-74357303D01*
X149517259Y-74152780D01*
X149416509Y-73964290D01*
X149392471Y-73935000D01*
X149416509Y-73905710D01*
X149517259Y-73717220D01*
X149579300Y-73512697D01*
X149600249Y-73300000D01*
X149579300Y-73087303D01*
X149517259Y-72882780D01*
X149416509Y-72694290D01*
X149392471Y-72665000D01*
X149416509Y-72635710D01*
X149517259Y-72447220D01*
X149579300Y-72242697D01*
X149600249Y-72030000D01*
X149579300Y-71817303D01*
X149517259Y-71612780D01*
X149416509Y-71424290D01*
X149280922Y-71259078D01*
X149115710Y-71123491D01*
X148927220Y-71022741D01*
X148722697Y-70960700D01*
X148563294Y-70945000D01*
X148093421Y-70945000D01*
X148054482Y-70933188D01*
X147930000Y-70920928D01*
X145930000Y-70920928D01*
X145805518Y-70933188D01*
X145685820Y-70969498D01*
X145575506Y-71028463D01*
X145549629Y-71049699D01*
X145462898Y-71013774D01*
X145262939Y-70974000D01*
X145059061Y-70974000D01*
X144859102Y-71013774D01*
X144670744Y-71091795D01*
X144501226Y-71205063D01*
X144357063Y-71349226D01*
X144243795Y-71518744D01*
X144165774Y-71707102D01*
X144126000Y-71907061D01*
X144126000Y-72110939D01*
X144165774Y-72310898D01*
X144243795Y-72499256D01*
X144340510Y-72644000D01*
X144243795Y-72788744D01*
X144165774Y-72977102D01*
X144126000Y-73177061D01*
X144126000Y-73380939D01*
X144165774Y-73580898D01*
X144243795Y-73769256D01*
X144340510Y-73914000D01*
X144243795Y-74058744D01*
X144165774Y-74247102D01*
X144126000Y-74447061D01*
X144126000Y-74650939D01*
X144165774Y-74850898D01*
X144243795Y-75039256D01*
X144340510Y-75184000D01*
X144243795Y-75328744D01*
X144165774Y-75517102D01*
X144126000Y-75717061D01*
X144126000Y-75920939D01*
X144165774Y-76120898D01*
X144243795Y-76309256D01*
X144340510Y-76454000D01*
X144243795Y-76598744D01*
X144165774Y-76787102D01*
X144126000Y-76987061D01*
X144126000Y-77190939D01*
X144165774Y-77390898D01*
X144243795Y-77579256D01*
X144340510Y-77724000D01*
X144243795Y-77868744D01*
X144165774Y-78057102D01*
X144126000Y-78257061D01*
X144126000Y-78460939D01*
X144165774Y-78660898D01*
X144243795Y-78849256D01*
X144340510Y-78994000D01*
X144243795Y-79138744D01*
X144165774Y-79327102D01*
X144126000Y-79527061D01*
X144126000Y-79730939D01*
X144165774Y-79930898D01*
X144243795Y-80119256D01*
X144340510Y-80264000D01*
X144243795Y-80408744D01*
X144165774Y-80597102D01*
X144126000Y-80797061D01*
X144126000Y-81000939D01*
X144165774Y-81200898D01*
X144243795Y-81389256D01*
X144340510Y-81534000D01*
X144243795Y-81678744D01*
X144165774Y-81867102D01*
X144126000Y-82067061D01*
X144126000Y-82270939D01*
X144165774Y-82470898D01*
X144243795Y-82659256D01*
X144340510Y-82804000D01*
X144243795Y-82948744D01*
X144165774Y-83137102D01*
X144126000Y-83337061D01*
X144126000Y-83540939D01*
X144165774Y-83740898D01*
X144243795Y-83929256D01*
X144357063Y-84098774D01*
X144501226Y-84242937D01*
X144670744Y-84356205D01*
X144859102Y-84434226D01*
X145059061Y-84474000D01*
X145262939Y-84474000D01*
X145291928Y-84468234D01*
X145291928Y-85159000D01*
X145304188Y-85283482D01*
X145322546Y-85344000D01*
X145304188Y-85404518D01*
X145291928Y-85529000D01*
X145291928Y-86429000D01*
X145304188Y-86553482D01*
X145322546Y-86614000D01*
X145304188Y-86674518D01*
X145291928Y-86799000D01*
X145291928Y-87699000D01*
X145304188Y-87823482D01*
X145322546Y-87884000D01*
X145304188Y-87944518D01*
X145291928Y-88069000D01*
X145291928Y-88969000D01*
X145302860Y-89080000D01*
X145230000Y-89080000D01*
X145230000Y-88415706D01*
X145214300Y-88256303D01*
X145152259Y-88051780D01*
X145051509Y-87863290D01*
X144915922Y-87698078D01*
X144750710Y-87562491D01*
X144562219Y-87461741D01*
X144357696Y-87399700D01*
X144145000Y-87378751D01*
X143932303Y-87399700D01*
X143727780Y-87461741D01*
X143539290Y-87562491D01*
X143510000Y-87586529D01*
X143480710Y-87562491D01*
X143292219Y-87461741D01*
X143087696Y-87399700D01*
X142875000Y-87378751D01*
X142662303Y-87399700D01*
X142457780Y-87461741D01*
X142269290Y-87562491D01*
X142240000Y-87586529D01*
X142210710Y-87562491D01*
X142022219Y-87461741D01*
X141817696Y-87399700D01*
X141605000Y-87378751D01*
X141392303Y-87399700D01*
X141187780Y-87461741D01*
X140999290Y-87562491D01*
X140970000Y-87586529D01*
X140940710Y-87562491D01*
X140752219Y-87461741D01*
X140547696Y-87399700D01*
X140335000Y-87378751D01*
X140122303Y-87399700D01*
X139917780Y-87461741D01*
X139729290Y-87562491D01*
X139700000Y-87586529D01*
X139670710Y-87562491D01*
X139482219Y-87461741D01*
X139277696Y-87399700D01*
X139065000Y-87378751D01*
X138852303Y-87399700D01*
X138647780Y-87461741D01*
X138459290Y-87562491D01*
X138430000Y-87586529D01*
X138400710Y-87562491D01*
X138212219Y-87461741D01*
X138007696Y-87399700D01*
X137795000Y-87378751D01*
X137582303Y-87399700D01*
X137377780Y-87461741D01*
X137189290Y-87562491D01*
X137160000Y-87586529D01*
X137130710Y-87562491D01*
X136942219Y-87461741D01*
X136737696Y-87399700D01*
X136525000Y-87378751D01*
X136312303Y-87399700D01*
X136107780Y-87461741D01*
X135919290Y-87562491D01*
X135890000Y-87586529D01*
X135860710Y-87562491D01*
X135672219Y-87461741D01*
X135467696Y-87399700D01*
X135255000Y-87378751D01*
X135042303Y-87399700D01*
X134837780Y-87461741D01*
X134649290Y-87562491D01*
X134620000Y-87586529D01*
X134590710Y-87562491D01*
X134402219Y-87461741D01*
X134197696Y-87399700D01*
X133985000Y-87378751D01*
X133772303Y-87399700D01*
X133567780Y-87461741D01*
X133379290Y-87562491D01*
X133350000Y-87586529D01*
X133320710Y-87562491D01*
X133132219Y-87461741D01*
X132927696Y-87399700D01*
X132861000Y-87393131D01*
X132861000Y-87274061D01*
X132821226Y-87074102D01*
X132743205Y-86885744D01*
X132646490Y-86741000D01*
X132743205Y-86596256D01*
X132821226Y-86407898D01*
X132861000Y-86207939D01*
X132861000Y-86004061D01*
X132821226Y-85804102D01*
X132743205Y-85615744D01*
X132646490Y-85471000D01*
X132743205Y-85326256D01*
X132821226Y-85137898D01*
X132861000Y-84937939D01*
X132861000Y-84734061D01*
X132821226Y-84534102D01*
X132743205Y-84345744D01*
X132646490Y-84201000D01*
X132699284Y-84121989D01*
X132859744Y-84229205D01*
X133048102Y-84307226D01*
X133248061Y-84347000D01*
X133451939Y-84347000D01*
X133651898Y-84307226D01*
X133840256Y-84229205D01*
X134009774Y-84115937D01*
X134153937Y-83971774D01*
X134267205Y-83802256D01*
X134345226Y-83613898D01*
X134385000Y-83413939D01*
X134385000Y-83210061D01*
X134345226Y-83010102D01*
X134267205Y-82821744D01*
X134153937Y-82652226D01*
X134110000Y-82608289D01*
X134110000Y-82587322D01*
X134113676Y-82549999D01*
X134110000Y-82512676D01*
X134110000Y-82512667D01*
X134099003Y-82401014D01*
X134055546Y-82257753D01*
X134028061Y-82206332D01*
X133984974Y-82125723D01*
X133913799Y-82038997D01*
X133890001Y-82009999D01*
X133861003Y-81986201D01*
X132328180Y-80453379D01*
X132358774Y-80432937D01*
X132502937Y-80288774D01*
X132616205Y-80119256D01*
X132694226Y-79930898D01*
X132734000Y-79730939D01*
X132734000Y-79527061D01*
X132694226Y-79327102D01*
X132616205Y-79138744D01*
X132502937Y-78969226D01*
X132358774Y-78825063D01*
X132189256Y-78711795D01*
X132000898Y-78633774D01*
X131800939Y-78594000D01*
X131597061Y-78594000D01*
X131568072Y-78599766D01*
X131568072Y-78402103D01*
X131570249Y-78380000D01*
X131568072Y-78357897D01*
X131568072Y-77909000D01*
X131555812Y-77784518D01*
X131537454Y-77724000D01*
X131555812Y-77663482D01*
X131568072Y-77539000D01*
X131568072Y-77132103D01*
X131570249Y-77110000D01*
X131568072Y-77087897D01*
X131568072Y-77009000D01*
X134291928Y-77009000D01*
X134291928Y-82009000D01*
X134304188Y-82133482D01*
X134340498Y-82253180D01*
X134399463Y-82363494D01*
X134478815Y-82460185D01*
X134575506Y-82539537D01*
X134685820Y-82598502D01*
X134805518Y-82634812D01*
X134930000Y-82647072D01*
X139930000Y-82647072D01*
X140054482Y-82634812D01*
X140174180Y-82598502D01*
X140284494Y-82539537D01*
X140381185Y-82460185D01*
X140460537Y-82363494D01*
X140519502Y-82253180D01*
X140555812Y-82133482D01*
X140560581Y-82085060D01*
X140654482Y-82075812D01*
X140774180Y-82039502D01*
X140884494Y-81980537D01*
X140981185Y-81901185D01*
X141060537Y-81804494D01*
X141119502Y-81694180D01*
X141155812Y-81574482D01*
X141168072Y-81450000D01*
X141168072Y-76450000D01*
X141155812Y-76325518D01*
X141119502Y-76205820D01*
X141060537Y-76095506D01*
X140981185Y-75998815D01*
X140884494Y-75919463D01*
X140774180Y-75860498D01*
X140654482Y-75824188D01*
X140530000Y-75811928D01*
X135530000Y-75811928D01*
X135405518Y-75824188D01*
X135285820Y-75860498D01*
X135175506Y-75919463D01*
X135078815Y-75998815D01*
X134999463Y-76095506D01*
X134940498Y-76205820D01*
X134904188Y-76325518D01*
X134899419Y-76373940D01*
X134805518Y-76383188D01*
X134685820Y-76419498D01*
X134575506Y-76478463D01*
X134478815Y-76557815D01*
X134399463Y-76654506D01*
X134340498Y-76764820D01*
X134304188Y-76884518D01*
X134291928Y-77009000D01*
X131568072Y-77009000D01*
X131568072Y-76639000D01*
X131555812Y-76514518D01*
X131537454Y-76454000D01*
X131555812Y-76393482D01*
X131568072Y-76269000D01*
X131568072Y-75862103D01*
X131570249Y-75840000D01*
X131568072Y-75817897D01*
X131568072Y-75369000D01*
X131555812Y-75244518D01*
X131537454Y-75184000D01*
X131555812Y-75123482D01*
X131568072Y-74999000D01*
X131568072Y-74592103D01*
X131570249Y-74570000D01*
X131568072Y-74547897D01*
X131568072Y-74099000D01*
X131555812Y-73974518D01*
X131537454Y-73914000D01*
X131555812Y-73853482D01*
X131568072Y-73729000D01*
X131568072Y-73322103D01*
X131570249Y-73300000D01*
X131568072Y-73277897D01*
X131568072Y-72829000D01*
X131555812Y-72704518D01*
X131537454Y-72644000D01*
X131555812Y-72583482D01*
X131568072Y-72459000D01*
X131568072Y-72052103D01*
X131570249Y-72030000D01*
X131568072Y-72007897D01*
X131568072Y-71559000D01*
X131555812Y-71434518D01*
X131519502Y-71314820D01*
X131460537Y-71204506D01*
X131381185Y-71107815D01*
X131284494Y-71028463D01*
X131174180Y-70969498D01*
X131054482Y-70933188D01*
X130930000Y-70920928D01*
X130073101Y-70920928D01*
X130064974Y-70905724D01*
X130032373Y-70866000D01*
X147828000Y-70866000D01*
X147852776Y-70863560D01*
X147876601Y-70856333D01*
X147898557Y-70844597D01*
X147917803Y-70828803D01*
X147933597Y-70809557D01*
X147945333Y-70787601D01*
X147952560Y-70763776D01*
X147955000Y-70739000D01*
X147955000Y-64795000D01*
X153454095Y-64795000D01*
X153459853Y-64797468D01*
X153459853Y-64797468D01*
G37*
X153459853Y-64797468D02*
X153592529Y-64825668D01*
X153602180Y-64826683D01*
X154151054Y-64880500D01*
X154613781Y-65020206D01*
X155040568Y-65247132D01*
X155415146Y-65552631D01*
X155723250Y-65925066D01*
X155953147Y-66350249D01*
X156096081Y-66811996D01*
X156153730Y-67360483D01*
X156156018Y-67371627D01*
X156163709Y-67447360D01*
X156185001Y-67517006D01*
X156185000Y-93129095D01*
X156182532Y-93134853D01*
X156154331Y-93267530D01*
X156153317Y-93277181D01*
X156099500Y-93826054D01*
X155959793Y-94288785D01*
X155732868Y-94715567D01*
X155427369Y-95090146D01*
X155054935Y-95398250D01*
X154629749Y-95628148D01*
X154168004Y-95771081D01*
X153619518Y-95828730D01*
X153608375Y-95831017D01*
X153532640Y-95838709D01*
X153462997Y-95860000D01*
X152525000Y-95860000D01*
X152525000Y-95257595D01*
X152594014Y-95220706D01*
X152820134Y-95035134D01*
X153005706Y-94809014D01*
X153035000Y-94754209D01*
X153064294Y-94809014D01*
X153249866Y-95035134D01*
X153475986Y-95220706D01*
X153733966Y-95358599D01*
X154013889Y-95443513D01*
X154232050Y-95465000D01*
X154377950Y-95465000D01*
X154596111Y-95443513D01*
X154876034Y-95358599D01*
X155134014Y-95220706D01*
X155360134Y-95035134D01*
X155545706Y-94809014D01*
X155683599Y-94551034D01*
X155768513Y-94271111D01*
X155797185Y-93980000D01*
X155768513Y-93688889D01*
X155683599Y-93408966D01*
X155545706Y-93150986D01*
X155360134Y-92924866D01*
X155134014Y-92739294D01*
X155079209Y-92710000D01*
X155134014Y-92680706D01*
X155360134Y-92495134D01*
X155545706Y-92269014D01*
X155683599Y-92011034D01*
X155768513Y-91731111D01*
X155797185Y-91440000D01*
X155768513Y-91148889D01*
X155683599Y-90868966D01*
X155545706Y-90610986D01*
X155360134Y-90384866D01*
X155134014Y-90199294D01*
X155079209Y-90170000D01*
X155134014Y-90140706D01*
X155360134Y-89955134D01*
X155545706Y-89729014D01*
X155683599Y-89471034D01*
X155768513Y-89191111D01*
X155797185Y-88900000D01*
X155768513Y-88608889D01*
X155683599Y-88328966D01*
X155545706Y-88070986D01*
X155360134Y-87844866D01*
X155134014Y-87659294D01*
X155079209Y-87630000D01*
X155134014Y-87600706D01*
X155360134Y-87415134D01*
X155545706Y-87189014D01*
X155683599Y-86931034D01*
X155768513Y-86651111D01*
X155797185Y-86360000D01*
X155768513Y-86068889D01*
X155683599Y-85788966D01*
X155545706Y-85530986D01*
X155360134Y-85304866D01*
X155134014Y-85119294D01*
X155079209Y-85090000D01*
X155134014Y-85060706D01*
X155360134Y-84875134D01*
X155545706Y-84649014D01*
X155683599Y-84391034D01*
X155768513Y-84111111D01*
X155797185Y-83820000D01*
X155768513Y-83528889D01*
X155683599Y-83248966D01*
X155545706Y-82990986D01*
X155360134Y-82764866D01*
X155134014Y-82579294D01*
X155079209Y-82550000D01*
X155134014Y-82520706D01*
X155360134Y-82335134D01*
X155545706Y-82109014D01*
X155683599Y-81851034D01*
X155768513Y-81571111D01*
X155797185Y-81280000D01*
X155768513Y-80988889D01*
X155683599Y-80708966D01*
X155545706Y-80450986D01*
X155360134Y-80224866D01*
X155134014Y-80039294D01*
X155079209Y-80010000D01*
X155134014Y-79980706D01*
X155360134Y-79795134D01*
X155545706Y-79569014D01*
X155683599Y-79311034D01*
X155768513Y-79031111D01*
X155797185Y-78740000D01*
X155768513Y-78448889D01*
X155683599Y-78168966D01*
X155545706Y-77910986D01*
X155360134Y-77684866D01*
X155134014Y-77499294D01*
X155079209Y-77470000D01*
X155134014Y-77440706D01*
X155360134Y-77255134D01*
X155545706Y-77029014D01*
X155683599Y-76771034D01*
X155768513Y-76491111D01*
X155797185Y-76200000D01*
X155768513Y-75908889D01*
X155683599Y-75628966D01*
X155545706Y-75370986D01*
X155360134Y-75144866D01*
X155134014Y-74959294D01*
X155079209Y-74930000D01*
X155134014Y-74900706D01*
X155360134Y-74715134D01*
X155545706Y-74489014D01*
X155683599Y-74231034D01*
X155768513Y-73951111D01*
X155797185Y-73660000D01*
X155768513Y-73368889D01*
X155683599Y-73088966D01*
X155545706Y-72830986D01*
X155360134Y-72604866D01*
X155330313Y-72580393D01*
X155399180Y-72559502D01*
X155509494Y-72500537D01*
X155606185Y-72421185D01*
X155685537Y-72324494D01*
X155744502Y-72214180D01*
X155780812Y-72094482D01*
X155793072Y-71970000D01*
X155793072Y-70270000D01*
X155780812Y-70145518D01*
X155744502Y-70025820D01*
X155685537Y-69915506D01*
X155606185Y-69818815D01*
X155509494Y-69739463D01*
X155399180Y-69680498D01*
X155279482Y-69644188D01*
X155155000Y-69631928D01*
X153455000Y-69631928D01*
X153330518Y-69644188D01*
X153210820Y-69680498D01*
X153100506Y-69739463D01*
X153035000Y-69793222D01*
X152969494Y-69739463D01*
X152859180Y-69680498D01*
X152739482Y-69644188D01*
X152615000Y-69631928D01*
X150915000Y-69631928D01*
X150790518Y-69644188D01*
X150670820Y-69680498D01*
X150560506Y-69739463D01*
X150463815Y-69818815D01*
X150384463Y-69915506D01*
X150325498Y-70025820D01*
X150289188Y-70145518D01*
X150276928Y-70270000D01*
X150276928Y-71970000D01*
X150289188Y-72094482D01*
X150325498Y-72214180D01*
X150384463Y-72324494D01*
X150463815Y-72421185D01*
X150560506Y-72500537D01*
X150670820Y-72559502D01*
X150739687Y-72580393D01*
X150709866Y-72604866D01*
X150524294Y-72830986D01*
X150386401Y-73088966D01*
X150301487Y-73368889D01*
X150272815Y-73660000D01*
X150301487Y-73951111D01*
X150386401Y-74231034D01*
X150514503Y-74470696D01*
X150110998Y-74874201D01*
X150082000Y-74897999D01*
X150058202Y-74926997D01*
X150058201Y-74926998D01*
X149987026Y-75013724D01*
X149916454Y-75145754D01*
X149893251Y-75222247D01*
X149872998Y-75289014D01*
X149867681Y-75343001D01*
X149858324Y-75438000D01*
X149862001Y-75475332D01*
X149862000Y-77155199D01*
X149729998Y-77287201D01*
X149701000Y-77310999D01*
X149677202Y-77339997D01*
X149677201Y-77339998D01*
X149606026Y-77426724D01*
X149535454Y-77558754D01*
X149516876Y-77620000D01*
X149491998Y-77702014D01*
X149484879Y-77774290D01*
X149477324Y-77851000D01*
X149481001Y-77888332D01*
X149481001Y-77894946D01*
X149416509Y-77774290D01*
X149392471Y-77745000D01*
X149416509Y-77715710D01*
X149517259Y-77527220D01*
X149579300Y-77322697D01*
X149600249Y-77110000D01*
X149579300Y-76897303D01*
X149517259Y-76692780D01*
X149416509Y-76504290D01*
X149392471Y-76475000D01*
X149416509Y-76445710D01*
X149517259Y-76257220D01*
X149579300Y-76052697D01*
X149600249Y-75840000D01*
X149579300Y-75627303D01*
X149517259Y-75422780D01*
X149416509Y-75234290D01*
X149392471Y-75205000D01*
X149416509Y-75175710D01*
X149517259Y-74987220D01*
X149579300Y-74782697D01*
X149600249Y-74570000D01*
X149579300Y-74357303D01*
X149517259Y-74152780D01*
X149416509Y-73964290D01*
X149392471Y-73935000D01*
X149416509Y-73905710D01*
X149517259Y-73717220D01*
X149579300Y-73512697D01*
X149600249Y-73300000D01*
X149579300Y-73087303D01*
X149517259Y-72882780D01*
X149416509Y-72694290D01*
X149392471Y-72665000D01*
X149416509Y-72635710D01*
X149517259Y-72447220D01*
X149579300Y-72242697D01*
X149600249Y-72030000D01*
X149579300Y-71817303D01*
X149517259Y-71612780D01*
X149416509Y-71424290D01*
X149280922Y-71259078D01*
X149115710Y-71123491D01*
X148927220Y-71022741D01*
X148722697Y-70960700D01*
X148563294Y-70945000D01*
X148093421Y-70945000D01*
X148054482Y-70933188D01*
X147930000Y-70920928D01*
X145930000Y-70920928D01*
X145805518Y-70933188D01*
X145685820Y-70969498D01*
X145575506Y-71028463D01*
X145549629Y-71049699D01*
X145462898Y-71013774D01*
X145262939Y-70974000D01*
X145059061Y-70974000D01*
X144859102Y-71013774D01*
X144670744Y-71091795D01*
X144501226Y-71205063D01*
X144357063Y-71349226D01*
X144243795Y-71518744D01*
X144165774Y-71707102D01*
X144126000Y-71907061D01*
X144126000Y-72110939D01*
X144165774Y-72310898D01*
X144243795Y-72499256D01*
X144340510Y-72644000D01*
X144243795Y-72788744D01*
X144165774Y-72977102D01*
X144126000Y-73177061D01*
X144126000Y-73380939D01*
X144165774Y-73580898D01*
X144243795Y-73769256D01*
X144340510Y-73914000D01*
X144243795Y-74058744D01*
X144165774Y-74247102D01*
X144126000Y-74447061D01*
X144126000Y-74650939D01*
X144165774Y-74850898D01*
X144243795Y-75039256D01*
X144340510Y-75184000D01*
X144243795Y-75328744D01*
X144165774Y-75517102D01*
X144126000Y-75717061D01*
X144126000Y-75920939D01*
X144165774Y-76120898D01*
X144243795Y-76309256D01*
X144340510Y-76454000D01*
X144243795Y-76598744D01*
X144165774Y-76787102D01*
X144126000Y-76987061D01*
X144126000Y-77190939D01*
X144165774Y-77390898D01*
X144243795Y-77579256D01*
X144340510Y-77724000D01*
X144243795Y-77868744D01*
X144165774Y-78057102D01*
X144126000Y-78257061D01*
X144126000Y-78460939D01*
X144165774Y-78660898D01*
X144243795Y-78849256D01*
X144340510Y-78994000D01*
X144243795Y-79138744D01*
X144165774Y-79327102D01*
X144126000Y-79527061D01*
X144126000Y-79730939D01*
X144165774Y-79930898D01*
X144243795Y-80119256D01*
X144340510Y-80264000D01*
X144243795Y-80408744D01*
X144165774Y-80597102D01*
X144126000Y-80797061D01*
X144126000Y-81000939D01*
X144165774Y-81200898D01*
X144243795Y-81389256D01*
X144340510Y-81534000D01*
X144243795Y-81678744D01*
X144165774Y-81867102D01*
X144126000Y-82067061D01*
X144126000Y-82270939D01*
X144165774Y-82470898D01*
X144243795Y-82659256D01*
X144340510Y-82804000D01*
X144243795Y-82948744D01*
X144165774Y-83137102D01*
X144126000Y-83337061D01*
X144126000Y-83540939D01*
X144165774Y-83740898D01*
X144243795Y-83929256D01*
X144357063Y-84098774D01*
X144501226Y-84242937D01*
X144670744Y-84356205D01*
X144859102Y-84434226D01*
X145059061Y-84474000D01*
X145262939Y-84474000D01*
X145291928Y-84468234D01*
X145291928Y-85159000D01*
X145304188Y-85283482D01*
X145322546Y-85344000D01*
X145304188Y-85404518D01*
X145291928Y-85529000D01*
X145291928Y-86429000D01*
X145304188Y-86553482D01*
X145322546Y-86614000D01*
X145304188Y-86674518D01*
X145291928Y-86799000D01*
X145291928Y-87699000D01*
X145304188Y-87823482D01*
X145322546Y-87884000D01*
X145304188Y-87944518D01*
X145291928Y-88069000D01*
X145291928Y-88969000D01*
X145302860Y-89080000D01*
X145230000Y-89080000D01*
X145230000Y-88415706D01*
X145214300Y-88256303D01*
X145152259Y-88051780D01*
X145051509Y-87863290D01*
X144915922Y-87698078D01*
X144750710Y-87562491D01*
X144562219Y-87461741D01*
X144357696Y-87399700D01*
X144145000Y-87378751D01*
X143932303Y-87399700D01*
X143727780Y-87461741D01*
X143539290Y-87562491D01*
X143510000Y-87586529D01*
X143480710Y-87562491D01*
X143292219Y-87461741D01*
X143087696Y-87399700D01*
X142875000Y-87378751D01*
X142662303Y-87399700D01*
X142457780Y-87461741D01*
X142269290Y-87562491D01*
X142240000Y-87586529D01*
X142210710Y-87562491D01*
X142022219Y-87461741D01*
X141817696Y-87399700D01*
X141605000Y-87378751D01*
X141392303Y-87399700D01*
X141187780Y-87461741D01*
X140999290Y-87562491D01*
X140970000Y-87586529D01*
X140940710Y-87562491D01*
X140752219Y-87461741D01*
X140547696Y-87399700D01*
X140335000Y-87378751D01*
X140122303Y-87399700D01*
X139917780Y-87461741D01*
X139729290Y-87562491D01*
X139700000Y-87586529D01*
X139670710Y-87562491D01*
X139482219Y-87461741D01*
X139277696Y-87399700D01*
X139065000Y-87378751D01*
X138852303Y-87399700D01*
X138647780Y-87461741D01*
X138459290Y-87562491D01*
X138430000Y-87586529D01*
X138400710Y-87562491D01*
X138212219Y-87461741D01*
X138007696Y-87399700D01*
X137795000Y-87378751D01*
X137582303Y-87399700D01*
X137377780Y-87461741D01*
X137189290Y-87562491D01*
X137160000Y-87586529D01*
X137130710Y-87562491D01*
X136942219Y-87461741D01*
X136737696Y-87399700D01*
X136525000Y-87378751D01*
X136312303Y-87399700D01*
X136107780Y-87461741D01*
X135919290Y-87562491D01*
X135890000Y-87586529D01*
X135860710Y-87562491D01*
X135672219Y-87461741D01*
X135467696Y-87399700D01*
X135255000Y-87378751D01*
X135042303Y-87399700D01*
X134837780Y-87461741D01*
X134649290Y-87562491D01*
X134620000Y-87586529D01*
X134590710Y-87562491D01*
X134402219Y-87461741D01*
X134197696Y-87399700D01*
X133985000Y-87378751D01*
X133772303Y-87399700D01*
X133567780Y-87461741D01*
X133379290Y-87562491D01*
X133350000Y-87586529D01*
X133320710Y-87562491D01*
X133132219Y-87461741D01*
X132927696Y-87399700D01*
X132861000Y-87393131D01*
X132861000Y-87274061D01*
X132821226Y-87074102D01*
X132743205Y-86885744D01*
X132646490Y-86741000D01*
X132743205Y-86596256D01*
X132821226Y-86407898D01*
X132861000Y-86207939D01*
X132861000Y-86004061D01*
X132821226Y-85804102D01*
X132743205Y-85615744D01*
X132646490Y-85471000D01*
X132743205Y-85326256D01*
X132821226Y-85137898D01*
X132861000Y-84937939D01*
X132861000Y-84734061D01*
X132821226Y-84534102D01*
X132743205Y-84345744D01*
X132646490Y-84201000D01*
X132699284Y-84121989D01*
X132859744Y-84229205D01*
X133048102Y-84307226D01*
X133248061Y-84347000D01*
X133451939Y-84347000D01*
X133651898Y-84307226D01*
X133840256Y-84229205D01*
X134009774Y-84115937D01*
X134153937Y-83971774D01*
X134267205Y-83802256D01*
X134345226Y-83613898D01*
X134385000Y-83413939D01*
X134385000Y-83210061D01*
X134345226Y-83010102D01*
X134267205Y-82821744D01*
X134153937Y-82652226D01*
X134110000Y-82608289D01*
X134110000Y-82587322D01*
X134113676Y-82549999D01*
X134110000Y-82512676D01*
X134110000Y-82512667D01*
X134099003Y-82401014D01*
X134055546Y-82257753D01*
X134028061Y-82206332D01*
X133984974Y-82125723D01*
X133913799Y-82038997D01*
X133890001Y-82009999D01*
X133861003Y-81986201D01*
X132328180Y-80453379D01*
X132358774Y-80432937D01*
X132502937Y-80288774D01*
X132616205Y-80119256D01*
X132694226Y-79930898D01*
X132734000Y-79730939D01*
X132734000Y-79527061D01*
X132694226Y-79327102D01*
X132616205Y-79138744D01*
X132502937Y-78969226D01*
X132358774Y-78825063D01*
X132189256Y-78711795D01*
X132000898Y-78633774D01*
X131800939Y-78594000D01*
X131597061Y-78594000D01*
X131568072Y-78599766D01*
X131568072Y-78402103D01*
X131570249Y-78380000D01*
X131568072Y-78357897D01*
X131568072Y-77909000D01*
X131555812Y-77784518D01*
X131537454Y-77724000D01*
X131555812Y-77663482D01*
X131568072Y-77539000D01*
X131568072Y-77132103D01*
X131570249Y-77110000D01*
X131568072Y-77087897D01*
X131568072Y-77009000D01*
X134291928Y-77009000D01*
X134291928Y-82009000D01*
X134304188Y-82133482D01*
X134340498Y-82253180D01*
X134399463Y-82363494D01*
X134478815Y-82460185D01*
X134575506Y-82539537D01*
X134685820Y-82598502D01*
X134805518Y-82634812D01*
X134930000Y-82647072D01*
X139930000Y-82647072D01*
X140054482Y-82634812D01*
X140174180Y-82598502D01*
X140284494Y-82539537D01*
X140381185Y-82460185D01*
X140460537Y-82363494D01*
X140519502Y-82253180D01*
X140555812Y-82133482D01*
X140560581Y-82085060D01*
X140654482Y-82075812D01*
X140774180Y-82039502D01*
X140884494Y-81980537D01*
X140981185Y-81901185D01*
X141060537Y-81804494D01*
X141119502Y-81694180D01*
X141155812Y-81574482D01*
X141168072Y-81450000D01*
X141168072Y-76450000D01*
X141155812Y-76325518D01*
X141119502Y-76205820D01*
X141060537Y-76095506D01*
X140981185Y-75998815D01*
X140884494Y-75919463D01*
X140774180Y-75860498D01*
X140654482Y-75824188D01*
X140530000Y-75811928D01*
X135530000Y-75811928D01*
X135405518Y-75824188D01*
X135285820Y-75860498D01*
X135175506Y-75919463D01*
X135078815Y-75998815D01*
X134999463Y-76095506D01*
X134940498Y-76205820D01*
X134904188Y-76325518D01*
X134899419Y-76373940D01*
X134805518Y-76383188D01*
X134685820Y-76419498D01*
X134575506Y-76478463D01*
X134478815Y-76557815D01*
X134399463Y-76654506D01*
X134340498Y-76764820D01*
X134304188Y-76884518D01*
X134291928Y-77009000D01*
X131568072Y-77009000D01*
X131568072Y-76639000D01*
X131555812Y-76514518D01*
X131537454Y-76454000D01*
X131555812Y-76393482D01*
X131568072Y-76269000D01*
X131568072Y-75862103D01*
X131570249Y-75840000D01*
X131568072Y-75817897D01*
X131568072Y-75369000D01*
X131555812Y-75244518D01*
X131537454Y-75184000D01*
X131555812Y-75123482D01*
X131568072Y-74999000D01*
X131568072Y-74592103D01*
X131570249Y-74570000D01*
X131568072Y-74547897D01*
X131568072Y-74099000D01*
X131555812Y-73974518D01*
X131537454Y-73914000D01*
X131555812Y-73853482D01*
X131568072Y-73729000D01*
X131568072Y-73322103D01*
X131570249Y-73300000D01*
X131568072Y-73277897D01*
X131568072Y-72829000D01*
X131555812Y-72704518D01*
X131537454Y-72644000D01*
X131555812Y-72583482D01*
X131568072Y-72459000D01*
X131568072Y-72052103D01*
X131570249Y-72030000D01*
X131568072Y-72007897D01*
X131568072Y-71559000D01*
X131555812Y-71434518D01*
X131519502Y-71314820D01*
X131460537Y-71204506D01*
X131381185Y-71107815D01*
X131284494Y-71028463D01*
X131174180Y-70969498D01*
X131054482Y-70933188D01*
X130930000Y-70920928D01*
X130073101Y-70920928D01*
X130064974Y-70905724D01*
X130032373Y-70866000D01*
X147828000Y-70866000D01*
X147852776Y-70863560D01*
X147876601Y-70856333D01*
X147898557Y-70844597D01*
X147917803Y-70828803D01*
X147933597Y-70809557D01*
X147945333Y-70787601D01*
X147952560Y-70763776D01*
X147955000Y-70739000D01*
X147955000Y-64795000D01*
X153454095Y-64795000D01*
X153459853Y-64797468D01*
G36*
X150272815Y-93980000D02*
G01*
X150301487Y-94271111D01*
X150386401Y-94551034D01*
X150524294Y-94809014D01*
X150709866Y-95035134D01*
X150935986Y-95220706D01*
X151005000Y-95257595D01*
X151005000Y-95409990D01*
X149448363Y-95409990D01*
X149487259Y-95337220D01*
X149549300Y-95132697D01*
X149570249Y-94920000D01*
X149549300Y-94707303D01*
X149487259Y-94502780D01*
X149417446Y-94372169D01*
X149472247Y-94355546D01*
X149604276Y-94284974D01*
X149720001Y-94190001D01*
X149743804Y-94160997D01*
X149926801Y-93978000D01*
X150273012Y-93978000D01*
X150272815Y-93980000D01*
X150272815Y-93980000D01*
G37*
X150272815Y-93980000D02*
X150301487Y-94271111D01*
X150386401Y-94551034D01*
X150524294Y-94809014D01*
X150709866Y-95035134D01*
X150935986Y-95220706D01*
X151005000Y-95257595D01*
X151005000Y-95409990D01*
X149448363Y-95409990D01*
X149487259Y-95337220D01*
X149549300Y-95132697D01*
X149570249Y-94920000D01*
X149549300Y-94707303D01*
X149487259Y-94502780D01*
X149417446Y-94372169D01*
X149472247Y-94355546D01*
X149604276Y-94284974D01*
X149720001Y-94190001D01*
X149743804Y-94160997D01*
X149926801Y-93978000D01*
X150273012Y-93978000D01*
X150272815Y-93980000D01*
G36*
X126741201Y-94161003D02*
G01*
X126764999Y-94190001D01*
X126793997Y-94213799D01*
X126880723Y-94284974D01*
X127009900Y-94354021D01*
X127012753Y-94355546D01*
X127156014Y-94399003D01*
X127267667Y-94410000D01*
X127267677Y-94410000D01*
X127305000Y-94413676D01*
X127342323Y-94410000D01*
X127422333Y-94410000D01*
X127372741Y-94502780D01*
X127310700Y-94707303D01*
X127289751Y-94920000D01*
X127310700Y-95132697D01*
X127372741Y-95337220D01*
X127411637Y-95409990D01*
X126202792Y-95409990D01*
X125973168Y-95180366D01*
X126150134Y-95035134D01*
X126335706Y-94809014D01*
X126473599Y-94551034D01*
X126558513Y-94271111D01*
X126584765Y-94004567D01*
X126741201Y-94161003D01*
X126741201Y-94161003D01*
G37*
X126741201Y-94161003D02*
X126764999Y-94190001D01*
X126793997Y-94213799D01*
X126880723Y-94284974D01*
X127009900Y-94354021D01*
X127012753Y-94355546D01*
X127156014Y-94399003D01*
X127267667Y-94410000D01*
X127267677Y-94410000D01*
X127305000Y-94413676D01*
X127342323Y-94410000D01*
X127422333Y-94410000D01*
X127372741Y-94502780D01*
X127310700Y-94707303D01*
X127289751Y-94920000D01*
X127310700Y-95132697D01*
X127372741Y-95337220D01*
X127411637Y-95409990D01*
X126202792Y-95409990D01*
X125973168Y-95180366D01*
X126150134Y-95035134D01*
X126335706Y-94809014D01*
X126473599Y-94551034D01*
X126558513Y-94271111D01*
X126584765Y-94004567D01*
X126741201Y-94161003D01*
G36*
X153064294Y-92269014D02*
G01*
X153249866Y-92495134D01*
X153475986Y-92680706D01*
X153530791Y-92710000D01*
X153475986Y-92739294D01*
X153249866Y-92924866D01*
X153064294Y-93150986D01*
X153035000Y-93205791D01*
X153005706Y-93150986D01*
X152820134Y-92924866D01*
X152594014Y-92739294D01*
X152539209Y-92710000D01*
X152594014Y-92680706D01*
X152820134Y-92495134D01*
X153005706Y-92269014D01*
X153035000Y-92214209D01*
X153064294Y-92269014D01*
X153064294Y-92269014D01*
G37*
X153064294Y-92269014D02*
X153249866Y-92495134D01*
X153475986Y-92680706D01*
X153530791Y-92710000D01*
X153475986Y-92739294D01*
X153249866Y-92924866D01*
X153064294Y-93150986D01*
X153035000Y-93205791D01*
X153005706Y-93150986D01*
X152820134Y-92924866D01*
X152594014Y-92739294D01*
X152539209Y-92710000D01*
X152594014Y-92680706D01*
X152820134Y-92495134D01*
X153005706Y-92269014D01*
X153035000Y-92214209D01*
X153064294Y-92269014D01*
G36*
X153064294Y-89729014D02*
G01*
X153249866Y-89955134D01*
X153475986Y-90140706D01*
X153530791Y-90170000D01*
X153475986Y-90199294D01*
X153249866Y-90384866D01*
X153064294Y-90610986D01*
X153035000Y-90665791D01*
X153005706Y-90610986D01*
X152820134Y-90384866D01*
X152594014Y-90199294D01*
X152539209Y-90170000D01*
X152594014Y-90140706D01*
X152820134Y-89955134D01*
X153005706Y-89729014D01*
X153035000Y-89674209D01*
X153064294Y-89729014D01*
X153064294Y-89729014D01*
G37*
X153064294Y-89729014D02*
X153249866Y-89955134D01*
X153475986Y-90140706D01*
X153530791Y-90170000D01*
X153475986Y-90199294D01*
X153249866Y-90384866D01*
X153064294Y-90610986D01*
X153035000Y-90665791D01*
X153005706Y-90610986D01*
X152820134Y-90384866D01*
X152594014Y-90199294D01*
X152539209Y-90170000D01*
X152594014Y-90140706D01*
X152820134Y-89955134D01*
X153005706Y-89729014D01*
X153035000Y-89674209D01*
X153064294Y-89729014D01*
G36*
X153064294Y-87189014D02*
G01*
X153249866Y-87415134D01*
X153475986Y-87600706D01*
X153530791Y-87630000D01*
X153475986Y-87659294D01*
X153249866Y-87844866D01*
X153064294Y-88070986D01*
X153035000Y-88125791D01*
X153005706Y-88070986D01*
X152820134Y-87844866D01*
X152594014Y-87659294D01*
X152539209Y-87630000D01*
X152594014Y-87600706D01*
X152820134Y-87415134D01*
X153005706Y-87189014D01*
X153035000Y-87134209D01*
X153064294Y-87189014D01*
X153064294Y-87189014D01*
G37*
X153064294Y-87189014D02*
X153249866Y-87415134D01*
X153475986Y-87600706D01*
X153530791Y-87630000D01*
X153475986Y-87659294D01*
X153249866Y-87844866D01*
X153064294Y-88070986D01*
X153035000Y-88125791D01*
X153005706Y-88070986D01*
X152820134Y-87844866D01*
X152594014Y-87659294D01*
X152539209Y-87630000D01*
X152594014Y-87600706D01*
X152820134Y-87415134D01*
X153005706Y-87189014D01*
X153035000Y-87134209D01*
X153064294Y-87189014D01*
G36*
X126748001Y-86547803D02*
G01*
X126748001Y-86938199D01*
X126535797Y-86725995D01*
X126558513Y-86651111D01*
X126584765Y-86384567D01*
X126748001Y-86547803D01*
X126748001Y-86547803D01*
G37*
X126748001Y-86547803D02*
X126748001Y-86938199D01*
X126535797Y-86725995D01*
X126558513Y-86651111D01*
X126584765Y-86384567D01*
X126748001Y-86547803D01*
G36*
X153064294Y-84649014D02*
G01*
X153249866Y-84875134D01*
X153475986Y-85060706D01*
X153530791Y-85090000D01*
X153475986Y-85119294D01*
X153249866Y-85304866D01*
X153064294Y-85530986D01*
X153035000Y-85585791D01*
X153005706Y-85530986D01*
X152820134Y-85304866D01*
X152594014Y-85119294D01*
X152539209Y-85090000D01*
X152594014Y-85060706D01*
X152820134Y-84875134D01*
X153005706Y-84649014D01*
X153035000Y-84594209D01*
X153064294Y-84649014D01*
X153064294Y-84649014D01*
G37*
X153064294Y-84649014D02*
X153249866Y-84875134D01*
X153475986Y-85060706D01*
X153530791Y-85090000D01*
X153475986Y-85119294D01*
X153249866Y-85304866D01*
X153064294Y-85530986D01*
X153035000Y-85585791D01*
X153005706Y-85530986D01*
X152820134Y-85304866D01*
X152594014Y-85119294D01*
X152539209Y-85090000D01*
X152594014Y-85060706D01*
X152820134Y-84875134D01*
X153005706Y-84649014D01*
X153035000Y-84594209D01*
X153064294Y-84649014D01*
G36*
X127116201Y-83971003D02*
G01*
X127139999Y-84000001D01*
X127255724Y-84094974D01*
X127387753Y-84165546D01*
X127442554Y-84182169D01*
X127372741Y-84312780D01*
X127310700Y-84517303D01*
X127289751Y-84730000D01*
X127310700Y-84942697D01*
X127318625Y-84968824D01*
X126535797Y-84185996D01*
X126558513Y-84111111D01*
X126587185Y-83820000D01*
X126558513Y-83528889D01*
X126508188Y-83362989D01*
X127116201Y-83971003D01*
X127116201Y-83971003D01*
G37*
X127116201Y-83971003D02*
X127139999Y-84000001D01*
X127255724Y-84094974D01*
X127387753Y-84165546D01*
X127442554Y-84182169D01*
X127372741Y-84312780D01*
X127310700Y-84517303D01*
X127289751Y-84730000D01*
X127310700Y-84942697D01*
X127318625Y-84968824D01*
X126535797Y-84185996D01*
X126558513Y-84111111D01*
X126587185Y-83820000D01*
X126558513Y-83528889D01*
X126508188Y-83362989D01*
X127116201Y-83971003D01*
G36*
X153064294Y-82109014D02*
G01*
X153249866Y-82335134D01*
X153475986Y-82520706D01*
X153530791Y-82550000D01*
X153475986Y-82579294D01*
X153249866Y-82764866D01*
X153064294Y-82990986D01*
X153035000Y-83045791D01*
X153005706Y-82990986D01*
X152820134Y-82764866D01*
X152594014Y-82579294D01*
X152539209Y-82550000D01*
X152594014Y-82520706D01*
X152820134Y-82335134D01*
X153005706Y-82109014D01*
X153035000Y-82054209D01*
X153064294Y-82109014D01*
X153064294Y-82109014D01*
G37*
X153064294Y-82109014D02*
X153249866Y-82335134D01*
X153475986Y-82520706D01*
X153530791Y-82550000D01*
X153475986Y-82579294D01*
X153249866Y-82764866D01*
X153064294Y-82990986D01*
X153035000Y-83045791D01*
X153005706Y-82990986D01*
X152820134Y-82764866D01*
X152594014Y-82579294D01*
X152539209Y-82550000D01*
X152594014Y-82520706D01*
X152820134Y-82335134D01*
X153005706Y-82109014D01*
X153035000Y-82054209D01*
X153064294Y-82109014D01*
G36*
X127289751Y-79650000D02*
G01*
X127310700Y-79862697D01*
X127372741Y-80067220D01*
X127473491Y-80255710D01*
X127497529Y-80285000D01*
X127473491Y-80314290D01*
X127372741Y-80502780D01*
X127310700Y-80707303D01*
X127289751Y-80920000D01*
X127310700Y-81132697D01*
X127372741Y-81337220D01*
X127473491Y-81525710D01*
X127497529Y-81555000D01*
X127473491Y-81584290D01*
X127372741Y-81772780D01*
X127310700Y-81977303D01*
X127307668Y-82008085D01*
X127194276Y-81915026D01*
X127062247Y-81844454D01*
X126918986Y-81800997D01*
X126807333Y-81790000D01*
X126807322Y-81790000D01*
X126770000Y-81786324D01*
X126732678Y-81790000D01*
X126492114Y-81790000D01*
X126558513Y-81571111D01*
X126587185Y-81280000D01*
X126558513Y-80988889D01*
X126473599Y-80708966D01*
X126345497Y-80469304D01*
X127303402Y-79511400D01*
X127289751Y-79650000D01*
X127289751Y-79650000D01*
G37*
X127289751Y-79650000D02*
X127310700Y-79862697D01*
X127372741Y-80067220D01*
X127473491Y-80255710D01*
X127497529Y-80285000D01*
X127473491Y-80314290D01*
X127372741Y-80502780D01*
X127310700Y-80707303D01*
X127289751Y-80920000D01*
X127310700Y-81132697D01*
X127372741Y-81337220D01*
X127473491Y-81525710D01*
X127497529Y-81555000D01*
X127473491Y-81584290D01*
X127372741Y-81772780D01*
X127310700Y-81977303D01*
X127307668Y-82008085D01*
X127194276Y-81915026D01*
X127062247Y-81844454D01*
X126918986Y-81800997D01*
X126807333Y-81790000D01*
X126807322Y-81790000D01*
X126770000Y-81786324D01*
X126732678Y-81790000D01*
X126492114Y-81790000D01*
X126558513Y-81571111D01*
X126587185Y-81280000D01*
X126558513Y-80988889D01*
X126473599Y-80708966D01*
X126345497Y-80469304D01*
X127303402Y-79511400D01*
X127289751Y-79650000D01*
G36*
X153064294Y-79569014D02*
G01*
X153249866Y-79795134D01*
X153475986Y-79980706D01*
X153530791Y-80010000D01*
X153475986Y-80039294D01*
X153249866Y-80224866D01*
X153064294Y-80450986D01*
X153035000Y-80505791D01*
X153005706Y-80450986D01*
X152820134Y-80224866D01*
X152594014Y-80039294D01*
X152539209Y-80010000D01*
X152594014Y-79980706D01*
X152820134Y-79795134D01*
X153005706Y-79569014D01*
X153035000Y-79514209D01*
X153064294Y-79569014D01*
X153064294Y-79569014D01*
G37*
X153064294Y-79569014D02*
X153249866Y-79795134D01*
X153475986Y-79980706D01*
X153530791Y-80010000D01*
X153475986Y-80039294D01*
X153249866Y-80224866D01*
X153064294Y-80450986D01*
X153035000Y-80505791D01*
X153005706Y-80450986D01*
X152820134Y-80224866D01*
X152594014Y-80039294D01*
X152539209Y-80010000D01*
X152594014Y-79980706D01*
X152820134Y-79795134D01*
X153005706Y-79569014D01*
X153035000Y-79514209D01*
X153064294Y-79569014D01*
G36*
X149481000Y-79164945D02*
G01*
X149416509Y-79044290D01*
X149392471Y-79015000D01*
X149416509Y-78985710D01*
X149481001Y-78865055D01*
X149481000Y-79164945D01*
X149481000Y-79164945D01*
G37*
X149481000Y-79164945D02*
X149416509Y-79044290D01*
X149392471Y-79015000D01*
X149416509Y-78985710D01*
X149481001Y-78865055D01*
X149481000Y-79164945D01*
G36*
X153064294Y-77029014D02*
G01*
X153249866Y-77255134D01*
X153475986Y-77440706D01*
X153530791Y-77470000D01*
X153475986Y-77499294D01*
X153249866Y-77684866D01*
X153064294Y-77910986D01*
X153035000Y-77965791D01*
X153005706Y-77910986D01*
X152820134Y-77684866D01*
X152594014Y-77499294D01*
X152539209Y-77470000D01*
X152594014Y-77440706D01*
X152820134Y-77255134D01*
X153005706Y-77029014D01*
X153035000Y-76974209D01*
X153064294Y-77029014D01*
X153064294Y-77029014D01*
G37*
X153064294Y-77029014D02*
X153249866Y-77255134D01*
X153475986Y-77440706D01*
X153530791Y-77470000D01*
X153475986Y-77499294D01*
X153249866Y-77684866D01*
X153064294Y-77910986D01*
X153035000Y-77965791D01*
X153005706Y-77910986D01*
X152820134Y-77684866D01*
X152594014Y-77499294D01*
X152539209Y-77470000D01*
X152594014Y-77440706D01*
X152820134Y-77255134D01*
X153005706Y-77029014D01*
X153035000Y-76974209D01*
X153064294Y-77029014D01*
G36*
X126601751Y-76545545D02*
G01*
X126601753Y-76545546D01*
X126745014Y-76589003D01*
X126799961Y-76594415D01*
X126796196Y-76599003D01*
X126685199Y-76710000D01*
X126492114Y-76710000D01*
X126550337Y-76518063D01*
X126601751Y-76545545D01*
X126601751Y-76545545D01*
G37*
X126601751Y-76545545D02*
X126601753Y-76545546D01*
X126745014Y-76589003D01*
X126799961Y-76594415D01*
X126796196Y-76599003D01*
X126685199Y-76710000D01*
X126492114Y-76710000D01*
X126550337Y-76518063D01*
X126601751Y-76545545D01*
G36*
X153064294Y-74489014D02*
G01*
X153249866Y-74715134D01*
X153475986Y-74900706D01*
X153530791Y-74930000D01*
X153475986Y-74959294D01*
X153249866Y-75144866D01*
X153064294Y-75370986D01*
X153035000Y-75425791D01*
X153005706Y-75370986D01*
X152820134Y-75144866D01*
X152594014Y-74959294D01*
X152539209Y-74930000D01*
X152594014Y-74900706D01*
X152820134Y-74715134D01*
X153005706Y-74489014D01*
X153035000Y-74434209D01*
X153064294Y-74489014D01*
X153064294Y-74489014D01*
G37*
X153064294Y-74489014D02*
X153249866Y-74715134D01*
X153475986Y-74900706D01*
X153530791Y-74930000D01*
X153475986Y-74959294D01*
X153249866Y-75144866D01*
X153064294Y-75370986D01*
X153035000Y-75425791D01*
X153005706Y-75370986D01*
X152820134Y-75144866D01*
X152594014Y-74959294D01*
X152539209Y-74930000D01*
X152594014Y-74900706D01*
X152820134Y-74715134D01*
X153005706Y-74489014D01*
X153035000Y-74434209D01*
X153064294Y-74489014D01*
G36*
X126711201Y-73811002D02*
G01*
X126734999Y-73840001D01*
X126743734Y-73847169D01*
X126686753Y-73864454D01*
X126560396Y-73931994D01*
X126584765Y-73684567D01*
X126711201Y-73811002D01*
X126711201Y-73811002D01*
G37*
X126711201Y-73811002D02*
X126734999Y-73840001D01*
X126743734Y-73847169D01*
X126686753Y-73864454D01*
X126560396Y-73931994D01*
X126584765Y-73684567D01*
X126711201Y-73811002D01*
G36*
X153100506Y-72500537D02*
G01*
X153210820Y-72559502D01*
X153279687Y-72580393D01*
X153249866Y-72604866D01*
X153064294Y-72830986D01*
X153035000Y-72885791D01*
X153005706Y-72830986D01*
X152820134Y-72604866D01*
X152790313Y-72580393D01*
X152859180Y-72559502D01*
X152969494Y-72500537D01*
X153035000Y-72446778D01*
X153100506Y-72500537D01*
X153100506Y-72500537D01*
G37*
X153100506Y-72500537D02*
X153210820Y-72559502D01*
X153279687Y-72580393D01*
X153249866Y-72604866D01*
X153064294Y-72830986D01*
X153035000Y-72885791D01*
X153005706Y-72830986D01*
X152820134Y-72604866D01*
X152790313Y-72580393D01*
X152859180Y-72559502D01*
X152969494Y-72500537D01*
X153035000Y-72446778D01*
X153100506Y-72500537D01*
G36*
X127289751Y-72030000D02*
G01*
X127310700Y-72242697D01*
X127318626Y-72268824D01*
X127055803Y-72006002D01*
X127032001Y-71976999D01*
X126916276Y-71882026D01*
X126912486Y-71880000D01*
X127304525Y-71880000D01*
X127289751Y-72030000D01*
X127289751Y-72030000D01*
G37*
X127289751Y-72030000D02*
X127310700Y-72242697D01*
X127318626Y-72268824D01*
X127055803Y-72006002D01*
X127032001Y-71976999D01*
X126916276Y-71882026D01*
X126912486Y-71880000D01*
X127304525Y-71880000D01*
X127289751Y-72030000D01*
M02*
