%TF.GenerationSoftware,KiCad,Pcbnew,6.0.0*%
%TF.CreationDate,2022-01-15T20:08:09+00:00*%
%TF.ProjectId,amphenol-magjack,616d7068-656e-46f6-9c2d-6d61676a6163,rev?*%
%TF.SameCoordinates,Original*%
%TF.FileFunction,Copper,L2,Bot*%
%TF.FilePolarity,Positive*%
%FSLAX46Y46*%
G04 Gerber Fmt 4.6, Leading zero omitted, Abs format (unit mm)*
G04 Created by KiCad (PCBNEW 6.0.0) date 2022-01-15 20:08:09*
%MOMM*%
%LPD*%
G01*
G04 APERTURE LIST*
%TA.AperFunction,ComponentPad*%
%ADD10R,1.700000X1.700000*%
%TD*%
%TA.AperFunction,ComponentPad*%
%ADD11O,1.700000X1.700000*%
%TD*%
%TA.AperFunction,ComponentPad*%
%ADD12C,2.600000*%
%TD*%
%TA.AperFunction,ComponentPad*%
%ADD13C,1.890000*%
%TD*%
%TA.AperFunction,ComponentPad*%
%ADD14R,1.900000X1.900000*%
%TD*%
%TA.AperFunction,ComponentPad*%
%ADD15C,1.900000*%
%TD*%
%TA.AperFunction,ViaPad*%
%ADD16C,0.800000*%
%TD*%
%TA.AperFunction,Conductor*%
%ADD17C,0.250000*%
%TD*%
G04 APERTURE END LIST*
D10*
%TO.P,J1,1,Pin_1*%
%TO.N,GND*%
X165100000Y-81280000D03*
D11*
%TO.P,J1,2,Pin_2*%
%TO.N,/tct*%
X165100000Y-83820000D03*
%TO.P,J1,3,Pin_3*%
%TO.N,/td-*%
X165100000Y-86360000D03*
%TO.P,J1,4,Pin_4*%
%TO.N,/td+*%
X165100000Y-88900000D03*
%TO.P,J1,5,Pin_5*%
%TO.N,/ledg_a*%
X165100000Y-91440000D03*
%TO.P,J1,6,Pin_6*%
%TO.N,/ledg_k*%
X165100000Y-93980000D03*
%TD*%
D10*
%TO.P,J2,1,Pin_1*%
%TO.N,GND*%
X187960000Y-81280000D03*
D11*
%TO.P,J2,2,Pin_2*%
%TO.N,/rct*%
X187960000Y-83820000D03*
%TO.P,J2,3,Pin_3*%
%TO.N,/rd-*%
X187960000Y-86360000D03*
%TO.P,J2,4,Pin_4*%
%TO.N,/rd+*%
X187960000Y-88900000D03*
%TO.P,J2,5,Pin_5*%
%TO.N,/ledy_a*%
X187960000Y-91440000D03*
%TO.P,J2,6,Pin_6*%
%TO.N,/ledy_k*%
X187960000Y-93980000D03*
%TD*%
D12*
%TO.P,J3,13,SHIELD*%
%TO.N,GND*%
X184305000Y-87725000D03*
X168755000Y-87725000D03*
D13*
%TO.P,J3,L1,LEDY_A*%
%TO.N,/ledy_a*%
X182855000Y-94155000D03*
%TO.P,J3,L2,LEDY_K*%
%TO.N,/ledy_k*%
X180315000Y-95675000D03*
%TO.P,J3,L3,LEDG_K*%
%TO.N,/ledg_k*%
X172745000Y-94155000D03*
%TO.P,J3,L4,LEDG_A*%
%TO.N,/ledg_a*%
X170205000Y-95675000D03*
D14*
%TO.P,J3,R1,TD+*%
%TO.N,/td+*%
X172085000Y-84435000D03*
D15*
%TO.P,J3,R2,TD-*%
%TO.N,/td-*%
X173355000Y-81895000D03*
%TO.P,J3,R3,RD+*%
%TO.N,/rd+*%
X174625000Y-84435000D03*
%TO.P,J3,R4,TCT*%
%TO.N,/tct*%
X175895000Y-81895000D03*
%TO.P,J3,R5,RCT*%
%TO.N,/rct*%
X177165000Y-84435000D03*
%TO.P,J3,R6,RD-*%
%TO.N,/rd-*%
X178435000Y-81895000D03*
%TO.P,J3,R7,NC*%
%TO.N,unconnected-(J3-PadR7)*%
X179705000Y-84435000D03*
%TO.P,J3,R8,GND*%
%TO.N,GND*%
X180975000Y-81895000D03*
%TD*%
D16*
%TO.N,GND*%
X168275000Y-96012000D03*
X170180000Y-82296000D03*
%TD*%
D17*
%TO.N,GND*%
X187345000Y-81895000D02*
X187960000Y-81280000D01*
X168755000Y-84935000D02*
X165100000Y-81280000D01*
X168755000Y-87725000D02*
X168755000Y-84935000D01*
X168755000Y-87725000D02*
X184305000Y-87725000D01*
%TO.N,/rct*%
X182260489Y-85709511D02*
X184150000Y-83820000D01*
X178439511Y-85709511D02*
X182260489Y-85709511D01*
X177165000Y-84435000D02*
X178439511Y-85709511D01*
X184150000Y-83820000D02*
X187960000Y-83820000D01*
%TD*%
%TA.AperFunction,Conductor*%
%TO.N,GND*%
G36*
X187676057Y-80138500D02*
G01*
X187690858Y-80140805D01*
X187690861Y-80140805D01*
X187699730Y-80142186D01*
X187712378Y-80140532D01*
X187739692Y-80139948D01*
X187834695Y-80148259D01*
X187893502Y-80153405D01*
X187915130Y-80157219D01*
X188086282Y-80203080D01*
X188106920Y-80210591D01*
X188267510Y-80285475D01*
X188286530Y-80296457D01*
X188431679Y-80398091D01*
X188448504Y-80412209D01*
X188573791Y-80537496D01*
X188587909Y-80554321D01*
X188689543Y-80699470D01*
X188700525Y-80718490D01*
X188775409Y-80879080D01*
X188782920Y-80899718D01*
X188828781Y-81070870D01*
X188832596Y-81092501D01*
X188845449Y-81239419D01*
X188844896Y-81255879D01*
X188845305Y-81255884D01*
X188845196Y-81264856D01*
X188843814Y-81273730D01*
X188847981Y-81305591D01*
X188849044Y-81321783D01*
X188850292Y-82503795D01*
X188850337Y-82546050D01*
X188830407Y-82614192D01*
X188776800Y-82660741D01*
X188706537Y-82670919D01*
X188663443Y-82656491D01*
X188523320Y-82579139D01*
X188523316Y-82579137D01*
X188518789Y-82576638D01*
X188513920Y-82574914D01*
X188513916Y-82574912D01*
X188313087Y-82503795D01*
X188313083Y-82503794D01*
X188308212Y-82502069D01*
X188303119Y-82501162D01*
X188303116Y-82501161D01*
X188093373Y-82463800D01*
X188093367Y-82463799D01*
X188088284Y-82462894D01*
X188014452Y-82461992D01*
X187870081Y-82460228D01*
X187870079Y-82460228D01*
X187864911Y-82460165D01*
X187644091Y-82493955D01*
X187431756Y-82563357D01*
X187401443Y-82579137D01*
X187252848Y-82656491D01*
X187233607Y-82666507D01*
X187229474Y-82669610D01*
X187229471Y-82669612D01*
X187059100Y-82797530D01*
X187054965Y-82800635D01*
X187051393Y-82804373D01*
X186921183Y-82940630D01*
X186900629Y-82962138D01*
X186897715Y-82966410D01*
X186897714Y-82966411D01*
X186785095Y-83131504D01*
X186730184Y-83176507D01*
X186681007Y-83186500D01*
X184228767Y-83186500D01*
X184217584Y-83185973D01*
X184210091Y-83184298D01*
X184202165Y-83184547D01*
X184202164Y-83184547D01*
X184142014Y-83186438D01*
X184138055Y-83186500D01*
X184110144Y-83186500D01*
X184106210Y-83186997D01*
X184106209Y-83186997D01*
X184106144Y-83187005D01*
X184094307Y-83187938D01*
X184062049Y-83188952D01*
X184058030Y-83189078D01*
X184050111Y-83189327D01*
X184030657Y-83194979D01*
X184011300Y-83198987D01*
X183999070Y-83200532D01*
X183999069Y-83200532D01*
X183991203Y-83201526D01*
X183983832Y-83204445D01*
X183983830Y-83204445D01*
X183950088Y-83217804D01*
X183938858Y-83221649D01*
X183904017Y-83231771D01*
X183904016Y-83231771D01*
X183896407Y-83233982D01*
X183889588Y-83238015D01*
X183889583Y-83238017D01*
X183878972Y-83244293D01*
X183861224Y-83252988D01*
X183842383Y-83260448D01*
X183835967Y-83265110D01*
X183835966Y-83265110D01*
X183806613Y-83286436D01*
X183796693Y-83292952D01*
X183765465Y-83311420D01*
X183765462Y-83311422D01*
X183758638Y-83315458D01*
X183744317Y-83329779D01*
X183729284Y-83342619D01*
X183712893Y-83354528D01*
X183695168Y-83375954D01*
X183684702Y-83388605D01*
X183676712Y-83397384D01*
X182034989Y-85039106D01*
X181972677Y-85073132D01*
X181945894Y-85076011D01*
X181204627Y-85076011D01*
X181136506Y-85056009D01*
X181090013Y-85002353D01*
X181079909Y-84932079D01*
X181084068Y-84913383D01*
X181133944Y-84749220D01*
X181135447Y-84744274D01*
X181166752Y-84506492D01*
X181168499Y-84435000D01*
X181158786Y-84316857D01*
X181149271Y-84201124D01*
X181149270Y-84201118D01*
X181148847Y-84195973D01*
X181090420Y-83963364D01*
X181088364Y-83958634D01*
X181088361Y-83958627D01*
X180996847Y-83748159D01*
X180996845Y-83748156D01*
X180994787Y-83743422D01*
X180906591Y-83607091D01*
X180867325Y-83546396D01*
X180867323Y-83546393D01*
X180864515Y-83542053D01*
X180829184Y-83503224D01*
X180706582Y-83368487D01*
X180706580Y-83368486D01*
X180703104Y-83364665D01*
X180699053Y-83361466D01*
X180699049Y-83361462D01*
X180542740Y-83238017D01*
X180514888Y-83216021D01*
X180304922Y-83100113D01*
X180182458Y-83056746D01*
X180083720Y-83021781D01*
X180083716Y-83021780D01*
X180078845Y-83020055D01*
X180073752Y-83019148D01*
X180073749Y-83019147D01*
X179847816Y-82978902D01*
X179847810Y-82978901D01*
X179842727Y-82977996D01*
X179813724Y-82977642D01*
X179698301Y-82976231D01*
X179630430Y-82955398D01*
X179584596Y-82901178D01*
X179575352Y-82830786D01*
X179597518Y-82776714D01*
X179686445Y-82652958D01*
X179689463Y-82648758D01*
X179705884Y-82615534D01*
X179793433Y-82438392D01*
X179793434Y-82438390D01*
X179795727Y-82433750D01*
X179865447Y-82204274D01*
X179896752Y-81966492D01*
X179898499Y-81895000D01*
X179892001Y-81815970D01*
X179879271Y-81661124D01*
X179879270Y-81661118D01*
X179878847Y-81655973D01*
X179820420Y-81423364D01*
X179818364Y-81418634D01*
X179818361Y-81418627D01*
X179726847Y-81208159D01*
X179726845Y-81208156D01*
X179724787Y-81203422D01*
X179707574Y-81176814D01*
X179597325Y-81006396D01*
X179597323Y-81006393D01*
X179594515Y-81002053D01*
X179572861Y-80978255D01*
X179436582Y-80828487D01*
X179436580Y-80828486D01*
X179433104Y-80824665D01*
X179429053Y-80821466D01*
X179429049Y-80821462D01*
X179286014Y-80708500D01*
X179244888Y-80676021D01*
X179034922Y-80560113D01*
X178901904Y-80513009D01*
X178813720Y-80481781D01*
X178813716Y-80481780D01*
X178808845Y-80480055D01*
X178803752Y-80479148D01*
X178803749Y-80479147D01*
X178577816Y-80438902D01*
X178577810Y-80438901D01*
X178572727Y-80437996D01*
X178485460Y-80436930D01*
X178338081Y-80435129D01*
X178338079Y-80435129D01*
X178332911Y-80435066D01*
X178095837Y-80471343D01*
X177867871Y-80545854D01*
X177655136Y-80656597D01*
X177651003Y-80659700D01*
X177651000Y-80659702D01*
X177467480Y-80797493D01*
X177463345Y-80800598D01*
X177297648Y-80973990D01*
X177270410Y-81013920D01*
X177215502Y-81058920D01*
X177144977Y-81067091D01*
X177081230Y-81035837D01*
X177060535Y-81011357D01*
X177057329Y-81006401D01*
X177057322Y-81006392D01*
X177054515Y-81002053D01*
X177032861Y-80978255D01*
X176896582Y-80828487D01*
X176896580Y-80828486D01*
X176893104Y-80824665D01*
X176889053Y-80821466D01*
X176889049Y-80821462D01*
X176746014Y-80708500D01*
X176704888Y-80676021D01*
X176494922Y-80560113D01*
X176361904Y-80513009D01*
X176273720Y-80481781D01*
X176273716Y-80481780D01*
X176268845Y-80480055D01*
X176263752Y-80479148D01*
X176263749Y-80479147D01*
X176037816Y-80438902D01*
X176037810Y-80438901D01*
X176032727Y-80437996D01*
X175945460Y-80436930D01*
X175798081Y-80435129D01*
X175798079Y-80435129D01*
X175792911Y-80435066D01*
X175555837Y-80471343D01*
X175327871Y-80545854D01*
X175115136Y-80656597D01*
X175111003Y-80659700D01*
X175111000Y-80659702D01*
X174927480Y-80797493D01*
X174923345Y-80800598D01*
X174757648Y-80973990D01*
X174730410Y-81013920D01*
X174675502Y-81058920D01*
X174604977Y-81067091D01*
X174541230Y-81035837D01*
X174520535Y-81011357D01*
X174517329Y-81006401D01*
X174517322Y-81006392D01*
X174514515Y-81002053D01*
X174492861Y-80978255D01*
X174356582Y-80828487D01*
X174356580Y-80828486D01*
X174353104Y-80824665D01*
X174349053Y-80821466D01*
X174349049Y-80821462D01*
X174206014Y-80708500D01*
X174164888Y-80676021D01*
X173954922Y-80560113D01*
X173821904Y-80513009D01*
X173733720Y-80481781D01*
X173733716Y-80481780D01*
X173728845Y-80480055D01*
X173723752Y-80479148D01*
X173723749Y-80479147D01*
X173497816Y-80438902D01*
X173497810Y-80438901D01*
X173492727Y-80437996D01*
X173405460Y-80436930D01*
X173258081Y-80435129D01*
X173258079Y-80435129D01*
X173252911Y-80435066D01*
X173015837Y-80471343D01*
X172787871Y-80545854D01*
X172575136Y-80656597D01*
X172571003Y-80659700D01*
X172571000Y-80659702D01*
X172387480Y-80797493D01*
X172383345Y-80800598D01*
X172217648Y-80973990D01*
X172082495Y-81172117D01*
X172033639Y-81277368D01*
X172009520Y-81329328D01*
X171981516Y-81389656D01*
X171917424Y-81620768D01*
X171891938Y-81859244D01*
X171905744Y-82098680D01*
X171958470Y-82332646D01*
X172048702Y-82554859D01*
X172174014Y-82759351D01*
X172181508Y-82768002D01*
X172210992Y-82832585D01*
X172200879Y-82902857D01*
X172154379Y-82956507D01*
X172086272Y-82976500D01*
X171086866Y-82976500D01*
X171024684Y-82983255D01*
X170888295Y-83034385D01*
X170771739Y-83121739D01*
X170684385Y-83238295D01*
X170633255Y-83374684D01*
X170626500Y-83436866D01*
X170626500Y-85433134D01*
X170633255Y-85495316D01*
X170684385Y-85631705D01*
X170771739Y-85748261D01*
X170888295Y-85835615D01*
X171024684Y-85886745D01*
X171086866Y-85893500D01*
X173083134Y-85893500D01*
X173145316Y-85886745D01*
X173281705Y-85835615D01*
X173398261Y-85748261D01*
X173485615Y-85631705D01*
X173494026Y-85609270D01*
X173536666Y-85552505D01*
X173603228Y-85527804D01*
X173672577Y-85543011D01*
X173692492Y-85556553D01*
X173739011Y-85595173D01*
X173785571Y-85633828D01*
X173992643Y-85754831D01*
X174216697Y-85840389D01*
X174221763Y-85841420D01*
X174221764Y-85841420D01*
X174278039Y-85852869D01*
X174451716Y-85888204D01*
X174586089Y-85893131D01*
X174686225Y-85896803D01*
X174686229Y-85896803D01*
X174691389Y-85896992D01*
X174696509Y-85896336D01*
X174696511Y-85896336D01*
X174924151Y-85867175D01*
X174924152Y-85867175D01*
X174929279Y-85866518D01*
X175012935Y-85841420D01*
X175154042Y-85799086D01*
X175154047Y-85799084D01*
X175158997Y-85797599D01*
X175374374Y-85692087D01*
X175378579Y-85689087D01*
X175378585Y-85689084D01*
X175471516Y-85622796D01*
X175569627Y-85552815D01*
X175739511Y-85383523D01*
X175742527Y-85379326D01*
X175790332Y-85312798D01*
X175846327Y-85269150D01*
X175917030Y-85262704D01*
X175979995Y-85295507D01*
X175987873Y-85303806D01*
X176141043Y-85480630D01*
X176232493Y-85556553D01*
X176312882Y-85623293D01*
X176325571Y-85633828D01*
X176532643Y-85754831D01*
X176756697Y-85840389D01*
X176761763Y-85841420D01*
X176761764Y-85841420D01*
X176818039Y-85852869D01*
X176991716Y-85888204D01*
X177126089Y-85893131D01*
X177226225Y-85896803D01*
X177226229Y-85896803D01*
X177231389Y-85896992D01*
X177236509Y-85896336D01*
X177236511Y-85896336D01*
X177464151Y-85867175D01*
X177464152Y-85867175D01*
X177469279Y-85866518D01*
X177474230Y-85865033D01*
X177474233Y-85865032D01*
X177575142Y-85834758D01*
X177646137Y-85834342D01*
X177700444Y-85866349D01*
X177935859Y-86101764D01*
X177943399Y-86110050D01*
X177947511Y-86116529D01*
X177953288Y-86121954D01*
X177997162Y-86163154D01*
X178000004Y-86165909D01*
X178019741Y-86185646D01*
X178022938Y-86188126D01*
X178031958Y-86195829D01*
X178064190Y-86226097D01*
X178071136Y-86229916D01*
X178071139Y-86229918D01*
X178081945Y-86235859D01*
X178098464Y-86246710D01*
X178114470Y-86259125D01*
X178121739Y-86262270D01*
X178121743Y-86262273D01*
X178155048Y-86276685D01*
X178165698Y-86281902D01*
X178204451Y-86303206D01*
X178212126Y-86305177D01*
X178212127Y-86305177D01*
X178224073Y-86308244D01*
X178242778Y-86314648D01*
X178261366Y-86322692D01*
X178269189Y-86323931D01*
X178269199Y-86323934D01*
X178305035Y-86329610D01*
X178316655Y-86332016D01*
X178348470Y-86340184D01*
X178359481Y-86343011D01*
X178379735Y-86343011D01*
X178399445Y-86344562D01*
X178419454Y-86347731D01*
X178427346Y-86346985D01*
X178446091Y-86345213D01*
X178463473Y-86343570D01*
X178475330Y-86343011D01*
X182181722Y-86343011D01*
X182192905Y-86343538D01*
X182200398Y-86345213D01*
X182208324Y-86344964D01*
X182208325Y-86344964D01*
X182268475Y-86343073D01*
X182272434Y-86343011D01*
X182300345Y-86343011D01*
X182304280Y-86342514D01*
X182304345Y-86342506D01*
X182316182Y-86341573D01*
X182348440Y-86340559D01*
X182352459Y-86340433D01*
X182360378Y-86340184D01*
X182379832Y-86334532D01*
X182399189Y-86330524D01*
X182411419Y-86328979D01*
X182411420Y-86328979D01*
X182419286Y-86327985D01*
X182426657Y-86325066D01*
X182426659Y-86325066D01*
X182460401Y-86311707D01*
X182471631Y-86307862D01*
X182506472Y-86297740D01*
X182506473Y-86297740D01*
X182514082Y-86295529D01*
X182520901Y-86291496D01*
X182520906Y-86291494D01*
X182531517Y-86285218D01*
X182549265Y-86276523D01*
X182568106Y-86269063D01*
X182603876Y-86243075D01*
X182613796Y-86236559D01*
X182645024Y-86218091D01*
X182645027Y-86218089D01*
X182651851Y-86214053D01*
X182666172Y-86199732D01*
X182681206Y-86186891D01*
X182691183Y-86179642D01*
X182697596Y-86174983D01*
X182725787Y-86140906D01*
X182733777Y-86132127D01*
X184375500Y-84490405D01*
X184437812Y-84456379D01*
X184464595Y-84453500D01*
X186684274Y-84453500D01*
X186752395Y-84473502D01*
X186791707Y-84513665D01*
X186859987Y-84625088D01*
X187006250Y-84793938D01*
X187178126Y-84936632D01*
X187241646Y-84973750D01*
X187251445Y-84979476D01*
X187300169Y-85031114D01*
X187313240Y-85100897D01*
X187286509Y-85166669D01*
X187246055Y-85200027D01*
X187233607Y-85206507D01*
X187229474Y-85209610D01*
X187229471Y-85209612D01*
X187059100Y-85337530D01*
X187054965Y-85340635D01*
X187051393Y-85344373D01*
X186914656Y-85487460D01*
X186900629Y-85502138D01*
X186897715Y-85506410D01*
X186897714Y-85506411D01*
X186817983Y-85623293D01*
X186774743Y-85686680D01*
X186742253Y-85756674D01*
X186691955Y-85865033D01*
X186680688Y-85889305D01*
X186620989Y-86104570D01*
X186597251Y-86326695D01*
X186597548Y-86331848D01*
X186597548Y-86331851D01*
X186603011Y-86426590D01*
X186610110Y-86549715D01*
X186611247Y-86554761D01*
X186611248Y-86554767D01*
X186631119Y-86642939D01*
X186659222Y-86767639D01*
X186743266Y-86974616D01*
X186859987Y-87165088D01*
X187006250Y-87333938D01*
X187178126Y-87476632D01*
X187248595Y-87517811D01*
X187251445Y-87519476D01*
X187300169Y-87571114D01*
X187313240Y-87640897D01*
X187286509Y-87706669D01*
X187246055Y-87740027D01*
X187233607Y-87746507D01*
X187229474Y-87749610D01*
X187229471Y-87749612D01*
X187059100Y-87877530D01*
X187054965Y-87880635D01*
X186900629Y-88042138D01*
X186774743Y-88226680D01*
X186680688Y-88429305D01*
X186620989Y-88644570D01*
X186597251Y-88866695D01*
X186597548Y-88871848D01*
X186597548Y-88871851D01*
X186603011Y-88966590D01*
X186610110Y-89089715D01*
X186611247Y-89094761D01*
X186611248Y-89094767D01*
X186618573Y-89127269D01*
X186659222Y-89307639D01*
X186743266Y-89514616D01*
X186859987Y-89705088D01*
X187006250Y-89873938D01*
X187178126Y-90016632D01*
X187243349Y-90054745D01*
X187251445Y-90059476D01*
X187300169Y-90111114D01*
X187313240Y-90180897D01*
X187286509Y-90246669D01*
X187246055Y-90280027D01*
X187233607Y-90286507D01*
X187229474Y-90289610D01*
X187229471Y-90289612D01*
X187140293Y-90356569D01*
X187054965Y-90420635D01*
X186900629Y-90582138D01*
X186897715Y-90586410D01*
X186897714Y-90586411D01*
X186875906Y-90618381D01*
X186774743Y-90766680D01*
X186680688Y-90969305D01*
X186620989Y-91184570D01*
X186597251Y-91406695D01*
X186597548Y-91411848D01*
X186597548Y-91411851D01*
X186602822Y-91503315D01*
X186610110Y-91629715D01*
X186611247Y-91634761D01*
X186611248Y-91634767D01*
X186631119Y-91722939D01*
X186659222Y-91847639D01*
X186743266Y-92054616D01*
X186745965Y-92059020D01*
X186844081Y-92219131D01*
X186859987Y-92245088D01*
X187006250Y-92413938D01*
X187178126Y-92556632D01*
X187226385Y-92584832D01*
X187251445Y-92599476D01*
X187300169Y-92651114D01*
X187313240Y-92720897D01*
X187286509Y-92786669D01*
X187246055Y-92820027D01*
X187233607Y-92826507D01*
X187229474Y-92829610D01*
X187229471Y-92829612D01*
X187070999Y-92948596D01*
X187054965Y-92960635D01*
X187051393Y-92964373D01*
X186929279Y-93092158D01*
X186900629Y-93122138D01*
X186897715Y-93126410D01*
X186897714Y-93126411D01*
X186819260Y-93241421D01*
X186774743Y-93306680D01*
X186759003Y-93340590D01*
X186698688Y-93470528D01*
X186680688Y-93509305D01*
X186620989Y-93724570D01*
X186597251Y-93946695D01*
X186597548Y-93951848D01*
X186597548Y-93951851D01*
X186603011Y-94046590D01*
X186610110Y-94169715D01*
X186611247Y-94174761D01*
X186611248Y-94174767D01*
X186632275Y-94268069D01*
X186659222Y-94387639D01*
X186697461Y-94481811D01*
X186740616Y-94588089D01*
X186743266Y-94594616D01*
X186859987Y-94785088D01*
X187006250Y-94953938D01*
X187178126Y-95096632D01*
X187371000Y-95209338D01*
X187579692Y-95289030D01*
X187584760Y-95290061D01*
X187584763Y-95290062D01*
X187692017Y-95311883D01*
X187798597Y-95333567D01*
X187803772Y-95333757D01*
X187803774Y-95333757D01*
X188016673Y-95341564D01*
X188016677Y-95341564D01*
X188021837Y-95341753D01*
X188026957Y-95341097D01*
X188026959Y-95341097D01*
X188238288Y-95314025D01*
X188238289Y-95314025D01*
X188243416Y-95313368D01*
X188248366Y-95311883D01*
X188452429Y-95250661D01*
X188452434Y-95250659D01*
X188457384Y-95249174D01*
X188657994Y-95150896D01*
X188664590Y-95146191D01*
X188665713Y-95145801D01*
X188666648Y-95145244D01*
X188666763Y-95145437D01*
X188731664Y-95122918D01*
X188800672Y-95139603D01*
X188849705Y-95190948D01*
X188863757Y-95248638D01*
X188864211Y-95678365D01*
X188865388Y-96791987D01*
X188865451Y-96851875D01*
X188863952Y-96871385D01*
X188860317Y-96894730D01*
X188861957Y-96907270D01*
X188862919Y-96914626D01*
X188863849Y-96936784D01*
X188847352Y-97293597D01*
X188846278Y-97305186D01*
X188792785Y-97688666D01*
X188790646Y-97700106D01*
X188702000Y-98077007D01*
X188698815Y-98088201D01*
X188575769Y-98455317D01*
X188571565Y-98466169D01*
X188415169Y-98820373D01*
X188409981Y-98830791D01*
X188221578Y-99169039D01*
X188215452Y-99178934D01*
X187996633Y-99498370D01*
X187989619Y-99507658D01*
X187742259Y-99805543D01*
X187734418Y-99814143D01*
X187460646Y-100087915D01*
X187452046Y-100095756D01*
X187154161Y-100343116D01*
X187144873Y-100350130D01*
X186825437Y-100568949D01*
X186815542Y-100575075D01*
X186477294Y-100763478D01*
X186466876Y-100768666D01*
X186112672Y-100925062D01*
X186101820Y-100929266D01*
X185918262Y-100990789D01*
X185734695Y-101052315D01*
X185723519Y-101055495D01*
X185475305Y-101113874D01*
X185346609Y-101144143D01*
X185335169Y-101146282D01*
X184951689Y-101199775D01*
X184940100Y-101200849D01*
X184590687Y-101217003D01*
X184565488Y-101215638D01*
X184562645Y-101215195D01*
X184562643Y-101215195D01*
X184553773Y-101213814D01*
X184544871Y-101214978D01*
X184544868Y-101214978D01*
X184522252Y-101217936D01*
X184505914Y-101219000D01*
X168578328Y-101219000D01*
X168558943Y-101217500D01*
X168544142Y-101215195D01*
X168544139Y-101215195D01*
X168535270Y-101213814D01*
X168516105Y-101216320D01*
X168515374Y-101216416D01*
X168493216Y-101217346D01*
X168136403Y-101200849D01*
X168124814Y-101199775D01*
X167741334Y-101146282D01*
X167729894Y-101144143D01*
X167601198Y-101113874D01*
X167352984Y-101055495D01*
X167341808Y-101052315D01*
X167158241Y-100990789D01*
X166974683Y-100929266D01*
X166963831Y-100925062D01*
X166609627Y-100768666D01*
X166599209Y-100763478D01*
X166260961Y-100575075D01*
X166251066Y-100568949D01*
X165931630Y-100350130D01*
X165922342Y-100343116D01*
X165624457Y-100095756D01*
X165615857Y-100087915D01*
X165342085Y-99814143D01*
X165334244Y-99805543D01*
X165086884Y-99507658D01*
X165079870Y-99498370D01*
X164861051Y-99178934D01*
X164854925Y-99169039D01*
X164666522Y-98830791D01*
X164661334Y-98820373D01*
X164504938Y-98466169D01*
X164500734Y-98455317D01*
X164377688Y-98088201D01*
X164374503Y-98077007D01*
X164285857Y-97700106D01*
X164283718Y-97688666D01*
X164230225Y-97305186D01*
X164229151Y-97293597D01*
X164212997Y-96944184D01*
X164214362Y-96918985D01*
X164214805Y-96916142D01*
X164214805Y-96916140D01*
X164216186Y-96907270D01*
X164214547Y-96894730D01*
X164212064Y-96875749D01*
X164211000Y-96859411D01*
X164211000Y-95639366D01*
X168746954Y-95639366D01*
X168747251Y-95644518D01*
X168747251Y-95644522D01*
X168753117Y-95746246D01*
X168760713Y-95877981D01*
X168761850Y-95883027D01*
X168761851Y-95883033D01*
X168783272Y-95978084D01*
X168813259Y-96111145D01*
X168815201Y-96115927D01*
X168815202Y-96115931D01*
X168856057Y-96216544D01*
X168903181Y-96332596D01*
X169028064Y-96536387D01*
X169184554Y-96717045D01*
X169368450Y-96869718D01*
X169372902Y-96872320D01*
X169372907Y-96872323D01*
X169570353Y-96987701D01*
X169574811Y-96990306D01*
X169798097Y-97075570D01*
X169803163Y-97076601D01*
X169803164Y-97076601D01*
X169859336Y-97088029D01*
X170032310Y-97123221D01*
X170166487Y-97128141D01*
X170265997Y-97131791D01*
X170266002Y-97131791D01*
X170271161Y-97131980D01*
X170276281Y-97131324D01*
X170276283Y-97131324D01*
X170503107Y-97102267D01*
X170503108Y-97102267D01*
X170508235Y-97101610D01*
X170595031Y-97075570D01*
X170732213Y-97034413D01*
X170737166Y-97032927D01*
X170951805Y-96927777D01*
X171010570Y-96885860D01*
X171142176Y-96791987D01*
X171142181Y-96791983D01*
X171146388Y-96788982D01*
X171315689Y-96620271D01*
X171455162Y-96426173D01*
X171561061Y-96211903D01*
X171593206Y-96106103D01*
X171629039Y-95988165D01*
X171629040Y-95988159D01*
X171630543Y-95983213D01*
X171661740Y-95746246D01*
X171663481Y-95675000D01*
X171660551Y-95639366D01*
X178856954Y-95639366D01*
X178857251Y-95644518D01*
X178857251Y-95644522D01*
X178863117Y-95746246D01*
X178870713Y-95877981D01*
X178871850Y-95883027D01*
X178871851Y-95883033D01*
X178893272Y-95978084D01*
X178923259Y-96111145D01*
X178925201Y-96115927D01*
X178925202Y-96115931D01*
X178966057Y-96216544D01*
X179013181Y-96332596D01*
X179138064Y-96536387D01*
X179294554Y-96717045D01*
X179478450Y-96869718D01*
X179482902Y-96872320D01*
X179482907Y-96872323D01*
X179680353Y-96987701D01*
X179684811Y-96990306D01*
X179908097Y-97075570D01*
X179913163Y-97076601D01*
X179913164Y-97076601D01*
X179969336Y-97088029D01*
X180142310Y-97123221D01*
X180276487Y-97128141D01*
X180375997Y-97131791D01*
X180376002Y-97131791D01*
X180381161Y-97131980D01*
X180386281Y-97131324D01*
X180386283Y-97131324D01*
X180613107Y-97102267D01*
X180613108Y-97102267D01*
X180618235Y-97101610D01*
X180705031Y-97075570D01*
X180842213Y-97034413D01*
X180847166Y-97032927D01*
X181061805Y-96927777D01*
X181120570Y-96885860D01*
X181252176Y-96791987D01*
X181252181Y-96791983D01*
X181256388Y-96788982D01*
X181425689Y-96620271D01*
X181565162Y-96426173D01*
X181671061Y-96211903D01*
X181703206Y-96106103D01*
X181739039Y-95988165D01*
X181739040Y-95988159D01*
X181740543Y-95983213D01*
X181771740Y-95746246D01*
X181773481Y-95675000D01*
X181753897Y-95436792D01*
X181750472Y-95423157D01*
X181753274Y-95352215D01*
X181793986Y-95294051D01*
X181859680Y-95267130D01*
X181929501Y-95280000D01*
X181953159Y-95295513D01*
X182008066Y-95341097D01*
X182018450Y-95349718D01*
X182022902Y-95352320D01*
X182022907Y-95352323D01*
X182144125Y-95423157D01*
X182224811Y-95470306D01*
X182448097Y-95555570D01*
X182453163Y-95556601D01*
X182453164Y-95556601D01*
X182509336Y-95568029D01*
X182682310Y-95603221D01*
X182816487Y-95608141D01*
X182915997Y-95611791D01*
X182916002Y-95611791D01*
X182921161Y-95611980D01*
X182926281Y-95611324D01*
X182926283Y-95611324D01*
X183153107Y-95582267D01*
X183153108Y-95582267D01*
X183158235Y-95581610D01*
X183245031Y-95555570D01*
X183382213Y-95514413D01*
X183387166Y-95512927D01*
X183601805Y-95407777D01*
X183646883Y-95375623D01*
X183792176Y-95271987D01*
X183792181Y-95271983D01*
X183796388Y-95268982D01*
X183965689Y-95100271D01*
X184022527Y-95021173D01*
X184102144Y-94910373D01*
X184105162Y-94906173D01*
X184211061Y-94691903D01*
X184242074Y-94589829D01*
X184279039Y-94468165D01*
X184279040Y-94468159D01*
X184280543Y-94463213D01*
X184306423Y-94266632D01*
X184311303Y-94229567D01*
X184311303Y-94229563D01*
X184311740Y-94226246D01*
X184312998Y-94174767D01*
X184313399Y-94158365D01*
X184313399Y-94158361D01*
X184313481Y-94155000D01*
X184293897Y-93916792D01*
X184255147Y-93762522D01*
X184236928Y-93689989D01*
X184236927Y-93689985D01*
X184235670Y-93684982D01*
X184140364Y-93465794D01*
X184120181Y-93434595D01*
X184040466Y-93311375D01*
X184010539Y-93265115D01*
X183849682Y-93088335D01*
X183845631Y-93085136D01*
X183845627Y-93085132D01*
X183666165Y-92943401D01*
X183666160Y-92943397D01*
X183662111Y-92940200D01*
X183657595Y-92937707D01*
X183657592Y-92937705D01*
X183457389Y-92827187D01*
X183457385Y-92827185D01*
X183452865Y-92824690D01*
X183447992Y-92822964D01*
X183447989Y-92822963D01*
X183422555Y-92813957D01*
X183407812Y-92808736D01*
X183350275Y-92767143D01*
X183324359Y-92701045D01*
X183338292Y-92631429D01*
X183377420Y-92586876D01*
X183587287Y-92439379D01*
X183587293Y-92439374D01*
X183590792Y-92436915D01*
X183712853Y-92323489D01*
X183800745Y-92241815D01*
X183800748Y-92241812D01*
X183803888Y-92238894D01*
X183814895Y-92225447D01*
X183985423Y-92017102D01*
X183988139Y-92013784D01*
X184140133Y-91765752D01*
X184148869Y-91745852D01*
X184252440Y-91509908D01*
X184257059Y-91499386D01*
X184263073Y-91478276D01*
X184284925Y-91401562D01*
X184336754Y-91219616D01*
X184337790Y-91212342D01*
X184377137Y-90935870D01*
X184377742Y-90931619D01*
X184379265Y-90640723D01*
X184374994Y-90608277D01*
X184341855Y-90356569D01*
X184341295Y-90352313D01*
X184327560Y-90302104D01*
X184275311Y-90111114D01*
X184264535Y-90071724D01*
X184252726Y-90044038D01*
X184152090Y-89808100D01*
X184152088Y-89808096D01*
X184150404Y-89804148D01*
X184001015Y-89554538D01*
X183986337Y-89536216D01*
X183821823Y-89330869D01*
X183819133Y-89327511D01*
X183608122Y-89127269D01*
X183371887Y-88957517D01*
X183256921Y-88896646D01*
X183118587Y-88823402D01*
X183118586Y-88823401D01*
X183114800Y-88821397D01*
X183110777Y-88819925D01*
X183110773Y-88819923D01*
X182845649Y-88722901D01*
X182845647Y-88722900D01*
X182841618Y-88721426D01*
X182557396Y-88659456D01*
X182513598Y-88656009D01*
X182331703Y-88641693D01*
X182331696Y-88641693D01*
X182329247Y-88641500D01*
X182171879Y-88641500D01*
X182169743Y-88641646D01*
X182169732Y-88641646D01*
X181959051Y-88656009D01*
X181959045Y-88656010D01*
X181954774Y-88656301D01*
X181950579Y-88657170D01*
X181950577Y-88657170D01*
X181935130Y-88660369D01*
X181669919Y-88715291D01*
X181395705Y-88812395D01*
X181137207Y-88945816D01*
X181133706Y-88948277D01*
X181133702Y-88948279D01*
X181018208Y-89029450D01*
X180899208Y-89113085D01*
X180896067Y-89116004D01*
X180695270Y-89302596D01*
X180686112Y-89311106D01*
X180683398Y-89314422D01*
X180683395Y-89314425D01*
X180608071Y-89406453D01*
X180501861Y-89536216D01*
X180349867Y-89784248D01*
X180348148Y-89788165D01*
X180348146Y-89788168D01*
X180296542Y-89905727D01*
X180232941Y-90050614D01*
X180231765Y-90054742D01*
X180231764Y-90054745D01*
X180220150Y-90095516D01*
X180153246Y-90330384D01*
X180152642Y-90334626D01*
X180152641Y-90334632D01*
X180117948Y-90578401D01*
X180112258Y-90618381D01*
X180110735Y-90909277D01*
X180148705Y-91197687D01*
X180225465Y-91478276D01*
X180227149Y-91482224D01*
X180329823Y-91722939D01*
X180339596Y-91745852D01*
X180488985Y-91995462D01*
X180491669Y-91998813D01*
X180491671Y-91998815D01*
X180506322Y-92017102D01*
X180670867Y-92222489D01*
X180772876Y-92319292D01*
X180876092Y-92417240D01*
X180881878Y-92422731D01*
X181118113Y-92592483D01*
X181375200Y-92728603D01*
X181379223Y-92730075D01*
X181379227Y-92730077D01*
X181643228Y-92826688D01*
X181648382Y-92828574D01*
X181812675Y-92864395D01*
X181874970Y-92898450D01*
X181908965Y-92960778D01*
X181903867Y-93031591D01*
X181876926Y-93074553D01*
X181721547Y-93237148D01*
X181718633Y-93241420D01*
X181718632Y-93241421D01*
X181589777Y-93430315D01*
X181589774Y-93430320D01*
X181586858Y-93434595D01*
X181486226Y-93651389D01*
X181422353Y-93881708D01*
X181421804Y-93886845D01*
X181404732Y-94046590D01*
X181396954Y-94119366D01*
X181397251Y-94124518D01*
X181397251Y-94124522D01*
X181405814Y-94273023D01*
X181410713Y-94357981D01*
X181411851Y-94363029D01*
X181411851Y-94363032D01*
X181422999Y-94412497D01*
X181418463Y-94483348D01*
X181376342Y-94540500D01*
X181310008Y-94565806D01*
X181240524Y-94551233D01*
X181221990Y-94539080D01*
X181126164Y-94463401D01*
X181122111Y-94460200D01*
X181117595Y-94457707D01*
X181117592Y-94457705D01*
X180917389Y-94347187D01*
X180917385Y-94347185D01*
X180912865Y-94344690D01*
X180907996Y-94342966D01*
X180907992Y-94342964D01*
X180692438Y-94266632D01*
X180692434Y-94266631D01*
X180687563Y-94264906D01*
X180682473Y-94263999D01*
X180682468Y-94263998D01*
X180457344Y-94223898D01*
X180457338Y-94223897D01*
X180452255Y-94222992D01*
X180360937Y-94221876D01*
X180218431Y-94220135D01*
X180218429Y-94220135D01*
X180213262Y-94220072D01*
X179977000Y-94256225D01*
X179749816Y-94330480D01*
X179745228Y-94332868D01*
X179745224Y-94332870D01*
X179640014Y-94387639D01*
X179537810Y-94440843D01*
X179533677Y-94443946D01*
X179533674Y-94443948D01*
X179350811Y-94581246D01*
X179346676Y-94584351D01*
X179181547Y-94757148D01*
X179178633Y-94761420D01*
X179178632Y-94761421D01*
X179049777Y-94950315D01*
X179049774Y-94950320D01*
X179046858Y-94954595D01*
X179018175Y-95016387D01*
X178954682Y-95153173D01*
X178946226Y-95171389D01*
X178882353Y-95401708D01*
X178881804Y-95406845D01*
X178859881Y-95611980D01*
X178856954Y-95639366D01*
X171660551Y-95639366D01*
X171643897Y-95436792D01*
X171640472Y-95423157D01*
X171643274Y-95352215D01*
X171683986Y-95294051D01*
X171749680Y-95267130D01*
X171819501Y-95280000D01*
X171843159Y-95295513D01*
X171898066Y-95341097D01*
X171908450Y-95349718D01*
X171912902Y-95352320D01*
X171912907Y-95352323D01*
X172034125Y-95423157D01*
X172114811Y-95470306D01*
X172338097Y-95555570D01*
X172343163Y-95556601D01*
X172343164Y-95556601D01*
X172399336Y-95568029D01*
X172572310Y-95603221D01*
X172706487Y-95608141D01*
X172805997Y-95611791D01*
X172806002Y-95611791D01*
X172811161Y-95611980D01*
X172816281Y-95611324D01*
X172816283Y-95611324D01*
X173043107Y-95582267D01*
X173043108Y-95582267D01*
X173048235Y-95581610D01*
X173135031Y-95555570D01*
X173272213Y-95514413D01*
X173277166Y-95512927D01*
X173491805Y-95407777D01*
X173536883Y-95375623D01*
X173682176Y-95271987D01*
X173682181Y-95271983D01*
X173686388Y-95268982D01*
X173855689Y-95100271D01*
X173912527Y-95021173D01*
X173992144Y-94910373D01*
X173995162Y-94906173D01*
X174101061Y-94691903D01*
X174132074Y-94589829D01*
X174169039Y-94468165D01*
X174169040Y-94468159D01*
X174170543Y-94463213D01*
X174196423Y-94266632D01*
X174201303Y-94229567D01*
X174201303Y-94229563D01*
X174201740Y-94226246D01*
X174202998Y-94174767D01*
X174203399Y-94158365D01*
X174203399Y-94158361D01*
X174203481Y-94155000D01*
X174183897Y-93916792D01*
X174145147Y-93762522D01*
X174126928Y-93689989D01*
X174126927Y-93689985D01*
X174125670Y-93684982D01*
X174030364Y-93465794D01*
X174010181Y-93434595D01*
X173930466Y-93311375D01*
X173900539Y-93265115D01*
X173739682Y-93088335D01*
X173735631Y-93085136D01*
X173735627Y-93085132D01*
X173556165Y-92943401D01*
X173556160Y-92943397D01*
X173552111Y-92940200D01*
X173547595Y-92937707D01*
X173547592Y-92937705D01*
X173347389Y-92827187D01*
X173347385Y-92827185D01*
X173342865Y-92824690D01*
X173337996Y-92822966D01*
X173337992Y-92822964D01*
X173122438Y-92746632D01*
X173122434Y-92746631D01*
X173117563Y-92744906D01*
X173112473Y-92743999D01*
X173112468Y-92743998D01*
X172887344Y-92703898D01*
X172887338Y-92703897D01*
X172882255Y-92702992D01*
X172790937Y-92701876D01*
X172648431Y-92700135D01*
X172648429Y-92700135D01*
X172643262Y-92700072D01*
X172407000Y-92736225D01*
X172179816Y-92810480D01*
X172175228Y-92812868D01*
X172175224Y-92812870D01*
X171972399Y-92918454D01*
X171967810Y-92920843D01*
X171963677Y-92923946D01*
X171963674Y-92923948D01*
X171820308Y-93031591D01*
X171776676Y-93064351D01*
X171611547Y-93237148D01*
X171608633Y-93241420D01*
X171608632Y-93241421D01*
X171479777Y-93430315D01*
X171479774Y-93430320D01*
X171476858Y-93434595D01*
X171376226Y-93651389D01*
X171312353Y-93881708D01*
X171311804Y-93886845D01*
X171294732Y-94046590D01*
X171286954Y-94119366D01*
X171287251Y-94124518D01*
X171287251Y-94124522D01*
X171295814Y-94273023D01*
X171300713Y-94357981D01*
X171301851Y-94363029D01*
X171301851Y-94363032D01*
X171312999Y-94412497D01*
X171308463Y-94483348D01*
X171266342Y-94540500D01*
X171200008Y-94565806D01*
X171130524Y-94551233D01*
X171111990Y-94539080D01*
X171016164Y-94463401D01*
X171012111Y-94460200D01*
X171007595Y-94457707D01*
X171007592Y-94457705D01*
X170807389Y-94347187D01*
X170807385Y-94347185D01*
X170802865Y-94344690D01*
X170797996Y-94342966D01*
X170797992Y-94342964D01*
X170582438Y-94266632D01*
X170582434Y-94266631D01*
X170577563Y-94264906D01*
X170572473Y-94263999D01*
X170572468Y-94263998D01*
X170347344Y-94223898D01*
X170347338Y-94223897D01*
X170342255Y-94222992D01*
X170250937Y-94221876D01*
X170108431Y-94220135D01*
X170108429Y-94220135D01*
X170103262Y-94220072D01*
X169867000Y-94256225D01*
X169639816Y-94330480D01*
X169635228Y-94332868D01*
X169635224Y-94332870D01*
X169530014Y-94387639D01*
X169427810Y-94440843D01*
X169423677Y-94443946D01*
X169423674Y-94443948D01*
X169240811Y-94581246D01*
X169236676Y-94584351D01*
X169071547Y-94757148D01*
X169068633Y-94761420D01*
X169068632Y-94761421D01*
X168939777Y-94950315D01*
X168939774Y-94950320D01*
X168936858Y-94954595D01*
X168908175Y-95016387D01*
X168844682Y-95153173D01*
X168836226Y-95171389D01*
X168772353Y-95401708D01*
X168771804Y-95406845D01*
X168749881Y-95611980D01*
X168746954Y-95639366D01*
X164211000Y-95639366D01*
X164211000Y-95253596D01*
X164231002Y-95185475D01*
X164284658Y-95138982D01*
X164354932Y-95128878D01*
X164400569Y-95144808D01*
X164511000Y-95209338D01*
X164719692Y-95289030D01*
X164724760Y-95290061D01*
X164724763Y-95290062D01*
X164832017Y-95311883D01*
X164938597Y-95333567D01*
X164943772Y-95333757D01*
X164943774Y-95333757D01*
X165156673Y-95341564D01*
X165156677Y-95341564D01*
X165161837Y-95341753D01*
X165166957Y-95341097D01*
X165166959Y-95341097D01*
X165378288Y-95314025D01*
X165378289Y-95314025D01*
X165383416Y-95313368D01*
X165388366Y-95311883D01*
X165592429Y-95250661D01*
X165592434Y-95250659D01*
X165597384Y-95249174D01*
X165797994Y-95150896D01*
X165979860Y-95021173D01*
X166003493Y-94997623D01*
X166091048Y-94910373D01*
X166138096Y-94863489D01*
X166197594Y-94780689D01*
X166265435Y-94686277D01*
X166268453Y-94682077D01*
X166304899Y-94608335D01*
X166365136Y-94486453D01*
X166365137Y-94486451D01*
X166367430Y-94481811D01*
X166432370Y-94268069D01*
X166461529Y-94046590D01*
X166463156Y-93980000D01*
X166444852Y-93757361D01*
X166390431Y-93540702D01*
X166301354Y-93335840D01*
X166180014Y-93148277D01*
X166029670Y-92983051D01*
X166025619Y-92979852D01*
X166025615Y-92979848D01*
X165858414Y-92847800D01*
X165858410Y-92847798D01*
X165854359Y-92844598D01*
X165813053Y-92821796D01*
X165763084Y-92771364D01*
X165748312Y-92701921D01*
X165773428Y-92635516D01*
X165800780Y-92608909D01*
X165844603Y-92577650D01*
X165979860Y-92481173D01*
X166138096Y-92323489D01*
X166197594Y-92240689D01*
X166265435Y-92146277D01*
X166268453Y-92142077D01*
X166342736Y-91991777D01*
X166365136Y-91946453D01*
X166365137Y-91946451D01*
X166367430Y-91941811D01*
X166432370Y-91728069D01*
X166461529Y-91506590D01*
X166461806Y-91495255D01*
X166463074Y-91443365D01*
X166463074Y-91443361D01*
X166463156Y-91440000D01*
X166444852Y-91217361D01*
X166390431Y-91000702D01*
X166350678Y-90909277D01*
X168680735Y-90909277D01*
X168718705Y-91197687D01*
X168795465Y-91478276D01*
X168797149Y-91482224D01*
X168899823Y-91722939D01*
X168909596Y-91745852D01*
X169058985Y-91995462D01*
X169061669Y-91998813D01*
X169061671Y-91998815D01*
X169076322Y-92017102D01*
X169240867Y-92222489D01*
X169342876Y-92319292D01*
X169446092Y-92417240D01*
X169451878Y-92422731D01*
X169688113Y-92592483D01*
X169945200Y-92728603D01*
X169949223Y-92730075D01*
X169949227Y-92730077D01*
X170213228Y-92826688D01*
X170218382Y-92828574D01*
X170502604Y-92890544D01*
X170531650Y-92892830D01*
X170728297Y-92908307D01*
X170728304Y-92908307D01*
X170730753Y-92908500D01*
X170888121Y-92908500D01*
X170890257Y-92908354D01*
X170890268Y-92908354D01*
X171100949Y-92893991D01*
X171100955Y-92893990D01*
X171105226Y-92893699D01*
X171109421Y-92892830D01*
X171109423Y-92892830D01*
X171342328Y-92844598D01*
X171390081Y-92834709D01*
X171664295Y-92737605D01*
X171831868Y-92651114D01*
X171918986Y-92606149D01*
X171918987Y-92606149D01*
X171922793Y-92604184D01*
X171926294Y-92601723D01*
X171926298Y-92601721D01*
X172041792Y-92520550D01*
X172160792Y-92436915D01*
X172282853Y-92323489D01*
X172370745Y-92241815D01*
X172370748Y-92241812D01*
X172373888Y-92238894D01*
X172384895Y-92225447D01*
X172555423Y-92017102D01*
X172558139Y-92013784D01*
X172710133Y-91765752D01*
X172718869Y-91745852D01*
X172822440Y-91509908D01*
X172827059Y-91499386D01*
X172833073Y-91478276D01*
X172854925Y-91401562D01*
X172906754Y-91219616D01*
X172907790Y-91212342D01*
X172947137Y-90935870D01*
X172947742Y-90931619D01*
X172949265Y-90640723D01*
X172944994Y-90608277D01*
X172911855Y-90356569D01*
X172911295Y-90352313D01*
X172897560Y-90302104D01*
X172845311Y-90111114D01*
X172834535Y-90071724D01*
X172822726Y-90044038D01*
X172722090Y-89808100D01*
X172722088Y-89808096D01*
X172720404Y-89804148D01*
X172571015Y-89554538D01*
X172556337Y-89536216D01*
X172391823Y-89330869D01*
X172389133Y-89327511D01*
X172178122Y-89127269D01*
X171941887Y-88957517D01*
X171826921Y-88896646D01*
X171688587Y-88823402D01*
X171688586Y-88823401D01*
X171684800Y-88821397D01*
X171680777Y-88819925D01*
X171680773Y-88819923D01*
X171415649Y-88722901D01*
X171415647Y-88722900D01*
X171411618Y-88721426D01*
X171127396Y-88659456D01*
X171083598Y-88656009D01*
X170901703Y-88641693D01*
X170901696Y-88641693D01*
X170899247Y-88641500D01*
X170741879Y-88641500D01*
X170739743Y-88641646D01*
X170739732Y-88641646D01*
X170529051Y-88656009D01*
X170529045Y-88656010D01*
X170524774Y-88656301D01*
X170520579Y-88657170D01*
X170520577Y-88657170D01*
X170505130Y-88660369D01*
X170239919Y-88715291D01*
X169965705Y-88812395D01*
X169707207Y-88945816D01*
X169703706Y-88948277D01*
X169703702Y-88948279D01*
X169588208Y-89029450D01*
X169469208Y-89113085D01*
X169466067Y-89116004D01*
X169265270Y-89302596D01*
X169256112Y-89311106D01*
X169253398Y-89314422D01*
X169253395Y-89314425D01*
X169178071Y-89406453D01*
X169071861Y-89536216D01*
X168919867Y-89784248D01*
X168918148Y-89788165D01*
X168918146Y-89788168D01*
X168866542Y-89905727D01*
X168802941Y-90050614D01*
X168801765Y-90054742D01*
X168801764Y-90054745D01*
X168790150Y-90095516D01*
X168723246Y-90330384D01*
X168722642Y-90334626D01*
X168722641Y-90334632D01*
X168687948Y-90578401D01*
X168682258Y-90618381D01*
X168680735Y-90909277D01*
X166350678Y-90909277D01*
X166301354Y-90795840D01*
X166203777Y-90645009D01*
X166182822Y-90612617D01*
X166182820Y-90612614D01*
X166180014Y-90608277D01*
X166029670Y-90443051D01*
X166025619Y-90439852D01*
X166025615Y-90439848D01*
X165858414Y-90307800D01*
X165858410Y-90307798D01*
X165854359Y-90304598D01*
X165813053Y-90281796D01*
X165763084Y-90231364D01*
X165748312Y-90161921D01*
X165773428Y-90095516D01*
X165800780Y-90068909D01*
X165844603Y-90037650D01*
X165979860Y-89941173D01*
X166138096Y-89783489D01*
X166197594Y-89700689D01*
X166265435Y-89606277D01*
X166268453Y-89602077D01*
X166299198Y-89539870D01*
X166365136Y-89406453D01*
X166365137Y-89406451D01*
X166367430Y-89401811D01*
X166432370Y-89188069D01*
X166461529Y-88966590D01*
X166461800Y-88955513D01*
X166463074Y-88903365D01*
X166463074Y-88903361D01*
X166463156Y-88900000D01*
X166444852Y-88677361D01*
X166390431Y-88460702D01*
X166301354Y-88255840D01*
X166180014Y-88068277D01*
X166029670Y-87903051D01*
X166025619Y-87899852D01*
X166025615Y-87899848D01*
X165858414Y-87767800D01*
X165858410Y-87767798D01*
X165854359Y-87764598D01*
X165813053Y-87741796D01*
X165763084Y-87691364D01*
X165748312Y-87621921D01*
X165773428Y-87555516D01*
X165800780Y-87528909D01*
X165844603Y-87497650D01*
X165979860Y-87401173D01*
X165995450Y-87385638D01*
X166134435Y-87247137D01*
X166138096Y-87243489D01*
X166197594Y-87160689D01*
X166265435Y-87066277D01*
X166268453Y-87062077D01*
X166367430Y-86861811D01*
X166432370Y-86648069D01*
X166461529Y-86426590D01*
X166463156Y-86360000D01*
X166444852Y-86137361D01*
X166390431Y-85920702D01*
X166301354Y-85715840D01*
X166197828Y-85555813D01*
X166182822Y-85532617D01*
X166182820Y-85532614D01*
X166180014Y-85528277D01*
X166029670Y-85363051D01*
X166025619Y-85359852D01*
X166025615Y-85359848D01*
X165858414Y-85227800D01*
X165858410Y-85227798D01*
X165854359Y-85224598D01*
X165813053Y-85201796D01*
X165763084Y-85151364D01*
X165748312Y-85081921D01*
X165773428Y-85015516D01*
X165800780Y-84988909D01*
X165844603Y-84957650D01*
X165979860Y-84861173D01*
X166138096Y-84703489D01*
X166268453Y-84522077D01*
X166272611Y-84513665D01*
X166365136Y-84326453D01*
X166365137Y-84326451D01*
X166367430Y-84321811D01*
X166432370Y-84108069D01*
X166461529Y-83886590D01*
X166463156Y-83820000D01*
X166444852Y-83597361D01*
X166390431Y-83380702D01*
X166301354Y-83175840D01*
X166209843Y-83034385D01*
X166182822Y-82992617D01*
X166182820Y-82992614D01*
X166180014Y-82988277D01*
X166029670Y-82823051D01*
X166025619Y-82819852D01*
X166025615Y-82819848D01*
X165858414Y-82687800D01*
X165858410Y-82687798D01*
X165854359Y-82684598D01*
X165829580Y-82670919D01*
X165726818Y-82614192D01*
X165658789Y-82576638D01*
X165653920Y-82574914D01*
X165653916Y-82574912D01*
X165453087Y-82503795D01*
X165453083Y-82503794D01*
X165448212Y-82502069D01*
X165443119Y-82501162D01*
X165443116Y-82501161D01*
X165233373Y-82463800D01*
X165233367Y-82463799D01*
X165228284Y-82462894D01*
X165154452Y-82461992D01*
X165010081Y-82460228D01*
X165010079Y-82460228D01*
X165004911Y-82460165D01*
X164784091Y-82493955D01*
X164571756Y-82563357D01*
X164395179Y-82655277D01*
X164325521Y-82668990D01*
X164259506Y-82642865D01*
X164218094Y-82585197D01*
X164211000Y-82543514D01*
X164211000Y-81329328D01*
X164212500Y-81309943D01*
X164214805Y-81295142D01*
X164214805Y-81295139D01*
X164216186Y-81286270D01*
X164214532Y-81273622D01*
X164213948Y-81246308D01*
X164227404Y-81092501D01*
X164231219Y-81070870D01*
X164277080Y-80899718D01*
X164284591Y-80879080D01*
X164359475Y-80718490D01*
X164370457Y-80699470D01*
X164472091Y-80554321D01*
X164486209Y-80537496D01*
X164611496Y-80412209D01*
X164628321Y-80398091D01*
X164773470Y-80296457D01*
X164792490Y-80285475D01*
X164953080Y-80210591D01*
X164973718Y-80203080D01*
X165144870Y-80157219D01*
X165166498Y-80153405D01*
X165220034Y-80148721D01*
X165313419Y-80140551D01*
X165329879Y-80141104D01*
X165329884Y-80140695D01*
X165338858Y-80140805D01*
X165347730Y-80142186D01*
X165356632Y-80141022D01*
X165356635Y-80141022D01*
X165379251Y-80138064D01*
X165395589Y-80137000D01*
X187656672Y-80137000D01*
X187676057Y-80138500D01*
G37*
%TD.AperFunction*%
%TD*%
M02*
