%TF.GenerationSoftware,KiCad,Pcbnew,6.0.0*%
%TF.CreationDate,2022-01-15T20:08:09+00:00*%
%TF.ProjectId,amphenol-magjack,616d7068-656e-46f6-9c2d-6d61676a6163,rev?*%
%TF.SameCoordinates,Original*%
%TF.FileFunction,Legend,Top*%
%TF.FilePolarity,Positive*%
%FSLAX46Y46*%
G04 Gerber Fmt 4.6, Leading zero omitted, Abs format (unit mm)*
G04 Created by KiCad (PCBNEW 6.0.0) date 2022-01-15 20:08:09*
%MOMM*%
%LPD*%
G01*
G04 APERTURE LIST*
%ADD10C,0.100000*%
%ADD11C,0.150000*%
%ADD12C,0.120000*%
G04 APERTURE END LIST*
D10*
X185149333Y-95530666D02*
X185482666Y-95530666D01*
X184782666Y-95764000D02*
X185149333Y-95530666D01*
X184782666Y-95297333D01*
X185449333Y-94797333D02*
X185482666Y-94864000D01*
X185482666Y-94997333D01*
X185449333Y-95064000D01*
X185382666Y-95097333D01*
X185116000Y-95097333D01*
X185049333Y-95064000D01*
X185016000Y-94997333D01*
X185016000Y-94864000D01*
X185049333Y-94797333D01*
X185116000Y-94764000D01*
X185182666Y-94764000D01*
X185249333Y-95097333D01*
X185482666Y-94364000D02*
X185449333Y-94430666D01*
X185382666Y-94464000D01*
X184782666Y-94464000D01*
X185482666Y-93997333D02*
X185449333Y-94064000D01*
X185382666Y-94097333D01*
X184782666Y-94097333D01*
X185482666Y-93630666D02*
X185449333Y-93697333D01*
X185416000Y-93730666D01*
X185349333Y-93764000D01*
X185149333Y-93764000D01*
X185082666Y-93730666D01*
X185049333Y-93697333D01*
X185016000Y-93630666D01*
X185016000Y-93530666D01*
X185049333Y-93464000D01*
X185082666Y-93430666D01*
X185149333Y-93397333D01*
X185349333Y-93397333D01*
X185416000Y-93430666D01*
X185449333Y-93464000D01*
X185482666Y-93530666D01*
X185482666Y-93630666D01*
X185016000Y-93164000D02*
X185482666Y-93030666D01*
X185149333Y-92897333D01*
X185482666Y-92764000D01*
X185016000Y-92630666D01*
X185482666Y-91497333D02*
X185482666Y-91830666D01*
X184782666Y-91830666D01*
X185116000Y-91264000D02*
X185116000Y-91030666D01*
X185482666Y-90930666D02*
X185482666Y-91264000D01*
X184782666Y-91264000D01*
X184782666Y-90930666D01*
X185482666Y-90630666D02*
X184782666Y-90630666D01*
X184782666Y-90464000D01*
X184816000Y-90364000D01*
X184882666Y-90297333D01*
X184949333Y-90264000D01*
X185082666Y-90230666D01*
X185182666Y-90230666D01*
X185316000Y-90264000D01*
X185382666Y-90297333D01*
X185449333Y-90364000D01*
X185482666Y-90464000D01*
X185482666Y-90630666D01*
X186005000Y-93713333D02*
X186005000Y-94246666D01*
X186005000Y-91173333D02*
X186005000Y-91706666D01*
X185738333Y-91440000D02*
X186271666Y-91440000D01*
X186371666Y-89450000D02*
X186038333Y-89683333D01*
X186371666Y-89850000D02*
X185671666Y-89850000D01*
X185671666Y-89583333D01*
X185705000Y-89516666D01*
X185738333Y-89483333D01*
X185805000Y-89450000D01*
X185905000Y-89450000D01*
X185971666Y-89483333D01*
X186005000Y-89516666D01*
X186038333Y-89583333D01*
X186038333Y-89850000D01*
X185671666Y-89216666D02*
X186371666Y-88750000D01*
X185671666Y-88750000D02*
X186371666Y-89216666D01*
X186105000Y-88483333D02*
X186105000Y-87950000D01*
X186371666Y-88216666D02*
X185838333Y-88216666D01*
X186371666Y-86910000D02*
X186038333Y-87143333D01*
X186371666Y-87310000D02*
X185671666Y-87310000D01*
X185671666Y-87043333D01*
X185705000Y-86976666D01*
X185738333Y-86943333D01*
X185805000Y-86910000D01*
X185905000Y-86910000D01*
X185971666Y-86943333D01*
X186005000Y-86976666D01*
X186038333Y-87043333D01*
X186038333Y-87310000D01*
X185671666Y-86676666D02*
X186371666Y-86210000D01*
X185671666Y-86210000D02*
X186371666Y-86676666D01*
X186105000Y-85943333D02*
X186105000Y-85410000D01*
X186371666Y-84220000D02*
X186038333Y-84453333D01*
X186371666Y-84620000D02*
X185671666Y-84620000D01*
X185671666Y-84353333D01*
X185705000Y-84286666D01*
X185738333Y-84253333D01*
X185805000Y-84220000D01*
X185905000Y-84220000D01*
X185971666Y-84253333D01*
X186005000Y-84286666D01*
X186038333Y-84353333D01*
X186038333Y-84620000D01*
X186305000Y-83520000D02*
X186338333Y-83553333D01*
X186371666Y-83653333D01*
X186371666Y-83720000D01*
X186338333Y-83820000D01*
X186271666Y-83886666D01*
X186205000Y-83920000D01*
X186071666Y-83953333D01*
X185971666Y-83953333D01*
X185838333Y-83920000D01*
X185771666Y-83886666D01*
X185705000Y-83820000D01*
X185671666Y-83720000D01*
X185671666Y-83653333D01*
X185705000Y-83553333D01*
X185738333Y-83520000D01*
X185671666Y-83320000D02*
X185671666Y-82920000D01*
X186371666Y-83120000D02*
X185671666Y-83120000D01*
X185705000Y-81940333D02*
X185671666Y-82007000D01*
X185671666Y-82107000D01*
X185705000Y-82207000D01*
X185771666Y-82273666D01*
X185838333Y-82307000D01*
X185971666Y-82340333D01*
X186071666Y-82340333D01*
X186205000Y-82307000D01*
X186271666Y-82273666D01*
X186338333Y-82207000D01*
X186371666Y-82107000D01*
X186371666Y-82040333D01*
X186338333Y-81940333D01*
X186305000Y-81907000D01*
X186071666Y-81907000D01*
X186071666Y-82040333D01*
X186371666Y-81607000D02*
X185671666Y-81607000D01*
X186371666Y-81207000D01*
X185671666Y-81207000D01*
X186371666Y-80873666D02*
X185671666Y-80873666D01*
X185671666Y-80707000D01*
X185705000Y-80607000D01*
X185771666Y-80540333D01*
X185838333Y-80507000D01*
X185971666Y-80473666D01*
X186071666Y-80473666D01*
X186205000Y-80507000D01*
X186271666Y-80540333D01*
X186338333Y-80607000D01*
X186371666Y-80707000D01*
X186371666Y-80873666D01*
X168244000Y-90670333D02*
X168277333Y-90603666D01*
X168277333Y-90503666D01*
X168244000Y-90403666D01*
X168177333Y-90337000D01*
X168110666Y-90303666D01*
X167977333Y-90270333D01*
X167877333Y-90270333D01*
X167744000Y-90303666D01*
X167677333Y-90337000D01*
X167610666Y-90403666D01*
X167577333Y-90503666D01*
X167577333Y-90570333D01*
X167610666Y-90670333D01*
X167644000Y-90703666D01*
X167877333Y-90703666D01*
X167877333Y-90570333D01*
X167577333Y-91003666D02*
X168044000Y-91003666D01*
X167910666Y-91003666D02*
X167977333Y-91037000D01*
X168010666Y-91070333D01*
X168044000Y-91137000D01*
X168044000Y-91203666D01*
X167610666Y-91703666D02*
X167577333Y-91637000D01*
X167577333Y-91503666D01*
X167610666Y-91437000D01*
X167677333Y-91403666D01*
X167944000Y-91403666D01*
X168010666Y-91437000D01*
X168044000Y-91503666D01*
X168044000Y-91637000D01*
X168010666Y-91703666D01*
X167944000Y-91737000D01*
X167877333Y-91737000D01*
X167810666Y-91403666D01*
X167610666Y-92303666D02*
X167577333Y-92237000D01*
X167577333Y-92103666D01*
X167610666Y-92037000D01*
X167677333Y-92003666D01*
X167944000Y-92003666D01*
X168010666Y-92037000D01*
X168044000Y-92103666D01*
X168044000Y-92237000D01*
X168010666Y-92303666D01*
X167944000Y-92337000D01*
X167877333Y-92337000D01*
X167810666Y-92003666D01*
X168044000Y-92637000D02*
X167577333Y-92637000D01*
X167977333Y-92637000D02*
X168010666Y-92670333D01*
X168044000Y-92737000D01*
X168044000Y-92837000D01*
X168010666Y-92903666D01*
X167944000Y-92937000D01*
X167577333Y-92937000D01*
X167577333Y-94137000D02*
X167577333Y-93803666D01*
X168277333Y-93803666D01*
X167944000Y-94370333D02*
X167944000Y-94603666D01*
X167577333Y-94703666D02*
X167577333Y-94370333D01*
X168277333Y-94370333D01*
X168277333Y-94703666D01*
X167577333Y-95003666D02*
X168277333Y-95003666D01*
X168277333Y-95170333D01*
X168244000Y-95270333D01*
X168177333Y-95337000D01*
X168110666Y-95370333D01*
X167977333Y-95403666D01*
X167877333Y-95403666D01*
X167744000Y-95370333D01*
X167677333Y-95337000D01*
X167610666Y-95270333D01*
X167577333Y-95170333D01*
X167577333Y-95003666D01*
X166955000Y-93713333D02*
X166955000Y-94246666D01*
X166955000Y-91173333D02*
X166955000Y-91706666D01*
X166688333Y-91440000D02*
X167221666Y-91440000D01*
X167388333Y-87933333D02*
X167388333Y-88333333D01*
X166688333Y-88133333D02*
X167388333Y-88133333D01*
X167388333Y-88500000D02*
X166688333Y-88966666D01*
X167388333Y-88966666D02*
X166688333Y-88500000D01*
X166955000Y-89233333D02*
X166955000Y-89766666D01*
X166688333Y-89500000D02*
X167221666Y-89500000D01*
X167388333Y-85393333D02*
X167388333Y-85793333D01*
X166688333Y-85593333D02*
X167388333Y-85593333D01*
X167388333Y-85960000D02*
X166688333Y-86426666D01*
X167388333Y-86426666D02*
X166688333Y-85960000D01*
X166955000Y-86693333D02*
X166955000Y-87226666D01*
X167388333Y-83003333D02*
X167388333Y-83403333D01*
X166688333Y-83203333D02*
X167388333Y-83203333D01*
X166755000Y-84036666D02*
X166721666Y-84003333D01*
X166688333Y-83903333D01*
X166688333Y-83836666D01*
X166721666Y-83736666D01*
X166788333Y-83670000D01*
X166855000Y-83636666D01*
X166988333Y-83603333D01*
X167088333Y-83603333D01*
X167221666Y-83636666D01*
X167288333Y-83670000D01*
X167355000Y-83736666D01*
X167388333Y-83836666D01*
X167388333Y-83903333D01*
X167355000Y-84003333D01*
X167321666Y-84036666D01*
X167388333Y-84236666D02*
X167388333Y-84636666D01*
X166688333Y-84436666D02*
X167388333Y-84436666D01*
X167355000Y-80746666D02*
X167388333Y-80680000D01*
X167388333Y-80580000D01*
X167355000Y-80480000D01*
X167288333Y-80413333D01*
X167221666Y-80380000D01*
X167088333Y-80346666D01*
X166988333Y-80346666D01*
X166855000Y-80380000D01*
X166788333Y-80413333D01*
X166721666Y-80480000D01*
X166688333Y-80580000D01*
X166688333Y-80646666D01*
X166721666Y-80746666D01*
X166755000Y-80780000D01*
X166988333Y-80780000D01*
X166988333Y-80646666D01*
X166688333Y-81080000D02*
X167388333Y-81080000D01*
X166688333Y-81480000D01*
X167388333Y-81480000D01*
X166688333Y-81813333D02*
X167388333Y-81813333D01*
X167388333Y-81980000D01*
X167355000Y-82080000D01*
X167288333Y-82146666D01*
X167221666Y-82180000D01*
X167088333Y-82213333D01*
X166988333Y-82213333D01*
X166855000Y-82180000D01*
X166788333Y-82146666D01*
X166721666Y-82080000D01*
X166688333Y-81980000D01*
X166688333Y-81813333D01*
X173447279Y-97743666D02*
X173923470Y-97743666D01*
X173316327Y-98029380D02*
X173774660Y-97029380D01*
X173982994Y-98029380D01*
X174316327Y-98029380D02*
X174399660Y-97362714D01*
X174387755Y-97457952D02*
X174441327Y-97410333D01*
X174542517Y-97362714D01*
X174685375Y-97362714D01*
X174774660Y-97410333D01*
X174810375Y-97505571D01*
X174744898Y-98029380D01*
X174810375Y-97505571D02*
X174869898Y-97410333D01*
X174971089Y-97362714D01*
X175113946Y-97362714D01*
X175203232Y-97410333D01*
X175238946Y-97505571D01*
X175173470Y-98029380D01*
X175732994Y-97362714D02*
X175607994Y-98362714D01*
X175727041Y-97410333D02*
X175828232Y-97362714D01*
X176018708Y-97362714D01*
X176107994Y-97410333D01*
X176149660Y-97457952D01*
X176185375Y-97553190D01*
X176149660Y-97838904D01*
X176090136Y-97934142D01*
X176036565Y-97981761D01*
X175935375Y-98029380D01*
X175744898Y-98029380D01*
X175655613Y-97981761D01*
X176554422Y-98029380D02*
X176679422Y-97029380D01*
X176982994Y-98029380D02*
X177048470Y-97505571D01*
X177012755Y-97410333D01*
X176923470Y-97362714D01*
X176780613Y-97362714D01*
X176679422Y-97410333D01*
X176625851Y-97457952D01*
X177846089Y-97981761D02*
X177744898Y-98029380D01*
X177554422Y-98029380D01*
X177465136Y-97981761D01*
X177429422Y-97886523D01*
X177477041Y-97505571D01*
X177536565Y-97410333D01*
X177637755Y-97362714D01*
X177828232Y-97362714D01*
X177917517Y-97410333D01*
X177953232Y-97505571D01*
X177941327Y-97600809D01*
X177453232Y-97696047D01*
X178399660Y-97362714D02*
X178316327Y-98029380D01*
X178387755Y-97457952D02*
X178441327Y-97410333D01*
X178542517Y-97362714D01*
X178685375Y-97362714D01*
X178774660Y-97410333D01*
X178810375Y-97505571D01*
X178744898Y-98029380D01*
X179363946Y-98029380D02*
X179274660Y-97981761D01*
X179232994Y-97934142D01*
X179197279Y-97838904D01*
X179232994Y-97553190D01*
X179292517Y-97457952D01*
X179346089Y-97410333D01*
X179447279Y-97362714D01*
X179590136Y-97362714D01*
X179679422Y-97410333D01*
X179721089Y-97457952D01*
X179756803Y-97553190D01*
X179721089Y-97838904D01*
X179661565Y-97934142D01*
X179607994Y-97981761D01*
X179506803Y-98029380D01*
X179363946Y-98029380D01*
X180268708Y-98029380D02*
X180179422Y-97981761D01*
X180143708Y-97886523D01*
X180250851Y-97029380D01*
X170316327Y-99639380D02*
X170042517Y-99163190D01*
X169744898Y-99639380D02*
X169869898Y-98639380D01*
X170250851Y-98639380D01*
X170340136Y-98687000D01*
X170381803Y-98734619D01*
X170417517Y-98829857D01*
X170399660Y-98972714D01*
X170340136Y-99067952D01*
X170286565Y-99115571D01*
X170185375Y-99163190D01*
X169804422Y-99163190D01*
X171155613Y-98639380D02*
X171066327Y-99353666D01*
X171000851Y-99496523D01*
X170893708Y-99591761D01*
X170744898Y-99639380D01*
X170649660Y-99639380D01*
X171506803Y-99639380D02*
X171631803Y-98639380D01*
X171875851Y-99353666D01*
X172298470Y-98639380D01*
X172173470Y-99639380D01*
X173292517Y-98687000D02*
X173203232Y-98639380D01*
X173060375Y-98639380D01*
X172911565Y-98687000D01*
X172804422Y-98782238D01*
X172744898Y-98877476D01*
X172673470Y-99067952D01*
X172655613Y-99210809D01*
X172679422Y-99401285D01*
X172715136Y-99496523D01*
X172798470Y-99591761D01*
X172935375Y-99639380D01*
X173030613Y-99639380D01*
X173179422Y-99591761D01*
X173232994Y-99544142D01*
X173274660Y-99210809D01*
X173084184Y-99210809D01*
X174173470Y-99639380D02*
X173602041Y-99639380D01*
X173887755Y-99639380D02*
X174012755Y-98639380D01*
X173899660Y-98782238D01*
X173792517Y-98877476D01*
X173691327Y-98925095D01*
X175000851Y-99115571D02*
X175137755Y-99163190D01*
X175179422Y-99210809D01*
X175215136Y-99306047D01*
X175197279Y-99448904D01*
X175137755Y-99544142D01*
X175084184Y-99591761D01*
X174982994Y-99639380D01*
X174602041Y-99639380D01*
X174727041Y-98639380D01*
X175060375Y-98639380D01*
X175149660Y-98687000D01*
X175191327Y-98734619D01*
X175227041Y-98829857D01*
X175215136Y-98925095D01*
X175155613Y-99020333D01*
X175102041Y-99067952D01*
X175000851Y-99115571D01*
X174667517Y-99115571D01*
X175602041Y-99639380D02*
X175727041Y-98639380D01*
X175965136Y-98639380D01*
X176102041Y-98687000D01*
X176185375Y-98782238D01*
X176221089Y-98877476D01*
X176244898Y-99067952D01*
X176227041Y-99210809D01*
X176155613Y-99401285D01*
X176096089Y-99496523D01*
X175988946Y-99591761D01*
X175840136Y-99639380D01*
X175602041Y-99639380D01*
X176631803Y-98639380D02*
X177250851Y-98639380D01*
X176869898Y-99020333D01*
X177012755Y-99020333D01*
X177102041Y-99067952D01*
X177143708Y-99115571D01*
X177179422Y-99210809D01*
X177149660Y-99448904D01*
X177090136Y-99544142D01*
X177036565Y-99591761D01*
X176935375Y-99639380D01*
X176649660Y-99639380D01*
X176560375Y-99591761D01*
X176518708Y-99544142D01*
X177953232Y-99115571D02*
X178090136Y-99163190D01*
X178131803Y-99210809D01*
X178167517Y-99306047D01*
X178149660Y-99448904D01*
X178090136Y-99544142D01*
X178036565Y-99591761D01*
X177935375Y-99639380D01*
X177554422Y-99639380D01*
X177679422Y-98639380D01*
X178012755Y-98639380D01*
X178102041Y-98687000D01*
X178143708Y-98734619D01*
X178179422Y-98829857D01*
X178167517Y-98925095D01*
X178107994Y-99020333D01*
X178054422Y-99067952D01*
X177953232Y-99115571D01*
X177619898Y-99115571D01*
X178768708Y-99067952D02*
X178679422Y-99020333D01*
X178637755Y-98972714D01*
X178602041Y-98877476D01*
X178607994Y-98829857D01*
X178667517Y-98734619D01*
X178721089Y-98687000D01*
X178822279Y-98639380D01*
X179012755Y-98639380D01*
X179102041Y-98687000D01*
X179143708Y-98734619D01*
X179179422Y-98829857D01*
X179173470Y-98877476D01*
X179113946Y-98972714D01*
X179060375Y-99020333D01*
X178959184Y-99067952D01*
X178768708Y-99067952D01*
X178667517Y-99115571D01*
X178613946Y-99163190D01*
X178554422Y-99258428D01*
X178530613Y-99448904D01*
X178566327Y-99544142D01*
X178607994Y-99591761D01*
X178697279Y-99639380D01*
X178887755Y-99639380D01*
X178988946Y-99591761D01*
X179042517Y-99544142D01*
X179102041Y-99448904D01*
X179125851Y-99258428D01*
X179090136Y-99163190D01*
X179048470Y-99115571D01*
X178959184Y-99067952D01*
X179506803Y-99639380D02*
X179631803Y-98639380D01*
X180078232Y-99639380D02*
X179721089Y-99067952D01*
X180203232Y-98639380D02*
X179560375Y-99210809D01*
X181030613Y-99639380D02*
X180459184Y-99639380D01*
X180744898Y-99639380D02*
X180869898Y-98639380D01*
X180756803Y-98782238D01*
X180649660Y-98877476D01*
X180548470Y-98925095D01*
X181447279Y-99353666D02*
X181923470Y-99353666D01*
X181316327Y-99639380D02*
X181774660Y-98639380D01*
X181982994Y-99639380D01*
X182316327Y-99639380D02*
X182441327Y-98639380D01*
X182887755Y-99639380D01*
X183012755Y-98639380D01*
X183935374Y-99639380D02*
X183661565Y-99163190D01*
X183363946Y-99639380D02*
X183488946Y-98639380D01*
X183869898Y-98639380D01*
X183959184Y-98687000D01*
X184000851Y-98734619D01*
X184036565Y-98829857D01*
X184018708Y-98972714D01*
X183959184Y-99067952D01*
X183905613Y-99115571D01*
X183804422Y-99163190D01*
X183423470Y-99163190D01*
X172173470Y-101249380D02*
X171899660Y-100773190D01*
X171602041Y-101249380D02*
X171727041Y-100249380D01*
X172107994Y-100249380D01*
X172197279Y-100297000D01*
X172238946Y-100344619D01*
X172274660Y-100439857D01*
X172256803Y-100582714D01*
X172197279Y-100677952D01*
X172143708Y-100725571D01*
X172042517Y-100773190D01*
X171661565Y-100773190D01*
X173012755Y-100249380D02*
X172923470Y-100963666D01*
X172857994Y-101106523D01*
X172750851Y-101201761D01*
X172602041Y-101249380D01*
X172506803Y-101249380D01*
X173875851Y-100582714D02*
X173792517Y-101249380D01*
X173685375Y-100201761D02*
X173357994Y-100916047D01*
X173977041Y-100916047D01*
X174917517Y-100249380D02*
X174441327Y-100249380D01*
X174334184Y-100725571D01*
X174387755Y-100677952D01*
X174488946Y-100630333D01*
X174727041Y-100630333D01*
X174816327Y-100677952D01*
X174857994Y-100725571D01*
X174893708Y-100820809D01*
X174863946Y-101058904D01*
X174804422Y-101154142D01*
X174750851Y-101201761D01*
X174649660Y-101249380D01*
X174411565Y-101249380D01*
X174322279Y-101201761D01*
X174280613Y-101154142D01*
X176030613Y-101249380D02*
X176155613Y-100249380D01*
X176107994Y-100630333D02*
X176209184Y-100582714D01*
X176399660Y-100582714D01*
X176488946Y-100630333D01*
X176530613Y-100677952D01*
X176566327Y-100773190D01*
X176530613Y-101058904D01*
X176471089Y-101154142D01*
X176417517Y-101201761D01*
X176316327Y-101249380D01*
X176125851Y-101249380D01*
X176036565Y-101201761D01*
X176935375Y-101249380D02*
X177018708Y-100582714D01*
X176994898Y-100773190D02*
X177054422Y-100677952D01*
X177107994Y-100630333D01*
X177209184Y-100582714D01*
X177304422Y-100582714D01*
X177941327Y-101201761D02*
X177840136Y-101249380D01*
X177649660Y-101249380D01*
X177560375Y-101201761D01*
X177524660Y-101106523D01*
X177572279Y-100725571D01*
X177631803Y-100630333D01*
X177732994Y-100582714D01*
X177923470Y-100582714D01*
X178012755Y-100630333D01*
X178048470Y-100725571D01*
X178036565Y-100820809D01*
X177548470Y-100916047D01*
X178840136Y-101249380D02*
X178905613Y-100725571D01*
X178869898Y-100630333D01*
X178780613Y-100582714D01*
X178590136Y-100582714D01*
X178488946Y-100630333D01*
X178846089Y-101201761D02*
X178744898Y-101249380D01*
X178506803Y-101249380D01*
X178417517Y-101201761D01*
X178381803Y-101106523D01*
X178393708Y-101011285D01*
X178453232Y-100916047D01*
X178554422Y-100868428D01*
X178792517Y-100868428D01*
X178893708Y-100820809D01*
X179316327Y-101249380D02*
X179441327Y-100249380D01*
X179459184Y-100868428D02*
X179697279Y-101249380D01*
X179780613Y-100582714D02*
X179352041Y-100963666D01*
X180268708Y-101249380D02*
X180179422Y-101201761D01*
X180137755Y-101154142D01*
X180102041Y-101058904D01*
X180137755Y-100773190D01*
X180197279Y-100677952D01*
X180250851Y-100630333D01*
X180352041Y-100582714D01*
X180494898Y-100582714D01*
X180584184Y-100630333D01*
X180625851Y-100677952D01*
X180661565Y-100773190D01*
X180625851Y-101058904D01*
X180566327Y-101154142D01*
X180512755Y-101201761D01*
X180411565Y-101249380D01*
X180268708Y-101249380D01*
X181542517Y-100582714D02*
X181459184Y-101249380D01*
X181113946Y-100582714D02*
X181048470Y-101106523D01*
X181084184Y-101201761D01*
X181173470Y-101249380D01*
X181316327Y-101249380D01*
X181417517Y-101201761D01*
X181471089Y-101154142D01*
X181875851Y-100582714D02*
X182256803Y-100582714D01*
X182060375Y-100249380D02*
X181953232Y-101106523D01*
X181988946Y-101201761D01*
X182078232Y-101249380D01*
X182173470Y-101249380D01*
D11*
%TO.C,J1*%
X164766666Y-78402380D02*
X164766666Y-79116666D01*
X164719047Y-79259523D01*
X164623809Y-79354761D01*
X164480952Y-79402380D01*
X164385714Y-79402380D01*
X165766666Y-79402380D02*
X165195238Y-79402380D01*
X165480952Y-79402380D02*
X165480952Y-78402380D01*
X165385714Y-78545238D01*
X165290476Y-78640476D01*
X165195238Y-78688095D01*
%TO.C,J2*%
X187626666Y-78402380D02*
X187626666Y-79116666D01*
X187579047Y-79259523D01*
X187483809Y-79354761D01*
X187340952Y-79402380D01*
X187245714Y-79402380D01*
X188055238Y-78497619D02*
X188102857Y-78450000D01*
X188198095Y-78402380D01*
X188436190Y-78402380D01*
X188531428Y-78450000D01*
X188579047Y-78497619D01*
X188626666Y-78592857D01*
X188626666Y-78688095D01*
X188579047Y-78830952D01*
X188007619Y-79402380D01*
X188626666Y-79402380D01*
%TO.C,J3*%
X176196666Y-78397380D02*
X176196666Y-79111666D01*
X176149047Y-79254523D01*
X176053809Y-79349761D01*
X175910952Y-79397380D01*
X175815714Y-79397380D01*
X176577619Y-78397380D02*
X177196666Y-78397380D01*
X176863333Y-78778333D01*
X177006190Y-78778333D01*
X177101428Y-78825952D01*
X177149047Y-78873571D01*
X177196666Y-78968809D01*
X177196666Y-79206904D01*
X177149047Y-79302142D01*
X177101428Y-79349761D01*
X177006190Y-79397380D01*
X176720476Y-79397380D01*
X176625238Y-79349761D01*
X176577619Y-79302142D01*
D12*
%TO.C,J1*%
X163770000Y-81280000D02*
X163770000Y-79950000D01*
X163770000Y-79950000D02*
X165100000Y-79950000D01*
X163770000Y-95310000D02*
X166430000Y-95310000D01*
X163770000Y-82550000D02*
X166430000Y-82550000D01*
X163770000Y-82550000D02*
X163770000Y-95310000D01*
X166430000Y-82550000D02*
X166430000Y-95310000D01*
%TO.C,J2*%
X186630000Y-95310000D02*
X189290000Y-95310000D01*
X186630000Y-82550000D02*
X186630000Y-95310000D01*
X186630000Y-82550000D02*
X189290000Y-82550000D01*
X189290000Y-82550000D02*
X189290000Y-95310000D01*
X186630000Y-81280000D02*
X186630000Y-79950000D01*
X186630000Y-79950000D02*
X187960000Y-79950000D01*
%TO.C,J3*%
X168355000Y-83435000D02*
X168355000Y-85435000D01*
X184505000Y-79845000D02*
X184505000Y-86125000D01*
X168555000Y-86125000D02*
X168555000Y-79845000D01*
X168555000Y-101765000D02*
X168555000Y-89325000D01*
X184505000Y-89325000D02*
X184505000Y-101765000D01*
X184505000Y-101765000D02*
X168555000Y-101765000D01*
X168555000Y-79845000D02*
X184505000Y-79845000D01*
%TD*%
M02*
