M48
; DRILL file {KiCad 6.0.0} date Sat 15 Jan 2022 20:08:15 GMT
; FORMAT={-:-/ absolute / inch / decimal}
; #@! TF.CreationDate,2022-01-15T20:08:15+00:00
; #@! TF.GenerationSoftware,Kicad,Pcbnew,6.0.0
; #@! TF.FileFunction,MixedPlating,1,2
FMAT,2
INCH
; #@! TA.AperFunction,Plated,PTH,ViaDrill
T1C0.0157
; #@! TA.AperFunction,Plated,PTH,ComponentDrill
T2C0.0350
; #@! TA.AperFunction,Plated,PTH,ComponentDrill
T3C0.0354
; #@! TA.AperFunction,Plated,PTH,ComponentDrill
T4C0.0394
; #@! TA.AperFunction,Plated,PTH,ComponentDrill
T5C0.0630
; #@! TA.AperFunction,NonPlated,NPTH,ComponentDrill
T6C0.1280
%
G90
G05
T1
X6.625Y-3.78
X6.7Y-3.24
T2
X6.701Y-3.7667
X6.801Y-3.7069
X7.099Y-3.7667
X7.199Y-3.7069
T3
X6.775Y-3.3242
X6.825Y-3.2242
X6.875Y-3.3242
X6.925Y-3.2242
X6.975Y-3.3242
X7.025Y-3.2242
X7.075Y-3.3242
X7.125Y-3.2242
T4
X6.5Y-3.2
X6.5Y-3.3
X6.5Y-3.4
X6.5Y-3.5
X6.5Y-3.6
X6.5Y-3.7
X7.4Y-3.2
X7.4Y-3.3
X7.4Y-3.4
X7.4Y-3.5
X7.4Y-3.6
X7.4Y-3.7
T5
X6.6439Y-3.4537
X7.2561Y-3.4537
T6
X6.725Y-3.5738
X7.175Y-3.5738
T0
M30
