G04 #@! TF.GenerationSoftware,KiCad,Pcbnew,5.1.5*
G04 #@! TF.CreationDate,2020-04-27T00:38:34+01:00*
G04 #@! TF.ProjectId,esp32-wrover-breakout,65737033-322d-4777-926f-7665722d6272,rev?*
G04 #@! TF.SameCoordinates,Original*
G04 #@! TF.FileFunction,Copper,L1,Top*
G04 #@! TF.FilePolarity,Positive*
%FSLAX46Y46*%
G04 Gerber Fmt 4.6, Leading zero omitted, Abs format (unit mm)*
G04 Created by KiCad (PCBNEW 5.1.5) date 2020-04-27 00:38:34*
%MOMM*%
%LPD*%
G04 APERTURE LIST*
%ADD10C,0.050000*%
%ADD11R,2.000000X0.900000*%
%ADD12O,0.900000X3.000000*%
%ADD13R,5.000000X5.000000*%
%ADD14R,1.700000X1.700000*%
%ADD15O,1.700000X1.700000*%
%ADD16C,0.800000*%
%ADD17O,3.000000X0.900000*%
%ADD18C,0.250000*%
G04 APERTURE END LIST*
D10*
X137674571Y-96401714D02*
X137674571Y-96101714D01*
X137803142Y-96401714D02*
X137803142Y-96244571D01*
X137788857Y-96216000D01*
X137760285Y-96201714D01*
X137717428Y-96201714D01*
X137688857Y-96216000D01*
X137674571Y-96230285D01*
X138060285Y-96387428D02*
X138031714Y-96401714D01*
X137974571Y-96401714D01*
X137946000Y-96387428D01*
X137931714Y-96358857D01*
X137931714Y-96244571D01*
X137946000Y-96216000D01*
X137974571Y-96201714D01*
X138031714Y-96201714D01*
X138060285Y-96216000D01*
X138074571Y-96244571D01*
X138074571Y-96273142D01*
X137931714Y-96301714D01*
X138246000Y-96401714D02*
X138217428Y-96387428D01*
X138203142Y-96358857D01*
X138203142Y-96101714D01*
X138403142Y-96401714D02*
X138374571Y-96387428D01*
X138360285Y-96358857D01*
X138360285Y-96101714D01*
X138560285Y-96401714D02*
X138531714Y-96387428D01*
X138517428Y-96373142D01*
X138503142Y-96344571D01*
X138503142Y-96258857D01*
X138517428Y-96230285D01*
X138531714Y-96216000D01*
X138560285Y-96201714D01*
X138603142Y-96201714D01*
X138631714Y-96216000D01*
X138646000Y-96230285D01*
X138660285Y-96258857D01*
X138660285Y-96344571D01*
X138646000Y-96373142D01*
X138631714Y-96387428D01*
X138603142Y-96401714D01*
X138560285Y-96401714D01*
X138974571Y-96201714D02*
X139088857Y-96201714D01*
X139017428Y-96401714D02*
X139017428Y-96144571D01*
X139031714Y-96116000D01*
X139060285Y-96101714D01*
X139088857Y-96101714D01*
X139188857Y-96401714D02*
X139188857Y-96201714D01*
X139188857Y-96258857D02*
X139203142Y-96230285D01*
X139217428Y-96216000D01*
X139246000Y-96201714D01*
X139274571Y-96201714D01*
X139417428Y-96401714D02*
X139388857Y-96387428D01*
X139374571Y-96373142D01*
X139360285Y-96344571D01*
X139360285Y-96258857D01*
X139374571Y-96230285D01*
X139388857Y-96216000D01*
X139417428Y-96201714D01*
X139460285Y-96201714D01*
X139488857Y-96216000D01*
X139503142Y-96230285D01*
X139517428Y-96258857D01*
X139517428Y-96344571D01*
X139503142Y-96373142D01*
X139488857Y-96387428D01*
X139460285Y-96401714D01*
X139417428Y-96401714D01*
X139646000Y-96401714D02*
X139646000Y-96201714D01*
X139646000Y-96230285D02*
X139660285Y-96216000D01*
X139688857Y-96201714D01*
X139731714Y-96201714D01*
X139760285Y-96216000D01*
X139774571Y-96244571D01*
X139774571Y-96401714D01*
X139774571Y-96244571D02*
X139788857Y-96216000D01*
X139817428Y-96201714D01*
X139860285Y-96201714D01*
X139888857Y-96216000D01*
X139903142Y-96244571D01*
X139903142Y-96401714D01*
X140403142Y-96401714D02*
X140403142Y-96244571D01*
X140388857Y-96216000D01*
X140360285Y-96201714D01*
X140303142Y-96201714D01*
X140274571Y-96216000D01*
X140403142Y-96387428D02*
X140374571Y-96401714D01*
X140303142Y-96401714D01*
X140274571Y-96387428D01*
X140260285Y-96358857D01*
X140260285Y-96330285D01*
X140274571Y-96301714D01*
X140303142Y-96287428D01*
X140374571Y-96287428D01*
X140403142Y-96273142D01*
X140588857Y-96401714D02*
X140560285Y-96387428D01*
X140546000Y-96358857D01*
X140546000Y-96101714D01*
X140703142Y-96401714D02*
X140703142Y-96201714D01*
X140703142Y-96101714D02*
X140688857Y-96116000D01*
X140703142Y-96130285D01*
X140717428Y-96116000D01*
X140703142Y-96101714D01*
X140703142Y-96130285D01*
X140974571Y-96387428D02*
X140946000Y-96401714D01*
X140888857Y-96401714D01*
X140860285Y-96387428D01*
X140846000Y-96373142D01*
X140831714Y-96344571D01*
X140831714Y-96258857D01*
X140846000Y-96230285D01*
X140860285Y-96216000D01*
X140888857Y-96201714D01*
X140946000Y-96201714D01*
X140974571Y-96216000D01*
X141217428Y-96387428D02*
X141188857Y-96401714D01*
X141131714Y-96401714D01*
X141103142Y-96387428D01*
X141088857Y-96358857D01*
X141088857Y-96244571D01*
X141103142Y-96216000D01*
X141131714Y-96201714D01*
X141188857Y-96201714D01*
X141217428Y-96216000D01*
X141231714Y-96244571D01*
X141231714Y-96273142D01*
X141088857Y-96301714D01*
D11*
X146930000Y-72009000D03*
X146930000Y-73279000D03*
X146930000Y-74549000D03*
X146930000Y-75819000D03*
X146930000Y-77089000D03*
X146930000Y-78359000D03*
X146930000Y-79629000D03*
X146930000Y-80899000D03*
X146930000Y-82169000D03*
X146930000Y-83439000D03*
X146930000Y-84709000D03*
X146930000Y-85979000D03*
X146930000Y-87249000D03*
X146930000Y-88519000D03*
D12*
X144145000Y-89519000D03*
X142875000Y-89519000D03*
X141605000Y-89519000D03*
X140335000Y-89519000D03*
X139065000Y-89519000D03*
X137795000Y-89519000D03*
X136525000Y-89519000D03*
X135255000Y-89519000D03*
X133985000Y-89519000D03*
X132715000Y-89519000D03*
D11*
X129930000Y-88519000D03*
X129930000Y-87249000D03*
X129930000Y-85979000D03*
X129930000Y-84709000D03*
X129930000Y-83439000D03*
X129930000Y-82169000D03*
X129930000Y-80899000D03*
X129930000Y-79629000D03*
X129930000Y-78359000D03*
X129930000Y-77089000D03*
X129930000Y-75819000D03*
X129930000Y-74549000D03*
X129930000Y-73279000D03*
X129930000Y-72009000D03*
D13*
X137430000Y-79509000D03*
D14*
X154305000Y-71120000D03*
D15*
X154305000Y-73660000D03*
X154305000Y-76200000D03*
X154305000Y-78740000D03*
X154305000Y-81280000D03*
X154305000Y-83820000D03*
X154305000Y-86360000D03*
X154305000Y-88900000D03*
X154305000Y-91440000D03*
X154305000Y-93980000D03*
D14*
X122555000Y-71120000D03*
D15*
X122555000Y-73660000D03*
X122555000Y-76200000D03*
X122555000Y-78740000D03*
X122555000Y-81280000D03*
X122555000Y-83820000D03*
X122555000Y-86360000D03*
X122555000Y-88900000D03*
X122555000Y-91440000D03*
X122555000Y-93980000D03*
D14*
X151765000Y-71120000D03*
D15*
X151765000Y-73660000D03*
X151765000Y-76200000D03*
X151765000Y-78740000D03*
X151765000Y-81280000D03*
X151765000Y-83820000D03*
X151765000Y-86360000D03*
X151765000Y-88900000D03*
X151765000Y-91440000D03*
X151765000Y-93980000D03*
D14*
X125095000Y-71120000D03*
D15*
X125095000Y-73660000D03*
X125095000Y-76200000D03*
X125095000Y-78740000D03*
X125095000Y-81280000D03*
X125095000Y-83820000D03*
X125095000Y-86360000D03*
X125095000Y-88900000D03*
X125095000Y-91440000D03*
X125095000Y-93980000D03*
D16*
X136030000Y-76940000D03*
D13*
X138030000Y-78950000D03*
D17*
X129430000Y-72030000D03*
X129430000Y-73300000D03*
X129430000Y-74570000D03*
X129430000Y-75840000D03*
X129430000Y-77110000D03*
X129430000Y-78380000D03*
X129430000Y-79650000D03*
X129430000Y-80920000D03*
X129430000Y-82190000D03*
X129430000Y-83460000D03*
X129430000Y-84730000D03*
X129430000Y-86000000D03*
X129430000Y-87270000D03*
X129430000Y-88540000D03*
X129430000Y-89840000D03*
X129430000Y-91110000D03*
X129430000Y-92380000D03*
X129430000Y-93650000D03*
X129430000Y-94920000D03*
X147430000Y-94920000D03*
X147430000Y-93650000D03*
X147430000Y-92380000D03*
X147430000Y-91110000D03*
X147430000Y-89840000D03*
X147460000Y-88540000D03*
X147460000Y-87270000D03*
X147460000Y-86000000D03*
X147460000Y-84730000D03*
X147460000Y-83460000D03*
X147460000Y-82190000D03*
X147460000Y-80920000D03*
X147460000Y-79650000D03*
X147460000Y-78380000D03*
X147460000Y-77110000D03*
X147460000Y-75840000D03*
X147460000Y-74570000D03*
X147460000Y-73300000D03*
X147460000Y-72030000D03*
D16*
X136030000Y-77940000D03*
X136030000Y-78940000D03*
X136030000Y-79940000D03*
X136030000Y-80940000D03*
X137030000Y-80940000D03*
X137030000Y-79940000D03*
X137030000Y-78940000D03*
X137030000Y-77940000D03*
X137030000Y-76940000D03*
X139030000Y-76940000D03*
X139030000Y-77940000D03*
X139030000Y-78940000D03*
X139030000Y-79940000D03*
X139030000Y-80940000D03*
X138030000Y-80940000D03*
X138030000Y-79940000D03*
X138030000Y-78940000D03*
X138030000Y-77940000D03*
X138030000Y-76940000D03*
X140030000Y-80940000D03*
X140030000Y-79940000D03*
X140030000Y-78940000D03*
X140030000Y-77940000D03*
X140030000Y-76940000D03*
X131572000Y-88646000D03*
X131826000Y-87376000D03*
X131826000Y-86106000D03*
X131826000Y-84836000D03*
X131826000Y-82296000D03*
X131826000Y-83566000D03*
X133350000Y-83312000D03*
X145161000Y-83439000D03*
X145161000Y-82169000D03*
X145161000Y-80899000D03*
X145161000Y-79629000D03*
X145161000Y-78359000D03*
X145161000Y-77089000D03*
X145161000Y-75819000D03*
X145161000Y-74549000D03*
X145161000Y-73279000D03*
X145161000Y-72009000D03*
X131699000Y-79629000D03*
D18*
X129430000Y-95620000D02*
X129430000Y-94920000D01*
X128880010Y-96169990D02*
X129430000Y-95620000D01*
X125887990Y-96169990D02*
X128880010Y-96169990D01*
X125095000Y-95377000D02*
X125887990Y-96169990D01*
X125095000Y-93980000D02*
X125095000Y-95377000D01*
X127305000Y-93650000D02*
X125095000Y-91440000D01*
X129430000Y-93650000D02*
X127305000Y-93650000D01*
X127680000Y-92380000D02*
X126492000Y-91192000D01*
X129430000Y-92380000D02*
X127680000Y-92380000D01*
X126492000Y-90297000D02*
X125095000Y-88900000D01*
X126492000Y-91192000D02*
X126492000Y-90297000D01*
X127680000Y-91110000D02*
X127000000Y-90430000D01*
X129430000Y-91110000D02*
X127680000Y-91110000D01*
X127000000Y-88265000D02*
X127000000Y-88392000D01*
X125095000Y-86360000D02*
X127000000Y-88265000D01*
X127000000Y-90430000D02*
X127000000Y-88392000D01*
X127508000Y-86233000D02*
X125095000Y-83820000D01*
X127508000Y-89668000D02*
X127508000Y-86233000D01*
X129430000Y-89840000D02*
X127680000Y-89840000D01*
X127680000Y-89840000D02*
X127508000Y-89668000D01*
X129430000Y-88540000D02*
X131720000Y-88540000D01*
X131720000Y-87270000D02*
X131826000Y-87376000D01*
X129430000Y-87270000D02*
X131720000Y-87270000D01*
X131720000Y-86000000D02*
X131826000Y-86106000D01*
X129430000Y-86000000D02*
X131720000Y-86000000D01*
X131720000Y-84730000D02*
X131826000Y-84836000D01*
X129430000Y-84730000D02*
X131720000Y-84730000D01*
X127680000Y-83460000D02*
X126770000Y-82550000D01*
X129430000Y-83460000D02*
X127680000Y-83460000D01*
X126770000Y-82550000D02*
X124206000Y-82550000D01*
X124206000Y-82550000D02*
X123952000Y-82804000D01*
X123952000Y-92583000D02*
X122555000Y-93980000D01*
X123952000Y-82804000D02*
X123952000Y-92583000D01*
X131720000Y-82190000D02*
X131826000Y-82296000D01*
X129430000Y-82190000D02*
X131720000Y-82190000D01*
X131720000Y-80920000D02*
X129430000Y-80920000D01*
X133350000Y-83312000D02*
X133350000Y-82550000D01*
X133350000Y-82550000D02*
X131720000Y-80920000D01*
X122555000Y-83820000D02*
X123444000Y-82931000D01*
X123444000Y-82931000D02*
X123444000Y-82296000D01*
X123444000Y-82296000D02*
X123952000Y-81788000D01*
X123952000Y-81788000D02*
X123952000Y-80518000D01*
X123952000Y-80518000D02*
X124460000Y-80010000D01*
X124460000Y-80010000D02*
X125730000Y-80010000D01*
X127360000Y-78380000D02*
X129430000Y-78380000D01*
X125730000Y-80010000D02*
X127360000Y-78380000D01*
X127360000Y-77110000D02*
X129430000Y-77110000D01*
X127000000Y-77470000D02*
X127360000Y-77110000D01*
X124714000Y-77470000D02*
X127000000Y-77470000D01*
X123698000Y-78486000D02*
X124714000Y-77470000D01*
X122555000Y-81280000D02*
X123698000Y-80137000D01*
X123698000Y-80137000D02*
X123698000Y-78486000D01*
X122555000Y-78740000D02*
X123698000Y-77597000D01*
X123698000Y-77597000D02*
X123698000Y-75946000D01*
X123698000Y-75946000D02*
X124460000Y-75184000D01*
X124460000Y-75184000D02*
X126238000Y-75184000D01*
X126894000Y-75840000D02*
X129430000Y-75840000D01*
X126238000Y-75184000D02*
X126894000Y-75840000D01*
X122555000Y-76200000D02*
X123952000Y-74803000D01*
X123952000Y-74803000D02*
X126746000Y-74803000D01*
X126979000Y-74570000D02*
X129430000Y-74570000D01*
X126746000Y-74803000D02*
X126979000Y-74570000D01*
X122555000Y-73660000D02*
X123698000Y-72517000D01*
X123698000Y-72517000D02*
X126492000Y-72517000D01*
X127275000Y-73300000D02*
X129430000Y-73300000D01*
X126492000Y-72517000D02*
X127275000Y-73300000D01*
X129430000Y-71330000D02*
X129430000Y-72030000D01*
X151765000Y-96012000D02*
X151765000Y-93980000D01*
X151607010Y-96169990D02*
X151765000Y-96012000D01*
X147979990Y-96169990D02*
X151607010Y-96169990D01*
X147430000Y-94920000D02*
X147430000Y-95620000D01*
X147430000Y-95620000D02*
X147979990Y-96169990D01*
X151765000Y-92202000D02*
X151765000Y-91440000D01*
X150749000Y-93218000D02*
X151765000Y-92202000D01*
X149612000Y-93218000D02*
X150749000Y-93218000D01*
X147430000Y-93650000D02*
X149180000Y-93650000D01*
X149180000Y-93650000D02*
X149612000Y-93218000D01*
X149180000Y-92380000D02*
X149612000Y-91948000D01*
X147430000Y-92380000D02*
X149180000Y-92380000D01*
X149612000Y-91948000D02*
X150495000Y-91948000D01*
X150495000Y-91948000D02*
X150622000Y-91821000D01*
X150622000Y-91821000D02*
X150622000Y-90805000D01*
X150622000Y-90805000D02*
X151257000Y-90170000D01*
X151257000Y-90170000D02*
X151638000Y-90170000D01*
X151638000Y-90170000D02*
X151765000Y-90043000D01*
X151765000Y-90043000D02*
X151765000Y-88900000D01*
X151765000Y-87376000D02*
X151765000Y-86360000D01*
X151384000Y-87757000D02*
X151765000Y-87376000D01*
X151130000Y-87757000D02*
X151384000Y-87757000D01*
X149180000Y-91110000D02*
X149485000Y-90805000D01*
X149485000Y-90805000D02*
X149987000Y-90805000D01*
X149987000Y-90805000D02*
X150495000Y-90297000D01*
X147430000Y-91110000D02*
X149180000Y-91110000D01*
X150495000Y-90297000D02*
X150495000Y-88392000D01*
X150495000Y-88392000D02*
X151130000Y-87757000D01*
X150622000Y-85852000D02*
X151765000Y-84709000D01*
X150622000Y-87630000D02*
X150622000Y-85852000D01*
X147430000Y-89840000D02*
X149180000Y-89840000D01*
X149358000Y-89662000D02*
X149358000Y-89656000D01*
X151765000Y-84709000D02*
X151765000Y-83820000D01*
X149358000Y-89656000D02*
X150114000Y-88900000D01*
X150114000Y-88900000D02*
X150114000Y-88138000D01*
X149180000Y-89840000D02*
X149358000Y-89662000D01*
X150114000Y-88138000D02*
X150622000Y-87630000D01*
X149210000Y-88540000D02*
X150241000Y-87509000D01*
X147460000Y-88540000D02*
X149210000Y-88540000D01*
X150241000Y-87509000D02*
X150241000Y-85471000D01*
X150241000Y-85471000D02*
X150622000Y-85090000D01*
X150622000Y-85090000D02*
X150622000Y-83312000D01*
X150622000Y-83312000D02*
X151765000Y-82169000D01*
X151765000Y-82169000D02*
X151765000Y-81280000D01*
X151765000Y-79629000D02*
X151765000Y-78740000D01*
X150622000Y-80772000D02*
X151765000Y-79629000D01*
X150622000Y-82677000D02*
X150622000Y-80772000D01*
X149210000Y-87270000D02*
X149860000Y-86620000D01*
X147460000Y-87270000D02*
X149210000Y-87270000D01*
X149860000Y-86620000D02*
X149860000Y-85344000D01*
X149860000Y-85344000D02*
X150241000Y-84963000D01*
X150241000Y-84963000D02*
X150241000Y-83058000D01*
X150241000Y-83058000D02*
X150622000Y-82677000D01*
X151765000Y-77402081D02*
X151765000Y-76200000D01*
X151570081Y-77597000D02*
X151765000Y-77402081D01*
X151130000Y-77597000D02*
X151570081Y-77597000D01*
X150622000Y-78105000D02*
X151130000Y-77597000D01*
X150622000Y-80137000D02*
X150622000Y-78105000D01*
X150241000Y-80518000D02*
X150622000Y-80137000D01*
X150241000Y-82550000D02*
X150241000Y-80518000D01*
X147460000Y-86000000D02*
X149210000Y-86000000D01*
X149210000Y-86000000D02*
X149479000Y-85731000D01*
X149479000Y-85731000D02*
X149479000Y-85217000D01*
X149479000Y-85217000D02*
X149860000Y-84836000D01*
X149860000Y-84836000D02*
X149860000Y-82931000D01*
X149860000Y-82931000D02*
X150241000Y-82550000D01*
X150241000Y-77851000D02*
X150622000Y-77470000D01*
X150622000Y-77470000D02*
X150622000Y-75438000D01*
X149860000Y-82296000D02*
X149860000Y-80391000D01*
X149479000Y-84461000D02*
X149479000Y-82677000D01*
X149479000Y-82677000D02*
X149860000Y-82296000D01*
X150241000Y-80010000D02*
X150241000Y-77851000D01*
X149860000Y-80391000D02*
X150241000Y-80010000D01*
X149210000Y-84730000D02*
X149479000Y-84461000D01*
X147460000Y-84730000D02*
X149210000Y-84730000D01*
X150622000Y-75438000D02*
X151130000Y-74930000D01*
X151130000Y-74930000D02*
X151638000Y-74930000D01*
X151638000Y-74930000D02*
X151765000Y-74803000D01*
X151765000Y-74803000D02*
X151765000Y-73660000D01*
X147439000Y-83439000D02*
X147460000Y-83460000D01*
X145161000Y-83439000D02*
X147439000Y-83439000D01*
X145182000Y-82190000D02*
X145161000Y-82169000D01*
X147460000Y-82190000D02*
X145182000Y-82190000D01*
X145182000Y-80920000D02*
X145161000Y-80899000D01*
X147460000Y-80920000D02*
X145182000Y-80920000D01*
X145182000Y-79650000D02*
X145161000Y-79629000D01*
X147460000Y-79650000D02*
X145182000Y-79650000D01*
X145182000Y-78380000D02*
X145161000Y-78359000D01*
X147460000Y-78380000D02*
X145182000Y-78380000D01*
X145182000Y-77110000D02*
X145161000Y-77089000D01*
X147460000Y-77110000D02*
X145182000Y-77110000D01*
X145182000Y-75840000D02*
X145161000Y-75819000D01*
X147460000Y-75840000D02*
X145182000Y-75840000D01*
X145182000Y-74570000D02*
X145161000Y-74549000D01*
X147460000Y-74570000D02*
X145182000Y-74570000D01*
X145182000Y-73300000D02*
X145161000Y-73279000D01*
X147460000Y-73300000D02*
X145182000Y-73300000D01*
X145182000Y-72030000D02*
X145161000Y-72009000D01*
X147460000Y-72030000D02*
X145182000Y-72030000D01*
X122555000Y-71120000D02*
X125095000Y-71120000D01*
X154305000Y-71120000D02*
X151765000Y-71120000D01*
X131678000Y-79650000D02*
X131699000Y-79629000D01*
X129430000Y-79650000D02*
X131678000Y-79650000D01*
X129220000Y-71120000D02*
X125095000Y-71120000D01*
X129430000Y-71330000D02*
X129220000Y-71120000D01*
X132394000Y-89840000D02*
X132715000Y-89519000D01*
X129430000Y-89840000D02*
X132394000Y-89840000D01*
X144466000Y-89840000D02*
X144145000Y-89519000D01*
X147430000Y-89840000D02*
X144466000Y-89840000D01*
X133985000Y-89519000D02*
X133985000Y-90769000D01*
X131180000Y-92380000D02*
X129430000Y-92380000D01*
X133644000Y-92380000D02*
X131180000Y-92380000D01*
X135255000Y-90769000D02*
X133644000Y-92380000D01*
X135255000Y-89519000D02*
X135255000Y-90769000D01*
X131180000Y-93650000D02*
X129430000Y-93650000D01*
X133644000Y-93650000D02*
X131180000Y-93650000D01*
X136525000Y-90769000D02*
X133644000Y-93650000D01*
X136525000Y-89519000D02*
X136525000Y-90769000D01*
X131180000Y-94920000D02*
X129430000Y-94920000D01*
X133644000Y-94920000D02*
X131180000Y-94920000D01*
X137795000Y-90769000D02*
X133644000Y-94920000D01*
X137795000Y-89519000D02*
X137795000Y-90769000D01*
X142875000Y-89519000D02*
X142875000Y-90769000D01*
X145680000Y-92380000D02*
X147430000Y-92380000D01*
X143216000Y-92380000D02*
X145680000Y-92380000D01*
X141605000Y-90769000D02*
X143216000Y-92380000D01*
X141605000Y-89519000D02*
X141605000Y-90769000D01*
X145680000Y-93650000D02*
X147430000Y-93650000D01*
X143216000Y-93650000D02*
X145680000Y-93650000D01*
X140335000Y-90769000D02*
X143216000Y-93650000D01*
X140335000Y-89519000D02*
X140335000Y-90769000D01*
X145680000Y-94920000D02*
X147430000Y-94920000D01*
X143216000Y-94920000D02*
X145680000Y-94920000D01*
X139065000Y-90769000D02*
X143216000Y-94920000D01*
X139065000Y-89519000D02*
X139065000Y-90769000D01*
X133985000Y-91269000D02*
X133433000Y-91821000D01*
X133985000Y-89519000D02*
X133985000Y-91269000D01*
X133433000Y-91821000D02*
X131953000Y-91821000D01*
X131242000Y-91110000D02*
X129430000Y-91110000D01*
X131953000Y-91821000D02*
X131242000Y-91110000D01*
X142875000Y-91269000D02*
X143427000Y-91821000D01*
X142875000Y-89519000D02*
X142875000Y-91269000D01*
X143427000Y-91821000D02*
X144526000Y-91821000D01*
X145237000Y-91110000D02*
X147430000Y-91110000D01*
X144526000Y-91821000D02*
X145237000Y-91110000D01*
M02*
