M48
; DRILL file {KiCad 5.1.5} date Mon 27 Apr 2020 00:39:12 BST
; FORMAT={-:-/ absolute / inch / decimal}
; #@! TF.CreationDate,2020-04-27T00:39:12+01:00
; #@! TF.GenerationSoftware,Kicad,Pcbnew,5.1.5
FMAT,2
INCH
T1C0.0118
T2C0.0157
T3C0.0394
%
G90
G05
T1
X5.3555Y-3.0291
X5.3555Y-3.0685
X5.3555Y-3.1079
X5.3555Y-3.1472
X5.3555Y-3.1866
X5.3949Y-3.0291
X5.3949Y-3.0685
X5.3949Y-3.1079
X5.3949Y-3.1472
X5.3949Y-3.1866
X5.4343Y-3.0291
X5.4343Y-3.0685
X5.4343Y-3.1079
X5.4343Y-3.1472
X5.4343Y-3.1866
X5.4736Y-3.0291
X5.4736Y-3.0685
X5.4736Y-3.1079
X5.4736Y-3.1472
X5.4736Y-3.1866
X5.513Y-3.0291
X5.513Y-3.0685
X5.513Y-3.1079
X5.513Y-3.1472
X5.513Y-3.1866
T2
X5.18Y-3.49
X5.185Y-3.135
X5.19Y-3.24
X5.19Y-3.29
X5.19Y-3.34
X5.19Y-3.39
X5.19Y-3.44
X5.25Y-3.28
X5.715Y-2.835
X5.715Y-2.885
X5.715Y-2.935
X5.715Y-2.985
X5.715Y-3.035
X5.715Y-3.085
X5.715Y-3.135
X5.715Y-3.185
X5.715Y-3.235
X5.715Y-3.285
T3
X4.825Y-2.8
X4.825Y-2.9
X4.825Y-3.0
X4.825Y-3.1
X4.825Y-3.2
X4.825Y-3.3
X4.825Y-3.4
X4.825Y-3.5
X4.825Y-3.6
X4.825Y-3.7
X4.925Y-2.8
X4.925Y-2.9
X4.925Y-3.0
X4.925Y-3.1
X4.925Y-3.2
X4.925Y-3.3
X4.925Y-3.4
X4.925Y-3.5
X4.925Y-3.6
X4.925Y-3.7
X5.975Y-2.8
X5.975Y-2.9
X5.975Y-3.0
X5.975Y-3.1
X5.975Y-3.2
X5.975Y-3.3
X5.975Y-3.4
X5.975Y-3.5
X5.975Y-3.6
X5.975Y-3.7
X6.075Y-2.8
X6.075Y-2.9
X6.075Y-3.0
X6.075Y-3.1
X6.075Y-3.2
X6.075Y-3.3
X6.075Y-3.4
X6.075Y-3.5
X6.075Y-3.6
X6.075Y-3.7
T0
M30
