G04 #@! TF.GenerationSoftware,KiCad,Pcbnew,5.1.5*
G04 #@! TF.CreationDate,2020-04-27T00:38:36+01:00*
G04 #@! TF.ProjectId,esp32-wrover-breakout,65737033-322d-4777-926f-7665722d6272,rev?*
G04 #@! TF.SameCoordinates,Original*
G04 #@! TF.FileFunction,Soldermask,Top*
G04 #@! TF.FilePolarity,Negative*
%FSLAX46Y46*%
G04 Gerber Fmt 4.6, Leading zero omitted, Abs format (unit mm)*
G04 Created by KiCad (PCBNEW 5.1.5) date 2020-04-27 00:38:36*
%MOMM*%
%LPD*%
G04 APERTURE LIST*
%ADD10C,0.100000*%
G04 APERTURE END LIST*
D10*
G36*
X148578213Y-94426249D02*
G01*
X148672652Y-94454897D01*
X148759687Y-94501418D01*
X148835975Y-94564025D01*
X148898582Y-94640313D01*
X148945103Y-94727348D01*
X148973751Y-94821787D01*
X148983424Y-94920000D01*
X148973751Y-95018213D01*
X148945103Y-95112652D01*
X148898582Y-95199687D01*
X148835975Y-95275975D01*
X148759687Y-95338582D01*
X148672652Y-95385103D01*
X148578213Y-95413751D01*
X148504612Y-95421000D01*
X146355388Y-95421000D01*
X146281787Y-95413751D01*
X146187348Y-95385103D01*
X146100313Y-95338582D01*
X146024025Y-95275975D01*
X145961418Y-95199687D01*
X145914897Y-95112652D01*
X145886249Y-95018213D01*
X145876576Y-94920000D01*
X145886249Y-94821787D01*
X145914897Y-94727348D01*
X145961418Y-94640313D01*
X146024025Y-94564025D01*
X146100313Y-94501418D01*
X146187348Y-94454897D01*
X146281787Y-94426249D01*
X146355388Y-94419000D01*
X148504612Y-94419000D01*
X148578213Y-94426249D01*
G37*
G36*
X130578213Y-94426249D02*
G01*
X130672652Y-94454897D01*
X130759687Y-94501418D01*
X130835975Y-94564025D01*
X130898582Y-94640313D01*
X130945103Y-94727348D01*
X130973751Y-94821787D01*
X130983424Y-94920000D01*
X130973751Y-95018213D01*
X130945103Y-95112652D01*
X130898582Y-95199687D01*
X130835975Y-95275975D01*
X130759687Y-95338582D01*
X130672652Y-95385103D01*
X130578213Y-95413751D01*
X130504612Y-95421000D01*
X128355388Y-95421000D01*
X128281787Y-95413751D01*
X128187348Y-95385103D01*
X128100313Y-95338582D01*
X128024025Y-95275975D01*
X127961418Y-95199687D01*
X127914897Y-95112652D01*
X127886249Y-95018213D01*
X127876576Y-94920000D01*
X127886249Y-94821787D01*
X127914897Y-94727348D01*
X127961418Y-94640313D01*
X128024025Y-94564025D01*
X128100313Y-94501418D01*
X128187348Y-94454897D01*
X128281787Y-94426249D01*
X128355388Y-94419000D01*
X130504612Y-94419000D01*
X130578213Y-94426249D01*
G37*
G36*
X154418512Y-93083927D02*
G01*
X154567812Y-93113624D01*
X154731784Y-93181544D01*
X154879354Y-93280147D01*
X155004853Y-93405646D01*
X155103456Y-93553216D01*
X155171376Y-93717188D01*
X155206000Y-93891259D01*
X155206000Y-94068741D01*
X155171376Y-94242812D01*
X155103456Y-94406784D01*
X155004853Y-94554354D01*
X154879354Y-94679853D01*
X154731784Y-94778456D01*
X154567812Y-94846376D01*
X154418512Y-94876073D01*
X154393742Y-94881000D01*
X154216258Y-94881000D01*
X154191488Y-94876073D01*
X154042188Y-94846376D01*
X153878216Y-94778456D01*
X153730646Y-94679853D01*
X153605147Y-94554354D01*
X153506544Y-94406784D01*
X153438624Y-94242812D01*
X153404000Y-94068741D01*
X153404000Y-93891259D01*
X153438624Y-93717188D01*
X153506544Y-93553216D01*
X153605147Y-93405646D01*
X153730646Y-93280147D01*
X153878216Y-93181544D01*
X154042188Y-93113624D01*
X154191488Y-93083927D01*
X154216258Y-93079000D01*
X154393742Y-93079000D01*
X154418512Y-93083927D01*
G37*
G36*
X151878512Y-93083927D02*
G01*
X152027812Y-93113624D01*
X152191784Y-93181544D01*
X152339354Y-93280147D01*
X152464853Y-93405646D01*
X152563456Y-93553216D01*
X152631376Y-93717188D01*
X152666000Y-93891259D01*
X152666000Y-94068741D01*
X152631376Y-94242812D01*
X152563456Y-94406784D01*
X152464853Y-94554354D01*
X152339354Y-94679853D01*
X152191784Y-94778456D01*
X152027812Y-94846376D01*
X151878512Y-94876073D01*
X151853742Y-94881000D01*
X151676258Y-94881000D01*
X151651488Y-94876073D01*
X151502188Y-94846376D01*
X151338216Y-94778456D01*
X151190646Y-94679853D01*
X151065147Y-94554354D01*
X150966544Y-94406784D01*
X150898624Y-94242812D01*
X150864000Y-94068741D01*
X150864000Y-93891259D01*
X150898624Y-93717188D01*
X150966544Y-93553216D01*
X151065147Y-93405646D01*
X151190646Y-93280147D01*
X151338216Y-93181544D01*
X151502188Y-93113624D01*
X151651488Y-93083927D01*
X151676258Y-93079000D01*
X151853742Y-93079000D01*
X151878512Y-93083927D01*
G37*
G36*
X125208512Y-93083927D02*
G01*
X125357812Y-93113624D01*
X125521784Y-93181544D01*
X125669354Y-93280147D01*
X125794853Y-93405646D01*
X125893456Y-93553216D01*
X125961376Y-93717188D01*
X125996000Y-93891259D01*
X125996000Y-94068741D01*
X125961376Y-94242812D01*
X125893456Y-94406784D01*
X125794853Y-94554354D01*
X125669354Y-94679853D01*
X125521784Y-94778456D01*
X125357812Y-94846376D01*
X125208512Y-94876073D01*
X125183742Y-94881000D01*
X125006258Y-94881000D01*
X124981488Y-94876073D01*
X124832188Y-94846376D01*
X124668216Y-94778456D01*
X124520646Y-94679853D01*
X124395147Y-94554354D01*
X124296544Y-94406784D01*
X124228624Y-94242812D01*
X124194000Y-94068741D01*
X124194000Y-93891259D01*
X124228624Y-93717188D01*
X124296544Y-93553216D01*
X124395147Y-93405646D01*
X124520646Y-93280147D01*
X124668216Y-93181544D01*
X124832188Y-93113624D01*
X124981488Y-93083927D01*
X125006258Y-93079000D01*
X125183742Y-93079000D01*
X125208512Y-93083927D01*
G37*
G36*
X122668512Y-93083927D02*
G01*
X122817812Y-93113624D01*
X122981784Y-93181544D01*
X123129354Y-93280147D01*
X123254853Y-93405646D01*
X123353456Y-93553216D01*
X123421376Y-93717188D01*
X123456000Y-93891259D01*
X123456000Y-94068741D01*
X123421376Y-94242812D01*
X123353456Y-94406784D01*
X123254853Y-94554354D01*
X123129354Y-94679853D01*
X122981784Y-94778456D01*
X122817812Y-94846376D01*
X122668512Y-94876073D01*
X122643742Y-94881000D01*
X122466258Y-94881000D01*
X122441488Y-94876073D01*
X122292188Y-94846376D01*
X122128216Y-94778456D01*
X121980646Y-94679853D01*
X121855147Y-94554354D01*
X121756544Y-94406784D01*
X121688624Y-94242812D01*
X121654000Y-94068741D01*
X121654000Y-93891259D01*
X121688624Y-93717188D01*
X121756544Y-93553216D01*
X121855147Y-93405646D01*
X121980646Y-93280147D01*
X122128216Y-93181544D01*
X122292188Y-93113624D01*
X122441488Y-93083927D01*
X122466258Y-93079000D01*
X122643742Y-93079000D01*
X122668512Y-93083927D01*
G37*
G36*
X148578213Y-93156249D02*
G01*
X148672652Y-93184897D01*
X148759687Y-93231418D01*
X148835975Y-93294025D01*
X148898582Y-93370313D01*
X148945103Y-93457348D01*
X148973751Y-93551787D01*
X148983424Y-93650000D01*
X148973751Y-93748213D01*
X148945103Y-93842652D01*
X148898582Y-93929687D01*
X148835975Y-94005975D01*
X148759687Y-94068582D01*
X148672652Y-94115103D01*
X148578213Y-94143751D01*
X148504612Y-94151000D01*
X146355388Y-94151000D01*
X146281787Y-94143751D01*
X146187348Y-94115103D01*
X146100313Y-94068582D01*
X146024025Y-94005975D01*
X145961418Y-93929687D01*
X145914897Y-93842652D01*
X145886249Y-93748213D01*
X145876576Y-93650000D01*
X145886249Y-93551787D01*
X145914897Y-93457348D01*
X145961418Y-93370313D01*
X146024025Y-93294025D01*
X146100313Y-93231418D01*
X146187348Y-93184897D01*
X146281787Y-93156249D01*
X146355388Y-93149000D01*
X148504612Y-93149000D01*
X148578213Y-93156249D01*
G37*
G36*
X130578213Y-93156249D02*
G01*
X130672652Y-93184897D01*
X130759687Y-93231418D01*
X130835975Y-93294025D01*
X130898582Y-93370313D01*
X130945103Y-93457348D01*
X130973751Y-93551787D01*
X130983424Y-93650000D01*
X130973751Y-93748213D01*
X130945103Y-93842652D01*
X130898582Y-93929687D01*
X130835975Y-94005975D01*
X130759687Y-94068582D01*
X130672652Y-94115103D01*
X130578213Y-94143751D01*
X130504612Y-94151000D01*
X128355388Y-94151000D01*
X128281787Y-94143751D01*
X128187348Y-94115103D01*
X128100313Y-94068582D01*
X128024025Y-94005975D01*
X127961418Y-93929687D01*
X127914897Y-93842652D01*
X127886249Y-93748213D01*
X127876576Y-93650000D01*
X127886249Y-93551787D01*
X127914897Y-93457348D01*
X127961418Y-93370313D01*
X128024025Y-93294025D01*
X128100313Y-93231418D01*
X128187348Y-93184897D01*
X128281787Y-93156249D01*
X128355388Y-93149000D01*
X130504612Y-93149000D01*
X130578213Y-93156249D01*
G37*
G36*
X130578213Y-91886249D02*
G01*
X130672652Y-91914897D01*
X130759687Y-91961418D01*
X130835975Y-92024025D01*
X130898582Y-92100313D01*
X130945103Y-92187348D01*
X130973751Y-92281787D01*
X130983424Y-92380000D01*
X130973751Y-92478213D01*
X130945103Y-92572652D01*
X130898582Y-92659687D01*
X130835975Y-92735975D01*
X130759687Y-92798582D01*
X130672652Y-92845103D01*
X130578213Y-92873751D01*
X130504612Y-92881000D01*
X128355388Y-92881000D01*
X128281787Y-92873751D01*
X128187348Y-92845103D01*
X128100313Y-92798582D01*
X128024025Y-92735975D01*
X127961418Y-92659687D01*
X127914897Y-92572652D01*
X127886249Y-92478213D01*
X127876576Y-92380000D01*
X127886249Y-92281787D01*
X127914897Y-92187348D01*
X127961418Y-92100313D01*
X128024025Y-92024025D01*
X128100313Y-91961418D01*
X128187348Y-91914897D01*
X128281787Y-91886249D01*
X128355388Y-91879000D01*
X130504612Y-91879000D01*
X130578213Y-91886249D01*
G37*
G36*
X148578213Y-91886249D02*
G01*
X148672652Y-91914897D01*
X148759687Y-91961418D01*
X148835975Y-92024025D01*
X148898582Y-92100313D01*
X148945103Y-92187348D01*
X148973751Y-92281787D01*
X148983424Y-92380000D01*
X148973751Y-92478213D01*
X148945103Y-92572652D01*
X148898582Y-92659687D01*
X148835975Y-92735975D01*
X148759687Y-92798582D01*
X148672652Y-92845103D01*
X148578213Y-92873751D01*
X148504612Y-92881000D01*
X146355388Y-92881000D01*
X146281787Y-92873751D01*
X146187348Y-92845103D01*
X146100313Y-92798582D01*
X146024025Y-92735975D01*
X145961418Y-92659687D01*
X145914897Y-92572652D01*
X145886249Y-92478213D01*
X145876576Y-92380000D01*
X145886249Y-92281787D01*
X145914897Y-92187348D01*
X145961418Y-92100313D01*
X146024025Y-92024025D01*
X146100313Y-91961418D01*
X146187348Y-91914897D01*
X146281787Y-91886249D01*
X146355388Y-91879000D01*
X148504612Y-91879000D01*
X148578213Y-91886249D01*
G37*
G36*
X122668512Y-90543927D02*
G01*
X122817812Y-90573624D01*
X122981784Y-90641544D01*
X123129354Y-90740147D01*
X123254853Y-90865646D01*
X123353456Y-91013216D01*
X123421376Y-91177188D01*
X123456000Y-91351259D01*
X123456000Y-91528741D01*
X123421376Y-91702812D01*
X123353456Y-91866784D01*
X123254853Y-92014354D01*
X123129354Y-92139853D01*
X122981784Y-92238456D01*
X122817812Y-92306376D01*
X122668512Y-92336073D01*
X122643742Y-92341000D01*
X122466258Y-92341000D01*
X122441488Y-92336073D01*
X122292188Y-92306376D01*
X122128216Y-92238456D01*
X121980646Y-92139853D01*
X121855147Y-92014354D01*
X121756544Y-91866784D01*
X121688624Y-91702812D01*
X121654000Y-91528741D01*
X121654000Y-91351259D01*
X121688624Y-91177188D01*
X121756544Y-91013216D01*
X121855147Y-90865646D01*
X121980646Y-90740147D01*
X122128216Y-90641544D01*
X122292188Y-90573624D01*
X122441488Y-90543927D01*
X122466258Y-90539000D01*
X122643742Y-90539000D01*
X122668512Y-90543927D01*
G37*
G36*
X125208512Y-90543927D02*
G01*
X125357812Y-90573624D01*
X125521784Y-90641544D01*
X125669354Y-90740147D01*
X125794853Y-90865646D01*
X125893456Y-91013216D01*
X125961376Y-91177188D01*
X125996000Y-91351259D01*
X125996000Y-91528741D01*
X125961376Y-91702812D01*
X125893456Y-91866784D01*
X125794853Y-92014354D01*
X125669354Y-92139853D01*
X125521784Y-92238456D01*
X125357812Y-92306376D01*
X125208512Y-92336073D01*
X125183742Y-92341000D01*
X125006258Y-92341000D01*
X124981488Y-92336073D01*
X124832188Y-92306376D01*
X124668216Y-92238456D01*
X124520646Y-92139853D01*
X124395147Y-92014354D01*
X124296544Y-91866784D01*
X124228624Y-91702812D01*
X124194000Y-91528741D01*
X124194000Y-91351259D01*
X124228624Y-91177188D01*
X124296544Y-91013216D01*
X124395147Y-90865646D01*
X124520646Y-90740147D01*
X124668216Y-90641544D01*
X124832188Y-90573624D01*
X124981488Y-90543927D01*
X125006258Y-90539000D01*
X125183742Y-90539000D01*
X125208512Y-90543927D01*
G37*
G36*
X154418512Y-90543927D02*
G01*
X154567812Y-90573624D01*
X154731784Y-90641544D01*
X154879354Y-90740147D01*
X155004853Y-90865646D01*
X155103456Y-91013216D01*
X155171376Y-91177188D01*
X155206000Y-91351259D01*
X155206000Y-91528741D01*
X155171376Y-91702812D01*
X155103456Y-91866784D01*
X155004853Y-92014354D01*
X154879354Y-92139853D01*
X154731784Y-92238456D01*
X154567812Y-92306376D01*
X154418512Y-92336073D01*
X154393742Y-92341000D01*
X154216258Y-92341000D01*
X154191488Y-92336073D01*
X154042188Y-92306376D01*
X153878216Y-92238456D01*
X153730646Y-92139853D01*
X153605147Y-92014354D01*
X153506544Y-91866784D01*
X153438624Y-91702812D01*
X153404000Y-91528741D01*
X153404000Y-91351259D01*
X153438624Y-91177188D01*
X153506544Y-91013216D01*
X153605147Y-90865646D01*
X153730646Y-90740147D01*
X153878216Y-90641544D01*
X154042188Y-90573624D01*
X154191488Y-90543927D01*
X154216258Y-90539000D01*
X154393742Y-90539000D01*
X154418512Y-90543927D01*
G37*
G36*
X151878512Y-90543927D02*
G01*
X152027812Y-90573624D01*
X152191784Y-90641544D01*
X152339354Y-90740147D01*
X152464853Y-90865646D01*
X152563456Y-91013216D01*
X152631376Y-91177188D01*
X152666000Y-91351259D01*
X152666000Y-91528741D01*
X152631376Y-91702812D01*
X152563456Y-91866784D01*
X152464853Y-92014354D01*
X152339354Y-92139853D01*
X152191784Y-92238456D01*
X152027812Y-92306376D01*
X151878512Y-92336073D01*
X151853742Y-92341000D01*
X151676258Y-92341000D01*
X151651488Y-92336073D01*
X151502188Y-92306376D01*
X151338216Y-92238456D01*
X151190646Y-92139853D01*
X151065147Y-92014354D01*
X150966544Y-91866784D01*
X150898624Y-91702812D01*
X150864000Y-91528741D01*
X150864000Y-91351259D01*
X150898624Y-91177188D01*
X150966544Y-91013216D01*
X151065147Y-90865646D01*
X151190646Y-90740147D01*
X151338216Y-90641544D01*
X151502188Y-90573624D01*
X151651488Y-90543927D01*
X151676258Y-90539000D01*
X151853742Y-90539000D01*
X151878512Y-90543927D01*
G37*
G36*
X130578213Y-90616249D02*
G01*
X130672652Y-90644897D01*
X130759687Y-90691418D01*
X130835975Y-90754025D01*
X130898582Y-90830313D01*
X130945103Y-90917348D01*
X130973751Y-91011787D01*
X130983424Y-91110000D01*
X130973751Y-91208213D01*
X130945103Y-91302652D01*
X130898582Y-91389687D01*
X130835975Y-91465975D01*
X130759687Y-91528582D01*
X130672652Y-91575103D01*
X130578213Y-91603751D01*
X130504612Y-91611000D01*
X128355388Y-91611000D01*
X128281787Y-91603751D01*
X128187348Y-91575103D01*
X128100313Y-91528582D01*
X128024025Y-91465975D01*
X127961418Y-91389687D01*
X127914897Y-91302652D01*
X127886249Y-91208213D01*
X127876576Y-91110000D01*
X127886249Y-91011787D01*
X127914897Y-90917348D01*
X127961418Y-90830313D01*
X128024025Y-90754025D01*
X128100313Y-90691418D01*
X128187348Y-90644897D01*
X128281787Y-90616249D01*
X128355388Y-90609000D01*
X130504612Y-90609000D01*
X130578213Y-90616249D01*
G37*
G36*
X148578213Y-90616249D02*
G01*
X148672652Y-90644897D01*
X148759687Y-90691418D01*
X148835975Y-90754025D01*
X148898582Y-90830313D01*
X148945103Y-90917348D01*
X148973751Y-91011787D01*
X148983424Y-91110000D01*
X148973751Y-91208213D01*
X148945103Y-91302652D01*
X148898582Y-91389687D01*
X148835975Y-91465975D01*
X148759687Y-91528582D01*
X148672652Y-91575103D01*
X148578213Y-91603751D01*
X148504612Y-91611000D01*
X146355388Y-91611000D01*
X146281787Y-91603751D01*
X146187348Y-91575103D01*
X146100313Y-91528582D01*
X146024025Y-91465975D01*
X145961418Y-91389687D01*
X145914897Y-91302652D01*
X145886249Y-91208213D01*
X145876576Y-91110000D01*
X145886249Y-91011787D01*
X145914897Y-90917348D01*
X145961418Y-90830313D01*
X146024025Y-90754025D01*
X146100313Y-90691418D01*
X146187348Y-90644897D01*
X146281787Y-90616249D01*
X146355388Y-90609000D01*
X148504612Y-90609000D01*
X148578213Y-90616249D01*
G37*
G36*
X135353212Y-87975249D02*
G01*
X135447651Y-88003897D01*
X135534687Y-88050418D01*
X135610975Y-88113025D01*
X135673582Y-88189313D01*
X135720103Y-88276348D01*
X135748751Y-88370787D01*
X135756000Y-88444388D01*
X135756000Y-90593612D01*
X135748751Y-90667213D01*
X135720103Y-90761652D01*
X135673582Y-90848687D01*
X135610975Y-90924975D01*
X135534687Y-90987582D01*
X135447652Y-91034103D01*
X135353213Y-91062751D01*
X135255000Y-91072424D01*
X135156788Y-91062751D01*
X135062349Y-91034103D01*
X134975314Y-90987582D01*
X134899026Y-90924975D01*
X134836419Y-90848687D01*
X134789898Y-90761652D01*
X134761250Y-90667213D01*
X134754001Y-90593612D01*
X134754000Y-88444389D01*
X134761249Y-88370788D01*
X134789897Y-88276349D01*
X134836418Y-88189313D01*
X134899025Y-88113025D01*
X134975313Y-88050418D01*
X135062348Y-88003897D01*
X135156787Y-87975249D01*
X135255000Y-87965576D01*
X135353212Y-87975249D01*
G37*
G36*
X132813212Y-87975249D02*
G01*
X132907651Y-88003897D01*
X132994687Y-88050418D01*
X133070975Y-88113025D01*
X133133582Y-88189313D01*
X133180103Y-88276348D01*
X133208751Y-88370787D01*
X133216000Y-88444388D01*
X133216000Y-90593612D01*
X133208751Y-90667213D01*
X133180103Y-90761652D01*
X133133582Y-90848687D01*
X133070975Y-90924975D01*
X132994687Y-90987582D01*
X132907652Y-91034103D01*
X132813213Y-91062751D01*
X132715000Y-91072424D01*
X132616788Y-91062751D01*
X132522349Y-91034103D01*
X132435314Y-90987582D01*
X132359026Y-90924975D01*
X132296419Y-90848687D01*
X132249898Y-90761652D01*
X132221250Y-90667213D01*
X132214001Y-90593612D01*
X132214000Y-88444389D01*
X132221249Y-88370788D01*
X132249897Y-88276349D01*
X132296418Y-88189313D01*
X132359025Y-88113025D01*
X132435313Y-88050418D01*
X132522348Y-88003897D01*
X132616787Y-87975249D01*
X132715000Y-87965576D01*
X132813212Y-87975249D01*
G37*
G36*
X134083212Y-87975249D02*
G01*
X134177651Y-88003897D01*
X134264687Y-88050418D01*
X134340975Y-88113025D01*
X134403582Y-88189313D01*
X134450103Y-88276348D01*
X134478751Y-88370787D01*
X134486000Y-88444388D01*
X134486000Y-90593612D01*
X134478751Y-90667213D01*
X134450103Y-90761652D01*
X134403582Y-90848687D01*
X134340975Y-90924975D01*
X134264687Y-90987582D01*
X134177652Y-91034103D01*
X134083213Y-91062751D01*
X133985000Y-91072424D01*
X133886788Y-91062751D01*
X133792349Y-91034103D01*
X133705314Y-90987582D01*
X133629026Y-90924975D01*
X133566419Y-90848687D01*
X133519898Y-90761652D01*
X133491250Y-90667213D01*
X133484001Y-90593612D01*
X133484000Y-88444389D01*
X133491249Y-88370788D01*
X133519897Y-88276349D01*
X133566418Y-88189313D01*
X133629025Y-88113025D01*
X133705313Y-88050418D01*
X133792348Y-88003897D01*
X133886787Y-87975249D01*
X133985000Y-87965576D01*
X134083212Y-87975249D01*
G37*
G36*
X144243212Y-87975249D02*
G01*
X144337651Y-88003897D01*
X144424687Y-88050418D01*
X144500975Y-88113025D01*
X144563582Y-88189313D01*
X144610103Y-88276348D01*
X144638751Y-88370787D01*
X144646000Y-88444388D01*
X144646000Y-90593612D01*
X144638751Y-90667213D01*
X144610103Y-90761652D01*
X144563582Y-90848687D01*
X144500975Y-90924975D01*
X144424687Y-90987582D01*
X144337652Y-91034103D01*
X144243213Y-91062751D01*
X144145000Y-91072424D01*
X144046788Y-91062751D01*
X143952349Y-91034103D01*
X143865314Y-90987582D01*
X143789026Y-90924975D01*
X143726419Y-90848687D01*
X143679898Y-90761652D01*
X143651250Y-90667213D01*
X143644001Y-90593612D01*
X143644000Y-88444389D01*
X143651249Y-88370788D01*
X143679897Y-88276349D01*
X143726418Y-88189313D01*
X143789025Y-88113025D01*
X143865313Y-88050418D01*
X143952348Y-88003897D01*
X144046787Y-87975249D01*
X144145000Y-87965576D01*
X144243212Y-87975249D01*
G37*
G36*
X142973212Y-87975249D02*
G01*
X143067651Y-88003897D01*
X143154687Y-88050418D01*
X143230975Y-88113025D01*
X143293582Y-88189313D01*
X143340103Y-88276348D01*
X143368751Y-88370787D01*
X143376000Y-88444388D01*
X143376000Y-90593612D01*
X143368751Y-90667213D01*
X143340103Y-90761652D01*
X143293582Y-90848687D01*
X143230975Y-90924975D01*
X143154687Y-90987582D01*
X143067652Y-91034103D01*
X142973213Y-91062751D01*
X142875000Y-91072424D01*
X142776788Y-91062751D01*
X142682349Y-91034103D01*
X142595314Y-90987582D01*
X142519026Y-90924975D01*
X142456419Y-90848687D01*
X142409898Y-90761652D01*
X142381250Y-90667213D01*
X142374001Y-90593612D01*
X142374000Y-88444389D01*
X142381249Y-88370788D01*
X142409897Y-88276349D01*
X142456418Y-88189313D01*
X142519025Y-88113025D01*
X142595313Y-88050418D01*
X142682348Y-88003897D01*
X142776787Y-87975249D01*
X142875000Y-87965576D01*
X142973212Y-87975249D01*
G37*
G36*
X141703212Y-87975249D02*
G01*
X141797651Y-88003897D01*
X141884687Y-88050418D01*
X141960975Y-88113025D01*
X142023582Y-88189313D01*
X142070103Y-88276348D01*
X142098751Y-88370787D01*
X142106000Y-88444388D01*
X142106000Y-90593612D01*
X142098751Y-90667213D01*
X142070103Y-90761652D01*
X142023582Y-90848687D01*
X141960975Y-90924975D01*
X141884687Y-90987582D01*
X141797652Y-91034103D01*
X141703213Y-91062751D01*
X141605000Y-91072424D01*
X141506788Y-91062751D01*
X141412349Y-91034103D01*
X141325314Y-90987582D01*
X141249026Y-90924975D01*
X141186419Y-90848687D01*
X141139898Y-90761652D01*
X141111250Y-90667213D01*
X141104001Y-90593612D01*
X141104000Y-88444389D01*
X141111249Y-88370788D01*
X141139897Y-88276349D01*
X141186418Y-88189313D01*
X141249025Y-88113025D01*
X141325313Y-88050418D01*
X141412348Y-88003897D01*
X141506787Y-87975249D01*
X141605000Y-87965576D01*
X141703212Y-87975249D01*
G37*
G36*
X140433212Y-87975249D02*
G01*
X140527651Y-88003897D01*
X140614687Y-88050418D01*
X140690975Y-88113025D01*
X140753582Y-88189313D01*
X140800103Y-88276348D01*
X140828751Y-88370787D01*
X140836000Y-88444388D01*
X140836000Y-90593612D01*
X140828751Y-90667213D01*
X140800103Y-90761652D01*
X140753582Y-90848687D01*
X140690975Y-90924975D01*
X140614687Y-90987582D01*
X140527652Y-91034103D01*
X140433213Y-91062751D01*
X140335000Y-91072424D01*
X140236788Y-91062751D01*
X140142349Y-91034103D01*
X140055314Y-90987582D01*
X139979026Y-90924975D01*
X139916419Y-90848687D01*
X139869898Y-90761652D01*
X139841250Y-90667213D01*
X139834001Y-90593612D01*
X139834000Y-88444389D01*
X139841249Y-88370788D01*
X139869897Y-88276349D01*
X139916418Y-88189313D01*
X139979025Y-88113025D01*
X140055313Y-88050418D01*
X140142348Y-88003897D01*
X140236787Y-87975249D01*
X140335000Y-87965576D01*
X140433212Y-87975249D01*
G37*
G36*
X139163212Y-87975249D02*
G01*
X139257651Y-88003897D01*
X139344687Y-88050418D01*
X139420975Y-88113025D01*
X139483582Y-88189313D01*
X139530103Y-88276348D01*
X139558751Y-88370787D01*
X139566000Y-88444388D01*
X139566000Y-90593612D01*
X139558751Y-90667213D01*
X139530103Y-90761652D01*
X139483582Y-90848687D01*
X139420975Y-90924975D01*
X139344687Y-90987582D01*
X139257652Y-91034103D01*
X139163213Y-91062751D01*
X139065000Y-91072424D01*
X138966788Y-91062751D01*
X138872349Y-91034103D01*
X138785314Y-90987582D01*
X138709026Y-90924975D01*
X138646419Y-90848687D01*
X138599898Y-90761652D01*
X138571250Y-90667213D01*
X138564001Y-90593612D01*
X138564000Y-88444389D01*
X138571249Y-88370788D01*
X138599897Y-88276349D01*
X138646418Y-88189313D01*
X138709025Y-88113025D01*
X138785313Y-88050418D01*
X138872348Y-88003897D01*
X138966787Y-87975249D01*
X139065000Y-87965576D01*
X139163212Y-87975249D01*
G37*
G36*
X137893212Y-87975249D02*
G01*
X137987651Y-88003897D01*
X138074687Y-88050418D01*
X138150975Y-88113025D01*
X138213582Y-88189313D01*
X138260103Y-88276348D01*
X138288751Y-88370787D01*
X138296000Y-88444388D01*
X138296000Y-90593612D01*
X138288751Y-90667213D01*
X138260103Y-90761652D01*
X138213582Y-90848687D01*
X138150975Y-90924975D01*
X138074687Y-90987582D01*
X137987652Y-91034103D01*
X137893213Y-91062751D01*
X137795000Y-91072424D01*
X137696788Y-91062751D01*
X137602349Y-91034103D01*
X137515314Y-90987582D01*
X137439026Y-90924975D01*
X137376419Y-90848687D01*
X137329898Y-90761652D01*
X137301250Y-90667213D01*
X137294001Y-90593612D01*
X137294000Y-88444389D01*
X137301249Y-88370788D01*
X137329897Y-88276349D01*
X137376418Y-88189313D01*
X137439025Y-88113025D01*
X137515313Y-88050418D01*
X137602348Y-88003897D01*
X137696787Y-87975249D01*
X137795000Y-87965576D01*
X137893212Y-87975249D01*
G37*
G36*
X136623212Y-87975249D02*
G01*
X136717651Y-88003897D01*
X136804687Y-88050418D01*
X136880975Y-88113025D01*
X136943582Y-88189313D01*
X136990103Y-88276348D01*
X137018751Y-88370787D01*
X137026000Y-88444388D01*
X137026000Y-90593612D01*
X137018751Y-90667213D01*
X136990103Y-90761652D01*
X136943582Y-90848687D01*
X136880975Y-90924975D01*
X136804687Y-90987582D01*
X136717652Y-91034103D01*
X136623213Y-91062751D01*
X136525000Y-91072424D01*
X136426788Y-91062751D01*
X136332349Y-91034103D01*
X136245314Y-90987582D01*
X136169026Y-90924975D01*
X136106419Y-90848687D01*
X136059898Y-90761652D01*
X136031250Y-90667213D01*
X136024001Y-90593612D01*
X136024000Y-88444389D01*
X136031249Y-88370788D01*
X136059897Y-88276349D01*
X136106418Y-88189313D01*
X136169025Y-88113025D01*
X136245313Y-88050418D01*
X136332348Y-88003897D01*
X136426787Y-87975249D01*
X136525000Y-87965576D01*
X136623212Y-87975249D01*
G37*
G36*
X130578213Y-89346249D02*
G01*
X130672652Y-89374897D01*
X130759687Y-89421418D01*
X130835975Y-89484025D01*
X130898582Y-89560313D01*
X130945103Y-89647348D01*
X130973751Y-89741787D01*
X130983424Y-89840000D01*
X130973751Y-89938213D01*
X130945103Y-90032652D01*
X130898582Y-90119687D01*
X130835975Y-90195975D01*
X130759687Y-90258582D01*
X130672652Y-90305103D01*
X130578213Y-90333751D01*
X130504612Y-90341000D01*
X128355388Y-90341000D01*
X128281787Y-90333751D01*
X128187348Y-90305103D01*
X128100313Y-90258582D01*
X128024025Y-90195975D01*
X127961418Y-90119687D01*
X127914897Y-90032652D01*
X127886249Y-89938213D01*
X127876576Y-89840000D01*
X127886249Y-89741787D01*
X127914897Y-89647348D01*
X127961418Y-89560313D01*
X128024025Y-89484025D01*
X128100313Y-89421418D01*
X128187348Y-89374897D01*
X128281787Y-89346249D01*
X128355388Y-89339000D01*
X130504612Y-89339000D01*
X130578213Y-89346249D01*
G37*
G36*
X148578213Y-89346249D02*
G01*
X148672652Y-89374897D01*
X148759687Y-89421418D01*
X148835975Y-89484025D01*
X148898582Y-89560313D01*
X148945103Y-89647348D01*
X148973751Y-89741787D01*
X148983424Y-89840000D01*
X148973751Y-89938213D01*
X148945103Y-90032652D01*
X148898582Y-90119687D01*
X148835975Y-90195975D01*
X148759687Y-90258582D01*
X148672652Y-90305103D01*
X148578213Y-90333751D01*
X148504612Y-90341000D01*
X146355388Y-90341000D01*
X146281787Y-90333751D01*
X146187348Y-90305103D01*
X146100313Y-90258582D01*
X146024025Y-90195975D01*
X145961418Y-90119687D01*
X145914897Y-90032652D01*
X145886249Y-89938213D01*
X145876576Y-89840000D01*
X145886249Y-89741787D01*
X145914897Y-89647348D01*
X145961418Y-89560313D01*
X146024025Y-89484025D01*
X146100313Y-89421418D01*
X146187348Y-89374897D01*
X146281787Y-89346249D01*
X146355388Y-89339000D01*
X148504612Y-89339000D01*
X148578213Y-89346249D01*
G37*
G36*
X125208361Y-88003897D02*
G01*
X125357812Y-88033624D01*
X125521784Y-88101544D01*
X125669354Y-88200147D01*
X125794853Y-88325646D01*
X125893456Y-88473216D01*
X125961376Y-88637188D01*
X125980364Y-88732650D01*
X125996000Y-88811258D01*
X125996000Y-88988742D01*
X125991073Y-89013512D01*
X125961376Y-89162812D01*
X125893456Y-89326784D01*
X125794853Y-89474354D01*
X125669354Y-89599853D01*
X125521784Y-89698456D01*
X125357812Y-89766376D01*
X125208512Y-89796073D01*
X125183742Y-89801000D01*
X125006258Y-89801000D01*
X124981488Y-89796073D01*
X124832188Y-89766376D01*
X124668216Y-89698456D01*
X124520646Y-89599853D01*
X124395147Y-89474354D01*
X124296544Y-89326784D01*
X124228624Y-89162812D01*
X124198927Y-89013512D01*
X124194000Y-88988742D01*
X124194000Y-88811258D01*
X124209636Y-88732650D01*
X124228624Y-88637188D01*
X124296544Y-88473216D01*
X124395147Y-88325646D01*
X124520646Y-88200147D01*
X124668216Y-88101544D01*
X124832188Y-88033624D01*
X124981639Y-88003897D01*
X125006258Y-87999000D01*
X125183742Y-87999000D01*
X125208361Y-88003897D01*
G37*
G36*
X151878361Y-88003897D02*
G01*
X152027812Y-88033624D01*
X152191784Y-88101544D01*
X152339354Y-88200147D01*
X152464853Y-88325646D01*
X152563456Y-88473216D01*
X152631376Y-88637188D01*
X152650364Y-88732650D01*
X152666000Y-88811258D01*
X152666000Y-88988742D01*
X152661073Y-89013512D01*
X152631376Y-89162812D01*
X152563456Y-89326784D01*
X152464853Y-89474354D01*
X152339354Y-89599853D01*
X152191784Y-89698456D01*
X152027812Y-89766376D01*
X151878512Y-89796073D01*
X151853742Y-89801000D01*
X151676258Y-89801000D01*
X151651488Y-89796073D01*
X151502188Y-89766376D01*
X151338216Y-89698456D01*
X151190646Y-89599853D01*
X151065147Y-89474354D01*
X150966544Y-89326784D01*
X150898624Y-89162812D01*
X150868927Y-89013512D01*
X150864000Y-88988742D01*
X150864000Y-88811258D01*
X150879636Y-88732650D01*
X150898624Y-88637188D01*
X150966544Y-88473216D01*
X151065147Y-88325646D01*
X151190646Y-88200147D01*
X151338216Y-88101544D01*
X151502188Y-88033624D01*
X151651639Y-88003897D01*
X151676258Y-87999000D01*
X151853742Y-87999000D01*
X151878361Y-88003897D01*
G37*
G36*
X154418361Y-88003897D02*
G01*
X154567812Y-88033624D01*
X154731784Y-88101544D01*
X154879354Y-88200147D01*
X155004853Y-88325646D01*
X155103456Y-88473216D01*
X155171376Y-88637188D01*
X155190364Y-88732650D01*
X155206000Y-88811258D01*
X155206000Y-88988742D01*
X155201073Y-89013512D01*
X155171376Y-89162812D01*
X155103456Y-89326784D01*
X155004853Y-89474354D01*
X154879354Y-89599853D01*
X154731784Y-89698456D01*
X154567812Y-89766376D01*
X154418512Y-89796073D01*
X154393742Y-89801000D01*
X154216258Y-89801000D01*
X154191488Y-89796073D01*
X154042188Y-89766376D01*
X153878216Y-89698456D01*
X153730646Y-89599853D01*
X153605147Y-89474354D01*
X153506544Y-89326784D01*
X153438624Y-89162812D01*
X153408927Y-89013512D01*
X153404000Y-88988742D01*
X153404000Y-88811258D01*
X153419636Y-88732650D01*
X153438624Y-88637188D01*
X153506544Y-88473216D01*
X153605147Y-88325646D01*
X153730646Y-88200147D01*
X153878216Y-88101544D01*
X154042188Y-88033624D01*
X154191639Y-88003897D01*
X154216258Y-87999000D01*
X154393742Y-87999000D01*
X154418361Y-88003897D01*
G37*
G36*
X122668361Y-88003897D02*
G01*
X122817812Y-88033624D01*
X122981784Y-88101544D01*
X123129354Y-88200147D01*
X123254853Y-88325646D01*
X123353456Y-88473216D01*
X123421376Y-88637188D01*
X123440364Y-88732650D01*
X123456000Y-88811258D01*
X123456000Y-88988742D01*
X123451073Y-89013512D01*
X123421376Y-89162812D01*
X123353456Y-89326784D01*
X123254853Y-89474354D01*
X123129354Y-89599853D01*
X122981784Y-89698456D01*
X122817812Y-89766376D01*
X122668512Y-89796073D01*
X122643742Y-89801000D01*
X122466258Y-89801000D01*
X122441488Y-89796073D01*
X122292188Y-89766376D01*
X122128216Y-89698456D01*
X121980646Y-89599853D01*
X121855147Y-89474354D01*
X121756544Y-89326784D01*
X121688624Y-89162812D01*
X121658927Y-89013512D01*
X121654000Y-88988742D01*
X121654000Y-88811258D01*
X121669636Y-88732650D01*
X121688624Y-88637188D01*
X121756544Y-88473216D01*
X121855147Y-88325646D01*
X121980646Y-88200147D01*
X122128216Y-88101544D01*
X122292188Y-88033624D01*
X122441639Y-88003897D01*
X122466258Y-87999000D01*
X122643742Y-87999000D01*
X122668361Y-88003897D01*
G37*
G36*
X130981000Y-71999257D02*
G01*
X130981601Y-72011492D01*
X130983424Y-72030000D01*
X130981601Y-72048508D01*
X130981000Y-72060743D01*
X130981000Y-72510000D01*
X130642081Y-72510000D01*
X130617695Y-72512402D01*
X130605828Y-72515374D01*
X130578213Y-72523751D01*
X130528917Y-72528606D01*
X130504895Y-72533385D01*
X130482256Y-72542762D01*
X130461882Y-72556376D01*
X130444555Y-72573703D01*
X130430942Y-72594077D01*
X130421564Y-72616716D01*
X130416784Y-72640749D01*
X130416784Y-72665254D01*
X130421565Y-72689287D01*
X130430942Y-72711926D01*
X130444556Y-72732300D01*
X130461883Y-72749627D01*
X130482257Y-72763240D01*
X130504896Y-72772618D01*
X130541181Y-72778000D01*
X130981000Y-72778000D01*
X130981000Y-73269257D01*
X130981601Y-73281492D01*
X130983424Y-73300000D01*
X130981601Y-73318508D01*
X130981000Y-73330743D01*
X130981000Y-73780000D01*
X130642081Y-73780000D01*
X130617695Y-73782402D01*
X130605828Y-73785374D01*
X130578213Y-73793751D01*
X130528917Y-73798606D01*
X130504895Y-73803385D01*
X130482256Y-73812762D01*
X130461882Y-73826376D01*
X130444555Y-73843703D01*
X130430942Y-73864077D01*
X130421564Y-73886716D01*
X130416784Y-73910749D01*
X130416784Y-73935254D01*
X130421565Y-73959287D01*
X130430942Y-73981926D01*
X130444556Y-74002300D01*
X130461883Y-74019627D01*
X130482257Y-74033240D01*
X130504896Y-74042618D01*
X130541181Y-74048000D01*
X130981000Y-74048000D01*
X130981000Y-74539257D01*
X130981601Y-74551492D01*
X130983424Y-74570000D01*
X130981601Y-74588508D01*
X130981000Y-74600743D01*
X130981000Y-75050000D01*
X130642081Y-75050000D01*
X130617695Y-75052402D01*
X130605828Y-75055374D01*
X130578213Y-75063751D01*
X130528917Y-75068606D01*
X130504895Y-75073385D01*
X130482256Y-75082762D01*
X130461882Y-75096376D01*
X130444555Y-75113703D01*
X130430942Y-75134077D01*
X130421564Y-75156716D01*
X130416784Y-75180749D01*
X130416784Y-75205254D01*
X130421565Y-75229287D01*
X130430942Y-75251926D01*
X130444556Y-75272300D01*
X130461883Y-75289627D01*
X130482257Y-75303240D01*
X130504896Y-75312618D01*
X130541181Y-75318000D01*
X130981000Y-75318000D01*
X130981000Y-75809257D01*
X130981601Y-75821492D01*
X130983424Y-75840000D01*
X130981601Y-75858508D01*
X130981000Y-75870743D01*
X130981000Y-76320000D01*
X130642081Y-76320000D01*
X130617695Y-76322402D01*
X130605828Y-76325374D01*
X130578213Y-76333751D01*
X130528917Y-76338606D01*
X130504895Y-76343385D01*
X130482256Y-76352762D01*
X130461882Y-76366376D01*
X130444555Y-76383703D01*
X130430942Y-76404077D01*
X130421564Y-76426716D01*
X130416784Y-76450749D01*
X130416784Y-76475254D01*
X130421565Y-76499287D01*
X130430942Y-76521926D01*
X130444556Y-76542300D01*
X130461883Y-76559627D01*
X130482257Y-76573240D01*
X130504896Y-76582618D01*
X130541181Y-76588000D01*
X130981000Y-76588000D01*
X130981000Y-77079257D01*
X130981601Y-77091492D01*
X130983424Y-77110000D01*
X130981601Y-77128508D01*
X130981000Y-77140743D01*
X130981000Y-77590000D01*
X130642081Y-77590000D01*
X130617695Y-77592402D01*
X130605828Y-77595374D01*
X130578213Y-77603751D01*
X130528917Y-77608606D01*
X130504895Y-77613385D01*
X130482256Y-77622762D01*
X130461882Y-77636376D01*
X130444555Y-77653703D01*
X130430942Y-77674077D01*
X130421564Y-77696716D01*
X130416784Y-77720749D01*
X130416784Y-77745254D01*
X130421565Y-77769287D01*
X130430942Y-77791926D01*
X130444556Y-77812300D01*
X130461883Y-77829627D01*
X130482257Y-77843240D01*
X130504896Y-77852618D01*
X130541181Y-77858000D01*
X130981000Y-77858000D01*
X130981000Y-78349257D01*
X130981601Y-78361492D01*
X130983424Y-78380000D01*
X130981601Y-78398508D01*
X130981000Y-78410743D01*
X130981000Y-78860000D01*
X130642081Y-78860000D01*
X130617695Y-78862402D01*
X130605828Y-78865374D01*
X130578213Y-78873751D01*
X130528917Y-78878606D01*
X130504895Y-78883385D01*
X130482256Y-78892762D01*
X130461882Y-78906376D01*
X130444555Y-78923703D01*
X130430942Y-78944077D01*
X130421564Y-78966716D01*
X130416784Y-78990749D01*
X130416784Y-79015254D01*
X130421565Y-79039287D01*
X130430942Y-79061926D01*
X130444556Y-79082300D01*
X130461883Y-79099627D01*
X130482257Y-79113240D01*
X130504896Y-79122618D01*
X130541181Y-79128000D01*
X130981000Y-79128000D01*
X130981000Y-79619257D01*
X130981601Y-79631492D01*
X130983424Y-79650000D01*
X130981601Y-79668508D01*
X130981000Y-79680743D01*
X130981000Y-80130000D01*
X130642081Y-80130000D01*
X130617695Y-80132402D01*
X130605828Y-80135374D01*
X130578213Y-80143751D01*
X130528917Y-80148606D01*
X130504895Y-80153385D01*
X130482256Y-80162762D01*
X130461882Y-80176376D01*
X130444555Y-80193703D01*
X130430942Y-80214077D01*
X130421564Y-80236716D01*
X130416784Y-80260749D01*
X130416784Y-80285254D01*
X130421565Y-80309287D01*
X130430942Y-80331926D01*
X130444556Y-80352300D01*
X130461883Y-80369627D01*
X130482257Y-80383240D01*
X130504896Y-80392618D01*
X130541181Y-80398000D01*
X130981000Y-80398000D01*
X130981000Y-80889257D01*
X130981601Y-80901492D01*
X130983424Y-80920000D01*
X130981601Y-80938508D01*
X130981000Y-80950743D01*
X130981000Y-81400000D01*
X130642081Y-81400000D01*
X130617695Y-81402402D01*
X130605828Y-81405374D01*
X130578213Y-81413751D01*
X130528917Y-81418606D01*
X130504895Y-81423385D01*
X130482256Y-81432762D01*
X130461882Y-81446376D01*
X130444555Y-81463703D01*
X130430942Y-81484077D01*
X130421564Y-81506716D01*
X130416784Y-81530749D01*
X130416784Y-81555254D01*
X130421565Y-81579287D01*
X130430942Y-81601926D01*
X130444556Y-81622300D01*
X130461883Y-81639627D01*
X130482257Y-81653240D01*
X130504896Y-81662618D01*
X130541181Y-81668000D01*
X130981000Y-81668000D01*
X130981000Y-82159257D01*
X130981601Y-82171492D01*
X130983424Y-82190000D01*
X130981601Y-82208508D01*
X130981000Y-82220743D01*
X130981000Y-82670000D01*
X130642081Y-82670000D01*
X130617695Y-82672402D01*
X130605828Y-82675374D01*
X130578213Y-82683751D01*
X130528917Y-82688606D01*
X130504895Y-82693385D01*
X130482256Y-82702762D01*
X130461882Y-82716376D01*
X130444555Y-82733703D01*
X130430942Y-82754077D01*
X130421564Y-82776716D01*
X130416784Y-82800749D01*
X130416784Y-82825254D01*
X130421565Y-82849287D01*
X130430942Y-82871926D01*
X130444556Y-82892300D01*
X130461883Y-82909627D01*
X130482257Y-82923240D01*
X130504896Y-82932618D01*
X130541181Y-82938000D01*
X130981000Y-82938000D01*
X130981000Y-83429257D01*
X130981601Y-83441492D01*
X130983424Y-83460000D01*
X130981601Y-83478508D01*
X130981000Y-83490743D01*
X130981000Y-83940000D01*
X130642081Y-83940000D01*
X130617695Y-83942402D01*
X130605828Y-83945374D01*
X130578213Y-83953751D01*
X130528917Y-83958606D01*
X130504895Y-83963385D01*
X130482256Y-83972762D01*
X130461882Y-83986376D01*
X130444555Y-84003703D01*
X130430942Y-84024077D01*
X130421564Y-84046716D01*
X130416784Y-84070749D01*
X130416784Y-84095254D01*
X130421565Y-84119287D01*
X130430942Y-84141926D01*
X130444556Y-84162300D01*
X130461883Y-84179627D01*
X130482257Y-84193240D01*
X130504896Y-84202618D01*
X130541181Y-84208000D01*
X130981000Y-84208000D01*
X130981000Y-84699257D01*
X130981601Y-84711492D01*
X130983424Y-84730000D01*
X130981601Y-84748508D01*
X130981000Y-84760743D01*
X130981000Y-85210000D01*
X130642081Y-85210000D01*
X130617695Y-85212402D01*
X130605828Y-85215374D01*
X130578213Y-85223751D01*
X130528917Y-85228606D01*
X130504895Y-85233385D01*
X130482256Y-85242762D01*
X130461882Y-85256376D01*
X130444555Y-85273703D01*
X130430942Y-85294077D01*
X130421564Y-85316716D01*
X130416784Y-85340749D01*
X130416784Y-85365254D01*
X130421565Y-85389287D01*
X130430942Y-85411926D01*
X130444556Y-85432300D01*
X130461883Y-85449627D01*
X130482257Y-85463240D01*
X130504896Y-85472618D01*
X130541181Y-85478000D01*
X130981000Y-85478000D01*
X130981000Y-85969257D01*
X130981601Y-85981492D01*
X130983424Y-86000000D01*
X130981601Y-86018508D01*
X130981000Y-86030743D01*
X130981000Y-86480000D01*
X130642081Y-86480000D01*
X130617695Y-86482402D01*
X130605828Y-86485374D01*
X130578213Y-86493751D01*
X130528917Y-86498606D01*
X130504895Y-86503385D01*
X130482256Y-86512762D01*
X130461882Y-86526376D01*
X130444555Y-86543703D01*
X130430942Y-86564077D01*
X130421564Y-86586716D01*
X130416784Y-86610749D01*
X130416784Y-86635254D01*
X130421565Y-86659287D01*
X130430942Y-86681926D01*
X130444556Y-86702300D01*
X130461883Y-86719627D01*
X130482257Y-86733240D01*
X130504896Y-86742618D01*
X130541181Y-86748000D01*
X130981000Y-86748000D01*
X130981000Y-87239257D01*
X130981601Y-87251492D01*
X130983424Y-87270000D01*
X130981601Y-87288508D01*
X130981000Y-87300743D01*
X130981000Y-87750000D01*
X130642081Y-87750000D01*
X130617695Y-87752402D01*
X130605828Y-87755374D01*
X130578213Y-87763751D01*
X130528917Y-87768606D01*
X130504895Y-87773385D01*
X130482256Y-87782762D01*
X130461882Y-87796376D01*
X130444555Y-87813703D01*
X130430942Y-87834077D01*
X130421564Y-87856716D01*
X130416784Y-87880749D01*
X130416784Y-87905254D01*
X130421565Y-87929287D01*
X130430942Y-87951926D01*
X130444556Y-87972300D01*
X130461883Y-87989627D01*
X130482257Y-88003240D01*
X130504896Y-88012618D01*
X130541181Y-88018000D01*
X130981000Y-88018000D01*
X130981000Y-88509257D01*
X130981601Y-88521492D01*
X130983424Y-88540000D01*
X130981601Y-88558508D01*
X130981000Y-88570743D01*
X130981000Y-89020000D01*
X130642081Y-89020000D01*
X130617695Y-89022402D01*
X130605828Y-89025374D01*
X130578213Y-89033751D01*
X130504612Y-89041000D01*
X128355388Y-89041000D01*
X128281787Y-89033751D01*
X128187348Y-89005103D01*
X128100313Y-88958582D01*
X128024025Y-88895975D01*
X127961418Y-88819687D01*
X127914897Y-88732652D01*
X127886249Y-88638213D01*
X127876576Y-88540000D01*
X127886249Y-88441787D01*
X127914897Y-88347348D01*
X127961418Y-88260313D01*
X128024025Y-88184025D01*
X128100313Y-88121418D01*
X128187348Y-88074897D01*
X128281787Y-88046249D01*
X128355388Y-88039000D01*
X128754001Y-88039000D01*
X128778387Y-88036598D01*
X128801836Y-88029485D01*
X128823447Y-88017934D01*
X128842389Y-88002389D01*
X128857934Y-87983447D01*
X128869485Y-87961836D01*
X128876598Y-87938387D01*
X128879000Y-87914001D01*
X128879000Y-87895999D01*
X128876598Y-87871613D01*
X128869485Y-87848164D01*
X128857934Y-87826553D01*
X128842389Y-87807611D01*
X128823447Y-87792066D01*
X128801836Y-87780515D01*
X128778387Y-87773402D01*
X128754001Y-87771000D01*
X128355388Y-87771000D01*
X128281787Y-87763751D01*
X128187348Y-87735103D01*
X128100313Y-87688582D01*
X128024025Y-87625975D01*
X127961418Y-87549687D01*
X127914897Y-87462652D01*
X127886249Y-87368213D01*
X127876576Y-87270000D01*
X127886249Y-87171787D01*
X127914897Y-87077348D01*
X127961418Y-86990313D01*
X128024025Y-86914025D01*
X128100313Y-86851418D01*
X128187348Y-86804897D01*
X128281787Y-86776249D01*
X128355388Y-86769000D01*
X128754001Y-86769000D01*
X128778387Y-86766598D01*
X128801836Y-86759485D01*
X128823447Y-86747934D01*
X128842389Y-86732389D01*
X128857934Y-86713447D01*
X128869485Y-86691836D01*
X128876598Y-86668387D01*
X128879000Y-86644001D01*
X128879000Y-86625999D01*
X128876598Y-86601613D01*
X128869485Y-86578164D01*
X128857934Y-86556553D01*
X128842389Y-86537611D01*
X128823447Y-86522066D01*
X128801836Y-86510515D01*
X128778387Y-86503402D01*
X128754001Y-86501000D01*
X128355388Y-86501000D01*
X128281787Y-86493751D01*
X128187348Y-86465103D01*
X128100313Y-86418582D01*
X128024025Y-86355975D01*
X127961418Y-86279687D01*
X127914897Y-86192652D01*
X127886249Y-86098213D01*
X127876576Y-86000000D01*
X127886249Y-85901787D01*
X127914897Y-85807348D01*
X127961418Y-85720313D01*
X128024025Y-85644025D01*
X128100313Y-85581418D01*
X128187348Y-85534897D01*
X128281787Y-85506249D01*
X128355388Y-85499000D01*
X128754001Y-85499000D01*
X128778387Y-85496598D01*
X128801836Y-85489485D01*
X128823447Y-85477934D01*
X128842389Y-85462389D01*
X128857934Y-85443447D01*
X128869485Y-85421836D01*
X128876598Y-85398387D01*
X128879000Y-85374001D01*
X128879000Y-85355999D01*
X128876598Y-85331613D01*
X128869485Y-85308164D01*
X128857934Y-85286553D01*
X128842389Y-85267611D01*
X128823447Y-85252066D01*
X128801836Y-85240515D01*
X128778387Y-85233402D01*
X128754001Y-85231000D01*
X128355388Y-85231000D01*
X128281787Y-85223751D01*
X128187348Y-85195103D01*
X128100313Y-85148582D01*
X128024025Y-85085975D01*
X127961418Y-85009687D01*
X127914897Y-84922652D01*
X127886249Y-84828213D01*
X127876576Y-84730000D01*
X127886249Y-84631787D01*
X127914897Y-84537348D01*
X127961418Y-84450313D01*
X128024025Y-84374025D01*
X128100313Y-84311418D01*
X128187348Y-84264897D01*
X128281787Y-84236249D01*
X128355388Y-84229000D01*
X128754001Y-84229000D01*
X128778387Y-84226598D01*
X128801836Y-84219485D01*
X128823447Y-84207934D01*
X128842389Y-84192389D01*
X128857934Y-84173447D01*
X128869485Y-84151836D01*
X128876598Y-84128387D01*
X128879000Y-84104001D01*
X128879000Y-84085999D01*
X128876598Y-84061613D01*
X128869485Y-84038164D01*
X128857934Y-84016553D01*
X128842389Y-83997611D01*
X128823447Y-83982066D01*
X128801836Y-83970515D01*
X128778387Y-83963402D01*
X128754001Y-83961000D01*
X128355388Y-83961000D01*
X128281787Y-83953751D01*
X128187348Y-83925103D01*
X128100313Y-83878582D01*
X128024025Y-83815975D01*
X127961418Y-83739687D01*
X127914897Y-83652652D01*
X127886249Y-83558213D01*
X127876576Y-83460000D01*
X127886249Y-83361787D01*
X127914897Y-83267348D01*
X127961418Y-83180313D01*
X128024025Y-83104025D01*
X128100313Y-83041418D01*
X128187348Y-82994897D01*
X128281787Y-82966249D01*
X128355388Y-82959000D01*
X128754001Y-82959000D01*
X128778387Y-82956598D01*
X128801836Y-82949485D01*
X128823447Y-82937934D01*
X128842389Y-82922389D01*
X128857934Y-82903447D01*
X128869485Y-82881836D01*
X128876598Y-82858387D01*
X128879000Y-82834001D01*
X128879000Y-82815999D01*
X128876598Y-82791613D01*
X128869485Y-82768164D01*
X128857934Y-82746553D01*
X128842389Y-82727611D01*
X128823447Y-82712066D01*
X128801836Y-82700515D01*
X128778387Y-82693402D01*
X128754001Y-82691000D01*
X128355388Y-82691000D01*
X128281787Y-82683751D01*
X128187348Y-82655103D01*
X128100313Y-82608582D01*
X128024025Y-82545975D01*
X127961418Y-82469687D01*
X127914897Y-82382652D01*
X127886249Y-82288213D01*
X127876576Y-82190000D01*
X127886249Y-82091787D01*
X127914897Y-81997348D01*
X127961418Y-81910313D01*
X128024025Y-81834025D01*
X128100313Y-81771418D01*
X128187348Y-81724897D01*
X128281787Y-81696249D01*
X128355388Y-81689000D01*
X128754001Y-81689000D01*
X128778387Y-81686598D01*
X128801836Y-81679485D01*
X128823447Y-81667934D01*
X128842389Y-81652389D01*
X128857934Y-81633447D01*
X128869485Y-81611836D01*
X128876598Y-81588387D01*
X128879000Y-81564001D01*
X128879000Y-81545999D01*
X128876598Y-81521613D01*
X128869485Y-81498164D01*
X128857934Y-81476553D01*
X128842389Y-81457611D01*
X128823447Y-81442066D01*
X128801836Y-81430515D01*
X128778387Y-81423402D01*
X128754001Y-81421000D01*
X128355388Y-81421000D01*
X128281787Y-81413751D01*
X128187348Y-81385103D01*
X128100313Y-81338582D01*
X128024025Y-81275975D01*
X127961418Y-81199687D01*
X127914897Y-81112652D01*
X127886249Y-81018213D01*
X127876576Y-80920000D01*
X127886249Y-80821787D01*
X127914897Y-80727348D01*
X127961418Y-80640313D01*
X128024025Y-80564025D01*
X128100313Y-80501418D01*
X128187348Y-80454897D01*
X128281787Y-80426249D01*
X128355388Y-80419000D01*
X128754001Y-80419000D01*
X128778387Y-80416598D01*
X128801836Y-80409485D01*
X128823447Y-80397934D01*
X128842389Y-80382389D01*
X128857934Y-80363447D01*
X128869485Y-80341836D01*
X128876598Y-80318387D01*
X128879000Y-80294001D01*
X128879000Y-80275999D01*
X128876598Y-80251613D01*
X128869485Y-80228164D01*
X128857934Y-80206553D01*
X128842389Y-80187611D01*
X128823447Y-80172066D01*
X128801836Y-80160515D01*
X128778387Y-80153402D01*
X128754001Y-80151000D01*
X128355388Y-80151000D01*
X128281787Y-80143751D01*
X128187348Y-80115103D01*
X128100313Y-80068582D01*
X128024025Y-80005975D01*
X127961418Y-79929687D01*
X127914897Y-79842652D01*
X127886249Y-79748213D01*
X127876576Y-79650000D01*
X127886249Y-79551787D01*
X127914897Y-79457348D01*
X127961418Y-79370313D01*
X128024025Y-79294025D01*
X128100313Y-79231418D01*
X128187348Y-79184897D01*
X128281787Y-79156249D01*
X128355388Y-79149000D01*
X128754001Y-79149000D01*
X128778387Y-79146598D01*
X128801836Y-79139485D01*
X128823447Y-79127934D01*
X128842389Y-79112389D01*
X128857934Y-79093447D01*
X128869485Y-79071836D01*
X128876598Y-79048387D01*
X128879000Y-79024001D01*
X128879000Y-79005999D01*
X128876598Y-78981613D01*
X128869485Y-78958164D01*
X128857934Y-78936553D01*
X128842389Y-78917611D01*
X128823447Y-78902066D01*
X128801836Y-78890515D01*
X128778387Y-78883402D01*
X128754001Y-78881000D01*
X128355388Y-78881000D01*
X128281787Y-78873751D01*
X128187348Y-78845103D01*
X128100313Y-78798582D01*
X128024025Y-78735975D01*
X127961418Y-78659687D01*
X127914897Y-78572652D01*
X127886249Y-78478213D01*
X127876576Y-78380000D01*
X127886249Y-78281787D01*
X127914897Y-78187348D01*
X127961418Y-78100313D01*
X128024025Y-78024025D01*
X128100313Y-77961418D01*
X128187348Y-77914897D01*
X128281787Y-77886249D01*
X128355388Y-77879000D01*
X128754001Y-77879000D01*
X128778387Y-77876598D01*
X128801836Y-77869485D01*
X128823447Y-77857934D01*
X128842389Y-77842389D01*
X128857934Y-77823447D01*
X128869485Y-77801836D01*
X128876598Y-77778387D01*
X128879000Y-77754001D01*
X128879000Y-77735999D01*
X128876598Y-77711613D01*
X128869485Y-77688164D01*
X128857934Y-77666553D01*
X128842389Y-77647611D01*
X128823447Y-77632066D01*
X128801836Y-77620515D01*
X128778387Y-77613402D01*
X128754001Y-77611000D01*
X128355388Y-77611000D01*
X128281787Y-77603751D01*
X128187348Y-77575103D01*
X128100313Y-77528582D01*
X128024025Y-77465975D01*
X127961418Y-77389687D01*
X127914897Y-77302652D01*
X127886249Y-77208213D01*
X127876576Y-77110000D01*
X127886249Y-77011787D01*
X127914897Y-76917348D01*
X127961418Y-76830313D01*
X128024025Y-76754025D01*
X128100313Y-76691418D01*
X128187348Y-76644897D01*
X128281787Y-76616249D01*
X128355388Y-76609000D01*
X128754001Y-76609000D01*
X128778387Y-76606598D01*
X128801836Y-76599485D01*
X128823447Y-76587934D01*
X128842389Y-76572389D01*
X128857934Y-76553447D01*
X128869485Y-76531836D01*
X128876598Y-76508387D01*
X128879000Y-76484001D01*
X128879000Y-76465999D01*
X128876598Y-76441613D01*
X128869485Y-76418164D01*
X128857934Y-76396553D01*
X128842389Y-76377611D01*
X128823447Y-76362066D01*
X128801836Y-76350515D01*
X128778387Y-76343402D01*
X128754001Y-76341000D01*
X128355388Y-76341000D01*
X128281787Y-76333751D01*
X128187348Y-76305103D01*
X128100313Y-76258582D01*
X128024025Y-76195975D01*
X127961418Y-76119687D01*
X127914897Y-76032652D01*
X127886249Y-75938213D01*
X127876576Y-75840000D01*
X127886249Y-75741787D01*
X127914897Y-75647348D01*
X127961418Y-75560313D01*
X128024025Y-75484025D01*
X128100313Y-75421418D01*
X128187348Y-75374897D01*
X128281787Y-75346249D01*
X128355388Y-75339000D01*
X128754001Y-75339000D01*
X128778387Y-75336598D01*
X128801836Y-75329485D01*
X128823447Y-75317934D01*
X128842389Y-75302389D01*
X128857934Y-75283447D01*
X128869485Y-75261836D01*
X128876598Y-75238387D01*
X128879000Y-75214001D01*
X128879000Y-75195999D01*
X128876598Y-75171613D01*
X128869485Y-75148164D01*
X128857934Y-75126553D01*
X128842389Y-75107611D01*
X128823447Y-75092066D01*
X128801836Y-75080515D01*
X128778387Y-75073402D01*
X128754001Y-75071000D01*
X128355388Y-75071000D01*
X128281787Y-75063751D01*
X128187348Y-75035103D01*
X128100313Y-74988582D01*
X128024025Y-74925975D01*
X127961418Y-74849687D01*
X127914897Y-74762652D01*
X127886249Y-74668213D01*
X127876576Y-74570000D01*
X127886249Y-74471787D01*
X127914897Y-74377348D01*
X127961418Y-74290313D01*
X128024025Y-74214025D01*
X128100313Y-74151418D01*
X128187348Y-74104897D01*
X128281787Y-74076249D01*
X128355388Y-74069000D01*
X128754001Y-74069000D01*
X128778387Y-74066598D01*
X128801836Y-74059485D01*
X128823447Y-74047934D01*
X128842389Y-74032389D01*
X128857934Y-74013447D01*
X128869485Y-73991836D01*
X128876598Y-73968387D01*
X128879000Y-73944001D01*
X128879000Y-73925999D01*
X128876598Y-73901613D01*
X128869485Y-73878164D01*
X128857934Y-73856553D01*
X128842389Y-73837611D01*
X128823447Y-73822066D01*
X128801836Y-73810515D01*
X128778387Y-73803402D01*
X128754001Y-73801000D01*
X128355388Y-73801000D01*
X128281787Y-73793751D01*
X128187348Y-73765103D01*
X128100313Y-73718582D01*
X128024025Y-73655975D01*
X127961418Y-73579687D01*
X127914897Y-73492652D01*
X127886249Y-73398213D01*
X127876576Y-73300000D01*
X127886249Y-73201787D01*
X127914897Y-73107348D01*
X127961418Y-73020313D01*
X128024025Y-72944025D01*
X128100313Y-72881418D01*
X128187348Y-72834897D01*
X128281787Y-72806249D01*
X128355388Y-72799000D01*
X128754001Y-72799000D01*
X128778387Y-72796598D01*
X128801836Y-72789485D01*
X128823447Y-72777934D01*
X128842389Y-72762389D01*
X128857934Y-72743447D01*
X128869485Y-72721836D01*
X128876598Y-72698387D01*
X128879000Y-72674001D01*
X128879000Y-72655999D01*
X128876598Y-72631613D01*
X128869485Y-72608164D01*
X128857934Y-72586553D01*
X128842389Y-72567611D01*
X128823447Y-72552066D01*
X128801836Y-72540515D01*
X128778387Y-72533402D01*
X128754001Y-72531000D01*
X128355388Y-72531000D01*
X128281787Y-72523751D01*
X128187348Y-72495103D01*
X128100313Y-72448582D01*
X128024025Y-72385975D01*
X127961418Y-72309687D01*
X127914897Y-72222652D01*
X127886249Y-72128213D01*
X127876576Y-72030000D01*
X127886249Y-71931787D01*
X127914897Y-71837348D01*
X127961418Y-71750313D01*
X128024025Y-71674025D01*
X128100313Y-71611418D01*
X128187348Y-71564897D01*
X128281787Y-71536249D01*
X128355388Y-71529000D01*
X128754001Y-71529000D01*
X128778387Y-71526598D01*
X128801836Y-71519485D01*
X128823324Y-71508000D01*
X130981000Y-71508000D01*
X130981000Y-71999257D01*
G37*
G36*
X148058164Y-71519485D02*
G01*
X148081613Y-71526598D01*
X148105999Y-71529000D01*
X148534612Y-71529000D01*
X148608213Y-71536249D01*
X148702652Y-71564897D01*
X148789687Y-71611418D01*
X148865975Y-71674025D01*
X148928582Y-71750313D01*
X148975103Y-71837348D01*
X149003751Y-71931787D01*
X149013424Y-72030000D01*
X149003751Y-72128213D01*
X148975103Y-72222652D01*
X148928582Y-72309687D01*
X148865975Y-72385975D01*
X148789687Y-72448582D01*
X148702652Y-72495103D01*
X148608213Y-72523751D01*
X148534612Y-72531000D01*
X148105999Y-72531000D01*
X148081613Y-72533402D01*
X148058164Y-72540515D01*
X148036553Y-72552066D01*
X148017611Y-72567611D01*
X148002066Y-72586553D01*
X147990515Y-72608164D01*
X147983402Y-72631613D01*
X147981000Y-72655999D01*
X147981000Y-72674001D01*
X147983402Y-72698387D01*
X147990515Y-72721836D01*
X148002066Y-72743447D01*
X148017611Y-72762389D01*
X148036553Y-72777934D01*
X148058164Y-72789485D01*
X148081613Y-72796598D01*
X148105999Y-72799000D01*
X148534612Y-72799000D01*
X148608213Y-72806249D01*
X148702652Y-72834897D01*
X148789687Y-72881418D01*
X148865975Y-72944025D01*
X148928582Y-73020313D01*
X148975103Y-73107348D01*
X149003751Y-73201787D01*
X149013424Y-73300000D01*
X149003751Y-73398213D01*
X148975103Y-73492652D01*
X148928582Y-73579687D01*
X148865975Y-73655975D01*
X148789687Y-73718582D01*
X148702652Y-73765103D01*
X148608213Y-73793751D01*
X148534612Y-73801000D01*
X148105999Y-73801000D01*
X148081613Y-73803402D01*
X148058164Y-73810515D01*
X148036553Y-73822066D01*
X148017611Y-73837611D01*
X148002066Y-73856553D01*
X147990515Y-73878164D01*
X147983402Y-73901613D01*
X147981000Y-73925999D01*
X147981000Y-73944001D01*
X147983402Y-73968387D01*
X147990515Y-73991836D01*
X148002066Y-74013447D01*
X148017611Y-74032389D01*
X148036553Y-74047934D01*
X148058164Y-74059485D01*
X148081613Y-74066598D01*
X148105999Y-74069000D01*
X148534612Y-74069000D01*
X148608213Y-74076249D01*
X148702652Y-74104897D01*
X148789687Y-74151418D01*
X148865975Y-74214025D01*
X148928582Y-74290313D01*
X148975103Y-74377348D01*
X149003751Y-74471787D01*
X149013424Y-74570000D01*
X149003751Y-74668213D01*
X148975103Y-74762652D01*
X148928582Y-74849687D01*
X148865975Y-74925975D01*
X148789687Y-74988582D01*
X148702652Y-75035103D01*
X148608213Y-75063751D01*
X148534612Y-75071000D01*
X148105999Y-75071000D01*
X148081613Y-75073402D01*
X148058164Y-75080515D01*
X148036553Y-75092066D01*
X148017611Y-75107611D01*
X148002066Y-75126553D01*
X147990515Y-75148164D01*
X147983402Y-75171613D01*
X147981000Y-75195999D01*
X147981000Y-75214001D01*
X147983402Y-75238387D01*
X147990515Y-75261836D01*
X148002066Y-75283447D01*
X148017611Y-75302389D01*
X148036553Y-75317934D01*
X148058164Y-75329485D01*
X148081613Y-75336598D01*
X148105999Y-75339000D01*
X148534612Y-75339000D01*
X148608213Y-75346249D01*
X148702652Y-75374897D01*
X148789687Y-75421418D01*
X148865975Y-75484025D01*
X148928582Y-75560313D01*
X148975103Y-75647348D01*
X149003751Y-75741787D01*
X149013424Y-75840000D01*
X149003751Y-75938213D01*
X148975103Y-76032652D01*
X148928582Y-76119687D01*
X148865975Y-76195975D01*
X148789687Y-76258582D01*
X148702652Y-76305103D01*
X148608213Y-76333751D01*
X148534612Y-76341000D01*
X148105999Y-76341000D01*
X148081613Y-76343402D01*
X148058164Y-76350515D01*
X148036553Y-76362066D01*
X148017611Y-76377611D01*
X148002066Y-76396553D01*
X147990515Y-76418164D01*
X147983402Y-76441613D01*
X147981000Y-76465999D01*
X147981000Y-76484001D01*
X147983402Y-76508387D01*
X147990515Y-76531836D01*
X148002066Y-76553447D01*
X148017611Y-76572389D01*
X148036553Y-76587934D01*
X148058164Y-76599485D01*
X148081613Y-76606598D01*
X148105999Y-76609000D01*
X148534612Y-76609000D01*
X148608213Y-76616249D01*
X148702652Y-76644897D01*
X148789687Y-76691418D01*
X148865975Y-76754025D01*
X148928582Y-76830313D01*
X148975103Y-76917348D01*
X149003751Y-77011787D01*
X149013424Y-77110000D01*
X149003751Y-77208213D01*
X148975103Y-77302652D01*
X148928582Y-77389687D01*
X148865975Y-77465975D01*
X148789687Y-77528582D01*
X148702652Y-77575103D01*
X148608213Y-77603751D01*
X148534612Y-77611000D01*
X148105999Y-77611000D01*
X148081613Y-77613402D01*
X148058164Y-77620515D01*
X148036553Y-77632066D01*
X148017611Y-77647611D01*
X148002066Y-77666553D01*
X147990515Y-77688164D01*
X147983402Y-77711613D01*
X147981000Y-77735999D01*
X147981000Y-77754001D01*
X147983402Y-77778387D01*
X147990515Y-77801836D01*
X148002066Y-77823447D01*
X148017611Y-77842389D01*
X148036553Y-77857934D01*
X148058164Y-77869485D01*
X148081613Y-77876598D01*
X148105999Y-77879000D01*
X148534612Y-77879000D01*
X148608213Y-77886249D01*
X148702652Y-77914897D01*
X148789687Y-77961418D01*
X148865975Y-78024025D01*
X148928582Y-78100313D01*
X148975103Y-78187348D01*
X149003751Y-78281787D01*
X149013424Y-78380000D01*
X149003751Y-78478213D01*
X148975103Y-78572652D01*
X148928582Y-78659687D01*
X148865975Y-78735975D01*
X148789687Y-78798582D01*
X148702652Y-78845103D01*
X148608213Y-78873751D01*
X148534612Y-78881000D01*
X148105999Y-78881000D01*
X148081613Y-78883402D01*
X148058164Y-78890515D01*
X148036553Y-78902066D01*
X148017611Y-78917611D01*
X148002066Y-78936553D01*
X147990515Y-78958164D01*
X147983402Y-78981613D01*
X147981000Y-79005999D01*
X147981000Y-79024001D01*
X147983402Y-79048387D01*
X147990515Y-79071836D01*
X148002066Y-79093447D01*
X148017611Y-79112389D01*
X148036553Y-79127934D01*
X148058164Y-79139485D01*
X148081613Y-79146598D01*
X148105999Y-79149000D01*
X148534612Y-79149000D01*
X148608213Y-79156249D01*
X148702652Y-79184897D01*
X148789687Y-79231418D01*
X148865975Y-79294025D01*
X148928582Y-79370313D01*
X148975103Y-79457348D01*
X149003751Y-79551787D01*
X149013424Y-79650000D01*
X149003751Y-79748213D01*
X148975103Y-79842652D01*
X148928582Y-79929687D01*
X148865975Y-80005975D01*
X148789687Y-80068582D01*
X148702652Y-80115103D01*
X148608213Y-80143751D01*
X148534612Y-80151000D01*
X148105999Y-80151000D01*
X148081613Y-80153402D01*
X148058164Y-80160515D01*
X148036553Y-80172066D01*
X148017611Y-80187611D01*
X148002066Y-80206553D01*
X147990515Y-80228164D01*
X147983402Y-80251613D01*
X147981000Y-80275999D01*
X147981000Y-80294001D01*
X147983402Y-80318387D01*
X147990515Y-80341836D01*
X148002066Y-80363447D01*
X148017611Y-80382389D01*
X148036553Y-80397934D01*
X148058164Y-80409485D01*
X148081613Y-80416598D01*
X148105999Y-80419000D01*
X148534612Y-80419000D01*
X148608213Y-80426249D01*
X148702652Y-80454897D01*
X148789687Y-80501418D01*
X148865975Y-80564025D01*
X148928582Y-80640313D01*
X148975103Y-80727348D01*
X149003751Y-80821787D01*
X149013424Y-80920000D01*
X149003751Y-81018213D01*
X148975103Y-81112652D01*
X148928582Y-81199687D01*
X148865975Y-81275975D01*
X148789687Y-81338582D01*
X148702652Y-81385103D01*
X148608213Y-81413751D01*
X148534612Y-81421000D01*
X148105999Y-81421000D01*
X148081613Y-81423402D01*
X148058164Y-81430515D01*
X148036553Y-81442066D01*
X148017611Y-81457611D01*
X148002066Y-81476553D01*
X147990515Y-81498164D01*
X147983402Y-81521613D01*
X147981000Y-81545999D01*
X147981000Y-81564001D01*
X147983402Y-81588387D01*
X147990515Y-81611836D01*
X148002066Y-81633447D01*
X148017611Y-81652389D01*
X148036553Y-81667934D01*
X148058164Y-81679485D01*
X148081613Y-81686598D01*
X148105999Y-81689000D01*
X148534612Y-81689000D01*
X148608213Y-81696249D01*
X148702652Y-81724897D01*
X148789687Y-81771418D01*
X148865975Y-81834025D01*
X148928582Y-81910313D01*
X148975103Y-81997348D01*
X149003751Y-82091787D01*
X149013424Y-82190000D01*
X149003751Y-82288213D01*
X148975103Y-82382652D01*
X148928582Y-82469687D01*
X148865975Y-82545975D01*
X148789687Y-82608582D01*
X148702652Y-82655103D01*
X148608213Y-82683751D01*
X148534612Y-82691000D01*
X148105999Y-82691000D01*
X148081613Y-82693402D01*
X148058164Y-82700515D01*
X148036553Y-82712066D01*
X148017611Y-82727611D01*
X148002066Y-82746553D01*
X147990515Y-82768164D01*
X147983402Y-82791613D01*
X147981000Y-82815999D01*
X147981000Y-82834001D01*
X147983402Y-82858387D01*
X147990515Y-82881836D01*
X148002066Y-82903447D01*
X148017611Y-82922389D01*
X148036553Y-82937934D01*
X148058164Y-82949485D01*
X148081613Y-82956598D01*
X148105999Y-82959000D01*
X148534612Y-82959000D01*
X148608213Y-82966249D01*
X148702652Y-82994897D01*
X148789687Y-83041418D01*
X148865975Y-83104025D01*
X148928582Y-83180313D01*
X148975103Y-83267348D01*
X149003751Y-83361787D01*
X149013424Y-83460000D01*
X149003751Y-83558213D01*
X148975103Y-83652652D01*
X148928582Y-83739687D01*
X148865975Y-83815975D01*
X148789687Y-83878582D01*
X148702652Y-83925103D01*
X148608213Y-83953751D01*
X148534612Y-83961000D01*
X148105999Y-83961000D01*
X148081613Y-83963402D01*
X148058164Y-83970515D01*
X148036553Y-83982066D01*
X148017611Y-83997611D01*
X148002066Y-84016553D01*
X147990515Y-84038164D01*
X147983402Y-84061613D01*
X147981000Y-84085999D01*
X147981000Y-84104001D01*
X147983402Y-84128387D01*
X147990515Y-84151836D01*
X148002066Y-84173447D01*
X148017611Y-84192389D01*
X148036553Y-84207934D01*
X148058164Y-84219485D01*
X148081613Y-84226598D01*
X148105999Y-84229000D01*
X148534612Y-84229000D01*
X148608213Y-84236249D01*
X148702652Y-84264897D01*
X148789687Y-84311418D01*
X148865975Y-84374025D01*
X148928582Y-84450313D01*
X148975103Y-84537348D01*
X149003751Y-84631787D01*
X149013424Y-84730000D01*
X149003751Y-84828213D01*
X148975103Y-84922652D01*
X148928582Y-85009687D01*
X148865975Y-85085975D01*
X148789687Y-85148582D01*
X148702652Y-85195103D01*
X148608213Y-85223751D01*
X148534612Y-85231000D01*
X148105999Y-85231000D01*
X148081613Y-85233402D01*
X148058164Y-85240515D01*
X148036553Y-85252066D01*
X148017611Y-85267611D01*
X148002066Y-85286553D01*
X147990515Y-85308164D01*
X147983402Y-85331613D01*
X147981000Y-85355999D01*
X147981000Y-85374001D01*
X147983402Y-85398387D01*
X147990515Y-85421836D01*
X148002066Y-85443447D01*
X148017611Y-85462389D01*
X148036553Y-85477934D01*
X148058164Y-85489485D01*
X148081613Y-85496598D01*
X148105999Y-85499000D01*
X148534612Y-85499000D01*
X148608213Y-85506249D01*
X148702652Y-85534897D01*
X148789687Y-85581418D01*
X148865975Y-85644025D01*
X148928582Y-85720313D01*
X148975103Y-85807348D01*
X149003751Y-85901787D01*
X149013424Y-86000000D01*
X149003751Y-86098213D01*
X148975103Y-86192652D01*
X148928582Y-86279687D01*
X148865975Y-86355975D01*
X148789687Y-86418582D01*
X148702652Y-86465103D01*
X148608213Y-86493751D01*
X148534612Y-86501000D01*
X148105999Y-86501000D01*
X148081613Y-86503402D01*
X148058164Y-86510515D01*
X148036553Y-86522066D01*
X148017611Y-86537611D01*
X148002066Y-86556553D01*
X147990515Y-86578164D01*
X147983402Y-86601613D01*
X147981000Y-86625999D01*
X147981000Y-86644001D01*
X147983402Y-86668387D01*
X147990515Y-86691836D01*
X148002066Y-86713447D01*
X148017611Y-86732389D01*
X148036553Y-86747934D01*
X148058164Y-86759485D01*
X148081613Y-86766598D01*
X148105999Y-86769000D01*
X148534612Y-86769000D01*
X148608213Y-86776249D01*
X148702652Y-86804897D01*
X148789687Y-86851418D01*
X148865975Y-86914025D01*
X148928582Y-86990313D01*
X148975103Y-87077348D01*
X149003751Y-87171787D01*
X149013424Y-87270000D01*
X149003751Y-87368213D01*
X148975103Y-87462652D01*
X148928582Y-87549687D01*
X148865975Y-87625975D01*
X148789687Y-87688582D01*
X148702652Y-87735103D01*
X148608213Y-87763751D01*
X148534612Y-87771000D01*
X148105999Y-87771000D01*
X148081613Y-87773402D01*
X148058164Y-87780515D01*
X148036553Y-87792066D01*
X148017611Y-87807611D01*
X148002066Y-87826553D01*
X147990515Y-87848164D01*
X147983402Y-87871613D01*
X147981000Y-87895999D01*
X147981000Y-87914001D01*
X147983402Y-87938387D01*
X147990515Y-87961836D01*
X148002066Y-87983447D01*
X148017611Y-88002389D01*
X148036553Y-88017934D01*
X148058164Y-88029485D01*
X148081613Y-88036598D01*
X148105999Y-88039000D01*
X148534612Y-88039000D01*
X148608213Y-88046249D01*
X148702652Y-88074897D01*
X148789687Y-88121418D01*
X148865975Y-88184025D01*
X148928582Y-88260313D01*
X148975103Y-88347348D01*
X149003751Y-88441787D01*
X149013424Y-88540000D01*
X149003751Y-88638213D01*
X148975103Y-88732652D01*
X148928582Y-88819687D01*
X148865975Y-88895975D01*
X148789687Y-88958582D01*
X148702652Y-89005103D01*
X148608213Y-89033751D01*
X148534612Y-89041000D01*
X146385388Y-89041000D01*
X146311787Y-89033751D01*
X146284188Y-89025379D01*
X146260171Y-89020602D01*
X146247919Y-89020000D01*
X145879000Y-89020000D01*
X145879000Y-88018000D01*
X146348819Y-88018000D01*
X146373205Y-88015598D01*
X146396654Y-88008485D01*
X146418265Y-87996934D01*
X146437207Y-87981389D01*
X146452752Y-87962447D01*
X146464303Y-87940836D01*
X146471416Y-87917387D01*
X146473818Y-87893001D01*
X146471416Y-87868615D01*
X146464303Y-87845166D01*
X146452752Y-87823555D01*
X146437207Y-87804613D01*
X146418265Y-87789068D01*
X146396654Y-87777517D01*
X146361079Y-87768606D01*
X146311787Y-87763751D01*
X146284188Y-87755379D01*
X146260171Y-87750602D01*
X146247919Y-87750000D01*
X145879000Y-87750000D01*
X145879000Y-86748000D01*
X146348819Y-86748000D01*
X146373205Y-86745598D01*
X146396654Y-86738485D01*
X146418265Y-86726934D01*
X146437207Y-86711389D01*
X146452752Y-86692447D01*
X146464303Y-86670836D01*
X146471416Y-86647387D01*
X146473818Y-86623001D01*
X146471416Y-86598615D01*
X146464303Y-86575166D01*
X146452752Y-86553555D01*
X146437207Y-86534613D01*
X146418265Y-86519068D01*
X146396654Y-86507517D01*
X146361079Y-86498606D01*
X146311787Y-86493751D01*
X146284188Y-86485379D01*
X146260171Y-86480602D01*
X146247919Y-86480000D01*
X145879000Y-86480000D01*
X145879000Y-85478000D01*
X146348819Y-85478000D01*
X146373205Y-85475598D01*
X146396654Y-85468485D01*
X146418265Y-85456934D01*
X146437207Y-85441389D01*
X146452752Y-85422447D01*
X146464303Y-85400836D01*
X146471416Y-85377387D01*
X146473818Y-85353001D01*
X146471416Y-85328615D01*
X146464303Y-85305166D01*
X146452752Y-85283555D01*
X146437207Y-85264613D01*
X146418265Y-85249068D01*
X146396654Y-85237517D01*
X146361079Y-85228606D01*
X146311787Y-85223751D01*
X146284188Y-85215379D01*
X146260171Y-85210602D01*
X146247919Y-85210000D01*
X145879000Y-85210000D01*
X145879000Y-84208000D01*
X146348819Y-84208000D01*
X146373205Y-84205598D01*
X146396654Y-84198485D01*
X146418265Y-84186934D01*
X146437207Y-84171389D01*
X146452752Y-84152447D01*
X146464303Y-84130836D01*
X146471416Y-84107387D01*
X146473818Y-84083001D01*
X146471416Y-84058615D01*
X146464303Y-84035166D01*
X146452752Y-84013555D01*
X146437207Y-83994613D01*
X146418265Y-83979068D01*
X146396654Y-83967517D01*
X146361079Y-83958606D01*
X146311787Y-83953751D01*
X146284188Y-83945379D01*
X146260171Y-83940602D01*
X146247919Y-83940000D01*
X145879000Y-83940000D01*
X145879000Y-82938000D01*
X146348819Y-82938000D01*
X146373205Y-82935598D01*
X146396654Y-82928485D01*
X146418265Y-82916934D01*
X146437207Y-82901389D01*
X146452752Y-82882447D01*
X146464303Y-82860836D01*
X146471416Y-82837387D01*
X146473818Y-82813001D01*
X146471416Y-82788615D01*
X146464303Y-82765166D01*
X146452752Y-82743555D01*
X146437207Y-82724613D01*
X146418265Y-82709068D01*
X146396654Y-82697517D01*
X146361079Y-82688606D01*
X146311787Y-82683751D01*
X146284188Y-82675379D01*
X146260171Y-82670602D01*
X146247919Y-82670000D01*
X145879000Y-82670000D01*
X145879000Y-81668000D01*
X146348819Y-81668000D01*
X146373205Y-81665598D01*
X146396654Y-81658485D01*
X146418265Y-81646934D01*
X146437207Y-81631389D01*
X146452752Y-81612447D01*
X146464303Y-81590836D01*
X146471416Y-81567387D01*
X146473818Y-81543001D01*
X146471416Y-81518615D01*
X146464303Y-81495166D01*
X146452752Y-81473555D01*
X146437207Y-81454613D01*
X146418265Y-81439068D01*
X146396654Y-81427517D01*
X146361079Y-81418606D01*
X146311787Y-81413751D01*
X146284188Y-81405379D01*
X146260171Y-81400602D01*
X146247919Y-81400000D01*
X145879000Y-81400000D01*
X145879000Y-80398000D01*
X146348819Y-80398000D01*
X146373205Y-80395598D01*
X146396654Y-80388485D01*
X146418265Y-80376934D01*
X146437207Y-80361389D01*
X146452752Y-80342447D01*
X146464303Y-80320836D01*
X146471416Y-80297387D01*
X146473818Y-80273001D01*
X146471416Y-80248615D01*
X146464303Y-80225166D01*
X146452752Y-80203555D01*
X146437207Y-80184613D01*
X146418265Y-80169068D01*
X146396654Y-80157517D01*
X146361079Y-80148606D01*
X146311787Y-80143751D01*
X146284188Y-80135379D01*
X146260171Y-80130602D01*
X146247919Y-80130000D01*
X145879000Y-80130000D01*
X145879000Y-79128000D01*
X146348819Y-79128000D01*
X146373205Y-79125598D01*
X146396654Y-79118485D01*
X146418265Y-79106934D01*
X146437207Y-79091389D01*
X146452752Y-79072447D01*
X146464303Y-79050836D01*
X146471416Y-79027387D01*
X146473818Y-79003001D01*
X146471416Y-78978615D01*
X146464303Y-78955166D01*
X146452752Y-78933555D01*
X146437207Y-78914613D01*
X146418265Y-78899068D01*
X146396654Y-78887517D01*
X146361079Y-78878606D01*
X146311787Y-78873751D01*
X146284188Y-78865379D01*
X146260171Y-78860602D01*
X146247919Y-78860000D01*
X145879000Y-78860000D01*
X145879000Y-77858000D01*
X146348819Y-77858000D01*
X146373205Y-77855598D01*
X146396654Y-77848485D01*
X146418265Y-77836934D01*
X146437207Y-77821389D01*
X146452752Y-77802447D01*
X146464303Y-77780836D01*
X146471416Y-77757387D01*
X146473818Y-77733001D01*
X146471416Y-77708615D01*
X146464303Y-77685166D01*
X146452752Y-77663555D01*
X146437207Y-77644613D01*
X146418265Y-77629068D01*
X146396654Y-77617517D01*
X146361079Y-77608606D01*
X146311787Y-77603751D01*
X146284188Y-77595379D01*
X146260171Y-77590602D01*
X146247919Y-77590000D01*
X145879000Y-77590000D01*
X145879000Y-76588000D01*
X146348819Y-76588000D01*
X146373205Y-76585598D01*
X146396654Y-76578485D01*
X146418265Y-76566934D01*
X146437207Y-76551389D01*
X146452752Y-76532447D01*
X146464303Y-76510836D01*
X146471416Y-76487387D01*
X146473818Y-76463001D01*
X146471416Y-76438615D01*
X146464303Y-76415166D01*
X146452752Y-76393555D01*
X146437207Y-76374613D01*
X146418265Y-76359068D01*
X146396654Y-76347517D01*
X146361079Y-76338606D01*
X146311787Y-76333751D01*
X146284188Y-76325379D01*
X146260171Y-76320602D01*
X146247919Y-76320000D01*
X145879000Y-76320000D01*
X145879000Y-75318000D01*
X146348819Y-75318000D01*
X146373205Y-75315598D01*
X146396654Y-75308485D01*
X146418265Y-75296934D01*
X146437207Y-75281389D01*
X146452752Y-75262447D01*
X146464303Y-75240836D01*
X146471416Y-75217387D01*
X146473818Y-75193001D01*
X146471416Y-75168615D01*
X146464303Y-75145166D01*
X146452752Y-75123555D01*
X146437207Y-75104613D01*
X146418265Y-75089068D01*
X146396654Y-75077517D01*
X146361079Y-75068606D01*
X146311787Y-75063751D01*
X146284188Y-75055379D01*
X146260171Y-75050602D01*
X146247919Y-75050000D01*
X145879000Y-75050000D01*
X145879000Y-74048000D01*
X146348819Y-74048000D01*
X146373205Y-74045598D01*
X146396654Y-74038485D01*
X146418265Y-74026934D01*
X146437207Y-74011389D01*
X146452752Y-73992447D01*
X146464303Y-73970836D01*
X146471416Y-73947387D01*
X146473818Y-73923001D01*
X146471416Y-73898615D01*
X146464303Y-73875166D01*
X146452752Y-73853555D01*
X146437207Y-73834613D01*
X146418265Y-73819068D01*
X146396654Y-73807517D01*
X146361079Y-73798606D01*
X146311787Y-73793751D01*
X146284188Y-73785379D01*
X146260171Y-73780602D01*
X146247919Y-73780000D01*
X145879000Y-73780000D01*
X145879000Y-72778000D01*
X146348819Y-72778000D01*
X146373205Y-72775598D01*
X146396654Y-72768485D01*
X146418265Y-72756934D01*
X146437207Y-72741389D01*
X146452752Y-72722447D01*
X146464303Y-72700836D01*
X146471416Y-72677387D01*
X146473818Y-72653001D01*
X146471416Y-72628615D01*
X146464303Y-72605166D01*
X146452752Y-72583555D01*
X146437207Y-72564613D01*
X146418265Y-72549068D01*
X146396654Y-72537517D01*
X146361079Y-72528606D01*
X146311787Y-72523751D01*
X146284188Y-72515379D01*
X146260171Y-72510602D01*
X146247919Y-72510000D01*
X145879000Y-72510000D01*
X145879000Y-71508000D01*
X148036676Y-71508000D01*
X148058164Y-71519485D01*
G37*
G36*
X125208512Y-85463927D02*
G01*
X125357812Y-85493624D01*
X125521784Y-85561544D01*
X125669354Y-85660147D01*
X125794853Y-85785646D01*
X125893456Y-85933216D01*
X125961376Y-86097188D01*
X125980364Y-86192650D01*
X125996000Y-86271258D01*
X125996000Y-86448742D01*
X125991073Y-86473512D01*
X125961376Y-86622812D01*
X125893456Y-86786784D01*
X125794853Y-86934354D01*
X125669354Y-87059853D01*
X125521784Y-87158456D01*
X125357812Y-87226376D01*
X125208512Y-87256073D01*
X125183742Y-87261000D01*
X125006258Y-87261000D01*
X124981488Y-87256073D01*
X124832188Y-87226376D01*
X124668216Y-87158456D01*
X124520646Y-87059853D01*
X124395147Y-86934354D01*
X124296544Y-86786784D01*
X124228624Y-86622812D01*
X124198927Y-86473512D01*
X124194000Y-86448742D01*
X124194000Y-86271258D01*
X124209636Y-86192650D01*
X124228624Y-86097188D01*
X124296544Y-85933216D01*
X124395147Y-85785646D01*
X124520646Y-85660147D01*
X124668216Y-85561544D01*
X124832188Y-85493624D01*
X124981488Y-85463927D01*
X125006258Y-85459000D01*
X125183742Y-85459000D01*
X125208512Y-85463927D01*
G37*
G36*
X151878512Y-85463927D02*
G01*
X152027812Y-85493624D01*
X152191784Y-85561544D01*
X152339354Y-85660147D01*
X152464853Y-85785646D01*
X152563456Y-85933216D01*
X152631376Y-86097188D01*
X152650364Y-86192650D01*
X152666000Y-86271258D01*
X152666000Y-86448742D01*
X152661073Y-86473512D01*
X152631376Y-86622812D01*
X152563456Y-86786784D01*
X152464853Y-86934354D01*
X152339354Y-87059853D01*
X152191784Y-87158456D01*
X152027812Y-87226376D01*
X151878512Y-87256073D01*
X151853742Y-87261000D01*
X151676258Y-87261000D01*
X151651488Y-87256073D01*
X151502188Y-87226376D01*
X151338216Y-87158456D01*
X151190646Y-87059853D01*
X151065147Y-86934354D01*
X150966544Y-86786784D01*
X150898624Y-86622812D01*
X150868927Y-86473512D01*
X150864000Y-86448742D01*
X150864000Y-86271258D01*
X150879636Y-86192650D01*
X150898624Y-86097188D01*
X150966544Y-85933216D01*
X151065147Y-85785646D01*
X151190646Y-85660147D01*
X151338216Y-85561544D01*
X151502188Y-85493624D01*
X151651488Y-85463927D01*
X151676258Y-85459000D01*
X151853742Y-85459000D01*
X151878512Y-85463927D01*
G37*
G36*
X154418512Y-85463927D02*
G01*
X154567812Y-85493624D01*
X154731784Y-85561544D01*
X154879354Y-85660147D01*
X155004853Y-85785646D01*
X155103456Y-85933216D01*
X155171376Y-86097188D01*
X155190364Y-86192650D01*
X155206000Y-86271258D01*
X155206000Y-86448742D01*
X155201073Y-86473512D01*
X155171376Y-86622812D01*
X155103456Y-86786784D01*
X155004853Y-86934354D01*
X154879354Y-87059853D01*
X154731784Y-87158456D01*
X154567812Y-87226376D01*
X154418512Y-87256073D01*
X154393742Y-87261000D01*
X154216258Y-87261000D01*
X154191488Y-87256073D01*
X154042188Y-87226376D01*
X153878216Y-87158456D01*
X153730646Y-87059853D01*
X153605147Y-86934354D01*
X153506544Y-86786784D01*
X153438624Y-86622812D01*
X153408927Y-86473512D01*
X153404000Y-86448742D01*
X153404000Y-86271258D01*
X153419636Y-86192650D01*
X153438624Y-86097188D01*
X153506544Y-85933216D01*
X153605147Y-85785646D01*
X153730646Y-85660147D01*
X153878216Y-85561544D01*
X154042188Y-85493624D01*
X154191488Y-85463927D01*
X154216258Y-85459000D01*
X154393742Y-85459000D01*
X154418512Y-85463927D01*
G37*
G36*
X122668512Y-85463927D02*
G01*
X122817812Y-85493624D01*
X122981784Y-85561544D01*
X123129354Y-85660147D01*
X123254853Y-85785646D01*
X123353456Y-85933216D01*
X123421376Y-86097188D01*
X123440364Y-86192650D01*
X123456000Y-86271258D01*
X123456000Y-86448742D01*
X123451073Y-86473512D01*
X123421376Y-86622812D01*
X123353456Y-86786784D01*
X123254853Y-86934354D01*
X123129354Y-87059853D01*
X122981784Y-87158456D01*
X122817812Y-87226376D01*
X122668512Y-87256073D01*
X122643742Y-87261000D01*
X122466258Y-87261000D01*
X122441488Y-87256073D01*
X122292188Y-87226376D01*
X122128216Y-87158456D01*
X121980646Y-87059853D01*
X121855147Y-86934354D01*
X121756544Y-86786784D01*
X121688624Y-86622812D01*
X121658927Y-86473512D01*
X121654000Y-86448742D01*
X121654000Y-86271258D01*
X121669636Y-86192650D01*
X121688624Y-86097188D01*
X121756544Y-85933216D01*
X121855147Y-85785646D01*
X121980646Y-85660147D01*
X122128216Y-85561544D01*
X122292188Y-85493624D01*
X122441488Y-85463927D01*
X122466258Y-85459000D01*
X122643742Y-85459000D01*
X122668512Y-85463927D01*
G37*
G36*
X154418512Y-82923927D02*
G01*
X154567812Y-82953624D01*
X154731784Y-83021544D01*
X154879354Y-83120147D01*
X155004853Y-83245646D01*
X155103456Y-83393216D01*
X155171376Y-83557188D01*
X155190364Y-83652650D01*
X155206000Y-83731258D01*
X155206000Y-83908742D01*
X155201073Y-83933512D01*
X155171376Y-84082812D01*
X155103456Y-84246784D01*
X155004853Y-84394354D01*
X154879354Y-84519853D01*
X154731784Y-84618456D01*
X154567812Y-84686376D01*
X154418512Y-84716073D01*
X154393742Y-84721000D01*
X154216258Y-84721000D01*
X154191488Y-84716073D01*
X154042188Y-84686376D01*
X153878216Y-84618456D01*
X153730646Y-84519853D01*
X153605147Y-84394354D01*
X153506544Y-84246784D01*
X153438624Y-84082812D01*
X153408927Y-83933512D01*
X153404000Y-83908742D01*
X153404000Y-83731258D01*
X153419636Y-83652650D01*
X153438624Y-83557188D01*
X153506544Y-83393216D01*
X153605147Y-83245646D01*
X153730646Y-83120147D01*
X153878216Y-83021544D01*
X154042188Y-82953624D01*
X154191488Y-82923927D01*
X154216258Y-82919000D01*
X154393742Y-82919000D01*
X154418512Y-82923927D01*
G37*
G36*
X125208512Y-82923927D02*
G01*
X125357812Y-82953624D01*
X125521784Y-83021544D01*
X125669354Y-83120147D01*
X125794853Y-83245646D01*
X125893456Y-83393216D01*
X125961376Y-83557188D01*
X125980364Y-83652650D01*
X125996000Y-83731258D01*
X125996000Y-83908742D01*
X125991073Y-83933512D01*
X125961376Y-84082812D01*
X125893456Y-84246784D01*
X125794853Y-84394354D01*
X125669354Y-84519853D01*
X125521784Y-84618456D01*
X125357812Y-84686376D01*
X125208512Y-84716073D01*
X125183742Y-84721000D01*
X125006258Y-84721000D01*
X124981488Y-84716073D01*
X124832188Y-84686376D01*
X124668216Y-84618456D01*
X124520646Y-84519853D01*
X124395147Y-84394354D01*
X124296544Y-84246784D01*
X124228624Y-84082812D01*
X124198927Y-83933512D01*
X124194000Y-83908742D01*
X124194000Y-83731258D01*
X124209636Y-83652650D01*
X124228624Y-83557188D01*
X124296544Y-83393216D01*
X124395147Y-83245646D01*
X124520646Y-83120147D01*
X124668216Y-83021544D01*
X124832188Y-82953624D01*
X124981488Y-82923927D01*
X125006258Y-82919000D01*
X125183742Y-82919000D01*
X125208512Y-82923927D01*
G37*
G36*
X122668512Y-82923927D02*
G01*
X122817812Y-82953624D01*
X122981784Y-83021544D01*
X123129354Y-83120147D01*
X123254853Y-83245646D01*
X123353456Y-83393216D01*
X123421376Y-83557188D01*
X123440364Y-83652650D01*
X123456000Y-83731258D01*
X123456000Y-83908742D01*
X123451073Y-83933512D01*
X123421376Y-84082812D01*
X123353456Y-84246784D01*
X123254853Y-84394354D01*
X123129354Y-84519853D01*
X122981784Y-84618456D01*
X122817812Y-84686376D01*
X122668512Y-84716073D01*
X122643742Y-84721000D01*
X122466258Y-84721000D01*
X122441488Y-84716073D01*
X122292188Y-84686376D01*
X122128216Y-84618456D01*
X121980646Y-84519853D01*
X121855147Y-84394354D01*
X121756544Y-84246784D01*
X121688624Y-84082812D01*
X121658927Y-83933512D01*
X121654000Y-83908742D01*
X121654000Y-83731258D01*
X121669636Y-83652650D01*
X121688624Y-83557188D01*
X121756544Y-83393216D01*
X121855147Y-83245646D01*
X121980646Y-83120147D01*
X122128216Y-83021544D01*
X122292188Y-82953624D01*
X122441488Y-82923927D01*
X122466258Y-82919000D01*
X122643742Y-82919000D01*
X122668512Y-82923927D01*
G37*
G36*
X151878512Y-82923927D02*
G01*
X152027812Y-82953624D01*
X152191784Y-83021544D01*
X152339354Y-83120147D01*
X152464853Y-83245646D01*
X152563456Y-83393216D01*
X152631376Y-83557188D01*
X152650364Y-83652650D01*
X152666000Y-83731258D01*
X152666000Y-83908742D01*
X152661073Y-83933512D01*
X152631376Y-84082812D01*
X152563456Y-84246784D01*
X152464853Y-84394354D01*
X152339354Y-84519853D01*
X152191784Y-84618456D01*
X152027812Y-84686376D01*
X151878512Y-84716073D01*
X151853742Y-84721000D01*
X151676258Y-84721000D01*
X151651488Y-84716073D01*
X151502188Y-84686376D01*
X151338216Y-84618456D01*
X151190646Y-84519853D01*
X151065147Y-84394354D01*
X150966544Y-84246784D01*
X150898624Y-84082812D01*
X150868927Y-83933512D01*
X150864000Y-83908742D01*
X150864000Y-83731258D01*
X150879636Y-83652650D01*
X150898624Y-83557188D01*
X150966544Y-83393216D01*
X151065147Y-83245646D01*
X151190646Y-83120147D01*
X151338216Y-83021544D01*
X151502188Y-82953624D01*
X151651488Y-82923927D01*
X151676258Y-82919000D01*
X151853742Y-82919000D01*
X151878512Y-82923927D01*
G37*
G36*
X122668512Y-80383927D02*
G01*
X122817812Y-80413624D01*
X122981784Y-80481544D01*
X123129354Y-80580147D01*
X123254853Y-80705646D01*
X123353456Y-80853216D01*
X123421376Y-81017188D01*
X123432189Y-81071552D01*
X123456000Y-81191258D01*
X123456000Y-81368742D01*
X123451573Y-81391000D01*
X123421376Y-81542812D01*
X123353456Y-81706784D01*
X123254853Y-81854354D01*
X123129354Y-81979853D01*
X122981784Y-82078456D01*
X122817812Y-82146376D01*
X122668512Y-82176073D01*
X122643742Y-82181000D01*
X122466258Y-82181000D01*
X122441488Y-82176073D01*
X122292188Y-82146376D01*
X122128216Y-82078456D01*
X121980646Y-81979853D01*
X121855147Y-81854354D01*
X121756544Y-81706784D01*
X121688624Y-81542812D01*
X121658427Y-81391000D01*
X121654000Y-81368742D01*
X121654000Y-81191258D01*
X121677811Y-81071552D01*
X121688624Y-81017188D01*
X121756544Y-80853216D01*
X121855147Y-80705646D01*
X121980646Y-80580147D01*
X122128216Y-80481544D01*
X122292188Y-80413624D01*
X122441488Y-80383927D01*
X122466258Y-80379000D01*
X122643742Y-80379000D01*
X122668512Y-80383927D01*
G37*
G36*
X154418512Y-80383927D02*
G01*
X154567812Y-80413624D01*
X154731784Y-80481544D01*
X154879354Y-80580147D01*
X155004853Y-80705646D01*
X155103456Y-80853216D01*
X155171376Y-81017188D01*
X155182189Y-81071552D01*
X155206000Y-81191258D01*
X155206000Y-81368742D01*
X155201573Y-81391000D01*
X155171376Y-81542812D01*
X155103456Y-81706784D01*
X155004853Y-81854354D01*
X154879354Y-81979853D01*
X154731784Y-82078456D01*
X154567812Y-82146376D01*
X154418512Y-82176073D01*
X154393742Y-82181000D01*
X154216258Y-82181000D01*
X154191488Y-82176073D01*
X154042188Y-82146376D01*
X153878216Y-82078456D01*
X153730646Y-81979853D01*
X153605147Y-81854354D01*
X153506544Y-81706784D01*
X153438624Y-81542812D01*
X153408427Y-81391000D01*
X153404000Y-81368742D01*
X153404000Y-81191258D01*
X153427811Y-81071552D01*
X153438624Y-81017188D01*
X153506544Y-80853216D01*
X153605147Y-80705646D01*
X153730646Y-80580147D01*
X153878216Y-80481544D01*
X154042188Y-80413624D01*
X154191488Y-80383927D01*
X154216258Y-80379000D01*
X154393742Y-80379000D01*
X154418512Y-80383927D01*
G37*
G36*
X125208512Y-80383927D02*
G01*
X125357812Y-80413624D01*
X125521784Y-80481544D01*
X125669354Y-80580147D01*
X125794853Y-80705646D01*
X125893456Y-80853216D01*
X125961376Y-81017188D01*
X125972189Y-81071552D01*
X125996000Y-81191258D01*
X125996000Y-81368742D01*
X125991573Y-81391000D01*
X125961376Y-81542812D01*
X125893456Y-81706784D01*
X125794853Y-81854354D01*
X125669354Y-81979853D01*
X125521784Y-82078456D01*
X125357812Y-82146376D01*
X125208512Y-82176073D01*
X125183742Y-82181000D01*
X125006258Y-82181000D01*
X124981488Y-82176073D01*
X124832188Y-82146376D01*
X124668216Y-82078456D01*
X124520646Y-81979853D01*
X124395147Y-81854354D01*
X124296544Y-81706784D01*
X124228624Y-81542812D01*
X124198427Y-81391000D01*
X124194000Y-81368742D01*
X124194000Y-81191258D01*
X124217811Y-81071552D01*
X124228624Y-81017188D01*
X124296544Y-80853216D01*
X124395147Y-80705646D01*
X124520646Y-80580147D01*
X124668216Y-80481544D01*
X124832188Y-80413624D01*
X124981488Y-80383927D01*
X125006258Y-80379000D01*
X125183742Y-80379000D01*
X125208512Y-80383927D01*
G37*
G36*
X151878512Y-80383927D02*
G01*
X152027812Y-80413624D01*
X152191784Y-80481544D01*
X152339354Y-80580147D01*
X152464853Y-80705646D01*
X152563456Y-80853216D01*
X152631376Y-81017188D01*
X152642189Y-81071552D01*
X152666000Y-81191258D01*
X152666000Y-81368742D01*
X152661573Y-81391000D01*
X152631376Y-81542812D01*
X152563456Y-81706784D01*
X152464853Y-81854354D01*
X152339354Y-81979853D01*
X152191784Y-82078456D01*
X152027812Y-82146376D01*
X151878512Y-82176073D01*
X151853742Y-82181000D01*
X151676258Y-82181000D01*
X151651488Y-82176073D01*
X151502188Y-82146376D01*
X151338216Y-82078456D01*
X151190646Y-81979853D01*
X151065147Y-81854354D01*
X150966544Y-81706784D01*
X150898624Y-81542812D01*
X150868427Y-81391000D01*
X150864000Y-81368742D01*
X150864000Y-81191258D01*
X150887811Y-81071552D01*
X150898624Y-81017188D01*
X150966544Y-80853216D01*
X151065147Y-80705646D01*
X151190646Y-80580147D01*
X151338216Y-80481544D01*
X151502188Y-80413624D01*
X151651488Y-80383927D01*
X151676258Y-80379000D01*
X151853742Y-80379000D01*
X151878512Y-80383927D01*
G37*
G36*
X140581000Y-81501000D02*
G01*
X140105999Y-81501000D01*
X140081613Y-81503402D01*
X140058164Y-81510515D01*
X140036553Y-81522066D01*
X140017611Y-81537611D01*
X140002066Y-81556553D01*
X139990515Y-81578164D01*
X139983402Y-81601613D01*
X139981000Y-81625999D01*
X139981000Y-82060000D01*
X134879000Y-82060000D01*
X134879000Y-76958000D01*
X135354001Y-76958000D01*
X135378387Y-76955598D01*
X135401836Y-76948485D01*
X135423447Y-76936934D01*
X135442389Y-76921389D01*
X135457934Y-76902447D01*
X135469485Y-76880836D01*
X135476598Y-76857387D01*
X135479000Y-76833001D01*
X135479000Y-76399000D01*
X140581000Y-76399000D01*
X140581000Y-81501000D01*
G37*
G36*
X154418512Y-77843927D02*
G01*
X154567812Y-77873624D01*
X154731784Y-77941544D01*
X154879354Y-78040147D01*
X155004853Y-78165646D01*
X155103456Y-78313216D01*
X155171376Y-78477188D01*
X155201073Y-78626488D01*
X155206000Y-78651258D01*
X155206000Y-78828742D01*
X155201073Y-78853512D01*
X155171376Y-79002812D01*
X155103456Y-79166784D01*
X155004853Y-79314354D01*
X154879354Y-79439853D01*
X154731784Y-79538456D01*
X154567812Y-79606376D01*
X154418512Y-79636073D01*
X154393742Y-79641000D01*
X154216258Y-79641000D01*
X154191488Y-79636073D01*
X154042188Y-79606376D01*
X153878216Y-79538456D01*
X153730646Y-79439853D01*
X153605147Y-79314354D01*
X153506544Y-79166784D01*
X153438624Y-79002812D01*
X153408927Y-78853512D01*
X153404000Y-78828742D01*
X153404000Y-78651258D01*
X153408927Y-78626488D01*
X153438624Y-78477188D01*
X153506544Y-78313216D01*
X153605147Y-78165646D01*
X153730646Y-78040147D01*
X153878216Y-77941544D01*
X154042188Y-77873624D01*
X154191488Y-77843927D01*
X154216258Y-77839000D01*
X154393742Y-77839000D01*
X154418512Y-77843927D01*
G37*
G36*
X125208512Y-77843927D02*
G01*
X125357812Y-77873624D01*
X125521784Y-77941544D01*
X125669354Y-78040147D01*
X125794853Y-78165646D01*
X125893456Y-78313216D01*
X125961376Y-78477188D01*
X125991073Y-78626488D01*
X125996000Y-78651258D01*
X125996000Y-78828742D01*
X125991073Y-78853512D01*
X125961376Y-79002812D01*
X125893456Y-79166784D01*
X125794853Y-79314354D01*
X125669354Y-79439853D01*
X125521784Y-79538456D01*
X125357812Y-79606376D01*
X125208512Y-79636073D01*
X125183742Y-79641000D01*
X125006258Y-79641000D01*
X124981488Y-79636073D01*
X124832188Y-79606376D01*
X124668216Y-79538456D01*
X124520646Y-79439853D01*
X124395147Y-79314354D01*
X124296544Y-79166784D01*
X124228624Y-79002812D01*
X124198927Y-78853512D01*
X124194000Y-78828742D01*
X124194000Y-78651258D01*
X124198927Y-78626488D01*
X124228624Y-78477188D01*
X124296544Y-78313216D01*
X124395147Y-78165646D01*
X124520646Y-78040147D01*
X124668216Y-77941544D01*
X124832188Y-77873624D01*
X124981488Y-77843927D01*
X125006258Y-77839000D01*
X125183742Y-77839000D01*
X125208512Y-77843927D01*
G37*
G36*
X151878512Y-77843927D02*
G01*
X152027812Y-77873624D01*
X152191784Y-77941544D01*
X152339354Y-78040147D01*
X152464853Y-78165646D01*
X152563456Y-78313216D01*
X152631376Y-78477188D01*
X152661073Y-78626488D01*
X152666000Y-78651258D01*
X152666000Y-78828742D01*
X152661073Y-78853512D01*
X152631376Y-79002812D01*
X152563456Y-79166784D01*
X152464853Y-79314354D01*
X152339354Y-79439853D01*
X152191784Y-79538456D01*
X152027812Y-79606376D01*
X151878512Y-79636073D01*
X151853742Y-79641000D01*
X151676258Y-79641000D01*
X151651488Y-79636073D01*
X151502188Y-79606376D01*
X151338216Y-79538456D01*
X151190646Y-79439853D01*
X151065147Y-79314354D01*
X150966544Y-79166784D01*
X150898624Y-79002812D01*
X150868927Y-78853512D01*
X150864000Y-78828742D01*
X150864000Y-78651258D01*
X150868927Y-78626488D01*
X150898624Y-78477188D01*
X150966544Y-78313216D01*
X151065147Y-78165646D01*
X151190646Y-78040147D01*
X151338216Y-77941544D01*
X151502188Y-77873624D01*
X151651488Y-77843927D01*
X151676258Y-77839000D01*
X151853742Y-77839000D01*
X151878512Y-77843927D01*
G37*
G36*
X122668512Y-77843927D02*
G01*
X122817812Y-77873624D01*
X122981784Y-77941544D01*
X123129354Y-78040147D01*
X123254853Y-78165646D01*
X123353456Y-78313216D01*
X123421376Y-78477188D01*
X123451073Y-78626488D01*
X123456000Y-78651258D01*
X123456000Y-78828742D01*
X123451073Y-78853512D01*
X123421376Y-79002812D01*
X123353456Y-79166784D01*
X123254853Y-79314354D01*
X123129354Y-79439853D01*
X122981784Y-79538456D01*
X122817812Y-79606376D01*
X122668512Y-79636073D01*
X122643742Y-79641000D01*
X122466258Y-79641000D01*
X122441488Y-79636073D01*
X122292188Y-79606376D01*
X122128216Y-79538456D01*
X121980646Y-79439853D01*
X121855147Y-79314354D01*
X121756544Y-79166784D01*
X121688624Y-79002812D01*
X121658927Y-78853512D01*
X121654000Y-78828742D01*
X121654000Y-78651258D01*
X121658927Y-78626488D01*
X121688624Y-78477188D01*
X121756544Y-78313216D01*
X121855147Y-78165646D01*
X121980646Y-78040147D01*
X122128216Y-77941544D01*
X122292188Y-77873624D01*
X122441488Y-77843927D01*
X122466258Y-77839000D01*
X122643742Y-77839000D01*
X122668512Y-77843927D01*
G37*
G36*
X154418512Y-75303927D02*
G01*
X154567812Y-75333624D01*
X154731784Y-75401544D01*
X154879354Y-75500147D01*
X155004853Y-75625646D01*
X155103456Y-75773216D01*
X155171376Y-75937188D01*
X155190364Y-76032650D01*
X155206000Y-76111258D01*
X155206000Y-76288742D01*
X155201073Y-76313512D01*
X155171376Y-76462812D01*
X155103456Y-76626784D01*
X155004853Y-76774354D01*
X154879354Y-76899853D01*
X154731784Y-76998456D01*
X154567812Y-77066376D01*
X154418512Y-77096073D01*
X154393742Y-77101000D01*
X154216258Y-77101000D01*
X154191488Y-77096073D01*
X154042188Y-77066376D01*
X153878216Y-76998456D01*
X153730646Y-76899853D01*
X153605147Y-76774354D01*
X153506544Y-76626784D01*
X153438624Y-76462812D01*
X153408927Y-76313512D01*
X153404000Y-76288742D01*
X153404000Y-76111258D01*
X153419636Y-76032650D01*
X153438624Y-75937188D01*
X153506544Y-75773216D01*
X153605147Y-75625646D01*
X153730646Y-75500147D01*
X153878216Y-75401544D01*
X154042188Y-75333624D01*
X154191488Y-75303927D01*
X154216258Y-75299000D01*
X154393742Y-75299000D01*
X154418512Y-75303927D01*
G37*
G36*
X151878512Y-75303927D02*
G01*
X152027812Y-75333624D01*
X152191784Y-75401544D01*
X152339354Y-75500147D01*
X152464853Y-75625646D01*
X152563456Y-75773216D01*
X152631376Y-75937188D01*
X152650364Y-76032650D01*
X152666000Y-76111258D01*
X152666000Y-76288742D01*
X152661073Y-76313512D01*
X152631376Y-76462812D01*
X152563456Y-76626784D01*
X152464853Y-76774354D01*
X152339354Y-76899853D01*
X152191784Y-76998456D01*
X152027812Y-77066376D01*
X151878512Y-77096073D01*
X151853742Y-77101000D01*
X151676258Y-77101000D01*
X151651488Y-77096073D01*
X151502188Y-77066376D01*
X151338216Y-76998456D01*
X151190646Y-76899853D01*
X151065147Y-76774354D01*
X150966544Y-76626784D01*
X150898624Y-76462812D01*
X150868927Y-76313512D01*
X150864000Y-76288742D01*
X150864000Y-76111258D01*
X150879636Y-76032650D01*
X150898624Y-75937188D01*
X150966544Y-75773216D01*
X151065147Y-75625646D01*
X151190646Y-75500147D01*
X151338216Y-75401544D01*
X151502188Y-75333624D01*
X151651488Y-75303927D01*
X151676258Y-75299000D01*
X151853742Y-75299000D01*
X151878512Y-75303927D01*
G37*
G36*
X125208512Y-75303927D02*
G01*
X125357812Y-75333624D01*
X125521784Y-75401544D01*
X125669354Y-75500147D01*
X125794853Y-75625646D01*
X125893456Y-75773216D01*
X125961376Y-75937188D01*
X125980364Y-76032650D01*
X125996000Y-76111258D01*
X125996000Y-76288742D01*
X125991073Y-76313512D01*
X125961376Y-76462812D01*
X125893456Y-76626784D01*
X125794853Y-76774354D01*
X125669354Y-76899853D01*
X125521784Y-76998456D01*
X125357812Y-77066376D01*
X125208512Y-77096073D01*
X125183742Y-77101000D01*
X125006258Y-77101000D01*
X124981488Y-77096073D01*
X124832188Y-77066376D01*
X124668216Y-76998456D01*
X124520646Y-76899853D01*
X124395147Y-76774354D01*
X124296544Y-76626784D01*
X124228624Y-76462812D01*
X124198927Y-76313512D01*
X124194000Y-76288742D01*
X124194000Y-76111258D01*
X124209636Y-76032650D01*
X124228624Y-75937188D01*
X124296544Y-75773216D01*
X124395147Y-75625646D01*
X124520646Y-75500147D01*
X124668216Y-75401544D01*
X124832188Y-75333624D01*
X124981488Y-75303927D01*
X125006258Y-75299000D01*
X125183742Y-75299000D01*
X125208512Y-75303927D01*
G37*
G36*
X122668512Y-75303927D02*
G01*
X122817812Y-75333624D01*
X122981784Y-75401544D01*
X123129354Y-75500147D01*
X123254853Y-75625646D01*
X123353456Y-75773216D01*
X123421376Y-75937188D01*
X123440364Y-76032650D01*
X123456000Y-76111258D01*
X123456000Y-76288742D01*
X123451073Y-76313512D01*
X123421376Y-76462812D01*
X123353456Y-76626784D01*
X123254853Y-76774354D01*
X123129354Y-76899853D01*
X122981784Y-76998456D01*
X122817812Y-77066376D01*
X122668512Y-77096073D01*
X122643742Y-77101000D01*
X122466258Y-77101000D01*
X122441488Y-77096073D01*
X122292188Y-77066376D01*
X122128216Y-76998456D01*
X121980646Y-76899853D01*
X121855147Y-76774354D01*
X121756544Y-76626784D01*
X121688624Y-76462812D01*
X121658927Y-76313512D01*
X121654000Y-76288742D01*
X121654000Y-76111258D01*
X121669636Y-76032650D01*
X121688624Y-75937188D01*
X121756544Y-75773216D01*
X121855147Y-75625646D01*
X121980646Y-75500147D01*
X122128216Y-75401544D01*
X122292188Y-75333624D01*
X122441488Y-75303927D01*
X122466258Y-75299000D01*
X122643742Y-75299000D01*
X122668512Y-75303927D01*
G37*
G36*
X125208512Y-72763927D02*
G01*
X125357812Y-72793624D01*
X125521784Y-72861544D01*
X125669354Y-72960147D01*
X125794853Y-73085646D01*
X125893456Y-73233216D01*
X125961376Y-73397188D01*
X125980364Y-73492650D01*
X125996000Y-73571258D01*
X125996000Y-73748742D01*
X125991073Y-73773512D01*
X125961376Y-73922812D01*
X125893456Y-74086784D01*
X125794853Y-74234354D01*
X125669354Y-74359853D01*
X125521784Y-74458456D01*
X125357812Y-74526376D01*
X125208512Y-74556073D01*
X125183742Y-74561000D01*
X125006258Y-74561000D01*
X124981488Y-74556073D01*
X124832188Y-74526376D01*
X124668216Y-74458456D01*
X124520646Y-74359853D01*
X124395147Y-74234354D01*
X124296544Y-74086784D01*
X124228624Y-73922812D01*
X124198927Y-73773512D01*
X124194000Y-73748742D01*
X124194000Y-73571258D01*
X124209636Y-73492650D01*
X124228624Y-73397188D01*
X124296544Y-73233216D01*
X124395147Y-73085646D01*
X124520646Y-72960147D01*
X124668216Y-72861544D01*
X124832188Y-72793624D01*
X124981488Y-72763927D01*
X125006258Y-72759000D01*
X125183742Y-72759000D01*
X125208512Y-72763927D01*
G37*
G36*
X122668512Y-72763927D02*
G01*
X122817812Y-72793624D01*
X122981784Y-72861544D01*
X123129354Y-72960147D01*
X123254853Y-73085646D01*
X123353456Y-73233216D01*
X123421376Y-73397188D01*
X123440364Y-73492650D01*
X123456000Y-73571258D01*
X123456000Y-73748742D01*
X123451073Y-73773512D01*
X123421376Y-73922812D01*
X123353456Y-74086784D01*
X123254853Y-74234354D01*
X123129354Y-74359853D01*
X122981784Y-74458456D01*
X122817812Y-74526376D01*
X122668512Y-74556073D01*
X122643742Y-74561000D01*
X122466258Y-74561000D01*
X122441488Y-74556073D01*
X122292188Y-74526376D01*
X122128216Y-74458456D01*
X121980646Y-74359853D01*
X121855147Y-74234354D01*
X121756544Y-74086784D01*
X121688624Y-73922812D01*
X121658927Y-73773512D01*
X121654000Y-73748742D01*
X121654000Y-73571258D01*
X121669636Y-73492650D01*
X121688624Y-73397188D01*
X121756544Y-73233216D01*
X121855147Y-73085646D01*
X121980646Y-72960147D01*
X122128216Y-72861544D01*
X122292188Y-72793624D01*
X122441488Y-72763927D01*
X122466258Y-72759000D01*
X122643742Y-72759000D01*
X122668512Y-72763927D01*
G37*
G36*
X154418512Y-72763927D02*
G01*
X154567812Y-72793624D01*
X154731784Y-72861544D01*
X154879354Y-72960147D01*
X155004853Y-73085646D01*
X155103456Y-73233216D01*
X155171376Y-73397188D01*
X155190364Y-73492650D01*
X155206000Y-73571258D01*
X155206000Y-73748742D01*
X155201073Y-73773512D01*
X155171376Y-73922812D01*
X155103456Y-74086784D01*
X155004853Y-74234354D01*
X154879354Y-74359853D01*
X154731784Y-74458456D01*
X154567812Y-74526376D01*
X154418512Y-74556073D01*
X154393742Y-74561000D01*
X154216258Y-74561000D01*
X154191488Y-74556073D01*
X154042188Y-74526376D01*
X153878216Y-74458456D01*
X153730646Y-74359853D01*
X153605147Y-74234354D01*
X153506544Y-74086784D01*
X153438624Y-73922812D01*
X153408927Y-73773512D01*
X153404000Y-73748742D01*
X153404000Y-73571258D01*
X153419636Y-73492650D01*
X153438624Y-73397188D01*
X153506544Y-73233216D01*
X153605147Y-73085646D01*
X153730646Y-72960147D01*
X153878216Y-72861544D01*
X154042188Y-72793624D01*
X154191488Y-72763927D01*
X154216258Y-72759000D01*
X154393742Y-72759000D01*
X154418512Y-72763927D01*
G37*
G36*
X151878512Y-72763927D02*
G01*
X152027812Y-72793624D01*
X152191784Y-72861544D01*
X152339354Y-72960147D01*
X152464853Y-73085646D01*
X152563456Y-73233216D01*
X152631376Y-73397188D01*
X152650364Y-73492650D01*
X152666000Y-73571258D01*
X152666000Y-73748742D01*
X152661073Y-73773512D01*
X152631376Y-73922812D01*
X152563456Y-74086784D01*
X152464853Y-74234354D01*
X152339354Y-74359853D01*
X152191784Y-74458456D01*
X152027812Y-74526376D01*
X151878512Y-74556073D01*
X151853742Y-74561000D01*
X151676258Y-74561000D01*
X151651488Y-74556073D01*
X151502188Y-74526376D01*
X151338216Y-74458456D01*
X151190646Y-74359853D01*
X151065147Y-74234354D01*
X150966544Y-74086784D01*
X150898624Y-73922812D01*
X150868927Y-73773512D01*
X150864000Y-73748742D01*
X150864000Y-73571258D01*
X150879636Y-73492650D01*
X150898624Y-73397188D01*
X150966544Y-73233216D01*
X151065147Y-73085646D01*
X151190646Y-72960147D01*
X151338216Y-72861544D01*
X151502188Y-72793624D01*
X151651488Y-72763927D01*
X151676258Y-72759000D01*
X151853742Y-72759000D01*
X151878512Y-72763927D01*
G37*
G36*
X123456000Y-72021000D02*
G01*
X121654000Y-72021000D01*
X121654000Y-70219000D01*
X123456000Y-70219000D01*
X123456000Y-72021000D01*
G37*
G36*
X125996000Y-72021000D02*
G01*
X124194000Y-72021000D01*
X124194000Y-70219000D01*
X125996000Y-70219000D01*
X125996000Y-72021000D01*
G37*
G36*
X152666000Y-72021000D02*
G01*
X150864000Y-72021000D01*
X150864000Y-70219000D01*
X152666000Y-70219000D01*
X152666000Y-72021000D01*
G37*
G36*
X155206000Y-72021000D02*
G01*
X153404000Y-72021000D01*
X153404000Y-70219000D01*
X155206000Y-70219000D01*
X155206000Y-72021000D01*
G37*
M02*
