G04 #@! TF.GenerationSoftware,KiCad,Pcbnew,5.1.5*
G04 #@! TF.CreationDate,2020-04-27T00:38:35+01:00*
G04 #@! TF.ProjectId,esp32-wrover-breakout,65737033-322d-4777-926f-7665722d6272,rev?*
G04 #@! TF.SameCoordinates,Original*
G04 #@! TF.FileFunction,Legend,Top*
G04 #@! TF.FilePolarity,Positive*
%FSLAX46Y46*%
G04 Gerber Fmt 4.6, Leading zero omitted, Abs format (unit mm)*
G04 Created by KiCad (PCBNEW 5.1.5) date 2020-04-27 00:38:35*
%MOMM*%
%LPD*%
G04 APERTURE LIST*
%ADD10C,0.070000*%
%ADD11C,0.100000*%
%ADD12C,0.120000*%
%ADD13C,0.050000*%
%ADD14C,0.150000*%
G04 APERTURE END LIST*
D10*
X149533000Y-71424761D02*
X149513952Y-71462857D01*
X149513952Y-71520000D01*
X149533000Y-71577142D01*
X149571095Y-71615238D01*
X149609190Y-71634285D01*
X149685380Y-71653333D01*
X149742523Y-71653333D01*
X149818714Y-71634285D01*
X149856809Y-71615238D01*
X149894904Y-71577142D01*
X149913952Y-71520000D01*
X149913952Y-71481904D01*
X149894904Y-71424761D01*
X149875857Y-71405714D01*
X149742523Y-71405714D01*
X149742523Y-71481904D01*
X149913952Y-71234285D02*
X149513952Y-71234285D01*
X149913952Y-71005714D01*
X149513952Y-71005714D01*
X149913952Y-70815238D02*
X149513952Y-70815238D01*
X149513952Y-70720000D01*
X149533000Y-70662857D01*
X149571095Y-70624761D01*
X149609190Y-70605714D01*
X149685380Y-70586666D01*
X149742523Y-70586666D01*
X149818714Y-70605714D01*
X149856809Y-70624761D01*
X149894904Y-70662857D01*
X149913952Y-70720000D01*
X149913952Y-70815238D01*
X149913952Y-73974285D02*
X149513952Y-73974285D01*
X149913952Y-73745714D01*
X149513952Y-73745714D01*
X149875857Y-73326666D02*
X149894904Y-73345714D01*
X149913952Y-73402857D01*
X149913952Y-73440952D01*
X149894904Y-73498095D01*
X149856809Y-73536190D01*
X149818714Y-73555238D01*
X149742523Y-73574285D01*
X149685380Y-73574285D01*
X149609190Y-73555238D01*
X149571095Y-73536190D01*
X149533000Y-73498095D01*
X149513952Y-73440952D01*
X149513952Y-73402857D01*
X149533000Y-73345714D01*
X149552047Y-73326666D01*
X149913952Y-76514285D02*
X149513952Y-76514285D01*
X149913952Y-76285714D01*
X149513952Y-76285714D01*
X149875857Y-75866666D02*
X149894904Y-75885714D01*
X149913952Y-75942857D01*
X149913952Y-75980952D01*
X149894904Y-76038095D01*
X149856809Y-76076190D01*
X149818714Y-76095238D01*
X149742523Y-76114285D01*
X149685380Y-76114285D01*
X149609190Y-76095238D01*
X149571095Y-76076190D01*
X149533000Y-76038095D01*
X149513952Y-75980952D01*
X149513952Y-75942857D01*
X149533000Y-75885714D01*
X149552047Y-75866666D01*
X149913952Y-79140000D02*
X149513952Y-79140000D01*
X149513952Y-78873333D02*
X149513952Y-78797142D01*
X149533000Y-78759047D01*
X149571095Y-78720952D01*
X149647285Y-78701904D01*
X149780619Y-78701904D01*
X149856809Y-78720952D01*
X149894904Y-78759047D01*
X149913952Y-78797142D01*
X149913952Y-78873333D01*
X149894904Y-78911428D01*
X149856809Y-78949523D01*
X149780619Y-78968571D01*
X149647285Y-78968571D01*
X149571095Y-78949523D01*
X149533000Y-78911428D01*
X149513952Y-78873333D01*
X149647285Y-78359047D02*
X149913952Y-78359047D01*
X149494904Y-78454285D02*
X149780619Y-78549523D01*
X149780619Y-78301904D01*
X149786952Y-81807000D02*
X149386952Y-81807000D01*
X149386952Y-81540333D02*
X149386952Y-81464142D01*
X149406000Y-81426047D01*
X149444095Y-81387952D01*
X149520285Y-81368904D01*
X149653619Y-81368904D01*
X149729809Y-81387952D01*
X149767904Y-81426047D01*
X149786952Y-81464142D01*
X149786952Y-81540333D01*
X149767904Y-81578428D01*
X149729809Y-81616523D01*
X149653619Y-81635571D01*
X149520285Y-81635571D01*
X149444095Y-81616523D01*
X149406000Y-81578428D01*
X149386952Y-81540333D01*
X149386952Y-81121285D02*
X149386952Y-81083190D01*
X149406000Y-81045095D01*
X149425047Y-81026047D01*
X149463142Y-81007000D01*
X149539333Y-80987952D01*
X149634571Y-80987952D01*
X149710761Y-81007000D01*
X149748857Y-81026047D01*
X149767904Y-81045095D01*
X149786952Y-81083190D01*
X149786952Y-81121285D01*
X149767904Y-81159380D01*
X149748857Y-81178428D01*
X149710761Y-81197476D01*
X149634571Y-81216523D01*
X149539333Y-81216523D01*
X149463142Y-81197476D01*
X149425047Y-81178428D01*
X149406000Y-81159380D01*
X149386952Y-81121285D01*
X149786952Y-84220000D02*
X149386952Y-84220000D01*
X149386952Y-83953333D02*
X149386952Y-83877142D01*
X149406000Y-83839047D01*
X149444095Y-83800952D01*
X149520285Y-83781904D01*
X149653619Y-83781904D01*
X149729809Y-83800952D01*
X149767904Y-83839047D01*
X149786952Y-83877142D01*
X149786952Y-83953333D01*
X149767904Y-83991428D01*
X149729809Y-84029523D01*
X149653619Y-84048571D01*
X149520285Y-84048571D01*
X149444095Y-84029523D01*
X149406000Y-83991428D01*
X149386952Y-83953333D01*
X149425047Y-83629523D02*
X149406000Y-83610476D01*
X149386952Y-83572380D01*
X149386952Y-83477142D01*
X149406000Y-83439047D01*
X149425047Y-83420000D01*
X149463142Y-83400952D01*
X149501238Y-83400952D01*
X149558380Y-83420000D01*
X149786952Y-83648571D01*
X149786952Y-83400952D01*
X149913952Y-86950476D02*
X149513952Y-86950476D01*
X149513952Y-86683809D02*
X149513952Y-86607619D01*
X149533000Y-86569523D01*
X149571095Y-86531428D01*
X149647285Y-86512380D01*
X149780619Y-86512380D01*
X149856809Y-86531428D01*
X149894904Y-86569523D01*
X149913952Y-86607619D01*
X149913952Y-86683809D01*
X149894904Y-86721904D01*
X149856809Y-86760000D01*
X149780619Y-86779047D01*
X149647285Y-86779047D01*
X149571095Y-86760000D01*
X149533000Y-86721904D01*
X149513952Y-86683809D01*
X149913952Y-86131428D02*
X149913952Y-86360000D01*
X149913952Y-86245714D02*
X149513952Y-86245714D01*
X149571095Y-86283809D01*
X149609190Y-86321904D01*
X149628238Y-86360000D01*
X149513952Y-85769523D02*
X149513952Y-85960000D01*
X149704428Y-85979047D01*
X149685380Y-85960000D01*
X149666333Y-85921904D01*
X149666333Y-85826666D01*
X149685380Y-85788571D01*
X149704428Y-85769523D01*
X149742523Y-85750476D01*
X149837761Y-85750476D01*
X149875857Y-85769523D01*
X149894904Y-85788571D01*
X149913952Y-85826666D01*
X149913952Y-85921904D01*
X149894904Y-85960000D01*
X149875857Y-85979047D01*
X149913952Y-89300000D02*
X149513952Y-89300000D01*
X149513952Y-89033333D02*
X149513952Y-88957142D01*
X149533000Y-88919047D01*
X149571095Y-88880952D01*
X149647285Y-88861904D01*
X149780619Y-88861904D01*
X149856809Y-88880952D01*
X149894904Y-88919047D01*
X149913952Y-88957142D01*
X149913952Y-89033333D01*
X149894904Y-89071428D01*
X149856809Y-89109523D01*
X149780619Y-89128571D01*
X149647285Y-89128571D01*
X149571095Y-89109523D01*
X149533000Y-89071428D01*
X149513952Y-89033333D01*
X149685380Y-88633333D02*
X149666333Y-88671428D01*
X149647285Y-88690476D01*
X149609190Y-88709523D01*
X149590142Y-88709523D01*
X149552047Y-88690476D01*
X149533000Y-88671428D01*
X149513952Y-88633333D01*
X149513952Y-88557142D01*
X149533000Y-88519047D01*
X149552047Y-88500000D01*
X149590142Y-88480952D01*
X149609190Y-88480952D01*
X149647285Y-88500000D01*
X149666333Y-88519047D01*
X149685380Y-88557142D01*
X149685380Y-88633333D01*
X149704428Y-88671428D01*
X149723476Y-88690476D01*
X149761571Y-88709523D01*
X149837761Y-88709523D01*
X149875857Y-88690476D01*
X149894904Y-88671428D01*
X149913952Y-88633333D01*
X149913952Y-88557142D01*
X149894904Y-88519047D01*
X149875857Y-88500000D01*
X149837761Y-88480952D01*
X149761571Y-88480952D01*
X149723476Y-88500000D01*
X149704428Y-88519047D01*
X149685380Y-88557142D01*
X149913952Y-91840000D02*
X149513952Y-91840000D01*
X149513952Y-91573333D02*
X149513952Y-91497142D01*
X149533000Y-91459047D01*
X149571095Y-91420952D01*
X149647285Y-91401904D01*
X149780619Y-91401904D01*
X149856809Y-91420952D01*
X149894904Y-91459047D01*
X149913952Y-91497142D01*
X149913952Y-91573333D01*
X149894904Y-91611428D01*
X149856809Y-91649523D01*
X149780619Y-91668571D01*
X149647285Y-91668571D01*
X149571095Y-91649523D01*
X149533000Y-91611428D01*
X149513952Y-91573333D01*
X149513952Y-91268571D02*
X149513952Y-91001904D01*
X149913952Y-91173333D01*
X149913952Y-94380000D02*
X149513952Y-94380000D01*
X149513952Y-94113333D02*
X149513952Y-94037142D01*
X149533000Y-93999047D01*
X149571095Y-93960952D01*
X149647285Y-93941904D01*
X149780619Y-93941904D01*
X149856809Y-93960952D01*
X149894904Y-93999047D01*
X149913952Y-94037142D01*
X149913952Y-94113333D01*
X149894904Y-94151428D01*
X149856809Y-94189523D01*
X149780619Y-94208571D01*
X149647285Y-94208571D01*
X149571095Y-94189523D01*
X149533000Y-94151428D01*
X149513952Y-94113333D01*
X149513952Y-93599047D02*
X149513952Y-93675238D01*
X149533000Y-93713333D01*
X149552047Y-93732380D01*
X149609190Y-93770476D01*
X149685380Y-93789523D01*
X149837761Y-93789523D01*
X149875857Y-93770476D01*
X149894904Y-93751428D01*
X149913952Y-93713333D01*
X149913952Y-93637142D01*
X149894904Y-93599047D01*
X149875857Y-93580000D01*
X149837761Y-93560952D01*
X149742523Y-93560952D01*
X149704428Y-93580000D01*
X149685380Y-93599047D01*
X149666333Y-93637142D01*
X149666333Y-93713333D01*
X149685380Y-93751428D01*
X149704428Y-93770476D01*
X149742523Y-93789523D01*
X156156047Y-93326000D02*
X156556047Y-93326000D01*
X156556047Y-93592666D02*
X156556047Y-93668857D01*
X156537000Y-93706952D01*
X156498904Y-93745047D01*
X156422714Y-93764095D01*
X156289380Y-93764095D01*
X156213190Y-93745047D01*
X156175095Y-93706952D01*
X156156047Y-93668857D01*
X156156047Y-93592666D01*
X156175095Y-93554571D01*
X156213190Y-93516476D01*
X156289380Y-93497428D01*
X156422714Y-93497428D01*
X156498904Y-93516476D01*
X156537000Y-93554571D01*
X156556047Y-93592666D01*
X156556047Y-94126000D02*
X156556047Y-93935523D01*
X156365571Y-93916476D01*
X156384619Y-93935523D01*
X156403666Y-93973619D01*
X156403666Y-94068857D01*
X156384619Y-94106952D01*
X156365571Y-94126000D01*
X156327476Y-94145047D01*
X156232238Y-94145047D01*
X156194142Y-94126000D01*
X156175095Y-94106952D01*
X156156047Y-94068857D01*
X156156047Y-93973619D01*
X156175095Y-93935523D01*
X156194142Y-93916476D01*
X156156047Y-90849523D02*
X156556047Y-90849523D01*
X156556047Y-91116190D02*
X156556047Y-91192380D01*
X156537000Y-91230476D01*
X156498904Y-91268571D01*
X156422714Y-91287619D01*
X156289380Y-91287619D01*
X156213190Y-91268571D01*
X156175095Y-91230476D01*
X156156047Y-91192380D01*
X156156047Y-91116190D01*
X156175095Y-91078095D01*
X156213190Y-91040000D01*
X156289380Y-91020952D01*
X156422714Y-91020952D01*
X156498904Y-91040000D01*
X156537000Y-91078095D01*
X156556047Y-91116190D01*
X156156047Y-91668571D02*
X156156047Y-91440000D01*
X156156047Y-91554285D02*
X156556047Y-91554285D01*
X156498904Y-91516190D01*
X156460809Y-91478095D01*
X156441761Y-91440000D01*
X156384619Y-91897142D02*
X156403666Y-91859047D01*
X156422714Y-91840000D01*
X156460809Y-91820952D01*
X156479857Y-91820952D01*
X156517952Y-91840000D01*
X156537000Y-91859047D01*
X156556047Y-91897142D01*
X156556047Y-91973333D01*
X156537000Y-92011428D01*
X156517952Y-92030476D01*
X156479857Y-92049523D01*
X156460809Y-92049523D01*
X156422714Y-92030476D01*
X156403666Y-92011428D01*
X156384619Y-91973333D01*
X156384619Y-91897142D01*
X156365571Y-91859047D01*
X156346523Y-91840000D01*
X156308428Y-91820952D01*
X156232238Y-91820952D01*
X156194142Y-91840000D01*
X156175095Y-91859047D01*
X156156047Y-91897142D01*
X156156047Y-91973333D01*
X156175095Y-92011428D01*
X156194142Y-92030476D01*
X156232238Y-92049523D01*
X156308428Y-92049523D01*
X156346523Y-92030476D01*
X156365571Y-92011428D01*
X156384619Y-91973333D01*
X156156047Y-88309523D02*
X156556047Y-88309523D01*
X156556047Y-88576190D02*
X156556047Y-88652380D01*
X156537000Y-88690476D01*
X156498904Y-88728571D01*
X156422714Y-88747619D01*
X156289380Y-88747619D01*
X156213190Y-88728571D01*
X156175095Y-88690476D01*
X156156047Y-88652380D01*
X156156047Y-88576190D01*
X156175095Y-88538095D01*
X156213190Y-88500000D01*
X156289380Y-88480952D01*
X156422714Y-88480952D01*
X156498904Y-88500000D01*
X156537000Y-88538095D01*
X156556047Y-88576190D01*
X156156047Y-89128571D02*
X156156047Y-88900000D01*
X156156047Y-89014285D02*
X156556047Y-89014285D01*
X156498904Y-88976190D01*
X156460809Y-88938095D01*
X156441761Y-88900000D01*
X156156047Y-89319047D02*
X156156047Y-89395238D01*
X156175095Y-89433333D01*
X156194142Y-89452380D01*
X156251285Y-89490476D01*
X156327476Y-89509523D01*
X156479857Y-89509523D01*
X156517952Y-89490476D01*
X156537000Y-89471428D01*
X156556047Y-89433333D01*
X156556047Y-89357142D01*
X156537000Y-89319047D01*
X156517952Y-89300000D01*
X156479857Y-89280952D01*
X156384619Y-89280952D01*
X156346523Y-89300000D01*
X156327476Y-89319047D01*
X156308428Y-89357142D01*
X156308428Y-89433333D01*
X156327476Y-89471428D01*
X156346523Y-89490476D01*
X156384619Y-89509523D01*
X156156047Y-85918714D02*
X156556047Y-85918714D01*
X156156047Y-86147285D01*
X156556047Y-86147285D01*
X156194142Y-86566333D02*
X156175095Y-86547285D01*
X156156047Y-86490142D01*
X156156047Y-86452047D01*
X156175095Y-86394904D01*
X156213190Y-86356809D01*
X156251285Y-86337761D01*
X156327476Y-86318714D01*
X156384619Y-86318714D01*
X156460809Y-86337761D01*
X156498904Y-86356809D01*
X156537000Y-86394904D01*
X156556047Y-86452047D01*
X156556047Y-86490142D01*
X156537000Y-86547285D01*
X156517952Y-86566333D01*
X156156047Y-83229523D02*
X156556047Y-83229523D01*
X156556047Y-83496190D02*
X156556047Y-83572380D01*
X156537000Y-83610476D01*
X156498904Y-83648571D01*
X156422714Y-83667619D01*
X156289380Y-83667619D01*
X156213190Y-83648571D01*
X156175095Y-83610476D01*
X156156047Y-83572380D01*
X156156047Y-83496190D01*
X156175095Y-83458095D01*
X156213190Y-83420000D01*
X156289380Y-83400952D01*
X156422714Y-83400952D01*
X156498904Y-83420000D01*
X156537000Y-83458095D01*
X156556047Y-83496190D01*
X156517952Y-83820000D02*
X156537000Y-83839047D01*
X156556047Y-83877142D01*
X156556047Y-83972380D01*
X156537000Y-84010476D01*
X156517952Y-84029523D01*
X156479857Y-84048571D01*
X156441761Y-84048571D01*
X156384619Y-84029523D01*
X156156047Y-83800952D01*
X156156047Y-84048571D01*
X156156047Y-84429523D02*
X156156047Y-84200952D01*
X156156047Y-84315238D02*
X156556047Y-84315238D01*
X156498904Y-84277142D01*
X156460809Y-84239047D01*
X156441761Y-84200952D01*
X156156047Y-80753000D02*
X156556047Y-80753000D01*
X156556047Y-81019666D02*
X156556047Y-81095857D01*
X156537000Y-81133952D01*
X156498904Y-81172047D01*
X156422714Y-81191095D01*
X156289380Y-81191095D01*
X156213190Y-81172047D01*
X156175095Y-81133952D01*
X156156047Y-81095857D01*
X156156047Y-81019666D01*
X156175095Y-80981571D01*
X156213190Y-80943476D01*
X156289380Y-80924428D01*
X156422714Y-80924428D01*
X156498904Y-80943476D01*
X156537000Y-80981571D01*
X156556047Y-81019666D01*
X156556047Y-81324428D02*
X156556047Y-81572047D01*
X156403666Y-81438714D01*
X156403666Y-81495857D01*
X156384619Y-81533952D01*
X156365571Y-81553000D01*
X156327476Y-81572047D01*
X156232238Y-81572047D01*
X156194142Y-81553000D01*
X156175095Y-81533952D01*
X156156047Y-81495857D01*
X156156047Y-81381571D01*
X156175095Y-81343476D01*
X156194142Y-81324428D01*
X156156047Y-78213000D02*
X156556047Y-78213000D01*
X156556047Y-78479666D02*
X156556047Y-78555857D01*
X156537000Y-78593952D01*
X156498904Y-78632047D01*
X156422714Y-78651095D01*
X156289380Y-78651095D01*
X156213190Y-78632047D01*
X156175095Y-78593952D01*
X156156047Y-78555857D01*
X156156047Y-78479666D01*
X156175095Y-78441571D01*
X156213190Y-78403476D01*
X156289380Y-78384428D01*
X156422714Y-78384428D01*
X156498904Y-78403476D01*
X156537000Y-78441571D01*
X156556047Y-78479666D01*
X156156047Y-79032047D02*
X156156047Y-78803476D01*
X156156047Y-78917761D02*
X156556047Y-78917761D01*
X156498904Y-78879666D01*
X156460809Y-78841571D01*
X156441761Y-78803476D01*
X156156047Y-75482523D02*
X156556047Y-75482523D01*
X156556047Y-75749190D02*
X156556047Y-75825380D01*
X156537000Y-75863476D01*
X156498904Y-75901571D01*
X156422714Y-75920619D01*
X156289380Y-75920619D01*
X156213190Y-75901571D01*
X156175095Y-75863476D01*
X156156047Y-75825380D01*
X156156047Y-75749190D01*
X156175095Y-75711095D01*
X156213190Y-75673000D01*
X156289380Y-75653952D01*
X156422714Y-75653952D01*
X156498904Y-75673000D01*
X156537000Y-75711095D01*
X156556047Y-75749190D01*
X156517952Y-76073000D02*
X156537000Y-76092047D01*
X156556047Y-76130142D01*
X156556047Y-76225380D01*
X156537000Y-76263476D01*
X156517952Y-76282523D01*
X156479857Y-76301571D01*
X156441761Y-76301571D01*
X156384619Y-76282523D01*
X156156047Y-76053952D01*
X156156047Y-76301571D01*
X156517952Y-76453952D02*
X156537000Y-76473000D01*
X156556047Y-76511095D01*
X156556047Y-76606333D01*
X156537000Y-76644428D01*
X156517952Y-76663476D01*
X156479857Y-76682523D01*
X156441761Y-76682523D01*
X156384619Y-76663476D01*
X156156047Y-76434904D01*
X156156047Y-76682523D01*
X156156047Y-72942523D02*
X156556047Y-72942523D01*
X156556047Y-73209190D02*
X156556047Y-73285380D01*
X156537000Y-73323476D01*
X156498904Y-73361571D01*
X156422714Y-73380619D01*
X156289380Y-73380619D01*
X156213190Y-73361571D01*
X156175095Y-73323476D01*
X156156047Y-73285380D01*
X156156047Y-73209190D01*
X156175095Y-73171095D01*
X156213190Y-73133000D01*
X156289380Y-73113952D01*
X156422714Y-73113952D01*
X156498904Y-73133000D01*
X156537000Y-73171095D01*
X156556047Y-73209190D01*
X156517952Y-73533000D02*
X156537000Y-73552047D01*
X156556047Y-73590142D01*
X156556047Y-73685380D01*
X156537000Y-73723476D01*
X156517952Y-73742523D01*
X156479857Y-73761571D01*
X156441761Y-73761571D01*
X156384619Y-73742523D01*
X156156047Y-73513952D01*
X156156047Y-73761571D01*
X156556047Y-73894904D02*
X156556047Y-74142523D01*
X156403666Y-74009190D01*
X156403666Y-74066333D01*
X156384619Y-74104428D01*
X156365571Y-74123476D01*
X156327476Y-74142523D01*
X156232238Y-74142523D01*
X156194142Y-74123476D01*
X156175095Y-74104428D01*
X156156047Y-74066333D01*
X156156047Y-73952047D01*
X156175095Y-73913952D01*
X156194142Y-73894904D01*
X156537000Y-70815238D02*
X156556047Y-70777142D01*
X156556047Y-70720000D01*
X156537000Y-70662857D01*
X156498904Y-70624761D01*
X156460809Y-70605714D01*
X156384619Y-70586666D01*
X156327476Y-70586666D01*
X156251285Y-70605714D01*
X156213190Y-70624761D01*
X156175095Y-70662857D01*
X156156047Y-70720000D01*
X156156047Y-70758095D01*
X156175095Y-70815238D01*
X156194142Y-70834285D01*
X156327476Y-70834285D01*
X156327476Y-70758095D01*
X156156047Y-71005714D02*
X156556047Y-71005714D01*
X156156047Y-71234285D01*
X156556047Y-71234285D01*
X156156047Y-71424761D02*
X156556047Y-71424761D01*
X156556047Y-71520000D01*
X156537000Y-71577142D01*
X156498904Y-71615238D01*
X156460809Y-71634285D01*
X156384619Y-71653333D01*
X156327476Y-71653333D01*
X156251285Y-71634285D01*
X156213190Y-71615238D01*
X156175095Y-71577142D01*
X156156047Y-71520000D01*
X156156047Y-71424761D01*
X127327000Y-70815238D02*
X127346047Y-70777142D01*
X127346047Y-70720000D01*
X127327000Y-70662857D01*
X127288904Y-70624761D01*
X127250809Y-70605714D01*
X127174619Y-70586666D01*
X127117476Y-70586666D01*
X127041285Y-70605714D01*
X127003190Y-70624761D01*
X126965095Y-70662857D01*
X126946047Y-70720000D01*
X126946047Y-70758095D01*
X126965095Y-70815238D01*
X126984142Y-70834285D01*
X127117476Y-70834285D01*
X127117476Y-70758095D01*
X126946047Y-71005714D02*
X127346047Y-71005714D01*
X126946047Y-71234285D01*
X127346047Y-71234285D01*
X126946047Y-71424761D02*
X127346047Y-71424761D01*
X127346047Y-71520000D01*
X127327000Y-71577142D01*
X127288904Y-71615238D01*
X127250809Y-71634285D01*
X127174619Y-71653333D01*
X127117476Y-71653333D01*
X127041285Y-71634285D01*
X127003190Y-71615238D01*
X126965095Y-71577142D01*
X126946047Y-71520000D01*
X126946047Y-71424761D01*
X126946047Y-73069523D02*
X127346047Y-73069523D01*
X127346047Y-73336190D02*
X127346047Y-73412380D01*
X127327000Y-73450476D01*
X127288904Y-73488571D01*
X127212714Y-73507619D01*
X127079380Y-73507619D01*
X127003190Y-73488571D01*
X126965095Y-73450476D01*
X126946047Y-73412380D01*
X126946047Y-73336190D01*
X126965095Y-73298095D01*
X127003190Y-73260000D01*
X127079380Y-73240952D01*
X127212714Y-73240952D01*
X127288904Y-73260000D01*
X127327000Y-73298095D01*
X127346047Y-73336190D01*
X127307952Y-73660000D02*
X127327000Y-73679047D01*
X127346047Y-73717142D01*
X127346047Y-73812380D01*
X127327000Y-73850476D01*
X127307952Y-73869523D01*
X127269857Y-73888571D01*
X127231761Y-73888571D01*
X127174619Y-73869523D01*
X126946047Y-73640952D01*
X126946047Y-73888571D01*
X127346047Y-74231428D02*
X127346047Y-74155238D01*
X127327000Y-74117142D01*
X127307952Y-74098095D01*
X127250809Y-74060000D01*
X127174619Y-74040952D01*
X127022238Y-74040952D01*
X126984142Y-74060000D01*
X126965095Y-74079047D01*
X126946047Y-74117142D01*
X126946047Y-74193333D01*
X126965095Y-74231428D01*
X126984142Y-74250476D01*
X127022238Y-74269523D01*
X127117476Y-74269523D01*
X127155571Y-74250476D01*
X127174619Y-74231428D01*
X127193666Y-74193333D01*
X127193666Y-74117142D01*
X127174619Y-74079047D01*
X127155571Y-74060000D01*
X127117476Y-74040952D01*
X126946047Y-75609523D02*
X127346047Y-75609523D01*
X127346047Y-75876190D02*
X127346047Y-75952380D01*
X127327000Y-75990476D01*
X127288904Y-76028571D01*
X127212714Y-76047619D01*
X127079380Y-76047619D01*
X127003190Y-76028571D01*
X126965095Y-75990476D01*
X126946047Y-75952380D01*
X126946047Y-75876190D01*
X126965095Y-75838095D01*
X127003190Y-75800000D01*
X127079380Y-75780952D01*
X127212714Y-75780952D01*
X127288904Y-75800000D01*
X127327000Y-75838095D01*
X127346047Y-75876190D01*
X127307952Y-76200000D02*
X127327000Y-76219047D01*
X127346047Y-76257142D01*
X127346047Y-76352380D01*
X127327000Y-76390476D01*
X127307952Y-76409523D01*
X127269857Y-76428571D01*
X127231761Y-76428571D01*
X127174619Y-76409523D01*
X126946047Y-76180952D01*
X126946047Y-76428571D01*
X127346047Y-76561904D02*
X127346047Y-76828571D01*
X126946047Y-76657142D01*
X126946047Y-78149523D02*
X127346047Y-78149523D01*
X127346047Y-78416190D02*
X127346047Y-78492380D01*
X127327000Y-78530476D01*
X127288904Y-78568571D01*
X127212714Y-78587619D01*
X127079380Y-78587619D01*
X127003190Y-78568571D01*
X126965095Y-78530476D01*
X126946047Y-78492380D01*
X126946047Y-78416190D01*
X126965095Y-78378095D01*
X127003190Y-78340000D01*
X127079380Y-78320952D01*
X127212714Y-78320952D01*
X127288904Y-78340000D01*
X127327000Y-78378095D01*
X127346047Y-78416190D01*
X126946047Y-78968571D02*
X126946047Y-78740000D01*
X126946047Y-78854285D02*
X127346047Y-78854285D01*
X127288904Y-78816190D01*
X127250809Y-78778095D01*
X127231761Y-78740000D01*
X127212714Y-79311428D02*
X126946047Y-79311428D01*
X127365095Y-79216190D02*
X127079380Y-79120952D01*
X127079380Y-79368571D01*
X126946047Y-80689523D02*
X127346047Y-80689523D01*
X127346047Y-80956190D02*
X127346047Y-81032380D01*
X127327000Y-81070476D01*
X127288904Y-81108571D01*
X127212714Y-81127619D01*
X127079380Y-81127619D01*
X127003190Y-81108571D01*
X126965095Y-81070476D01*
X126946047Y-81032380D01*
X126946047Y-80956190D01*
X126965095Y-80918095D01*
X127003190Y-80880000D01*
X127079380Y-80860952D01*
X127212714Y-80860952D01*
X127288904Y-80880000D01*
X127327000Y-80918095D01*
X127346047Y-80956190D01*
X126946047Y-81508571D02*
X126946047Y-81280000D01*
X126946047Y-81394285D02*
X127346047Y-81394285D01*
X127288904Y-81356190D01*
X127250809Y-81318095D01*
X127231761Y-81280000D01*
X127307952Y-81660952D02*
X127327000Y-81680000D01*
X127346047Y-81718095D01*
X127346047Y-81813333D01*
X127327000Y-81851428D01*
X127307952Y-81870476D01*
X127269857Y-81889523D01*
X127231761Y-81889523D01*
X127174619Y-81870476D01*
X126946047Y-81641904D01*
X126946047Y-81889523D01*
X127327000Y-83515238D02*
X127346047Y-83477142D01*
X127346047Y-83420000D01*
X127327000Y-83362857D01*
X127288904Y-83324761D01*
X127250809Y-83305714D01*
X127174619Y-83286666D01*
X127117476Y-83286666D01*
X127041285Y-83305714D01*
X127003190Y-83324761D01*
X126965095Y-83362857D01*
X126946047Y-83420000D01*
X126946047Y-83458095D01*
X126965095Y-83515238D01*
X126984142Y-83534285D01*
X127117476Y-83534285D01*
X127117476Y-83458095D01*
X126946047Y-83705714D02*
X127346047Y-83705714D01*
X126946047Y-83934285D01*
X127346047Y-83934285D01*
X126946047Y-84124761D02*
X127346047Y-84124761D01*
X127346047Y-84220000D01*
X127327000Y-84277142D01*
X127288904Y-84315238D01*
X127250809Y-84334285D01*
X127174619Y-84353333D01*
X127117476Y-84353333D01*
X127041285Y-84334285D01*
X127003190Y-84315238D01*
X126965095Y-84277142D01*
X126946047Y-84220000D01*
X126946047Y-84124761D01*
X126946047Y-85896523D02*
X127346047Y-85896523D01*
X127346047Y-86163190D02*
X127346047Y-86239380D01*
X127327000Y-86277476D01*
X127288904Y-86315571D01*
X127212714Y-86334619D01*
X127079380Y-86334619D01*
X127003190Y-86315571D01*
X126965095Y-86277476D01*
X126946047Y-86239380D01*
X126946047Y-86163190D01*
X126965095Y-86125095D01*
X127003190Y-86087000D01*
X127079380Y-86067952D01*
X127212714Y-86067952D01*
X127288904Y-86087000D01*
X127327000Y-86125095D01*
X127346047Y-86163190D01*
X126946047Y-86715571D02*
X126946047Y-86487000D01*
X126946047Y-86601285D02*
X127346047Y-86601285D01*
X127288904Y-86563190D01*
X127250809Y-86525095D01*
X127231761Y-86487000D01*
X127346047Y-86848904D02*
X127346047Y-87096523D01*
X127193666Y-86963190D01*
X127193666Y-87020333D01*
X127174619Y-87058428D01*
X127155571Y-87077476D01*
X127117476Y-87096523D01*
X127022238Y-87096523D01*
X126984142Y-87077476D01*
X126965095Y-87058428D01*
X126946047Y-87020333D01*
X126946047Y-86906047D01*
X126965095Y-86867952D01*
X126984142Y-86848904D01*
X126946047Y-88627000D02*
X127346047Y-88627000D01*
X127346047Y-88893666D02*
X127346047Y-88969857D01*
X127327000Y-89007952D01*
X127288904Y-89046047D01*
X127212714Y-89065095D01*
X127079380Y-89065095D01*
X127003190Y-89046047D01*
X126965095Y-89007952D01*
X126946047Y-88969857D01*
X126946047Y-88893666D01*
X126965095Y-88855571D01*
X127003190Y-88817476D01*
X127079380Y-88798428D01*
X127212714Y-88798428D01*
X127288904Y-88817476D01*
X127327000Y-88855571D01*
X127346047Y-88893666D01*
X126946047Y-89255571D02*
X126946047Y-89331761D01*
X126965095Y-89369857D01*
X126984142Y-89388904D01*
X127041285Y-89427000D01*
X127117476Y-89446047D01*
X127269857Y-89446047D01*
X127307952Y-89427000D01*
X127327000Y-89407952D01*
X127346047Y-89369857D01*
X127346047Y-89293666D01*
X127327000Y-89255571D01*
X127307952Y-89236523D01*
X127269857Y-89217476D01*
X127174619Y-89217476D01*
X127136523Y-89236523D01*
X127117476Y-89255571D01*
X127098428Y-89293666D01*
X127098428Y-89369857D01*
X127117476Y-89407952D01*
X127136523Y-89427000D01*
X127174619Y-89446047D01*
X126946047Y-90976523D02*
X127346047Y-90976523D01*
X127346047Y-91243190D02*
X127346047Y-91319380D01*
X127327000Y-91357476D01*
X127288904Y-91395571D01*
X127212714Y-91414619D01*
X127079380Y-91414619D01*
X127003190Y-91395571D01*
X126965095Y-91357476D01*
X126946047Y-91319380D01*
X126946047Y-91243190D01*
X126965095Y-91205095D01*
X127003190Y-91167000D01*
X127079380Y-91147952D01*
X127212714Y-91147952D01*
X127288904Y-91167000D01*
X127327000Y-91205095D01*
X127346047Y-91243190D01*
X126946047Y-91795571D02*
X126946047Y-91567000D01*
X126946047Y-91681285D02*
X127346047Y-91681285D01*
X127288904Y-91643190D01*
X127250809Y-91605095D01*
X127231761Y-91567000D01*
X127346047Y-92043190D02*
X127346047Y-92081285D01*
X127327000Y-92119380D01*
X127307952Y-92138428D01*
X127269857Y-92157476D01*
X127193666Y-92176523D01*
X127098428Y-92176523D01*
X127022238Y-92157476D01*
X126984142Y-92138428D01*
X126965095Y-92119380D01*
X126946047Y-92081285D01*
X126946047Y-92043190D01*
X126965095Y-92005095D01*
X126984142Y-91986047D01*
X127022238Y-91967000D01*
X127098428Y-91947952D01*
X127193666Y-91947952D01*
X127269857Y-91967000D01*
X127307952Y-91986047D01*
X127327000Y-92005095D01*
X127346047Y-92043190D01*
X126946047Y-93389523D02*
X127346047Y-93389523D01*
X127346047Y-93656190D02*
X127346047Y-93732380D01*
X127327000Y-93770476D01*
X127288904Y-93808571D01*
X127212714Y-93827619D01*
X127079380Y-93827619D01*
X127003190Y-93808571D01*
X126965095Y-93770476D01*
X126946047Y-93732380D01*
X126946047Y-93656190D01*
X126965095Y-93618095D01*
X127003190Y-93580000D01*
X127079380Y-93560952D01*
X127212714Y-93560952D01*
X127288904Y-93580000D01*
X127327000Y-93618095D01*
X127346047Y-93656190D01*
X126946047Y-94208571D02*
X126946047Y-93980000D01*
X126946047Y-94094285D02*
X127346047Y-94094285D01*
X127288904Y-94056190D01*
X127250809Y-94018095D01*
X127231761Y-93980000D01*
X126946047Y-94589523D02*
X126946047Y-94360952D01*
X126946047Y-94475238D02*
X127346047Y-94475238D01*
X127288904Y-94437142D01*
X127250809Y-94399047D01*
X127231761Y-94360952D01*
X120703952Y-94062476D02*
X120303952Y-94062476D01*
X120303952Y-93795809D02*
X120303952Y-93719619D01*
X120323000Y-93681523D01*
X120361095Y-93643428D01*
X120437285Y-93624380D01*
X120570619Y-93624380D01*
X120646809Y-93643428D01*
X120684904Y-93681523D01*
X120703952Y-93719619D01*
X120703952Y-93795809D01*
X120684904Y-93833904D01*
X120646809Y-93872000D01*
X120570619Y-93891047D01*
X120437285Y-93891047D01*
X120361095Y-93872000D01*
X120323000Y-93833904D01*
X120303952Y-93795809D01*
X120342047Y-93472000D02*
X120323000Y-93452952D01*
X120303952Y-93414857D01*
X120303952Y-93319619D01*
X120323000Y-93281523D01*
X120342047Y-93262476D01*
X120380142Y-93243428D01*
X120418238Y-93243428D01*
X120475380Y-93262476D01*
X120703952Y-93491047D01*
X120703952Y-93243428D01*
X120303952Y-92881523D02*
X120303952Y-93072000D01*
X120494428Y-93091047D01*
X120475380Y-93072000D01*
X120456333Y-93033904D01*
X120456333Y-92938666D01*
X120475380Y-92900571D01*
X120494428Y-92881523D01*
X120532523Y-92862476D01*
X120627761Y-92862476D01*
X120665857Y-92881523D01*
X120684904Y-92900571D01*
X120703952Y-92938666D01*
X120703952Y-93033904D01*
X120684904Y-93072000D01*
X120665857Y-93091047D01*
X120703952Y-92030476D02*
X120303952Y-92030476D01*
X120303952Y-91763809D02*
X120303952Y-91687619D01*
X120323000Y-91649523D01*
X120361095Y-91611428D01*
X120437285Y-91592380D01*
X120570619Y-91592380D01*
X120646809Y-91611428D01*
X120684904Y-91649523D01*
X120703952Y-91687619D01*
X120703952Y-91763809D01*
X120684904Y-91801904D01*
X120646809Y-91840000D01*
X120570619Y-91859047D01*
X120437285Y-91859047D01*
X120361095Y-91840000D01*
X120323000Y-91801904D01*
X120303952Y-91763809D01*
X120303952Y-91459047D02*
X120303952Y-91211428D01*
X120456333Y-91344761D01*
X120456333Y-91287619D01*
X120475380Y-91249523D01*
X120494428Y-91230476D01*
X120532523Y-91211428D01*
X120627761Y-91211428D01*
X120665857Y-91230476D01*
X120684904Y-91249523D01*
X120703952Y-91287619D01*
X120703952Y-91401904D01*
X120684904Y-91440000D01*
X120665857Y-91459047D01*
X120303952Y-91078095D02*
X120303952Y-90830476D01*
X120456333Y-90963809D01*
X120456333Y-90906666D01*
X120475380Y-90868571D01*
X120494428Y-90849523D01*
X120532523Y-90830476D01*
X120627761Y-90830476D01*
X120665857Y-90849523D01*
X120684904Y-90868571D01*
X120703952Y-90906666D01*
X120703952Y-91020952D01*
X120684904Y-91059047D01*
X120665857Y-91078095D01*
X120703952Y-89490476D02*
X120303952Y-89490476D01*
X120303952Y-89223809D02*
X120303952Y-89147619D01*
X120323000Y-89109523D01*
X120361095Y-89071428D01*
X120437285Y-89052380D01*
X120570619Y-89052380D01*
X120646809Y-89071428D01*
X120684904Y-89109523D01*
X120703952Y-89147619D01*
X120703952Y-89223809D01*
X120684904Y-89261904D01*
X120646809Y-89300000D01*
X120570619Y-89319047D01*
X120437285Y-89319047D01*
X120361095Y-89300000D01*
X120323000Y-89261904D01*
X120303952Y-89223809D01*
X120303952Y-88919047D02*
X120303952Y-88671428D01*
X120456333Y-88804761D01*
X120456333Y-88747619D01*
X120475380Y-88709523D01*
X120494428Y-88690476D01*
X120532523Y-88671428D01*
X120627761Y-88671428D01*
X120665857Y-88690476D01*
X120684904Y-88709523D01*
X120703952Y-88747619D01*
X120703952Y-88861904D01*
X120684904Y-88900000D01*
X120665857Y-88919047D01*
X120342047Y-88519047D02*
X120323000Y-88500000D01*
X120303952Y-88461904D01*
X120303952Y-88366666D01*
X120323000Y-88328571D01*
X120342047Y-88309523D01*
X120380142Y-88290476D01*
X120418238Y-88290476D01*
X120475380Y-88309523D01*
X120703952Y-88538095D01*
X120703952Y-88290476D01*
X120703952Y-86823476D02*
X120303952Y-86823476D01*
X120303952Y-86556809D02*
X120303952Y-86480619D01*
X120323000Y-86442523D01*
X120361095Y-86404428D01*
X120437285Y-86385380D01*
X120570619Y-86385380D01*
X120646809Y-86404428D01*
X120684904Y-86442523D01*
X120703952Y-86480619D01*
X120703952Y-86556809D01*
X120684904Y-86594904D01*
X120646809Y-86633000D01*
X120570619Y-86652047D01*
X120437285Y-86652047D01*
X120361095Y-86633000D01*
X120323000Y-86594904D01*
X120303952Y-86556809D01*
X120303952Y-86252047D02*
X120303952Y-86004428D01*
X120456333Y-86137761D01*
X120456333Y-86080619D01*
X120475380Y-86042523D01*
X120494428Y-86023476D01*
X120532523Y-86004428D01*
X120627761Y-86004428D01*
X120665857Y-86023476D01*
X120684904Y-86042523D01*
X120703952Y-86080619D01*
X120703952Y-86194904D01*
X120684904Y-86233000D01*
X120665857Y-86252047D01*
X120303952Y-85642523D02*
X120303952Y-85833000D01*
X120494428Y-85852047D01*
X120475380Y-85833000D01*
X120456333Y-85794904D01*
X120456333Y-85699666D01*
X120475380Y-85661571D01*
X120494428Y-85642523D01*
X120532523Y-85623476D01*
X120627761Y-85623476D01*
X120665857Y-85642523D01*
X120684904Y-85661571D01*
X120703952Y-85699666D01*
X120703952Y-85794904D01*
X120684904Y-85833000D01*
X120665857Y-85852047D01*
X120703952Y-84410476D02*
X120303952Y-84410476D01*
X120303952Y-84143809D02*
X120303952Y-84067619D01*
X120323000Y-84029523D01*
X120361095Y-83991428D01*
X120437285Y-83972380D01*
X120570619Y-83972380D01*
X120646809Y-83991428D01*
X120684904Y-84029523D01*
X120703952Y-84067619D01*
X120703952Y-84143809D01*
X120684904Y-84181904D01*
X120646809Y-84220000D01*
X120570619Y-84239047D01*
X120437285Y-84239047D01*
X120361095Y-84220000D01*
X120323000Y-84181904D01*
X120303952Y-84143809D01*
X120303952Y-83839047D02*
X120303952Y-83591428D01*
X120456333Y-83724761D01*
X120456333Y-83667619D01*
X120475380Y-83629523D01*
X120494428Y-83610476D01*
X120532523Y-83591428D01*
X120627761Y-83591428D01*
X120665857Y-83610476D01*
X120684904Y-83629523D01*
X120703952Y-83667619D01*
X120703952Y-83781904D01*
X120684904Y-83820000D01*
X120665857Y-83839047D01*
X120437285Y-83248571D02*
X120703952Y-83248571D01*
X120284904Y-83343809D02*
X120570619Y-83439047D01*
X120570619Y-83191428D01*
X120703952Y-81997476D02*
X120303952Y-81997476D01*
X120303952Y-81730809D02*
X120303952Y-81654619D01*
X120323000Y-81616523D01*
X120361095Y-81578428D01*
X120437285Y-81559380D01*
X120570619Y-81559380D01*
X120646809Y-81578428D01*
X120684904Y-81616523D01*
X120703952Y-81654619D01*
X120703952Y-81730809D01*
X120684904Y-81768904D01*
X120646809Y-81807000D01*
X120570619Y-81826047D01*
X120437285Y-81826047D01*
X120361095Y-81807000D01*
X120323000Y-81768904D01*
X120303952Y-81730809D01*
X120303952Y-81426047D02*
X120303952Y-81178428D01*
X120456333Y-81311761D01*
X120456333Y-81254619D01*
X120475380Y-81216523D01*
X120494428Y-81197476D01*
X120532523Y-81178428D01*
X120627761Y-81178428D01*
X120665857Y-81197476D01*
X120684904Y-81216523D01*
X120703952Y-81254619D01*
X120703952Y-81368904D01*
X120684904Y-81407000D01*
X120665857Y-81426047D01*
X120703952Y-80987952D02*
X120703952Y-80911761D01*
X120684904Y-80873666D01*
X120665857Y-80854619D01*
X120608714Y-80816523D01*
X120532523Y-80797476D01*
X120380142Y-80797476D01*
X120342047Y-80816523D01*
X120323000Y-80835571D01*
X120303952Y-80873666D01*
X120303952Y-80949857D01*
X120323000Y-80987952D01*
X120342047Y-81007000D01*
X120380142Y-81026047D01*
X120475380Y-81026047D01*
X120513476Y-81007000D01*
X120532523Y-80987952D01*
X120551571Y-80949857D01*
X120551571Y-80873666D01*
X120532523Y-80835571D01*
X120513476Y-80816523D01*
X120475380Y-80797476D01*
X120703952Y-79330476D02*
X120303952Y-79330476D01*
X120303952Y-79063809D02*
X120303952Y-78987619D01*
X120323000Y-78949523D01*
X120361095Y-78911428D01*
X120437285Y-78892380D01*
X120570619Y-78892380D01*
X120646809Y-78911428D01*
X120684904Y-78949523D01*
X120703952Y-78987619D01*
X120703952Y-79063809D01*
X120684904Y-79101904D01*
X120646809Y-79140000D01*
X120570619Y-79159047D01*
X120437285Y-79159047D01*
X120361095Y-79140000D01*
X120323000Y-79101904D01*
X120303952Y-79063809D01*
X120303952Y-78759047D02*
X120303952Y-78511428D01*
X120456333Y-78644761D01*
X120456333Y-78587619D01*
X120475380Y-78549523D01*
X120494428Y-78530476D01*
X120532523Y-78511428D01*
X120627761Y-78511428D01*
X120665857Y-78530476D01*
X120684904Y-78549523D01*
X120703952Y-78587619D01*
X120703952Y-78701904D01*
X120684904Y-78740000D01*
X120665857Y-78759047D01*
X120303952Y-78168571D02*
X120303952Y-78244761D01*
X120323000Y-78282857D01*
X120342047Y-78301904D01*
X120399190Y-78340000D01*
X120475380Y-78359047D01*
X120627761Y-78359047D01*
X120665857Y-78340000D01*
X120684904Y-78320952D01*
X120703952Y-78282857D01*
X120703952Y-78206666D01*
X120684904Y-78168571D01*
X120665857Y-78149523D01*
X120627761Y-78130476D01*
X120532523Y-78130476D01*
X120494428Y-78149523D01*
X120475380Y-78168571D01*
X120456333Y-78206666D01*
X120456333Y-78282857D01*
X120475380Y-78320952D01*
X120494428Y-78340000D01*
X120532523Y-78359047D01*
X120494428Y-76622238D02*
X120494428Y-76488904D01*
X120703952Y-76431761D02*
X120703952Y-76622238D01*
X120303952Y-76622238D01*
X120303952Y-76431761D01*
X120703952Y-76260333D02*
X120303952Y-76260333D01*
X120703952Y-76031761D01*
X120303952Y-76031761D01*
X120303952Y-74193333D02*
X120703952Y-74060000D01*
X120303952Y-73926666D01*
X120665857Y-73564761D02*
X120684904Y-73583809D01*
X120703952Y-73640952D01*
X120703952Y-73679047D01*
X120684904Y-73736190D01*
X120646809Y-73774285D01*
X120608714Y-73793333D01*
X120532523Y-73812380D01*
X120475380Y-73812380D01*
X120399190Y-73793333D01*
X120361095Y-73774285D01*
X120323000Y-73736190D01*
X120303952Y-73679047D01*
X120303952Y-73640952D01*
X120323000Y-73583809D01*
X120342047Y-73564761D01*
X120665857Y-73164761D02*
X120684904Y-73183809D01*
X120703952Y-73240952D01*
X120703952Y-73279047D01*
X120684904Y-73336190D01*
X120646809Y-73374285D01*
X120608714Y-73393333D01*
X120532523Y-73412380D01*
X120475380Y-73412380D01*
X120399190Y-73393333D01*
X120361095Y-73374285D01*
X120323000Y-73336190D01*
X120303952Y-73279047D01*
X120303952Y-73240952D01*
X120323000Y-73183809D01*
X120342047Y-73164761D01*
X120323000Y-71424761D02*
X120303952Y-71462857D01*
X120303952Y-71520000D01*
X120323000Y-71577142D01*
X120361095Y-71615238D01*
X120399190Y-71634285D01*
X120475380Y-71653333D01*
X120532523Y-71653333D01*
X120608714Y-71634285D01*
X120646809Y-71615238D01*
X120684904Y-71577142D01*
X120703952Y-71520000D01*
X120703952Y-71481904D01*
X120684904Y-71424761D01*
X120665857Y-71405714D01*
X120532523Y-71405714D01*
X120532523Y-71481904D01*
X120703952Y-71234285D02*
X120303952Y-71234285D01*
X120703952Y-71005714D01*
X120303952Y-71005714D01*
X120703952Y-70815238D02*
X120303952Y-70815238D01*
X120303952Y-70720000D01*
X120323000Y-70662857D01*
X120361095Y-70624761D01*
X120399190Y-70605714D01*
X120475380Y-70586666D01*
X120532523Y-70586666D01*
X120608714Y-70605714D01*
X120646809Y-70624761D01*
X120684904Y-70662857D01*
X120703952Y-70720000D01*
X120703952Y-70815238D01*
D11*
X120857857Y-66013142D02*
X121057857Y-66013142D01*
X121143571Y-66327428D02*
X120857857Y-66327428D01*
X120857857Y-65727428D01*
X121143571Y-65727428D01*
X121372142Y-66298857D02*
X121457857Y-66327428D01*
X121600714Y-66327428D01*
X121657857Y-66298857D01*
X121686428Y-66270285D01*
X121715000Y-66213142D01*
X121715000Y-66156000D01*
X121686428Y-66098857D01*
X121657857Y-66070285D01*
X121600714Y-66041714D01*
X121486428Y-66013142D01*
X121429285Y-65984571D01*
X121400714Y-65956000D01*
X121372142Y-65898857D01*
X121372142Y-65841714D01*
X121400714Y-65784571D01*
X121429285Y-65756000D01*
X121486428Y-65727428D01*
X121629285Y-65727428D01*
X121715000Y-65756000D01*
X121972142Y-66327428D02*
X121972142Y-65727428D01*
X122200714Y-65727428D01*
X122257857Y-65756000D01*
X122286428Y-65784571D01*
X122315000Y-65841714D01*
X122315000Y-65927428D01*
X122286428Y-65984571D01*
X122257857Y-66013142D01*
X122200714Y-66041714D01*
X121972142Y-66041714D01*
X122515000Y-65727428D02*
X122886428Y-65727428D01*
X122686428Y-65956000D01*
X122772142Y-65956000D01*
X122829285Y-65984571D01*
X122857857Y-66013142D01*
X122886428Y-66070285D01*
X122886428Y-66213142D01*
X122857857Y-66270285D01*
X122829285Y-66298857D01*
X122772142Y-66327428D01*
X122600714Y-66327428D01*
X122543571Y-66298857D01*
X122515000Y-66270285D01*
X123115000Y-65784571D02*
X123143571Y-65756000D01*
X123200714Y-65727428D01*
X123343571Y-65727428D01*
X123400714Y-65756000D01*
X123429285Y-65784571D01*
X123457857Y-65841714D01*
X123457857Y-65898857D01*
X123429285Y-65984571D01*
X123086428Y-66327428D01*
X123457857Y-66327428D01*
X123715000Y-66098857D02*
X124172142Y-66098857D01*
X124400714Y-65727428D02*
X124543571Y-66327428D01*
X124657857Y-65898857D01*
X124772142Y-66327428D01*
X124915000Y-65727428D01*
X125486428Y-66327428D02*
X125286428Y-66041714D01*
X125143571Y-66327428D02*
X125143571Y-65727428D01*
X125372142Y-65727428D01*
X125429285Y-65756000D01*
X125457857Y-65784571D01*
X125486428Y-65841714D01*
X125486428Y-65927428D01*
X125457857Y-65984571D01*
X125429285Y-66013142D01*
X125372142Y-66041714D01*
X125143571Y-66041714D01*
X125857857Y-65727428D02*
X125972142Y-65727428D01*
X126029285Y-65756000D01*
X126086428Y-65813142D01*
X126115000Y-65927428D01*
X126115000Y-66127428D01*
X126086428Y-66241714D01*
X126029285Y-66298857D01*
X125972142Y-66327428D01*
X125857857Y-66327428D01*
X125800714Y-66298857D01*
X125743571Y-66241714D01*
X125715000Y-66127428D01*
X125715000Y-65927428D01*
X125743571Y-65813142D01*
X125800714Y-65756000D01*
X125857857Y-65727428D01*
X126286428Y-65727428D02*
X126486428Y-66327428D01*
X126686428Y-65727428D01*
X126886428Y-66013142D02*
X127086428Y-66013142D01*
X127172142Y-66327428D02*
X126886428Y-66327428D01*
X126886428Y-65727428D01*
X127172142Y-65727428D01*
X127772142Y-66327428D02*
X127572142Y-66041714D01*
X127429285Y-66327428D02*
X127429285Y-65727428D01*
X127657857Y-65727428D01*
X127715000Y-65756000D01*
X127743571Y-65784571D01*
X127772142Y-65841714D01*
X127772142Y-65927428D01*
X127743571Y-65984571D01*
X127715000Y-66013142D01*
X127657857Y-66041714D01*
X127429285Y-66041714D01*
X128486428Y-66098857D02*
X128943571Y-66098857D01*
X128715000Y-66327428D02*
X128715000Y-65870285D01*
X120857857Y-67013142D02*
X121057857Y-67013142D01*
X121143571Y-67327428D02*
X120857857Y-67327428D01*
X120857857Y-66727428D01*
X121143571Y-66727428D01*
X121372142Y-67298857D02*
X121457857Y-67327428D01*
X121600714Y-67327428D01*
X121657857Y-67298857D01*
X121686428Y-67270285D01*
X121715000Y-67213142D01*
X121715000Y-67156000D01*
X121686428Y-67098857D01*
X121657857Y-67070285D01*
X121600714Y-67041714D01*
X121486428Y-67013142D01*
X121429285Y-66984571D01*
X121400714Y-66956000D01*
X121372142Y-66898857D01*
X121372142Y-66841714D01*
X121400714Y-66784571D01*
X121429285Y-66756000D01*
X121486428Y-66727428D01*
X121629285Y-66727428D01*
X121715000Y-66756000D01*
X121972142Y-67327428D02*
X121972142Y-66727428D01*
X122200714Y-66727428D01*
X122257857Y-66756000D01*
X122286428Y-66784571D01*
X122315000Y-66841714D01*
X122315000Y-66927428D01*
X122286428Y-66984571D01*
X122257857Y-67013142D01*
X122200714Y-67041714D01*
X121972142Y-67041714D01*
X122515000Y-66727428D02*
X122886428Y-66727428D01*
X122686428Y-66956000D01*
X122772142Y-66956000D01*
X122829285Y-66984571D01*
X122857857Y-67013142D01*
X122886428Y-67070285D01*
X122886428Y-67213142D01*
X122857857Y-67270285D01*
X122829285Y-67298857D01*
X122772142Y-67327428D01*
X122600714Y-67327428D01*
X122543571Y-67298857D01*
X122515000Y-67270285D01*
X123115000Y-66784571D02*
X123143571Y-66756000D01*
X123200714Y-66727428D01*
X123343571Y-66727428D01*
X123400714Y-66756000D01*
X123429285Y-66784571D01*
X123457857Y-66841714D01*
X123457857Y-66898857D01*
X123429285Y-66984571D01*
X123086428Y-67327428D01*
X123457857Y-67327428D01*
X123715000Y-67098857D02*
X124172142Y-67098857D01*
X124400714Y-66727428D02*
X124543571Y-67327428D01*
X124657857Y-66898857D01*
X124772142Y-67327428D01*
X124915000Y-66727428D01*
X125486428Y-67327428D02*
X125286428Y-67041714D01*
X125143571Y-67327428D02*
X125143571Y-66727428D01*
X125372142Y-66727428D01*
X125429285Y-66756000D01*
X125457857Y-66784571D01*
X125486428Y-66841714D01*
X125486428Y-66927428D01*
X125457857Y-66984571D01*
X125429285Y-67013142D01*
X125372142Y-67041714D01*
X125143571Y-67041714D01*
X125857857Y-66727428D02*
X125972142Y-66727428D01*
X126029285Y-66756000D01*
X126086428Y-66813142D01*
X126115000Y-66927428D01*
X126115000Y-67127428D01*
X126086428Y-67241714D01*
X126029285Y-67298857D01*
X125972142Y-67327428D01*
X125857857Y-67327428D01*
X125800714Y-67298857D01*
X125743571Y-67241714D01*
X125715000Y-67127428D01*
X125715000Y-66927428D01*
X125743571Y-66813142D01*
X125800714Y-66756000D01*
X125857857Y-66727428D01*
X126486428Y-66727428D02*
X126600714Y-66727428D01*
X126657857Y-66756000D01*
X126715000Y-66813142D01*
X126743571Y-66927428D01*
X126743571Y-67127428D01*
X126715000Y-67241714D01*
X126657857Y-67298857D01*
X126600714Y-67327428D01*
X126486428Y-67327428D01*
X126429285Y-67298857D01*
X126372142Y-67241714D01*
X126343571Y-67127428D01*
X126343571Y-66927428D01*
X126372142Y-66813142D01*
X126429285Y-66756000D01*
X126486428Y-66727428D01*
X127000714Y-67327428D02*
X127000714Y-66727428D01*
X127200714Y-67156000D01*
X127400714Y-66727428D01*
X127400714Y-67327428D01*
X120857857Y-68327428D02*
X120857857Y-67727428D01*
X120857857Y-67956000D02*
X120915000Y-67927428D01*
X121029285Y-67927428D01*
X121086428Y-67956000D01*
X121115000Y-67984571D01*
X121143571Y-68041714D01*
X121143571Y-68213142D01*
X121115000Y-68270285D01*
X121086428Y-68298857D01*
X121029285Y-68327428D01*
X120915000Y-68327428D01*
X120857857Y-68298857D01*
X121400714Y-68327428D02*
X121400714Y-67927428D01*
X121400714Y-68041714D02*
X121429285Y-67984571D01*
X121457857Y-67956000D01*
X121515000Y-67927428D01*
X121572142Y-67927428D01*
X122000714Y-68298857D02*
X121943571Y-68327428D01*
X121829285Y-68327428D01*
X121772142Y-68298857D01*
X121743571Y-68241714D01*
X121743571Y-68013142D01*
X121772142Y-67956000D01*
X121829285Y-67927428D01*
X121943571Y-67927428D01*
X122000714Y-67956000D01*
X122029285Y-68013142D01*
X122029285Y-68070285D01*
X121743571Y-68127428D01*
X122543571Y-68327428D02*
X122543571Y-68013142D01*
X122515000Y-67956000D01*
X122457857Y-67927428D01*
X122343571Y-67927428D01*
X122286428Y-67956000D01*
X122543571Y-68298857D02*
X122486428Y-68327428D01*
X122343571Y-68327428D01*
X122286428Y-68298857D01*
X122257857Y-68241714D01*
X122257857Y-68184571D01*
X122286428Y-68127428D01*
X122343571Y-68098857D01*
X122486428Y-68098857D01*
X122543571Y-68070285D01*
X122829285Y-68327428D02*
X122829285Y-67727428D01*
X122886428Y-68098857D02*
X123057857Y-68327428D01*
X123057857Y-67927428D02*
X122829285Y-68156000D01*
X123400714Y-68327428D02*
X123343571Y-68298857D01*
X123315000Y-68270285D01*
X123286428Y-68213142D01*
X123286428Y-68041714D01*
X123315000Y-67984571D01*
X123343571Y-67956000D01*
X123400714Y-67927428D01*
X123486428Y-67927428D01*
X123543571Y-67956000D01*
X123572142Y-67984571D01*
X123600714Y-68041714D01*
X123600714Y-68213142D01*
X123572142Y-68270285D01*
X123543571Y-68298857D01*
X123486428Y-68327428D01*
X123400714Y-68327428D01*
X124115000Y-67927428D02*
X124115000Y-68327428D01*
X123857857Y-67927428D02*
X123857857Y-68241714D01*
X123886428Y-68298857D01*
X123943571Y-68327428D01*
X124029285Y-68327428D01*
X124086428Y-68298857D01*
X124115000Y-68270285D01*
X124315000Y-67927428D02*
X124543571Y-67927428D01*
X124400714Y-67727428D02*
X124400714Y-68241714D01*
X124429285Y-68298857D01*
X124486428Y-68327428D01*
X124543571Y-68327428D01*
D12*
X129310000Y-70819000D02*
X128930000Y-70819000D01*
X129310000Y-64399000D02*
X129310000Y-70819000D01*
X147550000Y-64399000D02*
X147550000Y-70819000D01*
X129310000Y-64399000D02*
X147550000Y-64399000D01*
X147550000Y-90144000D02*
X146550000Y-90144000D01*
X147550000Y-89364000D02*
X147550000Y-90144000D01*
X129310000Y-90144000D02*
X130310000Y-90144000D01*
X129310000Y-89364000D02*
X129310000Y-90144000D01*
X152975000Y-95310000D02*
X155635000Y-95310000D01*
X152975000Y-72390000D02*
X152975000Y-95310000D01*
X155635000Y-72390000D02*
X155635000Y-95310000D01*
X152975000Y-72390000D02*
X155635000Y-72390000D01*
X152975000Y-71120000D02*
X152975000Y-69790000D01*
X152975000Y-69790000D02*
X154305000Y-69790000D01*
X121225000Y-95310000D02*
X123885000Y-95310000D01*
X121225000Y-72390000D02*
X121225000Y-95310000D01*
X123885000Y-72390000D02*
X123885000Y-95310000D01*
X121225000Y-72390000D02*
X123885000Y-72390000D01*
X121225000Y-71120000D02*
X121225000Y-69790000D01*
X121225000Y-69790000D02*
X122555000Y-69790000D01*
X150435000Y-95310000D02*
X153095000Y-95310000D01*
X150435000Y-72390000D02*
X150435000Y-95310000D01*
X153095000Y-72390000D02*
X153095000Y-95310000D01*
X150435000Y-72390000D02*
X153095000Y-72390000D01*
X150435000Y-71120000D02*
X150435000Y-69790000D01*
X150435000Y-69790000D02*
X151765000Y-69790000D01*
X123765000Y-95310000D02*
X126425000Y-95310000D01*
X123765000Y-72390000D02*
X123765000Y-95310000D01*
X126425000Y-72390000D02*
X126425000Y-95310000D01*
X123765000Y-72390000D02*
X126425000Y-72390000D01*
X123765000Y-71120000D02*
X123765000Y-69790000D01*
X123765000Y-69790000D02*
X125095000Y-69790000D01*
D13*
X147430000Y-96070000D02*
X129430000Y-96070000D01*
X147430000Y-70540000D02*
X147430000Y-96070000D01*
X129430000Y-70540000D02*
X147430000Y-70540000D01*
X129430000Y-96070000D02*
X129430000Y-70540000D01*
D14*
X129413000Y-70485000D02*
X129413000Y-64516000D01*
X147447000Y-70485000D02*
X147447000Y-64516000D01*
X147447000Y-64516000D02*
X129413000Y-64516000D01*
X137568095Y-71192380D02*
X137568095Y-72001904D01*
X137615714Y-72097142D01*
X137663333Y-72144761D01*
X137758571Y-72192380D01*
X137949047Y-72192380D01*
X138044285Y-72144761D01*
X138091904Y-72097142D01*
X138139523Y-72001904D01*
X138139523Y-71192380D01*
X139139523Y-72192380D02*
X138568095Y-72192380D01*
X138853809Y-72192380D02*
X138853809Y-71192380D01*
X138758571Y-71335238D01*
X138663333Y-71430476D01*
X138568095Y-71478095D01*
M02*
