G04 #@! TF.GenerationSoftware,KiCad,Pcbnew,5.1.5*
G04 #@! TF.CreationDate,2020-04-27T00:38:36+01:00*
G04 #@! TF.ProjectId,esp32-wrover-breakout,65737033-322d-4777-926f-7665722d6272,rev?*
G04 #@! TF.SameCoordinates,Original*
G04 #@! TF.FileFunction,Soldermask,Bot*
G04 #@! TF.FilePolarity,Negative*
%FSLAX46Y46*%
G04 Gerber Fmt 4.6, Leading zero omitted, Abs format (unit mm)*
G04 Created by KiCad (PCBNEW 5.1.5) date 2020-04-27 00:38:36*
%MOMM*%
%LPD*%
G04 APERTURE LIST*
%ADD10C,0.100000*%
G04 APERTURE END LIST*
D10*
G36*
X154418512Y-93083927D02*
G01*
X154567812Y-93113624D01*
X154731784Y-93181544D01*
X154879354Y-93280147D01*
X155004853Y-93405646D01*
X155103456Y-93553216D01*
X155171376Y-93717188D01*
X155206000Y-93891259D01*
X155206000Y-94068741D01*
X155171376Y-94242812D01*
X155103456Y-94406784D01*
X155004853Y-94554354D01*
X154879354Y-94679853D01*
X154731784Y-94778456D01*
X154567812Y-94846376D01*
X154418512Y-94876073D01*
X154393742Y-94881000D01*
X154216258Y-94881000D01*
X154191488Y-94876073D01*
X154042188Y-94846376D01*
X153878216Y-94778456D01*
X153730646Y-94679853D01*
X153605147Y-94554354D01*
X153506544Y-94406784D01*
X153438624Y-94242812D01*
X153404000Y-94068741D01*
X153404000Y-93891259D01*
X153438624Y-93717188D01*
X153506544Y-93553216D01*
X153605147Y-93405646D01*
X153730646Y-93280147D01*
X153878216Y-93181544D01*
X154042188Y-93113624D01*
X154191488Y-93083927D01*
X154216258Y-93079000D01*
X154393742Y-93079000D01*
X154418512Y-93083927D01*
G37*
G36*
X122668512Y-93083927D02*
G01*
X122817812Y-93113624D01*
X122981784Y-93181544D01*
X123129354Y-93280147D01*
X123254853Y-93405646D01*
X123353456Y-93553216D01*
X123421376Y-93717188D01*
X123456000Y-93891259D01*
X123456000Y-94068741D01*
X123421376Y-94242812D01*
X123353456Y-94406784D01*
X123254853Y-94554354D01*
X123129354Y-94679853D01*
X122981784Y-94778456D01*
X122817812Y-94846376D01*
X122668512Y-94876073D01*
X122643742Y-94881000D01*
X122466258Y-94881000D01*
X122441488Y-94876073D01*
X122292188Y-94846376D01*
X122128216Y-94778456D01*
X121980646Y-94679853D01*
X121855147Y-94554354D01*
X121756544Y-94406784D01*
X121688624Y-94242812D01*
X121654000Y-94068741D01*
X121654000Y-93891259D01*
X121688624Y-93717188D01*
X121756544Y-93553216D01*
X121855147Y-93405646D01*
X121980646Y-93280147D01*
X122128216Y-93181544D01*
X122292188Y-93113624D01*
X122441488Y-93083927D01*
X122466258Y-93079000D01*
X122643742Y-93079000D01*
X122668512Y-93083927D01*
G37*
G36*
X151878512Y-93083927D02*
G01*
X152027812Y-93113624D01*
X152191784Y-93181544D01*
X152339354Y-93280147D01*
X152464853Y-93405646D01*
X152563456Y-93553216D01*
X152631376Y-93717188D01*
X152666000Y-93891259D01*
X152666000Y-94068741D01*
X152631376Y-94242812D01*
X152563456Y-94406784D01*
X152464853Y-94554354D01*
X152339354Y-94679853D01*
X152191784Y-94778456D01*
X152027812Y-94846376D01*
X151878512Y-94876073D01*
X151853742Y-94881000D01*
X151676258Y-94881000D01*
X151651488Y-94876073D01*
X151502188Y-94846376D01*
X151338216Y-94778456D01*
X151190646Y-94679853D01*
X151065147Y-94554354D01*
X150966544Y-94406784D01*
X150898624Y-94242812D01*
X150864000Y-94068741D01*
X150864000Y-93891259D01*
X150898624Y-93717188D01*
X150966544Y-93553216D01*
X151065147Y-93405646D01*
X151190646Y-93280147D01*
X151338216Y-93181544D01*
X151502188Y-93113624D01*
X151651488Y-93083927D01*
X151676258Y-93079000D01*
X151853742Y-93079000D01*
X151878512Y-93083927D01*
G37*
G36*
X125208512Y-93083927D02*
G01*
X125357812Y-93113624D01*
X125521784Y-93181544D01*
X125669354Y-93280147D01*
X125794853Y-93405646D01*
X125893456Y-93553216D01*
X125961376Y-93717188D01*
X125996000Y-93891259D01*
X125996000Y-94068741D01*
X125961376Y-94242812D01*
X125893456Y-94406784D01*
X125794853Y-94554354D01*
X125669354Y-94679853D01*
X125521784Y-94778456D01*
X125357812Y-94846376D01*
X125208512Y-94876073D01*
X125183742Y-94881000D01*
X125006258Y-94881000D01*
X124981488Y-94876073D01*
X124832188Y-94846376D01*
X124668216Y-94778456D01*
X124520646Y-94679853D01*
X124395147Y-94554354D01*
X124296544Y-94406784D01*
X124228624Y-94242812D01*
X124194000Y-94068741D01*
X124194000Y-93891259D01*
X124228624Y-93717188D01*
X124296544Y-93553216D01*
X124395147Y-93405646D01*
X124520646Y-93280147D01*
X124668216Y-93181544D01*
X124832188Y-93113624D01*
X124981488Y-93083927D01*
X125006258Y-93079000D01*
X125183742Y-93079000D01*
X125208512Y-93083927D01*
G37*
G36*
X151878512Y-90543927D02*
G01*
X152027812Y-90573624D01*
X152191784Y-90641544D01*
X152339354Y-90740147D01*
X152464853Y-90865646D01*
X152563456Y-91013216D01*
X152631376Y-91177188D01*
X152666000Y-91351259D01*
X152666000Y-91528741D01*
X152631376Y-91702812D01*
X152563456Y-91866784D01*
X152464853Y-92014354D01*
X152339354Y-92139853D01*
X152191784Y-92238456D01*
X152027812Y-92306376D01*
X151878512Y-92336073D01*
X151853742Y-92341000D01*
X151676258Y-92341000D01*
X151651488Y-92336073D01*
X151502188Y-92306376D01*
X151338216Y-92238456D01*
X151190646Y-92139853D01*
X151065147Y-92014354D01*
X150966544Y-91866784D01*
X150898624Y-91702812D01*
X150864000Y-91528741D01*
X150864000Y-91351259D01*
X150898624Y-91177188D01*
X150966544Y-91013216D01*
X151065147Y-90865646D01*
X151190646Y-90740147D01*
X151338216Y-90641544D01*
X151502188Y-90573624D01*
X151651488Y-90543927D01*
X151676258Y-90539000D01*
X151853742Y-90539000D01*
X151878512Y-90543927D01*
G37*
G36*
X154418512Y-90543927D02*
G01*
X154567812Y-90573624D01*
X154731784Y-90641544D01*
X154879354Y-90740147D01*
X155004853Y-90865646D01*
X155103456Y-91013216D01*
X155171376Y-91177188D01*
X155206000Y-91351259D01*
X155206000Y-91528741D01*
X155171376Y-91702812D01*
X155103456Y-91866784D01*
X155004853Y-92014354D01*
X154879354Y-92139853D01*
X154731784Y-92238456D01*
X154567812Y-92306376D01*
X154418512Y-92336073D01*
X154393742Y-92341000D01*
X154216258Y-92341000D01*
X154191488Y-92336073D01*
X154042188Y-92306376D01*
X153878216Y-92238456D01*
X153730646Y-92139853D01*
X153605147Y-92014354D01*
X153506544Y-91866784D01*
X153438624Y-91702812D01*
X153404000Y-91528741D01*
X153404000Y-91351259D01*
X153438624Y-91177188D01*
X153506544Y-91013216D01*
X153605147Y-90865646D01*
X153730646Y-90740147D01*
X153878216Y-90641544D01*
X154042188Y-90573624D01*
X154191488Y-90543927D01*
X154216258Y-90539000D01*
X154393742Y-90539000D01*
X154418512Y-90543927D01*
G37*
G36*
X122668512Y-90543927D02*
G01*
X122817812Y-90573624D01*
X122981784Y-90641544D01*
X123129354Y-90740147D01*
X123254853Y-90865646D01*
X123353456Y-91013216D01*
X123421376Y-91177188D01*
X123456000Y-91351259D01*
X123456000Y-91528741D01*
X123421376Y-91702812D01*
X123353456Y-91866784D01*
X123254853Y-92014354D01*
X123129354Y-92139853D01*
X122981784Y-92238456D01*
X122817812Y-92306376D01*
X122668512Y-92336073D01*
X122643742Y-92341000D01*
X122466258Y-92341000D01*
X122441488Y-92336073D01*
X122292188Y-92306376D01*
X122128216Y-92238456D01*
X121980646Y-92139853D01*
X121855147Y-92014354D01*
X121756544Y-91866784D01*
X121688624Y-91702812D01*
X121654000Y-91528741D01*
X121654000Y-91351259D01*
X121688624Y-91177188D01*
X121756544Y-91013216D01*
X121855147Y-90865646D01*
X121980646Y-90740147D01*
X122128216Y-90641544D01*
X122292188Y-90573624D01*
X122441488Y-90543927D01*
X122466258Y-90539000D01*
X122643742Y-90539000D01*
X122668512Y-90543927D01*
G37*
G36*
X125208512Y-90543927D02*
G01*
X125357812Y-90573624D01*
X125521784Y-90641544D01*
X125669354Y-90740147D01*
X125794853Y-90865646D01*
X125893456Y-91013216D01*
X125961376Y-91177188D01*
X125996000Y-91351259D01*
X125996000Y-91528741D01*
X125961376Y-91702812D01*
X125893456Y-91866784D01*
X125794853Y-92014354D01*
X125669354Y-92139853D01*
X125521784Y-92238456D01*
X125357812Y-92306376D01*
X125208512Y-92336073D01*
X125183742Y-92341000D01*
X125006258Y-92341000D01*
X124981488Y-92336073D01*
X124832188Y-92306376D01*
X124668216Y-92238456D01*
X124520646Y-92139853D01*
X124395147Y-92014354D01*
X124296544Y-91866784D01*
X124228624Y-91702812D01*
X124194000Y-91528741D01*
X124194000Y-91351259D01*
X124228624Y-91177188D01*
X124296544Y-91013216D01*
X124395147Y-90865646D01*
X124520646Y-90740147D01*
X124668216Y-90641544D01*
X124832188Y-90573624D01*
X124981488Y-90543927D01*
X125006258Y-90539000D01*
X125183742Y-90539000D01*
X125208512Y-90543927D01*
G37*
G36*
X125208512Y-88003927D02*
G01*
X125357812Y-88033624D01*
X125521784Y-88101544D01*
X125669354Y-88200147D01*
X125794853Y-88325646D01*
X125893456Y-88473216D01*
X125961376Y-88637188D01*
X125996000Y-88811259D01*
X125996000Y-88988741D01*
X125961376Y-89162812D01*
X125893456Y-89326784D01*
X125794853Y-89474354D01*
X125669354Y-89599853D01*
X125521784Y-89698456D01*
X125357812Y-89766376D01*
X125208512Y-89796073D01*
X125183742Y-89801000D01*
X125006258Y-89801000D01*
X124981488Y-89796073D01*
X124832188Y-89766376D01*
X124668216Y-89698456D01*
X124520646Y-89599853D01*
X124395147Y-89474354D01*
X124296544Y-89326784D01*
X124228624Y-89162812D01*
X124194000Y-88988741D01*
X124194000Y-88811259D01*
X124228624Y-88637188D01*
X124296544Y-88473216D01*
X124395147Y-88325646D01*
X124520646Y-88200147D01*
X124668216Y-88101544D01*
X124832188Y-88033624D01*
X124981488Y-88003927D01*
X125006258Y-87999000D01*
X125183742Y-87999000D01*
X125208512Y-88003927D01*
G37*
G36*
X122668512Y-88003927D02*
G01*
X122817812Y-88033624D01*
X122981784Y-88101544D01*
X123129354Y-88200147D01*
X123254853Y-88325646D01*
X123353456Y-88473216D01*
X123421376Y-88637188D01*
X123456000Y-88811259D01*
X123456000Y-88988741D01*
X123421376Y-89162812D01*
X123353456Y-89326784D01*
X123254853Y-89474354D01*
X123129354Y-89599853D01*
X122981784Y-89698456D01*
X122817812Y-89766376D01*
X122668512Y-89796073D01*
X122643742Y-89801000D01*
X122466258Y-89801000D01*
X122441488Y-89796073D01*
X122292188Y-89766376D01*
X122128216Y-89698456D01*
X121980646Y-89599853D01*
X121855147Y-89474354D01*
X121756544Y-89326784D01*
X121688624Y-89162812D01*
X121654000Y-88988741D01*
X121654000Y-88811259D01*
X121688624Y-88637188D01*
X121756544Y-88473216D01*
X121855147Y-88325646D01*
X121980646Y-88200147D01*
X122128216Y-88101544D01*
X122292188Y-88033624D01*
X122441488Y-88003927D01*
X122466258Y-87999000D01*
X122643742Y-87999000D01*
X122668512Y-88003927D01*
G37*
G36*
X151878512Y-88003927D02*
G01*
X152027812Y-88033624D01*
X152191784Y-88101544D01*
X152339354Y-88200147D01*
X152464853Y-88325646D01*
X152563456Y-88473216D01*
X152631376Y-88637188D01*
X152666000Y-88811259D01*
X152666000Y-88988741D01*
X152631376Y-89162812D01*
X152563456Y-89326784D01*
X152464853Y-89474354D01*
X152339354Y-89599853D01*
X152191784Y-89698456D01*
X152027812Y-89766376D01*
X151878512Y-89796073D01*
X151853742Y-89801000D01*
X151676258Y-89801000D01*
X151651488Y-89796073D01*
X151502188Y-89766376D01*
X151338216Y-89698456D01*
X151190646Y-89599853D01*
X151065147Y-89474354D01*
X150966544Y-89326784D01*
X150898624Y-89162812D01*
X150864000Y-88988741D01*
X150864000Y-88811259D01*
X150898624Y-88637188D01*
X150966544Y-88473216D01*
X151065147Y-88325646D01*
X151190646Y-88200147D01*
X151338216Y-88101544D01*
X151502188Y-88033624D01*
X151651488Y-88003927D01*
X151676258Y-87999000D01*
X151853742Y-87999000D01*
X151878512Y-88003927D01*
G37*
G36*
X154418512Y-88003927D02*
G01*
X154567812Y-88033624D01*
X154731784Y-88101544D01*
X154879354Y-88200147D01*
X155004853Y-88325646D01*
X155103456Y-88473216D01*
X155171376Y-88637188D01*
X155206000Y-88811259D01*
X155206000Y-88988741D01*
X155171376Y-89162812D01*
X155103456Y-89326784D01*
X155004853Y-89474354D01*
X154879354Y-89599853D01*
X154731784Y-89698456D01*
X154567812Y-89766376D01*
X154418512Y-89796073D01*
X154393742Y-89801000D01*
X154216258Y-89801000D01*
X154191488Y-89796073D01*
X154042188Y-89766376D01*
X153878216Y-89698456D01*
X153730646Y-89599853D01*
X153605147Y-89474354D01*
X153506544Y-89326784D01*
X153438624Y-89162812D01*
X153404000Y-88988741D01*
X153404000Y-88811259D01*
X153438624Y-88637188D01*
X153506544Y-88473216D01*
X153605147Y-88325646D01*
X153730646Y-88200147D01*
X153878216Y-88101544D01*
X154042188Y-88033624D01*
X154191488Y-88003927D01*
X154216258Y-87999000D01*
X154393742Y-87999000D01*
X154418512Y-88003927D01*
G37*
G36*
X151878512Y-85463927D02*
G01*
X152027812Y-85493624D01*
X152191784Y-85561544D01*
X152339354Y-85660147D01*
X152464853Y-85785646D01*
X152563456Y-85933216D01*
X152631376Y-86097188D01*
X152666000Y-86271259D01*
X152666000Y-86448741D01*
X152631376Y-86622812D01*
X152563456Y-86786784D01*
X152464853Y-86934354D01*
X152339354Y-87059853D01*
X152191784Y-87158456D01*
X152027812Y-87226376D01*
X151878512Y-87256073D01*
X151853742Y-87261000D01*
X151676258Y-87261000D01*
X151651488Y-87256073D01*
X151502188Y-87226376D01*
X151338216Y-87158456D01*
X151190646Y-87059853D01*
X151065147Y-86934354D01*
X150966544Y-86786784D01*
X150898624Y-86622812D01*
X150864000Y-86448741D01*
X150864000Y-86271259D01*
X150898624Y-86097188D01*
X150966544Y-85933216D01*
X151065147Y-85785646D01*
X151190646Y-85660147D01*
X151338216Y-85561544D01*
X151502188Y-85493624D01*
X151651488Y-85463927D01*
X151676258Y-85459000D01*
X151853742Y-85459000D01*
X151878512Y-85463927D01*
G37*
G36*
X154418512Y-85463927D02*
G01*
X154567812Y-85493624D01*
X154731784Y-85561544D01*
X154879354Y-85660147D01*
X155004853Y-85785646D01*
X155103456Y-85933216D01*
X155171376Y-86097188D01*
X155206000Y-86271259D01*
X155206000Y-86448741D01*
X155171376Y-86622812D01*
X155103456Y-86786784D01*
X155004853Y-86934354D01*
X154879354Y-87059853D01*
X154731784Y-87158456D01*
X154567812Y-87226376D01*
X154418512Y-87256073D01*
X154393742Y-87261000D01*
X154216258Y-87261000D01*
X154191488Y-87256073D01*
X154042188Y-87226376D01*
X153878216Y-87158456D01*
X153730646Y-87059853D01*
X153605147Y-86934354D01*
X153506544Y-86786784D01*
X153438624Y-86622812D01*
X153404000Y-86448741D01*
X153404000Y-86271259D01*
X153438624Y-86097188D01*
X153506544Y-85933216D01*
X153605147Y-85785646D01*
X153730646Y-85660147D01*
X153878216Y-85561544D01*
X154042188Y-85493624D01*
X154191488Y-85463927D01*
X154216258Y-85459000D01*
X154393742Y-85459000D01*
X154418512Y-85463927D01*
G37*
G36*
X122668512Y-85463927D02*
G01*
X122817812Y-85493624D01*
X122981784Y-85561544D01*
X123129354Y-85660147D01*
X123254853Y-85785646D01*
X123353456Y-85933216D01*
X123421376Y-86097188D01*
X123456000Y-86271259D01*
X123456000Y-86448741D01*
X123421376Y-86622812D01*
X123353456Y-86786784D01*
X123254853Y-86934354D01*
X123129354Y-87059853D01*
X122981784Y-87158456D01*
X122817812Y-87226376D01*
X122668512Y-87256073D01*
X122643742Y-87261000D01*
X122466258Y-87261000D01*
X122441488Y-87256073D01*
X122292188Y-87226376D01*
X122128216Y-87158456D01*
X121980646Y-87059853D01*
X121855147Y-86934354D01*
X121756544Y-86786784D01*
X121688624Y-86622812D01*
X121654000Y-86448741D01*
X121654000Y-86271259D01*
X121688624Y-86097188D01*
X121756544Y-85933216D01*
X121855147Y-85785646D01*
X121980646Y-85660147D01*
X122128216Y-85561544D01*
X122292188Y-85493624D01*
X122441488Y-85463927D01*
X122466258Y-85459000D01*
X122643742Y-85459000D01*
X122668512Y-85463927D01*
G37*
G36*
X125208512Y-85463927D02*
G01*
X125357812Y-85493624D01*
X125521784Y-85561544D01*
X125669354Y-85660147D01*
X125794853Y-85785646D01*
X125893456Y-85933216D01*
X125961376Y-86097188D01*
X125996000Y-86271259D01*
X125996000Y-86448741D01*
X125961376Y-86622812D01*
X125893456Y-86786784D01*
X125794853Y-86934354D01*
X125669354Y-87059853D01*
X125521784Y-87158456D01*
X125357812Y-87226376D01*
X125208512Y-87256073D01*
X125183742Y-87261000D01*
X125006258Y-87261000D01*
X124981488Y-87256073D01*
X124832188Y-87226376D01*
X124668216Y-87158456D01*
X124520646Y-87059853D01*
X124395147Y-86934354D01*
X124296544Y-86786784D01*
X124228624Y-86622812D01*
X124194000Y-86448741D01*
X124194000Y-86271259D01*
X124228624Y-86097188D01*
X124296544Y-85933216D01*
X124395147Y-85785646D01*
X124520646Y-85660147D01*
X124668216Y-85561544D01*
X124832188Y-85493624D01*
X124981488Y-85463927D01*
X125006258Y-85459000D01*
X125183742Y-85459000D01*
X125208512Y-85463927D01*
G37*
G36*
X125208512Y-82923927D02*
G01*
X125357812Y-82953624D01*
X125521784Y-83021544D01*
X125669354Y-83120147D01*
X125794853Y-83245646D01*
X125893456Y-83393216D01*
X125961376Y-83557188D01*
X125996000Y-83731259D01*
X125996000Y-83908741D01*
X125961376Y-84082812D01*
X125893456Y-84246784D01*
X125794853Y-84394354D01*
X125669354Y-84519853D01*
X125521784Y-84618456D01*
X125357812Y-84686376D01*
X125208512Y-84716073D01*
X125183742Y-84721000D01*
X125006258Y-84721000D01*
X124981488Y-84716073D01*
X124832188Y-84686376D01*
X124668216Y-84618456D01*
X124520646Y-84519853D01*
X124395147Y-84394354D01*
X124296544Y-84246784D01*
X124228624Y-84082812D01*
X124194000Y-83908741D01*
X124194000Y-83731259D01*
X124228624Y-83557188D01*
X124296544Y-83393216D01*
X124395147Y-83245646D01*
X124520646Y-83120147D01*
X124668216Y-83021544D01*
X124832188Y-82953624D01*
X124981488Y-82923927D01*
X125006258Y-82919000D01*
X125183742Y-82919000D01*
X125208512Y-82923927D01*
G37*
G36*
X151878512Y-82923927D02*
G01*
X152027812Y-82953624D01*
X152191784Y-83021544D01*
X152339354Y-83120147D01*
X152464853Y-83245646D01*
X152563456Y-83393216D01*
X152631376Y-83557188D01*
X152666000Y-83731259D01*
X152666000Y-83908741D01*
X152631376Y-84082812D01*
X152563456Y-84246784D01*
X152464853Y-84394354D01*
X152339354Y-84519853D01*
X152191784Y-84618456D01*
X152027812Y-84686376D01*
X151878512Y-84716073D01*
X151853742Y-84721000D01*
X151676258Y-84721000D01*
X151651488Y-84716073D01*
X151502188Y-84686376D01*
X151338216Y-84618456D01*
X151190646Y-84519853D01*
X151065147Y-84394354D01*
X150966544Y-84246784D01*
X150898624Y-84082812D01*
X150864000Y-83908741D01*
X150864000Y-83731259D01*
X150898624Y-83557188D01*
X150966544Y-83393216D01*
X151065147Y-83245646D01*
X151190646Y-83120147D01*
X151338216Y-83021544D01*
X151502188Y-82953624D01*
X151651488Y-82923927D01*
X151676258Y-82919000D01*
X151853742Y-82919000D01*
X151878512Y-82923927D01*
G37*
G36*
X154418512Y-82923927D02*
G01*
X154567812Y-82953624D01*
X154731784Y-83021544D01*
X154879354Y-83120147D01*
X155004853Y-83245646D01*
X155103456Y-83393216D01*
X155171376Y-83557188D01*
X155206000Y-83731259D01*
X155206000Y-83908741D01*
X155171376Y-84082812D01*
X155103456Y-84246784D01*
X155004853Y-84394354D01*
X154879354Y-84519853D01*
X154731784Y-84618456D01*
X154567812Y-84686376D01*
X154418512Y-84716073D01*
X154393742Y-84721000D01*
X154216258Y-84721000D01*
X154191488Y-84716073D01*
X154042188Y-84686376D01*
X153878216Y-84618456D01*
X153730646Y-84519853D01*
X153605147Y-84394354D01*
X153506544Y-84246784D01*
X153438624Y-84082812D01*
X153404000Y-83908741D01*
X153404000Y-83731259D01*
X153438624Y-83557188D01*
X153506544Y-83393216D01*
X153605147Y-83245646D01*
X153730646Y-83120147D01*
X153878216Y-83021544D01*
X154042188Y-82953624D01*
X154191488Y-82923927D01*
X154216258Y-82919000D01*
X154393742Y-82919000D01*
X154418512Y-82923927D01*
G37*
G36*
X122668512Y-82923927D02*
G01*
X122817812Y-82953624D01*
X122981784Y-83021544D01*
X123129354Y-83120147D01*
X123254853Y-83245646D01*
X123353456Y-83393216D01*
X123421376Y-83557188D01*
X123456000Y-83731259D01*
X123456000Y-83908741D01*
X123421376Y-84082812D01*
X123353456Y-84246784D01*
X123254853Y-84394354D01*
X123129354Y-84519853D01*
X122981784Y-84618456D01*
X122817812Y-84686376D01*
X122668512Y-84716073D01*
X122643742Y-84721000D01*
X122466258Y-84721000D01*
X122441488Y-84716073D01*
X122292188Y-84686376D01*
X122128216Y-84618456D01*
X121980646Y-84519853D01*
X121855147Y-84394354D01*
X121756544Y-84246784D01*
X121688624Y-84082812D01*
X121654000Y-83908741D01*
X121654000Y-83731259D01*
X121688624Y-83557188D01*
X121756544Y-83393216D01*
X121855147Y-83245646D01*
X121980646Y-83120147D01*
X122128216Y-83021544D01*
X122292188Y-82953624D01*
X122441488Y-82923927D01*
X122466258Y-82919000D01*
X122643742Y-82919000D01*
X122668512Y-82923927D01*
G37*
G36*
X122668512Y-80383927D02*
G01*
X122817812Y-80413624D01*
X122981784Y-80481544D01*
X123129354Y-80580147D01*
X123254853Y-80705646D01*
X123353456Y-80853216D01*
X123421376Y-81017188D01*
X123456000Y-81191259D01*
X123456000Y-81368741D01*
X123421376Y-81542812D01*
X123353456Y-81706784D01*
X123254853Y-81854354D01*
X123129354Y-81979853D01*
X122981784Y-82078456D01*
X122817812Y-82146376D01*
X122668512Y-82176073D01*
X122643742Y-82181000D01*
X122466258Y-82181000D01*
X122441488Y-82176073D01*
X122292188Y-82146376D01*
X122128216Y-82078456D01*
X121980646Y-81979853D01*
X121855147Y-81854354D01*
X121756544Y-81706784D01*
X121688624Y-81542812D01*
X121654000Y-81368741D01*
X121654000Y-81191259D01*
X121688624Y-81017188D01*
X121756544Y-80853216D01*
X121855147Y-80705646D01*
X121980646Y-80580147D01*
X122128216Y-80481544D01*
X122292188Y-80413624D01*
X122441488Y-80383927D01*
X122466258Y-80379000D01*
X122643742Y-80379000D01*
X122668512Y-80383927D01*
G37*
G36*
X125208512Y-80383927D02*
G01*
X125357812Y-80413624D01*
X125521784Y-80481544D01*
X125669354Y-80580147D01*
X125794853Y-80705646D01*
X125893456Y-80853216D01*
X125961376Y-81017188D01*
X125996000Y-81191259D01*
X125996000Y-81368741D01*
X125961376Y-81542812D01*
X125893456Y-81706784D01*
X125794853Y-81854354D01*
X125669354Y-81979853D01*
X125521784Y-82078456D01*
X125357812Y-82146376D01*
X125208512Y-82176073D01*
X125183742Y-82181000D01*
X125006258Y-82181000D01*
X124981488Y-82176073D01*
X124832188Y-82146376D01*
X124668216Y-82078456D01*
X124520646Y-81979853D01*
X124395147Y-81854354D01*
X124296544Y-81706784D01*
X124228624Y-81542812D01*
X124194000Y-81368741D01*
X124194000Y-81191259D01*
X124228624Y-81017188D01*
X124296544Y-80853216D01*
X124395147Y-80705646D01*
X124520646Y-80580147D01*
X124668216Y-80481544D01*
X124832188Y-80413624D01*
X124981488Y-80383927D01*
X125006258Y-80379000D01*
X125183742Y-80379000D01*
X125208512Y-80383927D01*
G37*
G36*
X151878512Y-80383927D02*
G01*
X152027812Y-80413624D01*
X152191784Y-80481544D01*
X152339354Y-80580147D01*
X152464853Y-80705646D01*
X152563456Y-80853216D01*
X152631376Y-81017188D01*
X152666000Y-81191259D01*
X152666000Y-81368741D01*
X152631376Y-81542812D01*
X152563456Y-81706784D01*
X152464853Y-81854354D01*
X152339354Y-81979853D01*
X152191784Y-82078456D01*
X152027812Y-82146376D01*
X151878512Y-82176073D01*
X151853742Y-82181000D01*
X151676258Y-82181000D01*
X151651488Y-82176073D01*
X151502188Y-82146376D01*
X151338216Y-82078456D01*
X151190646Y-81979853D01*
X151065147Y-81854354D01*
X150966544Y-81706784D01*
X150898624Y-81542812D01*
X150864000Y-81368741D01*
X150864000Y-81191259D01*
X150898624Y-81017188D01*
X150966544Y-80853216D01*
X151065147Y-80705646D01*
X151190646Y-80580147D01*
X151338216Y-80481544D01*
X151502188Y-80413624D01*
X151651488Y-80383927D01*
X151676258Y-80379000D01*
X151853742Y-80379000D01*
X151878512Y-80383927D01*
G37*
G36*
X154418512Y-80383927D02*
G01*
X154567812Y-80413624D01*
X154731784Y-80481544D01*
X154879354Y-80580147D01*
X155004853Y-80705646D01*
X155103456Y-80853216D01*
X155171376Y-81017188D01*
X155206000Y-81191259D01*
X155206000Y-81368741D01*
X155171376Y-81542812D01*
X155103456Y-81706784D01*
X155004853Y-81854354D01*
X154879354Y-81979853D01*
X154731784Y-82078456D01*
X154567812Y-82146376D01*
X154418512Y-82176073D01*
X154393742Y-82181000D01*
X154216258Y-82181000D01*
X154191488Y-82176073D01*
X154042188Y-82146376D01*
X153878216Y-82078456D01*
X153730646Y-81979853D01*
X153605147Y-81854354D01*
X153506544Y-81706784D01*
X153438624Y-81542812D01*
X153404000Y-81368741D01*
X153404000Y-81191259D01*
X153438624Y-81017188D01*
X153506544Y-80853216D01*
X153605147Y-80705646D01*
X153730646Y-80580147D01*
X153878216Y-80481544D01*
X154042188Y-80413624D01*
X154191488Y-80383927D01*
X154216258Y-80379000D01*
X154393742Y-80379000D01*
X154418512Y-80383927D01*
G37*
G36*
X136161552Y-76506331D02*
G01*
X136243627Y-76540328D01*
X136243629Y-76540329D01*
X136280813Y-76565175D01*
X136317495Y-76589685D01*
X136380316Y-76652506D01*
X136426067Y-76720977D01*
X136441613Y-76739919D01*
X136460555Y-76755464D01*
X136482165Y-76767015D01*
X136505614Y-76774128D01*
X136530000Y-76776530D01*
X136554386Y-76774128D01*
X136577835Y-76767015D01*
X136599446Y-76755464D01*
X136618388Y-76739918D01*
X136633933Y-76720977D01*
X136679684Y-76652506D01*
X136742505Y-76589685D01*
X136779187Y-76565175D01*
X136816371Y-76540329D01*
X136816373Y-76540328D01*
X136898448Y-76506331D01*
X136985579Y-76489000D01*
X137074421Y-76489000D01*
X137161552Y-76506331D01*
X137243627Y-76540328D01*
X137243629Y-76540329D01*
X137280813Y-76565175D01*
X137317495Y-76589685D01*
X137380316Y-76652506D01*
X137426067Y-76720977D01*
X137441613Y-76739919D01*
X137460555Y-76755464D01*
X137482165Y-76767015D01*
X137505614Y-76774128D01*
X137530000Y-76776530D01*
X137554386Y-76774128D01*
X137577835Y-76767015D01*
X137599446Y-76755464D01*
X137618388Y-76739918D01*
X137633933Y-76720977D01*
X137679684Y-76652506D01*
X137742505Y-76589685D01*
X137779187Y-76565175D01*
X137816371Y-76540329D01*
X137816373Y-76540328D01*
X137898448Y-76506331D01*
X137985579Y-76489000D01*
X138074421Y-76489000D01*
X138161552Y-76506331D01*
X138243627Y-76540328D01*
X138243629Y-76540329D01*
X138280813Y-76565175D01*
X138317495Y-76589685D01*
X138380316Y-76652506D01*
X138426067Y-76720977D01*
X138441613Y-76739919D01*
X138460555Y-76755464D01*
X138482165Y-76767015D01*
X138505614Y-76774128D01*
X138530000Y-76776530D01*
X138554386Y-76774128D01*
X138577835Y-76767015D01*
X138599446Y-76755464D01*
X138618388Y-76739918D01*
X138633933Y-76720977D01*
X138679684Y-76652506D01*
X138742505Y-76589685D01*
X138779187Y-76565175D01*
X138816371Y-76540329D01*
X138816373Y-76540328D01*
X138898448Y-76506331D01*
X138985579Y-76489000D01*
X139074421Y-76489000D01*
X139161552Y-76506331D01*
X139243627Y-76540328D01*
X139243629Y-76540329D01*
X139280813Y-76565175D01*
X139317495Y-76589685D01*
X139380316Y-76652506D01*
X139426067Y-76720977D01*
X139441613Y-76739919D01*
X139460555Y-76755464D01*
X139482165Y-76767015D01*
X139505614Y-76774128D01*
X139530000Y-76776530D01*
X139554386Y-76774128D01*
X139577835Y-76767015D01*
X139599446Y-76755464D01*
X139618388Y-76739918D01*
X139633933Y-76720977D01*
X139679684Y-76652506D01*
X139742505Y-76589685D01*
X139779187Y-76565175D01*
X139816371Y-76540329D01*
X139816373Y-76540328D01*
X139898448Y-76506331D01*
X139985579Y-76489000D01*
X140074421Y-76489000D01*
X140161552Y-76506331D01*
X140243627Y-76540328D01*
X140243629Y-76540329D01*
X140280813Y-76565175D01*
X140317495Y-76589685D01*
X140380315Y-76652505D01*
X140429672Y-76726373D01*
X140463669Y-76808448D01*
X140481000Y-76895579D01*
X140481000Y-76984421D01*
X140463669Y-77071552D01*
X140429672Y-77153627D01*
X140380315Y-77227495D01*
X140317494Y-77290316D01*
X140249023Y-77336067D01*
X140230081Y-77351613D01*
X140214536Y-77370555D01*
X140202985Y-77392165D01*
X140195872Y-77415614D01*
X140193470Y-77440000D01*
X140195872Y-77464386D01*
X140202985Y-77487835D01*
X140214536Y-77509446D01*
X140230082Y-77528388D01*
X140249023Y-77543933D01*
X140317494Y-77589684D01*
X140380315Y-77652505D01*
X140429672Y-77726373D01*
X140463669Y-77808448D01*
X140481000Y-77895579D01*
X140481000Y-77984421D01*
X140463669Y-78071552D01*
X140429672Y-78153627D01*
X140429671Y-78153629D01*
X140404825Y-78190813D01*
X140380315Y-78227495D01*
X140317494Y-78290316D01*
X140249023Y-78336067D01*
X140230081Y-78351613D01*
X140214536Y-78370555D01*
X140202985Y-78392165D01*
X140195872Y-78415614D01*
X140193470Y-78440000D01*
X140195872Y-78464386D01*
X140202985Y-78487835D01*
X140214536Y-78509446D01*
X140230082Y-78528388D01*
X140249023Y-78543933D01*
X140317494Y-78589684D01*
X140380315Y-78652505D01*
X140429672Y-78726373D01*
X140463669Y-78808448D01*
X140481000Y-78895579D01*
X140481000Y-78984421D01*
X140463669Y-79071552D01*
X140429672Y-79153627D01*
X140380315Y-79227495D01*
X140317494Y-79290316D01*
X140249023Y-79336067D01*
X140230081Y-79351613D01*
X140214536Y-79370555D01*
X140202985Y-79392165D01*
X140195872Y-79415614D01*
X140193470Y-79440000D01*
X140195872Y-79464386D01*
X140202985Y-79487835D01*
X140214536Y-79509446D01*
X140230082Y-79528388D01*
X140249023Y-79543933D01*
X140317494Y-79589684D01*
X140380315Y-79652505D01*
X140429672Y-79726373D01*
X140463669Y-79808448D01*
X140481000Y-79895579D01*
X140481000Y-79984421D01*
X140463669Y-80071552D01*
X140429672Y-80153627D01*
X140380315Y-80227495D01*
X140317494Y-80290316D01*
X140249023Y-80336067D01*
X140230081Y-80351613D01*
X140214536Y-80370555D01*
X140202985Y-80392165D01*
X140195872Y-80415614D01*
X140193470Y-80440000D01*
X140195872Y-80464386D01*
X140202985Y-80487835D01*
X140214536Y-80509446D01*
X140230082Y-80528388D01*
X140249023Y-80543933D01*
X140317494Y-80589684D01*
X140380315Y-80652505D01*
X140429672Y-80726373D01*
X140463669Y-80808448D01*
X140481000Y-80895579D01*
X140481000Y-80984421D01*
X140463669Y-81071552D01*
X140429672Y-81153627D01*
X140380316Y-81227494D01*
X140317496Y-81290314D01*
X140243629Y-81339671D01*
X140243628Y-81339672D01*
X140243627Y-81339672D01*
X140161552Y-81373669D01*
X140074421Y-81391000D01*
X139985579Y-81391000D01*
X139898448Y-81373669D01*
X139816373Y-81339672D01*
X139816372Y-81339672D01*
X139816371Y-81339671D01*
X139742504Y-81290314D01*
X139679684Y-81227494D01*
X139633933Y-81159023D01*
X139618387Y-81140081D01*
X139599445Y-81124536D01*
X139577835Y-81112985D01*
X139554386Y-81105872D01*
X139530000Y-81103470D01*
X139505614Y-81105872D01*
X139482165Y-81112985D01*
X139460554Y-81124536D01*
X139441612Y-81140082D01*
X139426067Y-81159023D01*
X139380316Y-81227494D01*
X139317496Y-81290314D01*
X139243629Y-81339671D01*
X139243628Y-81339672D01*
X139243627Y-81339672D01*
X139161552Y-81373669D01*
X139074421Y-81391000D01*
X138985579Y-81391000D01*
X138898448Y-81373669D01*
X138816373Y-81339672D01*
X138816372Y-81339672D01*
X138816371Y-81339671D01*
X138742504Y-81290314D01*
X138679684Y-81227494D01*
X138633933Y-81159023D01*
X138618387Y-81140081D01*
X138599445Y-81124536D01*
X138577835Y-81112985D01*
X138554386Y-81105872D01*
X138530000Y-81103470D01*
X138505614Y-81105872D01*
X138482165Y-81112985D01*
X138460554Y-81124536D01*
X138441612Y-81140082D01*
X138426067Y-81159023D01*
X138380316Y-81227494D01*
X138317496Y-81290314D01*
X138243629Y-81339671D01*
X138243628Y-81339672D01*
X138243627Y-81339672D01*
X138161552Y-81373669D01*
X138074421Y-81391000D01*
X137985579Y-81391000D01*
X137898448Y-81373669D01*
X137816373Y-81339672D01*
X137816372Y-81339672D01*
X137816371Y-81339671D01*
X137742504Y-81290314D01*
X137679684Y-81227494D01*
X137633933Y-81159023D01*
X137618387Y-81140081D01*
X137599445Y-81124536D01*
X137577835Y-81112985D01*
X137554386Y-81105872D01*
X137530000Y-81103470D01*
X137505614Y-81105872D01*
X137482165Y-81112985D01*
X137460554Y-81124536D01*
X137441612Y-81140082D01*
X137426067Y-81159023D01*
X137380316Y-81227494D01*
X137317496Y-81290314D01*
X137243629Y-81339671D01*
X137243628Y-81339672D01*
X137243627Y-81339672D01*
X137161552Y-81373669D01*
X137074421Y-81391000D01*
X136985579Y-81391000D01*
X136898448Y-81373669D01*
X136816373Y-81339672D01*
X136816372Y-81339672D01*
X136816371Y-81339671D01*
X136742504Y-81290314D01*
X136679684Y-81227494D01*
X136633933Y-81159023D01*
X136618387Y-81140081D01*
X136599445Y-81124536D01*
X136577835Y-81112985D01*
X136554386Y-81105872D01*
X136530000Y-81103470D01*
X136505614Y-81105872D01*
X136482165Y-81112985D01*
X136460554Y-81124536D01*
X136441612Y-81140082D01*
X136426067Y-81159023D01*
X136380316Y-81227494D01*
X136317496Y-81290314D01*
X136243629Y-81339671D01*
X136243628Y-81339672D01*
X136243627Y-81339672D01*
X136161552Y-81373669D01*
X136074421Y-81391000D01*
X135985579Y-81391000D01*
X135898448Y-81373669D01*
X135816373Y-81339672D01*
X135816372Y-81339672D01*
X135816371Y-81339671D01*
X135742504Y-81290314D01*
X135679686Y-81227496D01*
X135679685Y-81227494D01*
X135630328Y-81153627D01*
X135596331Y-81071552D01*
X135579000Y-80984421D01*
X135579000Y-80895579D01*
X135596331Y-80808448D01*
X135630328Y-80726373D01*
X135679685Y-80652505D01*
X135742506Y-80589684D01*
X135810977Y-80543933D01*
X135829919Y-80528387D01*
X135845464Y-80509445D01*
X135857015Y-80487835D01*
X135864128Y-80464386D01*
X135866530Y-80440000D01*
X136193470Y-80440000D01*
X136195872Y-80464386D01*
X136202985Y-80487835D01*
X136214536Y-80509446D01*
X136230082Y-80528388D01*
X136249023Y-80543933D01*
X136317494Y-80589684D01*
X136380316Y-80652506D01*
X136426067Y-80720977D01*
X136441613Y-80739919D01*
X136460555Y-80755464D01*
X136482165Y-80767015D01*
X136505614Y-80774128D01*
X136530000Y-80776530D01*
X136554386Y-80774128D01*
X136577835Y-80767015D01*
X136599446Y-80755464D01*
X136618388Y-80739918D01*
X136633933Y-80720977D01*
X136679684Y-80652506D01*
X136742506Y-80589684D01*
X136810977Y-80543933D01*
X136829919Y-80528387D01*
X136845464Y-80509445D01*
X136857015Y-80487835D01*
X136864128Y-80464386D01*
X136866530Y-80440000D01*
X137193470Y-80440000D01*
X137195872Y-80464386D01*
X137202985Y-80487835D01*
X137214536Y-80509446D01*
X137230082Y-80528388D01*
X137249023Y-80543933D01*
X137317494Y-80589684D01*
X137380316Y-80652506D01*
X137426067Y-80720977D01*
X137441613Y-80739919D01*
X137460555Y-80755464D01*
X137482165Y-80767015D01*
X137505614Y-80774128D01*
X137530000Y-80776530D01*
X137554386Y-80774128D01*
X137577835Y-80767015D01*
X137599446Y-80755464D01*
X137618388Y-80739918D01*
X137633933Y-80720977D01*
X137679684Y-80652506D01*
X137742506Y-80589684D01*
X137810977Y-80543933D01*
X137829919Y-80528387D01*
X137845464Y-80509445D01*
X137857015Y-80487835D01*
X137864128Y-80464386D01*
X137866530Y-80440000D01*
X138193470Y-80440000D01*
X138195872Y-80464386D01*
X138202985Y-80487835D01*
X138214536Y-80509446D01*
X138230082Y-80528388D01*
X138249023Y-80543933D01*
X138317494Y-80589684D01*
X138380316Y-80652506D01*
X138426067Y-80720977D01*
X138441613Y-80739919D01*
X138460555Y-80755464D01*
X138482165Y-80767015D01*
X138505614Y-80774128D01*
X138530000Y-80776530D01*
X138554386Y-80774128D01*
X138577835Y-80767015D01*
X138599446Y-80755464D01*
X138618388Y-80739918D01*
X138633933Y-80720977D01*
X138679684Y-80652506D01*
X138742506Y-80589684D01*
X138810977Y-80543933D01*
X138829919Y-80528387D01*
X138845464Y-80509445D01*
X138857015Y-80487835D01*
X138864128Y-80464386D01*
X138866530Y-80440000D01*
X139193470Y-80440000D01*
X139195872Y-80464386D01*
X139202985Y-80487835D01*
X139214536Y-80509446D01*
X139230082Y-80528388D01*
X139249023Y-80543933D01*
X139317494Y-80589684D01*
X139380316Y-80652506D01*
X139426067Y-80720977D01*
X139441613Y-80739919D01*
X139460555Y-80755464D01*
X139482165Y-80767015D01*
X139505614Y-80774128D01*
X139530000Y-80776530D01*
X139554386Y-80774128D01*
X139577835Y-80767015D01*
X139599446Y-80755464D01*
X139618388Y-80739918D01*
X139633933Y-80720977D01*
X139679684Y-80652506D01*
X139742506Y-80589684D01*
X139810977Y-80543933D01*
X139829919Y-80528387D01*
X139845464Y-80509445D01*
X139857015Y-80487835D01*
X139864128Y-80464386D01*
X139866530Y-80440000D01*
X139864128Y-80415614D01*
X139857015Y-80392165D01*
X139845464Y-80370554D01*
X139829918Y-80351612D01*
X139810977Y-80336067D01*
X139742506Y-80290316D01*
X139679684Y-80227494D01*
X139633933Y-80159023D01*
X139618387Y-80140081D01*
X139599445Y-80124536D01*
X139577835Y-80112985D01*
X139554386Y-80105872D01*
X139530000Y-80103470D01*
X139505614Y-80105872D01*
X139482165Y-80112985D01*
X139460554Y-80124536D01*
X139441612Y-80140082D01*
X139426067Y-80159023D01*
X139380316Y-80227494D01*
X139317494Y-80290316D01*
X139249023Y-80336067D01*
X139230081Y-80351613D01*
X139214536Y-80370555D01*
X139202985Y-80392165D01*
X139195872Y-80415614D01*
X139193470Y-80440000D01*
X138866530Y-80440000D01*
X138864128Y-80415614D01*
X138857015Y-80392165D01*
X138845464Y-80370554D01*
X138829918Y-80351612D01*
X138810977Y-80336067D01*
X138742506Y-80290316D01*
X138679684Y-80227494D01*
X138633933Y-80159023D01*
X138618387Y-80140081D01*
X138599445Y-80124536D01*
X138577835Y-80112985D01*
X138554386Y-80105872D01*
X138530000Y-80103470D01*
X138505614Y-80105872D01*
X138482165Y-80112985D01*
X138460554Y-80124536D01*
X138441612Y-80140082D01*
X138426067Y-80159023D01*
X138380316Y-80227494D01*
X138317494Y-80290316D01*
X138249023Y-80336067D01*
X138230081Y-80351613D01*
X138214536Y-80370555D01*
X138202985Y-80392165D01*
X138195872Y-80415614D01*
X138193470Y-80440000D01*
X137866530Y-80440000D01*
X137864128Y-80415614D01*
X137857015Y-80392165D01*
X137845464Y-80370554D01*
X137829918Y-80351612D01*
X137810977Y-80336067D01*
X137742506Y-80290316D01*
X137679684Y-80227494D01*
X137633933Y-80159023D01*
X137618387Y-80140081D01*
X137599445Y-80124536D01*
X137577835Y-80112985D01*
X137554386Y-80105872D01*
X137530000Y-80103470D01*
X137505614Y-80105872D01*
X137482165Y-80112985D01*
X137460554Y-80124536D01*
X137441612Y-80140082D01*
X137426067Y-80159023D01*
X137380316Y-80227494D01*
X137317494Y-80290316D01*
X137249023Y-80336067D01*
X137230081Y-80351613D01*
X137214536Y-80370555D01*
X137202985Y-80392165D01*
X137195872Y-80415614D01*
X137193470Y-80440000D01*
X136866530Y-80440000D01*
X136864128Y-80415614D01*
X136857015Y-80392165D01*
X136845464Y-80370554D01*
X136829918Y-80351612D01*
X136810977Y-80336067D01*
X136742506Y-80290316D01*
X136679684Y-80227494D01*
X136633933Y-80159023D01*
X136618387Y-80140081D01*
X136599445Y-80124536D01*
X136577835Y-80112985D01*
X136554386Y-80105872D01*
X136530000Y-80103470D01*
X136505614Y-80105872D01*
X136482165Y-80112985D01*
X136460554Y-80124536D01*
X136441612Y-80140082D01*
X136426067Y-80159023D01*
X136380316Y-80227494D01*
X136317494Y-80290316D01*
X136249023Y-80336067D01*
X136230081Y-80351613D01*
X136214536Y-80370555D01*
X136202985Y-80392165D01*
X136195872Y-80415614D01*
X136193470Y-80440000D01*
X135866530Y-80440000D01*
X135864128Y-80415614D01*
X135857015Y-80392165D01*
X135845464Y-80370554D01*
X135829918Y-80351612D01*
X135810977Y-80336067D01*
X135742506Y-80290316D01*
X135679685Y-80227495D01*
X135630328Y-80153627D01*
X135596331Y-80071552D01*
X135579000Y-79984421D01*
X135579000Y-79895579D01*
X135596331Y-79808448D01*
X135630328Y-79726373D01*
X135679685Y-79652505D01*
X135742506Y-79589684D01*
X135810977Y-79543933D01*
X135829919Y-79528387D01*
X135845464Y-79509445D01*
X135857015Y-79487835D01*
X135864128Y-79464386D01*
X135866530Y-79440000D01*
X136193470Y-79440000D01*
X136195872Y-79464386D01*
X136202985Y-79487835D01*
X136214536Y-79509446D01*
X136230082Y-79528388D01*
X136249023Y-79543933D01*
X136317494Y-79589684D01*
X136380316Y-79652506D01*
X136426067Y-79720977D01*
X136441613Y-79739919D01*
X136460555Y-79755464D01*
X136482165Y-79767015D01*
X136505614Y-79774128D01*
X136530000Y-79776530D01*
X136554386Y-79774128D01*
X136577835Y-79767015D01*
X136599446Y-79755464D01*
X136618388Y-79739918D01*
X136633933Y-79720977D01*
X136679684Y-79652506D01*
X136742506Y-79589684D01*
X136810977Y-79543933D01*
X136829919Y-79528387D01*
X136845464Y-79509445D01*
X136857015Y-79487835D01*
X136864128Y-79464386D01*
X136866530Y-79440000D01*
X137193470Y-79440000D01*
X137195872Y-79464386D01*
X137202985Y-79487835D01*
X137214536Y-79509446D01*
X137230082Y-79528388D01*
X137249023Y-79543933D01*
X137317494Y-79589684D01*
X137380316Y-79652506D01*
X137426067Y-79720977D01*
X137441613Y-79739919D01*
X137460555Y-79755464D01*
X137482165Y-79767015D01*
X137505614Y-79774128D01*
X137530000Y-79776530D01*
X137554386Y-79774128D01*
X137577835Y-79767015D01*
X137599446Y-79755464D01*
X137618388Y-79739918D01*
X137633933Y-79720977D01*
X137679684Y-79652506D01*
X137742506Y-79589684D01*
X137810977Y-79543933D01*
X137829919Y-79528387D01*
X137845464Y-79509445D01*
X137857015Y-79487835D01*
X137864128Y-79464386D01*
X137866530Y-79440000D01*
X138193470Y-79440000D01*
X138195872Y-79464386D01*
X138202985Y-79487835D01*
X138214536Y-79509446D01*
X138230082Y-79528388D01*
X138249023Y-79543933D01*
X138317494Y-79589684D01*
X138380316Y-79652506D01*
X138426067Y-79720977D01*
X138441613Y-79739919D01*
X138460555Y-79755464D01*
X138482165Y-79767015D01*
X138505614Y-79774128D01*
X138530000Y-79776530D01*
X138554386Y-79774128D01*
X138577835Y-79767015D01*
X138599446Y-79755464D01*
X138618388Y-79739918D01*
X138633933Y-79720977D01*
X138679684Y-79652506D01*
X138742506Y-79589684D01*
X138810977Y-79543933D01*
X138829919Y-79528387D01*
X138845464Y-79509445D01*
X138857015Y-79487835D01*
X138864128Y-79464386D01*
X138866530Y-79440000D01*
X139193470Y-79440000D01*
X139195872Y-79464386D01*
X139202985Y-79487835D01*
X139214536Y-79509446D01*
X139230082Y-79528388D01*
X139249023Y-79543933D01*
X139317494Y-79589684D01*
X139380316Y-79652506D01*
X139426067Y-79720977D01*
X139441613Y-79739919D01*
X139460555Y-79755464D01*
X139482165Y-79767015D01*
X139505614Y-79774128D01*
X139530000Y-79776530D01*
X139554386Y-79774128D01*
X139577835Y-79767015D01*
X139599446Y-79755464D01*
X139618388Y-79739918D01*
X139633933Y-79720977D01*
X139679684Y-79652506D01*
X139742506Y-79589684D01*
X139810977Y-79543933D01*
X139829919Y-79528387D01*
X139845464Y-79509445D01*
X139857015Y-79487835D01*
X139864128Y-79464386D01*
X139866530Y-79440000D01*
X139864128Y-79415614D01*
X139857015Y-79392165D01*
X139845464Y-79370554D01*
X139829918Y-79351612D01*
X139810977Y-79336067D01*
X139742506Y-79290316D01*
X139679684Y-79227494D01*
X139633933Y-79159023D01*
X139618387Y-79140081D01*
X139599445Y-79124536D01*
X139577835Y-79112985D01*
X139554386Y-79105872D01*
X139530000Y-79103470D01*
X139505614Y-79105872D01*
X139482165Y-79112985D01*
X139460554Y-79124536D01*
X139441612Y-79140082D01*
X139426067Y-79159023D01*
X139380316Y-79227494D01*
X139317494Y-79290316D01*
X139249023Y-79336067D01*
X139230081Y-79351613D01*
X139214536Y-79370555D01*
X139202985Y-79392165D01*
X139195872Y-79415614D01*
X139193470Y-79440000D01*
X138866530Y-79440000D01*
X138864128Y-79415614D01*
X138857015Y-79392165D01*
X138845464Y-79370554D01*
X138829918Y-79351612D01*
X138810977Y-79336067D01*
X138742506Y-79290316D01*
X138679684Y-79227494D01*
X138633933Y-79159023D01*
X138618387Y-79140081D01*
X138599445Y-79124536D01*
X138577835Y-79112985D01*
X138554386Y-79105872D01*
X138530000Y-79103470D01*
X138505614Y-79105872D01*
X138482165Y-79112985D01*
X138460554Y-79124536D01*
X138441612Y-79140082D01*
X138426067Y-79159023D01*
X138380316Y-79227494D01*
X138317494Y-79290316D01*
X138249023Y-79336067D01*
X138230081Y-79351613D01*
X138214536Y-79370555D01*
X138202985Y-79392165D01*
X138195872Y-79415614D01*
X138193470Y-79440000D01*
X137866530Y-79440000D01*
X137864128Y-79415614D01*
X137857015Y-79392165D01*
X137845464Y-79370554D01*
X137829918Y-79351612D01*
X137810977Y-79336067D01*
X137742506Y-79290316D01*
X137679684Y-79227494D01*
X137633933Y-79159023D01*
X137618387Y-79140081D01*
X137599445Y-79124536D01*
X137577835Y-79112985D01*
X137554386Y-79105872D01*
X137530000Y-79103470D01*
X137505614Y-79105872D01*
X137482165Y-79112985D01*
X137460554Y-79124536D01*
X137441612Y-79140082D01*
X137426067Y-79159023D01*
X137380316Y-79227494D01*
X137317494Y-79290316D01*
X137249023Y-79336067D01*
X137230081Y-79351613D01*
X137214536Y-79370555D01*
X137202985Y-79392165D01*
X137195872Y-79415614D01*
X137193470Y-79440000D01*
X136866530Y-79440000D01*
X136864128Y-79415614D01*
X136857015Y-79392165D01*
X136845464Y-79370554D01*
X136829918Y-79351612D01*
X136810977Y-79336067D01*
X136742506Y-79290316D01*
X136679684Y-79227494D01*
X136633933Y-79159023D01*
X136618387Y-79140081D01*
X136599445Y-79124536D01*
X136577835Y-79112985D01*
X136554386Y-79105872D01*
X136530000Y-79103470D01*
X136505614Y-79105872D01*
X136482165Y-79112985D01*
X136460554Y-79124536D01*
X136441612Y-79140082D01*
X136426067Y-79159023D01*
X136380316Y-79227494D01*
X136317494Y-79290316D01*
X136249023Y-79336067D01*
X136230081Y-79351613D01*
X136214536Y-79370555D01*
X136202985Y-79392165D01*
X136195872Y-79415614D01*
X136193470Y-79440000D01*
X135866530Y-79440000D01*
X135864128Y-79415614D01*
X135857015Y-79392165D01*
X135845464Y-79370554D01*
X135829918Y-79351612D01*
X135810977Y-79336067D01*
X135742506Y-79290316D01*
X135679685Y-79227495D01*
X135630328Y-79153627D01*
X135596331Y-79071552D01*
X135579000Y-78984421D01*
X135579000Y-78895579D01*
X135596331Y-78808448D01*
X135630328Y-78726373D01*
X135679685Y-78652505D01*
X135742506Y-78589684D01*
X135810977Y-78543933D01*
X135829919Y-78528387D01*
X135845464Y-78509445D01*
X135857015Y-78487835D01*
X135864128Y-78464386D01*
X135866530Y-78440000D01*
X136193470Y-78440000D01*
X136195872Y-78464386D01*
X136202985Y-78487835D01*
X136214536Y-78509446D01*
X136230082Y-78528388D01*
X136249023Y-78543933D01*
X136317494Y-78589684D01*
X136380316Y-78652506D01*
X136426067Y-78720977D01*
X136441613Y-78739919D01*
X136460555Y-78755464D01*
X136482165Y-78767015D01*
X136505614Y-78774128D01*
X136530000Y-78776530D01*
X136554386Y-78774128D01*
X136577835Y-78767015D01*
X136599446Y-78755464D01*
X136618388Y-78739918D01*
X136633933Y-78720977D01*
X136679684Y-78652506D01*
X136742506Y-78589684D01*
X136810977Y-78543933D01*
X136829919Y-78528387D01*
X136845464Y-78509445D01*
X136857015Y-78487835D01*
X136864128Y-78464386D01*
X136866530Y-78440000D01*
X137193470Y-78440000D01*
X137195872Y-78464386D01*
X137202985Y-78487835D01*
X137214536Y-78509446D01*
X137230082Y-78528388D01*
X137249023Y-78543933D01*
X137317494Y-78589684D01*
X137380316Y-78652506D01*
X137426067Y-78720977D01*
X137441613Y-78739919D01*
X137460555Y-78755464D01*
X137482165Y-78767015D01*
X137505614Y-78774128D01*
X137530000Y-78776530D01*
X137554386Y-78774128D01*
X137577835Y-78767015D01*
X137599446Y-78755464D01*
X137618388Y-78739918D01*
X137633933Y-78720977D01*
X137679684Y-78652506D01*
X137742506Y-78589684D01*
X137810977Y-78543933D01*
X137829919Y-78528387D01*
X137845464Y-78509445D01*
X137857015Y-78487835D01*
X137864128Y-78464386D01*
X137866530Y-78440000D01*
X138193470Y-78440000D01*
X138195872Y-78464386D01*
X138202985Y-78487835D01*
X138214536Y-78509446D01*
X138230082Y-78528388D01*
X138249023Y-78543933D01*
X138317494Y-78589684D01*
X138380316Y-78652506D01*
X138426067Y-78720977D01*
X138441613Y-78739919D01*
X138460555Y-78755464D01*
X138482165Y-78767015D01*
X138505614Y-78774128D01*
X138530000Y-78776530D01*
X138554386Y-78774128D01*
X138577835Y-78767015D01*
X138599446Y-78755464D01*
X138618388Y-78739918D01*
X138633933Y-78720977D01*
X138679684Y-78652506D01*
X138742506Y-78589684D01*
X138810977Y-78543933D01*
X138829919Y-78528387D01*
X138845464Y-78509445D01*
X138857015Y-78487835D01*
X138864128Y-78464386D01*
X138866530Y-78440000D01*
X139193470Y-78440000D01*
X139195872Y-78464386D01*
X139202985Y-78487835D01*
X139214536Y-78509446D01*
X139230082Y-78528388D01*
X139249023Y-78543933D01*
X139317494Y-78589684D01*
X139380316Y-78652506D01*
X139426067Y-78720977D01*
X139441613Y-78739919D01*
X139460555Y-78755464D01*
X139482165Y-78767015D01*
X139505614Y-78774128D01*
X139530000Y-78776530D01*
X139554386Y-78774128D01*
X139577835Y-78767015D01*
X139599446Y-78755464D01*
X139618388Y-78739918D01*
X139633933Y-78720977D01*
X139679684Y-78652506D01*
X139742506Y-78589684D01*
X139810977Y-78543933D01*
X139829919Y-78528387D01*
X139845464Y-78509445D01*
X139857015Y-78487835D01*
X139864128Y-78464386D01*
X139866530Y-78440000D01*
X139864128Y-78415614D01*
X139857015Y-78392165D01*
X139845464Y-78370554D01*
X139829918Y-78351612D01*
X139810977Y-78336067D01*
X139742506Y-78290316D01*
X139679684Y-78227494D01*
X139633933Y-78159023D01*
X139618387Y-78140081D01*
X139599445Y-78124536D01*
X139577835Y-78112985D01*
X139554386Y-78105872D01*
X139530000Y-78103470D01*
X139505614Y-78105872D01*
X139482165Y-78112985D01*
X139460554Y-78124536D01*
X139441612Y-78140082D01*
X139426067Y-78159023D01*
X139380316Y-78227494D01*
X139317494Y-78290316D01*
X139249023Y-78336067D01*
X139230081Y-78351613D01*
X139214536Y-78370555D01*
X139202985Y-78392165D01*
X139195872Y-78415614D01*
X139193470Y-78440000D01*
X138866530Y-78440000D01*
X138864128Y-78415614D01*
X138857015Y-78392165D01*
X138845464Y-78370554D01*
X138829918Y-78351612D01*
X138810977Y-78336067D01*
X138742506Y-78290316D01*
X138679684Y-78227494D01*
X138633933Y-78159023D01*
X138618387Y-78140081D01*
X138599445Y-78124536D01*
X138577835Y-78112985D01*
X138554386Y-78105872D01*
X138530000Y-78103470D01*
X138505614Y-78105872D01*
X138482165Y-78112985D01*
X138460554Y-78124536D01*
X138441612Y-78140082D01*
X138426067Y-78159023D01*
X138380316Y-78227494D01*
X138317494Y-78290316D01*
X138249023Y-78336067D01*
X138230081Y-78351613D01*
X138214536Y-78370555D01*
X138202985Y-78392165D01*
X138195872Y-78415614D01*
X138193470Y-78440000D01*
X137866530Y-78440000D01*
X137864128Y-78415614D01*
X137857015Y-78392165D01*
X137845464Y-78370554D01*
X137829918Y-78351612D01*
X137810977Y-78336067D01*
X137742506Y-78290316D01*
X137679684Y-78227494D01*
X137633933Y-78159023D01*
X137618387Y-78140081D01*
X137599445Y-78124536D01*
X137577835Y-78112985D01*
X137554386Y-78105872D01*
X137530000Y-78103470D01*
X137505614Y-78105872D01*
X137482165Y-78112985D01*
X137460554Y-78124536D01*
X137441612Y-78140082D01*
X137426067Y-78159023D01*
X137380316Y-78227494D01*
X137317494Y-78290316D01*
X137249023Y-78336067D01*
X137230081Y-78351613D01*
X137214536Y-78370555D01*
X137202985Y-78392165D01*
X137195872Y-78415614D01*
X137193470Y-78440000D01*
X136866530Y-78440000D01*
X136864128Y-78415614D01*
X136857015Y-78392165D01*
X136845464Y-78370554D01*
X136829918Y-78351612D01*
X136810977Y-78336067D01*
X136742506Y-78290316D01*
X136679684Y-78227494D01*
X136633933Y-78159023D01*
X136618387Y-78140081D01*
X136599445Y-78124536D01*
X136577835Y-78112985D01*
X136554386Y-78105872D01*
X136530000Y-78103470D01*
X136505614Y-78105872D01*
X136482165Y-78112985D01*
X136460554Y-78124536D01*
X136441612Y-78140082D01*
X136426067Y-78159023D01*
X136380316Y-78227494D01*
X136317494Y-78290316D01*
X136249023Y-78336067D01*
X136230081Y-78351613D01*
X136214536Y-78370555D01*
X136202985Y-78392165D01*
X136195872Y-78415614D01*
X136193470Y-78440000D01*
X135866530Y-78440000D01*
X135864128Y-78415614D01*
X135857015Y-78392165D01*
X135845464Y-78370554D01*
X135829918Y-78351612D01*
X135810977Y-78336067D01*
X135742506Y-78290316D01*
X135679685Y-78227495D01*
X135655175Y-78190813D01*
X135630329Y-78153629D01*
X135630328Y-78153627D01*
X135596331Y-78071552D01*
X135579000Y-77984421D01*
X135579000Y-77895579D01*
X135596331Y-77808448D01*
X135630328Y-77726373D01*
X135679685Y-77652505D01*
X135742506Y-77589684D01*
X135810977Y-77543933D01*
X135829919Y-77528387D01*
X135845464Y-77509445D01*
X135857015Y-77487835D01*
X135864128Y-77464386D01*
X135866530Y-77440000D01*
X136193470Y-77440000D01*
X136195872Y-77464386D01*
X136202985Y-77487835D01*
X136214536Y-77509446D01*
X136230082Y-77528388D01*
X136249023Y-77543933D01*
X136317494Y-77589684D01*
X136380316Y-77652506D01*
X136426067Y-77720977D01*
X136441613Y-77739919D01*
X136460555Y-77755464D01*
X136482165Y-77767015D01*
X136505614Y-77774128D01*
X136530000Y-77776530D01*
X136554386Y-77774128D01*
X136577835Y-77767015D01*
X136599446Y-77755464D01*
X136618388Y-77739918D01*
X136633933Y-77720977D01*
X136679684Y-77652506D01*
X136742506Y-77589684D01*
X136810977Y-77543933D01*
X136829919Y-77528387D01*
X136845464Y-77509445D01*
X136857015Y-77487835D01*
X136864128Y-77464386D01*
X136866530Y-77440000D01*
X137193470Y-77440000D01*
X137195872Y-77464386D01*
X137202985Y-77487835D01*
X137214536Y-77509446D01*
X137230082Y-77528388D01*
X137249023Y-77543933D01*
X137317494Y-77589684D01*
X137380316Y-77652506D01*
X137426067Y-77720977D01*
X137441613Y-77739919D01*
X137460555Y-77755464D01*
X137482165Y-77767015D01*
X137505614Y-77774128D01*
X137530000Y-77776530D01*
X137554386Y-77774128D01*
X137577835Y-77767015D01*
X137599446Y-77755464D01*
X137618388Y-77739918D01*
X137633933Y-77720977D01*
X137679684Y-77652506D01*
X137742506Y-77589684D01*
X137810977Y-77543933D01*
X137829919Y-77528387D01*
X137845464Y-77509445D01*
X137857015Y-77487835D01*
X137864128Y-77464386D01*
X137866530Y-77440000D01*
X138193470Y-77440000D01*
X138195872Y-77464386D01*
X138202985Y-77487835D01*
X138214536Y-77509446D01*
X138230082Y-77528388D01*
X138249023Y-77543933D01*
X138317494Y-77589684D01*
X138380316Y-77652506D01*
X138426067Y-77720977D01*
X138441613Y-77739919D01*
X138460555Y-77755464D01*
X138482165Y-77767015D01*
X138505614Y-77774128D01*
X138530000Y-77776530D01*
X138554386Y-77774128D01*
X138577835Y-77767015D01*
X138599446Y-77755464D01*
X138618388Y-77739918D01*
X138633933Y-77720977D01*
X138679684Y-77652506D01*
X138742506Y-77589684D01*
X138810977Y-77543933D01*
X138829919Y-77528387D01*
X138845464Y-77509445D01*
X138857015Y-77487835D01*
X138864128Y-77464386D01*
X138866530Y-77440000D01*
X139193470Y-77440000D01*
X139195872Y-77464386D01*
X139202985Y-77487835D01*
X139214536Y-77509446D01*
X139230082Y-77528388D01*
X139249023Y-77543933D01*
X139317494Y-77589684D01*
X139380316Y-77652506D01*
X139426067Y-77720977D01*
X139441613Y-77739919D01*
X139460555Y-77755464D01*
X139482165Y-77767015D01*
X139505614Y-77774128D01*
X139530000Y-77776530D01*
X139554386Y-77774128D01*
X139577835Y-77767015D01*
X139599446Y-77755464D01*
X139618388Y-77739918D01*
X139633933Y-77720977D01*
X139679684Y-77652506D01*
X139742506Y-77589684D01*
X139810977Y-77543933D01*
X139829919Y-77528387D01*
X139845464Y-77509445D01*
X139857015Y-77487835D01*
X139864128Y-77464386D01*
X139866530Y-77440000D01*
X139864128Y-77415614D01*
X139857015Y-77392165D01*
X139845464Y-77370554D01*
X139829918Y-77351612D01*
X139810977Y-77336067D01*
X139742506Y-77290316D01*
X139679684Y-77227494D01*
X139633933Y-77159023D01*
X139618387Y-77140081D01*
X139599445Y-77124536D01*
X139577835Y-77112985D01*
X139554386Y-77105872D01*
X139530000Y-77103470D01*
X139505614Y-77105872D01*
X139482165Y-77112985D01*
X139460554Y-77124536D01*
X139441612Y-77140082D01*
X139426067Y-77159023D01*
X139380316Y-77227494D01*
X139317494Y-77290316D01*
X139249023Y-77336067D01*
X139230081Y-77351613D01*
X139214536Y-77370555D01*
X139202985Y-77392165D01*
X139195872Y-77415614D01*
X139193470Y-77440000D01*
X138866530Y-77440000D01*
X138864128Y-77415614D01*
X138857015Y-77392165D01*
X138845464Y-77370554D01*
X138829918Y-77351612D01*
X138810977Y-77336067D01*
X138742506Y-77290316D01*
X138679684Y-77227494D01*
X138633933Y-77159023D01*
X138618387Y-77140081D01*
X138599445Y-77124536D01*
X138577835Y-77112985D01*
X138554386Y-77105872D01*
X138530000Y-77103470D01*
X138505614Y-77105872D01*
X138482165Y-77112985D01*
X138460554Y-77124536D01*
X138441612Y-77140082D01*
X138426067Y-77159023D01*
X138380316Y-77227494D01*
X138317494Y-77290316D01*
X138249023Y-77336067D01*
X138230081Y-77351613D01*
X138214536Y-77370555D01*
X138202985Y-77392165D01*
X138195872Y-77415614D01*
X138193470Y-77440000D01*
X137866530Y-77440000D01*
X137864128Y-77415614D01*
X137857015Y-77392165D01*
X137845464Y-77370554D01*
X137829918Y-77351612D01*
X137810977Y-77336067D01*
X137742506Y-77290316D01*
X137679684Y-77227494D01*
X137633933Y-77159023D01*
X137618387Y-77140081D01*
X137599445Y-77124536D01*
X137577835Y-77112985D01*
X137554386Y-77105872D01*
X137530000Y-77103470D01*
X137505614Y-77105872D01*
X137482165Y-77112985D01*
X137460554Y-77124536D01*
X137441612Y-77140082D01*
X137426067Y-77159023D01*
X137380316Y-77227494D01*
X137317494Y-77290316D01*
X137249023Y-77336067D01*
X137230081Y-77351613D01*
X137214536Y-77370555D01*
X137202985Y-77392165D01*
X137195872Y-77415614D01*
X137193470Y-77440000D01*
X136866530Y-77440000D01*
X136864128Y-77415614D01*
X136857015Y-77392165D01*
X136845464Y-77370554D01*
X136829918Y-77351612D01*
X136810977Y-77336067D01*
X136742506Y-77290316D01*
X136679684Y-77227494D01*
X136633933Y-77159023D01*
X136618387Y-77140081D01*
X136599445Y-77124536D01*
X136577835Y-77112985D01*
X136554386Y-77105872D01*
X136530000Y-77103470D01*
X136505614Y-77105872D01*
X136482165Y-77112985D01*
X136460554Y-77124536D01*
X136441612Y-77140082D01*
X136426067Y-77159023D01*
X136380316Y-77227494D01*
X136317494Y-77290316D01*
X136249023Y-77336067D01*
X136230081Y-77351613D01*
X136214536Y-77370555D01*
X136202985Y-77392165D01*
X136195872Y-77415614D01*
X136193470Y-77440000D01*
X135866530Y-77440000D01*
X135864128Y-77415614D01*
X135857015Y-77392165D01*
X135845464Y-77370554D01*
X135829918Y-77351612D01*
X135810977Y-77336067D01*
X135742506Y-77290316D01*
X135679685Y-77227495D01*
X135630328Y-77153627D01*
X135596331Y-77071552D01*
X135579000Y-76984421D01*
X135579000Y-76895579D01*
X135596331Y-76808448D01*
X135630328Y-76726373D01*
X135679685Y-76652505D01*
X135742505Y-76589685D01*
X135779187Y-76565175D01*
X135816371Y-76540329D01*
X135816373Y-76540328D01*
X135898448Y-76506331D01*
X135985579Y-76489000D01*
X136074421Y-76489000D01*
X136161552Y-76506331D01*
G37*
G36*
X125208512Y-77843927D02*
G01*
X125357812Y-77873624D01*
X125521784Y-77941544D01*
X125669354Y-78040147D01*
X125794853Y-78165646D01*
X125893456Y-78313216D01*
X125961376Y-78477188D01*
X125996000Y-78651259D01*
X125996000Y-78828741D01*
X125961376Y-79002812D01*
X125893456Y-79166784D01*
X125794853Y-79314354D01*
X125669354Y-79439853D01*
X125521784Y-79538456D01*
X125357812Y-79606376D01*
X125208512Y-79636073D01*
X125183742Y-79641000D01*
X125006258Y-79641000D01*
X124981488Y-79636073D01*
X124832188Y-79606376D01*
X124668216Y-79538456D01*
X124520646Y-79439853D01*
X124395147Y-79314354D01*
X124296544Y-79166784D01*
X124228624Y-79002812D01*
X124194000Y-78828741D01*
X124194000Y-78651259D01*
X124228624Y-78477188D01*
X124296544Y-78313216D01*
X124395147Y-78165646D01*
X124520646Y-78040147D01*
X124668216Y-77941544D01*
X124832188Y-77873624D01*
X124981488Y-77843927D01*
X125006258Y-77839000D01*
X125183742Y-77839000D01*
X125208512Y-77843927D01*
G37*
G36*
X151878512Y-77843927D02*
G01*
X152027812Y-77873624D01*
X152191784Y-77941544D01*
X152339354Y-78040147D01*
X152464853Y-78165646D01*
X152563456Y-78313216D01*
X152631376Y-78477188D01*
X152666000Y-78651259D01*
X152666000Y-78828741D01*
X152631376Y-79002812D01*
X152563456Y-79166784D01*
X152464853Y-79314354D01*
X152339354Y-79439853D01*
X152191784Y-79538456D01*
X152027812Y-79606376D01*
X151878512Y-79636073D01*
X151853742Y-79641000D01*
X151676258Y-79641000D01*
X151651488Y-79636073D01*
X151502188Y-79606376D01*
X151338216Y-79538456D01*
X151190646Y-79439853D01*
X151065147Y-79314354D01*
X150966544Y-79166784D01*
X150898624Y-79002812D01*
X150864000Y-78828741D01*
X150864000Y-78651259D01*
X150898624Y-78477188D01*
X150966544Y-78313216D01*
X151065147Y-78165646D01*
X151190646Y-78040147D01*
X151338216Y-77941544D01*
X151502188Y-77873624D01*
X151651488Y-77843927D01*
X151676258Y-77839000D01*
X151853742Y-77839000D01*
X151878512Y-77843927D01*
G37*
G36*
X122668512Y-77843927D02*
G01*
X122817812Y-77873624D01*
X122981784Y-77941544D01*
X123129354Y-78040147D01*
X123254853Y-78165646D01*
X123353456Y-78313216D01*
X123421376Y-78477188D01*
X123456000Y-78651259D01*
X123456000Y-78828741D01*
X123421376Y-79002812D01*
X123353456Y-79166784D01*
X123254853Y-79314354D01*
X123129354Y-79439853D01*
X122981784Y-79538456D01*
X122817812Y-79606376D01*
X122668512Y-79636073D01*
X122643742Y-79641000D01*
X122466258Y-79641000D01*
X122441488Y-79636073D01*
X122292188Y-79606376D01*
X122128216Y-79538456D01*
X121980646Y-79439853D01*
X121855147Y-79314354D01*
X121756544Y-79166784D01*
X121688624Y-79002812D01*
X121654000Y-78828741D01*
X121654000Y-78651259D01*
X121688624Y-78477188D01*
X121756544Y-78313216D01*
X121855147Y-78165646D01*
X121980646Y-78040147D01*
X122128216Y-77941544D01*
X122292188Y-77873624D01*
X122441488Y-77843927D01*
X122466258Y-77839000D01*
X122643742Y-77839000D01*
X122668512Y-77843927D01*
G37*
G36*
X154418512Y-77843927D02*
G01*
X154567812Y-77873624D01*
X154731784Y-77941544D01*
X154879354Y-78040147D01*
X155004853Y-78165646D01*
X155103456Y-78313216D01*
X155171376Y-78477188D01*
X155206000Y-78651259D01*
X155206000Y-78828741D01*
X155171376Y-79002812D01*
X155103456Y-79166784D01*
X155004853Y-79314354D01*
X154879354Y-79439853D01*
X154731784Y-79538456D01*
X154567812Y-79606376D01*
X154418512Y-79636073D01*
X154393742Y-79641000D01*
X154216258Y-79641000D01*
X154191488Y-79636073D01*
X154042188Y-79606376D01*
X153878216Y-79538456D01*
X153730646Y-79439853D01*
X153605147Y-79314354D01*
X153506544Y-79166784D01*
X153438624Y-79002812D01*
X153404000Y-78828741D01*
X153404000Y-78651259D01*
X153438624Y-78477188D01*
X153506544Y-78313216D01*
X153605147Y-78165646D01*
X153730646Y-78040147D01*
X153878216Y-77941544D01*
X154042188Y-77873624D01*
X154191488Y-77843927D01*
X154216258Y-77839000D01*
X154393742Y-77839000D01*
X154418512Y-77843927D01*
G37*
G36*
X125208512Y-75303927D02*
G01*
X125357812Y-75333624D01*
X125521784Y-75401544D01*
X125669354Y-75500147D01*
X125794853Y-75625646D01*
X125893456Y-75773216D01*
X125961376Y-75937188D01*
X125996000Y-76111259D01*
X125996000Y-76288741D01*
X125961376Y-76462812D01*
X125893456Y-76626784D01*
X125794853Y-76774354D01*
X125669354Y-76899853D01*
X125521784Y-76998456D01*
X125357812Y-77066376D01*
X125208512Y-77096073D01*
X125183742Y-77101000D01*
X125006258Y-77101000D01*
X124981488Y-77096073D01*
X124832188Y-77066376D01*
X124668216Y-76998456D01*
X124520646Y-76899853D01*
X124395147Y-76774354D01*
X124296544Y-76626784D01*
X124228624Y-76462812D01*
X124194000Y-76288741D01*
X124194000Y-76111259D01*
X124228624Y-75937188D01*
X124296544Y-75773216D01*
X124395147Y-75625646D01*
X124520646Y-75500147D01*
X124668216Y-75401544D01*
X124832188Y-75333624D01*
X124981488Y-75303927D01*
X125006258Y-75299000D01*
X125183742Y-75299000D01*
X125208512Y-75303927D01*
G37*
G36*
X151878512Y-75303927D02*
G01*
X152027812Y-75333624D01*
X152191784Y-75401544D01*
X152339354Y-75500147D01*
X152464853Y-75625646D01*
X152563456Y-75773216D01*
X152631376Y-75937188D01*
X152666000Y-76111259D01*
X152666000Y-76288741D01*
X152631376Y-76462812D01*
X152563456Y-76626784D01*
X152464853Y-76774354D01*
X152339354Y-76899853D01*
X152191784Y-76998456D01*
X152027812Y-77066376D01*
X151878512Y-77096073D01*
X151853742Y-77101000D01*
X151676258Y-77101000D01*
X151651488Y-77096073D01*
X151502188Y-77066376D01*
X151338216Y-76998456D01*
X151190646Y-76899853D01*
X151065147Y-76774354D01*
X150966544Y-76626784D01*
X150898624Y-76462812D01*
X150864000Y-76288741D01*
X150864000Y-76111259D01*
X150898624Y-75937188D01*
X150966544Y-75773216D01*
X151065147Y-75625646D01*
X151190646Y-75500147D01*
X151338216Y-75401544D01*
X151502188Y-75333624D01*
X151651488Y-75303927D01*
X151676258Y-75299000D01*
X151853742Y-75299000D01*
X151878512Y-75303927D01*
G37*
G36*
X122668512Y-75303927D02*
G01*
X122817812Y-75333624D01*
X122981784Y-75401544D01*
X123129354Y-75500147D01*
X123254853Y-75625646D01*
X123353456Y-75773216D01*
X123421376Y-75937188D01*
X123456000Y-76111259D01*
X123456000Y-76288741D01*
X123421376Y-76462812D01*
X123353456Y-76626784D01*
X123254853Y-76774354D01*
X123129354Y-76899853D01*
X122981784Y-76998456D01*
X122817812Y-77066376D01*
X122668512Y-77096073D01*
X122643742Y-77101000D01*
X122466258Y-77101000D01*
X122441488Y-77096073D01*
X122292188Y-77066376D01*
X122128216Y-76998456D01*
X121980646Y-76899853D01*
X121855147Y-76774354D01*
X121756544Y-76626784D01*
X121688624Y-76462812D01*
X121654000Y-76288741D01*
X121654000Y-76111259D01*
X121688624Y-75937188D01*
X121756544Y-75773216D01*
X121855147Y-75625646D01*
X121980646Y-75500147D01*
X122128216Y-75401544D01*
X122292188Y-75333624D01*
X122441488Y-75303927D01*
X122466258Y-75299000D01*
X122643742Y-75299000D01*
X122668512Y-75303927D01*
G37*
G36*
X154418512Y-75303927D02*
G01*
X154567812Y-75333624D01*
X154731784Y-75401544D01*
X154879354Y-75500147D01*
X155004853Y-75625646D01*
X155103456Y-75773216D01*
X155171376Y-75937188D01*
X155206000Y-76111259D01*
X155206000Y-76288741D01*
X155171376Y-76462812D01*
X155103456Y-76626784D01*
X155004853Y-76774354D01*
X154879354Y-76899853D01*
X154731784Y-76998456D01*
X154567812Y-77066376D01*
X154418512Y-77096073D01*
X154393742Y-77101000D01*
X154216258Y-77101000D01*
X154191488Y-77096073D01*
X154042188Y-77066376D01*
X153878216Y-76998456D01*
X153730646Y-76899853D01*
X153605147Y-76774354D01*
X153506544Y-76626784D01*
X153438624Y-76462812D01*
X153404000Y-76288741D01*
X153404000Y-76111259D01*
X153438624Y-75937188D01*
X153506544Y-75773216D01*
X153605147Y-75625646D01*
X153730646Y-75500147D01*
X153878216Y-75401544D01*
X154042188Y-75333624D01*
X154191488Y-75303927D01*
X154216258Y-75299000D01*
X154393742Y-75299000D01*
X154418512Y-75303927D01*
G37*
G36*
X125208512Y-72763927D02*
G01*
X125357812Y-72793624D01*
X125521784Y-72861544D01*
X125669354Y-72960147D01*
X125794853Y-73085646D01*
X125893456Y-73233216D01*
X125961376Y-73397188D01*
X125996000Y-73571259D01*
X125996000Y-73748741D01*
X125961376Y-73922812D01*
X125893456Y-74086784D01*
X125794853Y-74234354D01*
X125669354Y-74359853D01*
X125521784Y-74458456D01*
X125357812Y-74526376D01*
X125208512Y-74556073D01*
X125183742Y-74561000D01*
X125006258Y-74561000D01*
X124981488Y-74556073D01*
X124832188Y-74526376D01*
X124668216Y-74458456D01*
X124520646Y-74359853D01*
X124395147Y-74234354D01*
X124296544Y-74086784D01*
X124228624Y-73922812D01*
X124194000Y-73748741D01*
X124194000Y-73571259D01*
X124228624Y-73397188D01*
X124296544Y-73233216D01*
X124395147Y-73085646D01*
X124520646Y-72960147D01*
X124668216Y-72861544D01*
X124832188Y-72793624D01*
X124981488Y-72763927D01*
X125006258Y-72759000D01*
X125183742Y-72759000D01*
X125208512Y-72763927D01*
G37*
G36*
X154418512Y-72763927D02*
G01*
X154567812Y-72793624D01*
X154731784Y-72861544D01*
X154879354Y-72960147D01*
X155004853Y-73085646D01*
X155103456Y-73233216D01*
X155171376Y-73397188D01*
X155206000Y-73571259D01*
X155206000Y-73748741D01*
X155171376Y-73922812D01*
X155103456Y-74086784D01*
X155004853Y-74234354D01*
X154879354Y-74359853D01*
X154731784Y-74458456D01*
X154567812Y-74526376D01*
X154418512Y-74556073D01*
X154393742Y-74561000D01*
X154216258Y-74561000D01*
X154191488Y-74556073D01*
X154042188Y-74526376D01*
X153878216Y-74458456D01*
X153730646Y-74359853D01*
X153605147Y-74234354D01*
X153506544Y-74086784D01*
X153438624Y-73922812D01*
X153404000Y-73748741D01*
X153404000Y-73571259D01*
X153438624Y-73397188D01*
X153506544Y-73233216D01*
X153605147Y-73085646D01*
X153730646Y-72960147D01*
X153878216Y-72861544D01*
X154042188Y-72793624D01*
X154191488Y-72763927D01*
X154216258Y-72759000D01*
X154393742Y-72759000D01*
X154418512Y-72763927D01*
G37*
G36*
X151878512Y-72763927D02*
G01*
X152027812Y-72793624D01*
X152191784Y-72861544D01*
X152339354Y-72960147D01*
X152464853Y-73085646D01*
X152563456Y-73233216D01*
X152631376Y-73397188D01*
X152666000Y-73571259D01*
X152666000Y-73748741D01*
X152631376Y-73922812D01*
X152563456Y-74086784D01*
X152464853Y-74234354D01*
X152339354Y-74359853D01*
X152191784Y-74458456D01*
X152027812Y-74526376D01*
X151878512Y-74556073D01*
X151853742Y-74561000D01*
X151676258Y-74561000D01*
X151651488Y-74556073D01*
X151502188Y-74526376D01*
X151338216Y-74458456D01*
X151190646Y-74359853D01*
X151065147Y-74234354D01*
X150966544Y-74086784D01*
X150898624Y-73922812D01*
X150864000Y-73748741D01*
X150864000Y-73571259D01*
X150898624Y-73397188D01*
X150966544Y-73233216D01*
X151065147Y-73085646D01*
X151190646Y-72960147D01*
X151338216Y-72861544D01*
X151502188Y-72793624D01*
X151651488Y-72763927D01*
X151676258Y-72759000D01*
X151853742Y-72759000D01*
X151878512Y-72763927D01*
G37*
G36*
X122668512Y-72763927D02*
G01*
X122817812Y-72793624D01*
X122981784Y-72861544D01*
X123129354Y-72960147D01*
X123254853Y-73085646D01*
X123353456Y-73233216D01*
X123421376Y-73397188D01*
X123456000Y-73571259D01*
X123456000Y-73748741D01*
X123421376Y-73922812D01*
X123353456Y-74086784D01*
X123254853Y-74234354D01*
X123129354Y-74359853D01*
X122981784Y-74458456D01*
X122817812Y-74526376D01*
X122668512Y-74556073D01*
X122643742Y-74561000D01*
X122466258Y-74561000D01*
X122441488Y-74556073D01*
X122292188Y-74526376D01*
X122128216Y-74458456D01*
X121980646Y-74359853D01*
X121855147Y-74234354D01*
X121756544Y-74086784D01*
X121688624Y-73922812D01*
X121654000Y-73748741D01*
X121654000Y-73571259D01*
X121688624Y-73397188D01*
X121756544Y-73233216D01*
X121855147Y-73085646D01*
X121980646Y-72960147D01*
X122128216Y-72861544D01*
X122292188Y-72793624D01*
X122441488Y-72763927D01*
X122466258Y-72759000D01*
X122643742Y-72759000D01*
X122668512Y-72763927D01*
G37*
G36*
X155206000Y-72021000D02*
G01*
X153404000Y-72021000D01*
X153404000Y-70219000D01*
X155206000Y-70219000D01*
X155206000Y-72021000D01*
G37*
G36*
X152666000Y-72021000D02*
G01*
X150864000Y-72021000D01*
X150864000Y-70219000D01*
X152666000Y-70219000D01*
X152666000Y-72021000D01*
G37*
G36*
X125996000Y-72021000D02*
G01*
X124194000Y-72021000D01*
X124194000Y-70219000D01*
X125996000Y-70219000D01*
X125996000Y-72021000D01*
G37*
G36*
X123456000Y-72021000D02*
G01*
X121654000Y-72021000D01*
X121654000Y-70219000D01*
X123456000Y-70219000D01*
X123456000Y-72021000D01*
G37*
M02*
